# 3ds Max Wavefront OBJ Exporter v0.97b - (c)2007 guruware
# File Created: 24.01.2019 18:22:55

#
# object SM_WH_Pipe_Holder
#

v  -3.0921 -5.5808 -4.3724
v  3.0921 -5.5808 -4.3724
v  3.0921 -5.5814 -0.4268
v  -3.0921 -5.5814 -0.4268
v  3.0921 -3.9471 3.5189
v  -3.0921 -3.9471 3.5189
v  3.0921 -1.2877 5.0193
v  -3.0921 -1.2877 5.0193
v  -3.0921 1.2849 5.0193
v  3.0921 1.2849 5.0193
v  3.0921 3.9442 3.5189
v  -3.0921 3.9442 3.5189
v  3.0921 5.5786 -0.4268
v  -3.0921 5.5786 -0.4268
v  3.0921 5.5786 -4.3724
v  -3.0921 5.5786 -4.3724
v  -3.0921 -9.5755 -4.3724
v  3.0921 -9.5755 -4.3724
v  3.0921 9.5754 -4.3724
v  -3.0921 9.5754 -4.3724
v  3.0921 -5.0989 -5.0194
v  3.0921 -5.0994 -0.5636
v  -3.0921 -5.0994 -0.5636
v  -3.0921 -5.0989 -5.0194
v  3.0921 -3.6062 2.8719
v  -3.0921 -3.6062 2.8719
v  3.0921 -1.2694 4.3302
v  -3.0921 -1.2694 4.3302
v  3.0921 1.2666 4.3302
v  3.0921 3.6035 2.8719
v  -3.0921 3.6035 2.8719
v  -3.0921 1.2666 4.3302
v  3.0921 5.0966 -0.5636
v  -3.0921 5.0966 -0.5636
v  3.0921 5.0966 -5.0194
v  -3.0921 5.0966 -5.0194
v  -3.0921 -9.5755 -5.0194
v  3.0921 -9.5755 -5.0194
v  3.0921 9.5754 -5.0194
v  -3.0921 9.5754 -5.0194
# 40 vertices

vn 0.0000 -1.0000 -0.0002
vn 0.0000 -0.9808 0.1950
vn 0.0000 -0.7486 0.6631
vn 0.0000 -0.2540 0.9672
vn 0.0000 0.2540 0.9672
vn 0.0000 0.7486 0.6631
vn 0.0000 0.9808 0.1951
vn 0.0000 1.0000 -0.0000
vn 0.0000 0.0000 1.0000
vn 1.0000 0.0000 0.0000
vn -1.0000 0.0000 0.0000
vn 0.0000 -1.0000 0.0000
vn 0.0000 1.0000 0.0000
# 13 vertex normals

vt 0.3008 0.7819 0.0000
vt 0.3127 0.7819 0.0000
vt 0.3127 0.7895 0.0000
vt 0.3008 0.7895 0.0000
vt 0.3127 0.7977 0.0000
vt 0.3008 0.7977 0.0000
vt 0.3127 0.8036 0.0000
vt 0.3008 0.8036 0.0000
vt 0.3008 0.8085 0.0000
vt 0.3127 0.8085 0.0000
vt 0.3127 0.8144 0.0000
vt 0.3008 0.8144 0.0000
vt 0.3127 0.8227 0.0000
vt 0.3008 0.8227 0.0000
vt 0.3127 0.8303 0.0000
vt 0.3008 0.8303 0.0000
vt 0.3008 0.7742 0.0000
vt 0.3127 0.7742 0.0000
vt 0.3127 0.8380 0.0000
vt 0.3008 0.8380 0.0000
vt 0.9782 0.2317 0.0000
vt 0.9858 0.2317 0.0000
vt 0.9871 0.2327 0.0000
vt 0.9785 0.2327 0.0000
vt 0.9456 0.0194 0.0000
vt 0.9532 0.0197 0.0000
vt 0.9529 0.0206 0.0000
vt 0.9443 0.0203 0.0000
vt 0.9706 0.2349 0.0000
vt 0.9719 0.2355 0.0000
vt 0.9606 0.0231 0.0000
vt 0.9594 0.0237 0.0000
vt 0.9677 0.2400 0.0000
vt 0.9691 0.2400 0.0000
vt 0.9635 0.0282 0.0000
vt 0.9622 0.0282 0.0000
vt 0.9706 0.2501 0.0000
vt 0.9677 0.2450 0.0000
vt 0.9691 0.2449 0.0000
vt 0.9719 0.2494 0.0000
vt 0.9635 0.0332 0.0000
vt 0.9606 0.0383 0.0000
vt 0.9594 0.0376 0.0000
vt 0.9622 0.0331 0.0000
vt 0.9782 0.2532 0.0000
vt 0.9785 0.2523 0.0000
vt 0.9530 0.0413 0.0000
vt 0.9527 0.0404 0.0000
vt 0.9858 0.2532 0.0000
vt 0.9871 0.2523 0.0000
vt 0.9454 0.0412 0.0000
vt 0.9441 0.0402 0.0000
vt 0.2995 0.7828 0.0000
vt 0.2995 0.7742 0.0000
vt 0.3140 0.7742 0.0000
vt 0.3140 0.7828 0.0000
vt 0.3008 0.7729 0.0000
vt 0.3127 0.7729 0.0000
vt 0.3140 0.8293 0.0000
vt 0.3140 0.8380 0.0000
vt 0.2996 0.8380 0.0000
vt 0.2996 0.8293 0.0000
vt 0.3127 0.8392 0.0000
vt 0.3008 0.8392 0.0000
# 64 texture coords

g SM_WH_Pipe_Holder
s 2
f 1/1/1 2/2/1 3/3/2 
f 3/3/2 4/4/2 1/1/1 
f 4/4/2 3/3/2 5/5/3 
f 5/5/3 6/6/3 4/4/2 
f 6/6/3 5/5/3 7/7/4 
f 7/7/4 8/8/4 6/6/3 
f 9/9/5 10/10/5 11/11/6 
f 11/11/6 12/12/6 9/9/5 
f 12/12/6 11/11/6 13/13/7 
f 13/13/7 14/14/7 12/12/6 
f 14/14/7 13/13/7 15/15/8 
f 15/15/8 16/16/8 14/14/7 
s 8
f 2/2/9 1/1/9 17/17/9 
f 17/17/9 18/18/9 2/2/9 
f 16/16/9 15/15/9 19/19/9 
f 19/19/9 20/20/9 16/16/9 
s 4
f 3/21/10 2/22/10 21/23/10 
f 21/23/10 22/24/10 3/21/10 
f 1/25/11 4/26/11 23/27/11 
f 23/27/11 24/28/11 1/25/11 
f 5/29/10 3/21/10 22/24/10 
f 22/24/10 25/30/10 5/29/10 
f 4/26/11 6/31/11 26/32/11 
f 26/32/11 23/27/11 4/26/11 
f 7/33/10 5/29/10 25/30/10 
f 25/30/10 27/34/10 7/33/10 
f 6/31/11 8/35/11 28/36/11 
f 28/36/11 26/32/11 6/31/11 
f 11/37/10 10/38/10 29/39/10 
f 29/39/10 30/40/10 11/37/10 
f 9/41/11 12/42/11 31/43/11 
f 31/43/11 32/44/11 9/41/11 
f 13/45/10 11/37/10 30/40/10 
f 30/40/10 33/46/10 13/45/10 
f 12/42/11 14/47/11 34/48/11 
f 34/48/11 31/43/11 12/42/11 
f 15/49/10 13/45/10 33/46/10 
f 33/46/10 35/50/10 15/49/10 
f 14/47/11 16/51/11 36/52/11 
f 36/52/11 34/48/11 14/47/11 
f 17/17/11 1/1/11 24/53/11 
f 24/53/11 37/54/11 17/17/11 
f 2/2/10 18/18/10 38/55/10 
f 38/55/10 21/56/10 2/2/10 
s 1
f 18/18/12 17/17/12 37/57/12 
f 37/57/12 38/58/12 18/18/12 
s 4
f 19/19/10 15/15/10 35/59/10 
f 35/59/10 39/60/10 19/19/10 
f 16/16/11 20/20/11 40/61/11 
f 40/61/11 36/62/11 16/16/11 
s 1
f 20/20/13 19/19/13 39/63/13 
f 39/63/13 40/64/13 20/20/13 
s 2
f 7/7/4 10/10/5 9/9/5 
f 9/9/5 8/8/4 7/7/4 
s 4
f 10/38/10 7/33/10 27/34/10 
f 27/34/10 29/39/10 10/38/10 
f 8/35/11 9/41/11 32/44/11 
f 32/44/11 28/36/11 8/35/11 
# 58 faces

