# 3ds Max Wavefront OBJ Exporter v0.97b - (c)2007 guruware
# File Created: 24.01.2019 18:22:00

#
# object SM_WH_Pipe_06
#

v  15.0015 -4.7933 -4.5664
v  15.0015 -8.0222 -3.2289
v  9.1243 -8.0222 -3.2289
v  9.1243 -4.7933 -4.5664
v  14.9451 -9.3597 0.0000
v  9.1243 -9.3597 0.0000
v  14.9451 -8.0222 3.2290
v  9.1243 -8.0222 3.2290
v  15.0015 -4.7933 4.5664
v  9.1243 -4.7933 4.5664
v  15.0015 -1.5644 3.2290
v  9.1243 -1.5644 3.2290
v  15.0015 -0.2269 0.0000
v  9.1243 -0.2269 0.0000
v  15.0015 -1.5643 -3.2289
v  9.1243 -1.5643 -3.2289
v  9.1243 -7.4015 -2.6082
v  9.1243 -4.7933 -3.6885
v  9.1243 -2.1851 -2.6082
v  9.1243 -1.1047 0.0000
v  9.1243 -2.1851 2.6083
v  9.1243 -4.7933 3.6886
v  9.1243 -7.4015 2.6083
v  9.1243 -8.4819 0.0000
v  0.0000 -4.7933 -3.6885
v  2.6722 -2.1851 2.6083
v  0.0000 -4.7933 3.6886
v  2.6264 -2.1851 -2.6082
v  0.0000 3.4825 -3.6375
v  2.5591 3.4825 -2.6082
v  3.6956 -1.1047 0.0000
v  3.6395 3.4825 0.0000
v  2.5591 3.4825 2.6083
v  4.5266 9.3597 0.0000
v  4.5266 3.4825 0.0000
v  3.1875 3.4825 -3.2329
v  3.1875 9.3597 -3.2329
v  3.1875 9.3596 3.2329
v  3.1875 3.4825 3.2329
v  -0.0000 9.3596 4.5246
v  -0.0000 3.4825 4.5246
v  -0.0000 3.4825 3.6376
v  14.9876 -4.7933 0.0000
v  0.0000 3.4825 -4.5245
v  -0.0000 9.3596 -4.5245
v  -15.0015 -4.7933 -4.5664
v  -9.1243 -4.7933 -4.5664
v  -9.1243 -8.0222 -3.2289
v  -15.0015 -8.0222 -3.2289
v  -9.1243 -9.3597 0.0000
v  -14.9451 -9.3597 0.0000
v  -9.1243 -8.0222 3.2290
v  -14.9451 -8.0222 3.2289
v  -9.1243 -4.7933 4.5664
v  -15.0015 -4.7933 4.5664
v  -9.1243 -1.5644 3.2289
v  -15.0015 -1.5644 3.2289
v  -9.1243 -0.2269 0.0000
v  -15.0015 -0.2269 0.0000
v  -9.1243 -1.5643 -3.2289
v  -15.0015 -1.5643 -3.2289
v  -9.1243 -4.7933 -3.6885
v  -9.1243 -7.4015 -2.6082
v  -9.1243 -2.1851 -2.6082
v  -9.1243 -1.1047 0.0000
v  -9.1243 -2.1851 2.6083
v  -9.1243 -4.7933 3.6886
v  -9.1243 -7.4015 2.6083
v  -9.1243 -8.4819 0.0000
v  -2.6722 -2.1851 2.6083
v  -2.6264 -2.1851 -2.6082
v  -2.5591 3.4825 -2.6082
v  -3.6956 -1.1047 0.0000
v  -3.6395 3.4825 0.0000
v  -2.5591 3.4825 2.6083
v  -4.5266 9.3597 0.0000
v  -3.1875 9.3597 -3.2329
v  -3.1875 3.4825 -3.2329
v  -4.5266 3.4825 0.0000
v  -3.1875 9.3596 3.2329
v  -3.1875 3.4825 3.2329
v  -14.9876 -4.7933 0.0000
# 82 vertices

vn 0.0000 0.0000 -1.0000
vn 0.0000 -0.7056 -0.7086
vn 0.0000 -0.7071 -0.7071
vn 0.0000 -1.0000 -0.0021
vn 0.0000 -1.0000 0.0000
vn 0.0000 -0.7056 0.7086
vn -0.0000 -0.7071 0.7071
vn 0.0000 0.0021 1.0000
vn 0.0000 0.0000 1.0000
vn -0.0000 0.7071 0.7071
vn 0.0000 0.7071 0.7071
vn -0.0000 1.0000 0.0000
vn 0.0000 0.7071 -0.7071
vn -1.0000 -0.0000 -0.0000
vn -1.0000 0.0000 -0.0000
vn -1.0000 0.0000 0.0000
vn -1.0000 -0.0000 0.0000
vn -0.0000 0.0000 -1.0000
vn -0.0000 -0.7071 -0.7071
vn 0.0000 -0.1287 -0.9917
vn 0.0000 0.6109 0.7917
vn -0.0000 -0.1306 0.9914
vn 0.6063 0.0079 -0.7952
vn -0.0000 0.0062 -1.0000
vn -0.0000 0.0052 -1.0000
vn 0.7019 0.0084 -0.7122
vn 0.9999 0.0149 -0.0041
vn 0.9999 0.0122 -0.0000
vn 0.7024 0.0115 0.7117
vn 0.6078 0.0112 0.7940
vn 1.0000 0.0000 -0.0000
vn 1.0000 0.0000 0.0000
vn 0.7044 -0.0000 -0.7098
vn 0.7044 0.0000 0.7098
vn -0.0000 0.0000 1.0000
vn 0.0000 -1.0000 -0.0000
vn -0.0000 1.0000 -0.0000
vn -0.0000 1.0000 -0.0015
vn -0.0000 0.6097 -0.7926
vn 1.0000 -0.0040 0.0083
vn 1.0000 0.0000 0.0030
vn 1.0000 -0.0053 0.0022
vn 0.9999 -0.0093 0.0087
vn 0.9999 -0.0128 0.0004
vn 1.0000 -0.0087 -0.0030
vn 1.0000 -0.0022 -0.0022
vn 1.0000 -0.0030 0.0000
vn 1.0000 -0.0022 0.0022
vn -0.0000 0.0075 1.0000
vn -0.0000 0.0062 1.0000
vn 0.0000 -0.0000 -1.0000
vn -0.0000 -0.7056 0.7086
vn -0.0000 0.0021 1.0000
vn 1.0000 -0.0000 -0.0000
vn 1.0000 -0.0000 0.0000
vn -0.0000 0.6109 0.7917
vn 0.0000 -0.7071 0.7071
vn -0.6063 0.0079 -0.7952
vn -0.7019 0.0084 -0.7122
vn -0.9999 0.0149 -0.0041
vn -0.9999 0.0122 -0.0000
vn -0.6078 0.0112 0.7940
vn -0.7024 0.0115 0.7117
vn -0.7044 -0.0000 -0.7098
vn -0.7044 0.0000 0.7098
vn 0.0000 0.6097 -0.7926
vn -1.0000 -0.0040 0.0083
vn -1.0000 -0.0053 0.0022
vn -1.0000 -0.0000 0.0030
vn -0.9999 -0.0093 0.0087
vn -0.9999 -0.0128 0.0004
vn -1.0000 -0.0087 -0.0030
vn -1.0000 -0.0022 -0.0022
vn -1.0000 -0.0030 -0.0000
vn -1.0000 -0.0022 0.0022
# 75 vertex normals

vt 0.7130 0.3903 0.0000
vt 0.7028 0.3903 0.0000
vt 0.7028 0.3731 0.0000
vt 0.7130 0.3731 0.0000
vt 0.6926 0.3901 0.0000
vt 0.6926 0.3731 0.0000
vt 0.6825 0.3901 0.0000
vt 0.6825 0.3731 0.0000
vt 0.6723 0.3903 0.0000
vt 0.6723 0.3731 0.0000
vt 0.6621 0.3903 0.0000
vt 0.6621 0.3731 0.0000
vt 0.6519 0.3903 0.0000
vt 0.6519 0.3731 0.0000
vt 0.7334 0.3903 0.0000
vt 0.7232 0.3903 0.0000
vt 0.7232 0.3731 0.0000
vt 0.7334 0.3731 0.0000
vt 0.5989 0.9527 0.0000
vt 0.5971 0.9509 0.0000
vt 0.6002 0.9433 0.0000
vt 0.6028 0.9433 0.0000
vt 0.5971 0.9357 0.0000
vt 0.5989 0.9339 0.0000
vt 0.5895 0.9325 0.0000
vt 0.5895 0.9300 0.0000
vt 0.5819 0.9357 0.0000
vt 0.5800 0.9339 0.0000
vt 0.5787 0.9433 0.0000
vt 0.5761 0.9433 0.0000
vt 0.5819 0.9509 0.0000
vt 0.5800 0.9527 0.0000
vt 0.5895 0.9540 0.0000
vt 0.5895 0.9566 0.0000
vt 0.8973 0.8621 0.0000
vt 0.8917 0.8621 0.0000
vt 0.8973 0.8441 0.0000
vt 0.8750 0.8621 0.0000
vt 0.8695 0.8621 0.0000
vt 0.8695 0.8494 0.0000
vt 0.8750 0.8441 0.0000
vt 0.9561 0.5412 0.0000
vt 0.9506 0.5464 0.0000
vt 0.9504 0.5301 0.0000
vt 0.9559 0.5300 0.0000
vt 0.9616 0.5389 0.0000
vt 0.9614 0.5299 0.0000
vt 0.9670 0.5297 0.0000
vt 0.9672 0.5409 0.0000
vt 0.5896 0.6357 0.0000
vt 0.5896 0.6186 0.0000
vt 0.5998 0.6186 0.0000
vt 0.5998 0.6357 0.0000
vt 0.5794 0.6357 0.0000
vt 0.5794 0.6186 0.0000
vt 0.5694 0.6357 0.0000
vt 0.5694 0.6186 0.0000
vt 0.5422 0.9441 0.0000
vt 0.5422 0.9467 0.0000
vt 0.5347 0.9497 0.0000
vt 0.5329 0.9479 0.0000
vt 0.5316 0.9573 0.0000
vt 0.5290 0.9573 0.0000
vt 0.5347 0.9649 0.0000
vt 0.5329 0.9668 0.0000
vt 0.8639 0.8621 0.0000
vt 0.8639 0.8514 0.0000
vt 0.9084 0.8621 0.0000
vt 0.9028 0.8621 0.0000
vt 0.9028 0.8493 0.0000
vt 0.9084 0.8514 0.0000
vt 0.7074 0.9857 0.0000
vt 0.7035 0.9763 0.0000
vt 0.7168 0.9763 0.0000
vt 0.7168 0.9896 0.0000
vt 0.7263 0.9857 0.0000
vt 0.7301 0.9763 0.0000
vt 0.7263 0.9669 0.0000
vt 0.7168 0.9630 0.0000
vt 0.7074 0.9669 0.0000
vt 0.9724 0.5295 0.0000
vt 0.9731 0.5458 0.0000
vt 0.6099 0.6186 0.0000
vt 0.6099 0.6357 0.0000
vt 0.5422 0.9705 0.0000
vt 0.5422 0.9679 0.0000
vt 0.1331 0.9023 0.0000
vt 0.1160 0.9023 0.0000
vt 0.1160 0.8921 0.0000
vt 0.1331 0.8921 0.0000
vt 0.1160 0.8819 0.0000
vt 0.1329 0.8819 0.0000
vt 0.1160 0.8717 0.0000
vt 0.1329 0.8717 0.0000
vt 0.1160 0.8615 0.0000
vt 0.1331 0.8615 0.0000
vt 0.1160 0.8513 0.0000
vt 0.1331 0.8513 0.0000
vt 0.1160 0.8411 0.0000
vt 0.1331 0.8411 0.0000
vt 0.1331 0.9226 0.0000
vt 0.1160 0.9226 0.0000
vt 0.1160 0.9124 0.0000
vt 0.1331 0.9124 0.0000
vt 0.6838 0.9669 0.0000
vt 0.6877 0.9763 0.0000
vt 0.6851 0.9763 0.0000
vt 0.6820 0.9687 0.0000
vt 0.6838 0.9857 0.0000
vt 0.6820 0.9839 0.0000
vt 0.6744 0.9896 0.0000
vt 0.6744 0.9871 0.0000
vt 0.6650 0.9857 0.0000
vt 0.6668 0.9839 0.0000
vt 0.6611 0.9763 0.0000
vt 0.6636 0.9763 0.0000
vt 0.6650 0.9669 0.0000
vt 0.6668 0.9687 0.0000
vt 0.6744 0.9630 0.0000
vt 0.6744 0.9656 0.0000
vt 0.8973 0.8262 0.0000
vt 0.8917 0.8262 0.0000
vt 0.8750 0.8262 0.0000
vt 0.8695 0.8389 0.0000
vt 0.8695 0.8262 0.0000
vt 0.8806 0.8262 0.0000
vt 0.8862 0.8621 0.0000
vt 0.8806 0.8621 0.0000
vt 0.8862 0.8262 0.0000
vt 0.9450 0.5413 0.0000
vt 0.9450 0.5301 0.0000
vt 0.9394 0.5391 0.0000
vt 0.9395 0.5301 0.0000
vt 0.9839 0.5380 0.0000
vt 0.9785 0.5404 0.0000
vt 0.9778 0.5293 0.0000
vt 0.9833 0.5290 0.0000
vt 0.5492 0.6357 0.0000
vt 0.5390 0.6357 0.0000
vt 0.5390 0.6186 0.0000
vt 0.5492 0.6186 0.0000
vt 0.5594 0.6357 0.0000
vt 0.5594 0.6186 0.0000
vt 0.5515 0.9479 0.0000
vt 0.5496 0.9497 0.0000
vt 0.5554 0.9573 0.0000
vt 0.5528 0.9573 0.0000
vt 0.5515 0.9668 0.0000
vt 0.5496 0.9649 0.0000
vt 0.8639 0.8369 0.0000
vt 0.8639 0.8262 0.0000
vt 0.9084 0.8262 0.0000
vt 0.9084 0.8369 0.0000
vt 0.9028 0.8390 0.0000
vt 0.9028 0.8262 0.0000
vt 0.6413 0.9527 0.0000
vt 0.6319 0.9433 0.0000
vt 0.6452 0.9433 0.0000
vt 0.6319 0.9566 0.0000
vt 0.6225 0.9527 0.0000
vt 0.6186 0.9433 0.0000
vt 0.6225 0.9339 0.0000
vt 0.6319 0.9300 0.0000
vt 0.6413 0.9339 0.0000
vt 0.5290 0.6357 0.0000
vt 0.5290 0.6186 0.0000
# 166 texture coords

g SM_WH_Pipe_06
s 1
f 1/1/1 2/2/2 3/3/3 
f 3/3/3 4/4/1 1/1/1 
f 2/2/2 5/5/4 6/6/5 
f 6/6/5 3/3/3 2/2/2 
f 5/5/4 7/7/6 8/8/7 
f 8/8/7 6/6/5 5/5/4 
f 7/7/6 9/9/8 10/10/9 
f 10/10/9 8/8/7 7/7/6 
f 9/9/8 11/11/10 12/12/11 
f 12/12/11 10/10/9 9/9/8 
f 11/11/10 13/13/12 14/14/12 
f 14/14/12 12/12/11 11/11/10 
f 13/15/12 15/16/13 16/17/13 
f 16/17/13 14/18/12 13/15/12 
f 15/16/13 1/1/1 4/4/1 
f 4/4/1 16/17/13 15/16/13 
s 2
f 3/19/14 17/20/14 18/21/14 
f 18/21/14 4/22/14 3/19/14 
f 4/22/14 18/21/14 19/23/15 
f 19/23/15 16/24/15 4/22/14 
f 16/24/15 19/23/15 20/25/15 
f 20/25/15 14/26/15 16/24/15 
f 14/26/15 20/25/15 21/27/16 
f 21/27/16 12/28/16 14/26/15 
f 12/28/16 21/27/16 22/29/17 
f 22/29/17 10/30/17 12/28/16 
f 10/30/17 22/29/17 23/31/17 
f 23/31/17 8/32/17 10/30/17 
f 8/32/17 23/31/17 24/33/14 
f 24/33/14 6/34/14 8/32/17 
f 6/34/14 24/33/14 17/20/14 
f 17/20/14 3/19/14 6/34/14 
s 16
f 18/35/18 17/36/19 25/37/20 
f 22/38/9 21/39/10 26/40/21 
f 26/40/21 27/41/22 22/38/9 
s 1
f 28/42/23 25/43/24 29/44/25 
f 29/44/25 30/45/26 28/42/23 
f 31/46/27 28/42/23 30/45/26 
f 30/45/26 32/47/28 31/46/27 
f 31/46/27 32/47/28 33/48/29 
f 33/48/29 26/49/30 31/46/27 
f 34/50/31 35/51/32 36/52/33 
f 36/52/33 37/53/33 34/50/31 
f 38/54/34 39/55/34 35/51/32 
f 35/51/32 34/50/31 38/54/34 
f 40/56/35 41/57/35 39/55/34 
f 39/55/34 38/54/34 40/56/35 
s 8
f 41/58/36 42/59/36 33/60/36 
f 33/60/36 39/61/36 41/58/36 
f 39/61/36 33/60/36 32/62/36 
f 32/62/36 35/63/36 39/61/36 
f 35/63/36 32/62/36 30/64/36 
f 30/64/36 36/65/36 35/63/36 
s 16
f 21/39/10 20/66/37 31/67/38 
f 31/67/38 26/40/21 21/39/10 
f 20/68/37 19/69/13 28/70/39 
f 28/70/39 31/71/38 20/68/37 
f 28/70/39 19/69/13 18/35/18 
f 18/35/18 25/37/20 28/70/39 
s 8
f 2/72/40 1/73/41 43/74/42 
f 5/75/43 2/72/40 43/74/42 
f 7/76/44 5/75/43 43/74/42 
f 9/77/45 7/76/44 43/74/42 
f 11/78/46 9/77/45 43/74/42 
f 13/79/47 11/78/46 43/74/42 
f 15/80/48 13/79/47 43/74/42 
f 1/73/41 15/80/48 43/74/42 
s 1
f 26/49/30 33/48/29 42/81/49 
f 42/81/49 27/82/50 26/49/30 
f 37/53/33 36/52/33 44/83/51 
f 44/83/51 45/84/51 37/53/33 
s 8
f 44/85/36 36/65/36 30/64/36 
f 30/64/36 29/86/36 44/85/36 
s 1
f 46/87/1 47/88/1 48/89/3 
f 48/89/3 49/90/2 46/87/1 
f 49/90/2 48/89/3 50/91/5 
f 50/91/5 51/92/4 49/90/2 
f 51/92/4 50/91/5 52/93/7 
f 52/93/7 53/94/52 51/92/4 
f 53/94/52 52/93/7 54/95/35 
f 54/95/35 55/96/53 53/94/52 
f 55/96/53 54/95/35 56/97/10 
f 56/97/10 57/98/10 55/96/53 
f 57/98/10 56/97/10 58/99/12 
f 58/99/12 59/100/12 57/98/10 
f 59/101/12 58/102/12 60/103/13 
f 60/103/13 61/104/13 59/101/12 
f 61/104/13 60/103/13 47/88/1 
f 47/88/1 46/87/1 61/104/13 
s 8
f 48/105/54 47/106/31 62/107/31 
f 62/107/31 63/108/54 48/105/54 
f 47/106/31 60/109/31 64/110/31 
f 64/110/31 62/107/31 47/106/31 
f 60/109/31 58/111/32 65/112/32 
f 65/112/32 64/110/31 60/109/31 
f 58/111/32 56/113/32 66/114/32 
f 66/114/32 65/112/32 58/111/32 
f 56/113/32 54/115/32 67/116/32 
f 67/116/32 66/114/32 56/113/32 
f 54/115/32 52/117/55 68/118/55 
f 68/118/55 67/116/32 54/115/32 
f 52/117/55 50/119/55 69/120/55 
f 69/120/55 68/118/55 52/117/55 
f 50/119/55 48/105/54 63/108/54 
f 63/108/54 69/120/55 50/119/55 
s 16
f 62/121/1 25/37/20 63/122/3 
f 67/123/35 27/41/22 70/124/56 
f 70/124/56 66/125/10 67/123/35 
f 68/126/7 27/41/22 67/123/35 
f 24/127/36 23/128/57 68/126/7 
f 68/126/7 69/129/36 24/127/36 
f 17/36/19 24/127/36 69/129/36 
f 69/129/36 63/122/3 17/36/19 
s 1
f 71/130/58 72/131/59 29/44/25 
f 29/44/25 25/43/24 71/130/58 
f 73/132/60 74/133/61 72/131/59 
f 72/131/59 71/130/58 73/132/60 
f 73/134/60 70/135/62 75/136/63 
f 75/136/63 74/137/61 73/134/60 
f 76/138/14 77/139/64 78/140/64 
f 78/140/64 79/141/17 76/138/14 
f 80/142/65 76/138/14 79/141/17 
f 79/141/17 81/143/65 80/142/65 
f 40/56/35 80/142/65 81/143/65 
f 81/143/65 41/57/35 40/56/35 
s 8
f 41/58/36 81/144/36 75/145/36 
f 75/145/36 42/59/36 41/58/36 
f 81/144/36 79/146/36 74/147/36 
f 74/147/36 75/145/36 81/144/36 
f 79/146/36 78/148/36 72/149/36 
f 72/149/36 74/147/36 79/146/36 
s 16
f 66/125/10 70/124/56 73/150/38 
f 73/150/38 65/151/37 66/125/10 
f 65/152/37 73/153/38 71/154/66 
f 71/154/66 64/155/13 65/152/37 
f 71/154/66 25/37/20 62/121/1 
f 62/121/1 64/155/13 71/154/66 
s 8
f 49/156/67 82/157/68 46/158/69 
f 51/159/70 82/157/68 49/156/67 
f 53/160/71 82/157/68 51/159/70 
f 55/161/72 82/157/68 53/160/71 
f 57/162/73 82/157/68 55/161/72 
f 59/163/74 82/157/68 57/162/73 
f 61/164/75 82/157/68 59/163/74 
f 46/158/69 82/157/68 61/164/75 
s 1
f 70/135/62 27/82/50 42/81/49 
f 42/81/49 75/136/63 70/135/62 
f 77/139/64 45/165/51 44/166/51 
f 44/166/51 78/140/64 77/139/64 
s 8
f 44/85/36 29/86/36 72/149/36 
f 72/149/36 78/148/36 44/85/36 
s 16
f 23/128/57 22/38/9 27/41/22 
f 68/126/7 23/128/57 27/41/22 
f 25/37/20 17/36/19 63/122/3 
# 154 faces

