# 3ds Max Wavefront OBJ Exporter v0.97b - (c)2007 guruware
# File Created: 24.01.2019 18:22:11

#
# object SM_WH_Pipe_04
#

v  -0.2054 7.8401 -0.0000
v  -5.4420 7.9395 -0.0000
v  -5.4420 9.0640 -2.7141
v  0.5097 8.9648 -2.7090
v  -5.4420 11.7780 -3.8383
v  1.9715 11.7780 -3.4097
v  3.5160 14.4920 -2.7141
v  -5.4420 14.4920 -2.7141
v  -5.4420 15.6162 -0.0000
v  4.0604 15.6162 -0.0000
v  0.2646 7.4398 -0.0000
v  1.2609 8.0077 -2.7375
v  1.2607 -4.4766 -2.4053
v  0.2644 -4.4766 -0.0000
v  3.7273 9.5959 -3.3666
v  3.6660 -4.4766 -3.4017
v  6.0714 10.8858 -2.7583
v  6.0713 -4.4766 -2.7199
v  7.0677 11.7518 -0.0000
v  7.0677 -4.4766 -0.0000
v  6.3055 14.1328 -0.0000
v  5.2261 12.9483 -2.7567
v  -5.4420 6.6056 -0.0000
v  -5.4420 8.1213 -3.6585
v  -5.4420 11.7797 -5.1740
v  -5.4420 15.4382 -3.6585
v  -5.4420 16.9537 -0.0000
v  -7.0677 6.6056 -0.0000
v  -7.0677 8.1213 -3.6585
v  -7.0677 11.7797 -5.1740
v  -7.0677 15.4382 -3.6585
v  -7.0677 16.9537 -0.0000
v  1.7385 -4.4766 -1.9269
v  0.9404 -4.4766 -0.0000
v  3.6654 -4.4766 -2.7251
v  5.5923 -4.4766 -1.9269
v  6.3905 -4.4766 -0.0000
v  1.7385 -9.0137 -1.9269
v  0.9404 -9.0137 -0.0000
v  3.6654 -9.0137 -2.7251
v  5.5923 -9.0137 -1.9269
v  6.3905 -9.0137 -0.0000
v  1.2602 -16.9533 -2.4053
v  0.2639 -16.9533 -0.0000
v  0.2640 -9.0139 -0.0000
v  1.2603 -9.0139 -2.4053
v  3.6655 -16.9533 -3.4015
v  3.6799 -9.0139 -3.4015
v  6.0709 -16.9533 -2.4053
v  6.0709 -9.0139 -2.4053
v  7.0672 -16.9533 -0.0000
v  7.0672 -9.0139 -0.0000
v  3.1510 11.0375 -3.4268
v  0.5097 8.9648 2.7089
v  -5.4420 9.0640 2.7140
v  1.9715 11.7780 3.4096
v  -5.4420 11.7780 3.8382
v  3.5160 14.4920 2.7140
v  -5.4420 14.4920 2.7140
v  1.2607 -4.4766 2.4053
v  1.2609 8.0077 2.7374
v  3.6660 -4.4766 3.4016
v  3.7273 9.5959 3.3665
v  6.0713 -4.4766 2.7199
v  6.0714 10.8858 2.7582
v  5.2261 12.9483 2.7566
v  -5.4420 8.1213 3.6585
v  -5.4420 11.7797 5.1739
v  -5.4420 15.4382 3.6585
v  -7.0677 8.1213 3.6585
v  -7.0677 11.7797 5.1739
v  -7.0677 15.4382 3.6585
v  1.7385 -4.4766 1.9269
v  3.6654 -4.4766 2.7250
v  5.5923 -4.4766 1.9269
v  1.7385 -9.0137 1.9269
v  3.6654 -9.0137 2.7250
v  5.5923 -9.0137 1.9269
v  1.2602 -16.9533 2.4053
v  1.2603 -9.0139 2.4053
v  3.6655 -16.9533 3.4014
v  3.6800 -9.0139 3.4014
v  6.0709 -16.9533 2.4053
v  6.0709 -9.0139 2.4053
v  3.1510 11.0375 3.4267
v  3.6654 -16.9537 -0.0000
# 86 vertices

vn -0.3595 -0.9332 0.0000
vn -0.0190 -0.9998 0.0000
vn -0.0120 -0.7044 -0.7097
vn -0.2212 -0.4869 -0.8450
vn 0.0123 -0.3500 -0.9367
vn -0.0484 -0.2177 -0.9748
vn 0.2130 0.6425 -0.7361
vn 0.0224 0.6954 -0.7183
vn 0.0000 1.0000 0.0000
vn 0.2983 0.9545 -0.0000
vn -0.9101 -0.4144 -0.0000
vn -0.5456 -0.1805 -0.8184
vn -0.7125 -0.0139 -0.7015
vn -1.0000 0.0000 0.0000
vn -0.2043 -0.0699 -0.9764
vn -0.3660 -0.0210 -0.9304
vn 0.2423 0.0192 -0.9700
vn 0.6741 0.1167 -0.7294
vn 0.6798 0.0004 -0.7334
vn 0.2727 0.0012 -0.9621
vn 0.9815 0.1914 0.0000
vn 1.0000 -0.0000 0.0000
vn 0.8023 0.5969 0.0000
vn 0.5312 0.3599 -0.7670
vn -0.0000 -1.0000 -0.0000
vn -0.0000 -1.0000 0.0000
vn -0.0000 -0.7071 -0.7071
vn -0.0000 -0.0000 -1.0000
vn 0.0000 0.7071 -0.7071
vn 0.0000 1.0000 -0.0000
vn 0.0000 -1.0000 -0.0000
vn 0.0000 -1.0000 0.0000
vn -0.7071 0.0000 -0.7071
vn 0.0000 -0.0000 -1.0000
vn -0.0000 0.0000 -1.0000
vn 0.7071 -0.0000 -0.7071
vn 1.0000 -0.0000 -0.0000
vn -0.7065 0.0003 -0.7077
vn -0.0002 -0.0003 -1.0000
vn 0.0023 0.0003 -1.0000
vn 0.7072 -0.0003 -0.7070
vn 0.7078 -0.0000 -0.7064
vn -0.0000 1.0000 -0.0002
vn 0.0000 1.0000 -0.0002
vn -0.0002 1.0000 -0.0002
vn -0.0002 1.0000 0.0000
vn 0.0002 1.0000 -0.0002
vn 0.0002 1.0000 -0.0000
vn 0.0002 1.0000 0.0000
vn 0.1747 0.1269 -0.9764
vn 0.0515 0.2374 -0.9700
vn -0.1525 -0.1443 -0.9777
vn 0.0533 0.3821 -0.9226
vn -0.2212 -0.4869 0.8450
vn -0.0120 -0.7044 0.7097
vn -0.0483 -0.2177 0.9748
vn 0.0123 -0.3500 0.9367
vn 0.2130 0.6424 0.7361
vn 0.0224 0.6954 0.7183
vn -0.7125 -0.0139 0.7015
vn -0.5456 -0.1805 0.8184
vn -0.3660 -0.0210 0.9304
vn -0.2043 -0.0699 0.9764
vn 0.2423 0.0193 0.9700
vn 0.2727 0.0012 0.9621
vn 0.6798 0.0004 0.7334
vn 0.6741 0.1167 0.7294
vn 0.5312 0.3599 0.7670
vn 0.0000 -0.7071 0.7071
vn 0.0000 -0.0000 1.0000
vn 0.0000 0.7071 0.7071
vn -0.7071 0.0000 0.7071
vn 0.0000 0.0000 1.0000
vn 0.7071 -0.0000 0.7071
vn -0.7065 0.0003 0.7077
vn -0.0002 -0.0003 1.0000
vn 0.0023 0.0003 1.0000
vn 0.7072 -0.0003 0.7070
vn 0.7078 -0.0000 0.7064
vn -0.0002 1.0000 0.0002
vn 0.0000 1.0000 0.0002
vn -0.0000 1.0000 0.0002
vn 0.0002 1.0000 0.0002
vn 0.0515 0.2374 0.9700
vn 0.1747 0.1269 0.9764
vn -0.1525 -0.1443 0.9777
vn 0.0533 0.3821 0.9226
vn -0.0001 -1.0000 -0.0001
vn 0.0001 -1.0000 -0.0001
vn -0.0001 -1.0000 0.0001
vn 0.0001 -1.0000 0.0001
# 91 vertex normals

vt 0.8356 0.9004 0.0000
vt 0.8465 0.9001 0.0000
vt 0.8477 0.9046 0.0000
vt 0.8360 0.9067 0.0000
vt 0.8495 0.9097 0.0000
vt 0.8363 0.9132 0.0000
vt 0.5669 0.5834 0.0000
vt 0.5839 0.5821 0.0000
vt 0.5847 0.5887 0.0000
vt 0.5670 0.5887 0.0000
vt 0.8331 0.9005 0.0000
vt 0.8333 0.9068 0.0000
vt 0.8085 0.9057 0.0000
vt 0.8089 0.9011 0.0000
vt 0.8345 0.9125 0.0000
vt 0.8078 0.9106 0.0000
vt 0.5578 0.5777 0.0000
vt 0.5588 0.5828 0.0000
vt 0.5293 0.5828 0.0000
vt 0.5297 0.5779 0.0000
vt 0.5597 0.5887 0.0000
vt 0.5290 0.5887 0.0000
vt 0.5632 0.5887 0.0000
vt 0.5628 0.5830 0.0000
vt 0.6697 0.9309 0.0000
vt 0.6658 0.9309 0.0000
vt 0.6702 0.9203 0.0000
vt 0.6730 0.9230 0.0000
vt 0.6809 0.9158 0.0000
vt 0.6809 0.9197 0.0000
vt 0.6915 0.9203 0.0000
vt 0.6888 0.9230 0.0000
vt 0.6920 0.9309 0.0000
vt 0.6959 0.9309 0.0000
vt 0.6519 0.3644 0.0000
vt 0.6519 0.3597 0.0000
vt 0.6634 0.3597 0.0000
vt 0.6634 0.3644 0.0000
vt 0.6750 0.3597 0.0000
vt 0.6750 0.3644 0.0000
vt 0.6865 0.3597 0.0000
vt 0.6865 0.3644 0.0000
vt 0.6981 0.3644 0.0000
vt 0.6981 0.3597 0.0000
vt 0.4319 0.8518 0.0000
vt 0.4328 0.8508 0.0000
vt 0.4366 0.8524 0.0000
vt 0.4366 0.8537 0.0000
vt 0.4299 0.8470 0.0000
vt 0.4312 0.8470 0.0000
vt 0.4312 0.8423 0.0000
vt 0.4328 0.8433 0.0000
vt 0.4366 0.8403 0.0000
vt 0.4366 0.8417 0.0000
vt 0.9635 0.3826 0.0000
vt 0.9635 0.3785 0.0000
vt 0.9724 0.3784 0.0000
vt 0.9725 0.3825 0.0000
vt 0.9634 0.3744 0.0000
vt 0.9723 0.3743 0.0000
vt 0.9633 0.3703 0.0000
vt 0.9723 0.3702 0.0000
vt 0.9633 0.3662 0.0000
vt 0.9722 0.3661 0.0000
vt 0.3227 0.7805 0.0000
vt 0.3227 0.7729 0.0000
vt 0.3458 0.7729 0.0000
vt 0.3458 0.7805 0.0000
vt 0.3227 0.7881 0.0000
vt 0.3458 0.7881 0.0000
vt 0.3227 0.7957 0.0000
vt 0.3458 0.7957 0.0000
vt 0.3227 0.8033 0.0000
vt 0.3458 0.8033 0.0000
vt 0.6058 0.4177 0.0000
vt 0.6045 0.4177 0.0000
vt 0.6064 0.4130 0.0000
vt 0.6074 0.4139 0.0000
vt 0.6111 0.4110 0.0000
vt 0.6111 0.4124 0.0000
vt 0.6064 0.4224 0.0000
vt 0.6074 0.4215 0.0000
vt 0.6111 0.4231 0.0000
vt 0.6111 0.4244 0.0000
vt 0.5628 0.5777 0.0000
vt 0.5676 0.5777 0.0000
vt 0.8355 0.9133 0.0000
vt 0.5829 0.5761 0.0000
vt 0.8357 0.8941 0.0000
vt 0.8474 0.8956 0.0000
vt 0.8356 0.8876 0.0000
vt 0.8490 0.8904 0.0000
vt 0.5669 0.5941 0.0000
vt 0.5839 0.5953 0.0000
vt 0.8083 0.8965 0.0000
vt 0.8329 0.8942 0.0000
vt 0.8073 0.8916 0.0000
vt 0.8339 0.8884 0.0000
vt 0.5578 0.5998 0.0000
vt 0.5297 0.5996 0.0000
vt 0.5293 0.5946 0.0000
vt 0.5588 0.5947 0.0000
vt 0.5628 0.5944 0.0000
vt 0.6730 0.9388 0.0000
vt 0.6702 0.9416 0.0000
vt 0.6809 0.9421 0.0000
vt 0.6809 0.9460 0.0000
vt 0.6888 0.9388 0.0000
vt 0.6915 0.9416 0.0000
vt 0.7327 0.3644 0.0000
vt 0.7327 0.3597 0.0000
vt 0.7442 0.3597 0.0000
vt 0.7442 0.3644 0.0000
vt 0.7211 0.3644 0.0000
vt 0.7211 0.3597 0.0000
vt 0.7096 0.3644 0.0000
vt 0.7096 0.3597 0.0000
vt 0.4404 0.8508 0.0000
vt 0.4413 0.8518 0.0000
vt 0.4419 0.8470 0.0000
vt 0.4433 0.8470 0.0000
vt 0.4404 0.8433 0.0000
vt 0.4419 0.8423 0.0000
vt 0.9630 0.3498 0.0000
vt 0.9719 0.3497 0.0000
vt 0.9720 0.3538 0.0000
vt 0.9631 0.3539 0.0000
vt 0.9721 0.3579 0.0000
vt 0.9631 0.3580 0.0000
vt 0.9721 0.3620 0.0000
vt 0.9632 0.3621 0.0000
vt 0.3458 0.8336 0.0000
vt 0.3227 0.8336 0.0000
vt 0.3227 0.8260 0.0000
vt 0.3458 0.8260 0.0000
vt 0.3227 0.8185 0.0000
vt 0.3458 0.8184 0.0000
vt 0.3227 0.8109 0.0000
vt 0.3458 0.8109 0.0000
vt 0.6159 0.4130 0.0000
vt 0.6178 0.4177 0.0000
vt 0.6165 0.4177 0.0000
vt 0.6149 0.4139 0.0000
vt 0.6149 0.4215 0.0000
vt 0.6159 0.4224 0.0000
vt 0.5676 0.5998 0.0000
vt 0.5628 0.5998 0.0000
vt 0.8349 0.8875 0.0000
vt 0.5829 0.6013 0.0000
vt 0.6097 0.9677 0.0000
vt 0.6167 0.9706 0.0000
vt 0.6097 0.9776 0.0000
vt 0.6196 0.9776 0.0000
vt 0.6167 0.9847 0.0000
vt 0.6097 0.9876 0.0000
vt 0.6026 0.9706 0.0000
vt 0.5997 0.9776 0.0000
vt 0.6026 0.9847 0.0000
# 158 texture coords

g SM_WH_Pipe_04
s 2
f 1/1/1 2/2/2 3/3/3 
f 3/3/3 4/4/4 1/1/1 
f 4/4/4 3/3/3 5/5/5 
f 5/5/5 6/6/6 4/4/4 
s 1
f 7/7/7 8/8/8 9/9/9 
f 9/9/9 10/10/10 7/7/7 
s 2
f 11/11/11 12/12/12 13/13/13 
f 13/13/13 14/14/14 11/11/11 
f 12/12/12 15/15/15 16/16/16 
f 16/16/16 13/13/13 12/12/12 
s 1
f 15/17/17 17/18/18 18/19/19 
f 18/19/19 16/20/20 15/17/17 
f 19/21/21 20/22/22 18/19/19 
f 18/19/19 17/18/18 19/21/21 
f 21/23/23 22/24/24 7/7/7 
f 7/7/7 10/10/10 21/23/23 
f 19/21/21 17/18/18 22/24/24 
f 22/24/24 21/23/23 19/21/21 
s 4
f 2/25/22 23/26/22 24/27/22 
f 24/27/22 3/28/22 2/25/22 
f 3/28/22 24/27/22 25/29/22 
f 25/29/22 5/30/22 3/28/22 
f 5/30/22 25/29/22 26/31/22 
f 26/31/22 8/32/22 5/30/22 
f 9/33/22 8/32/22 26/31/22 
f 26/31/22 27/34/22 9/33/22 
s 1
f 23/35/25 28/36/26 29/37/27 
f 29/37/27 24/38/27 23/35/25 
f 24/38/27 29/37/27 30/39/28 
f 30/39/28 25/40/28 24/38/27 
f 25/40/28 30/39/28 31/41/29 
f 31/41/29 26/42/29 25/40/28 
f 27/43/30 26/42/29 31/41/29 
f 31/41/29 32/44/9 27/43/30 
s 8
f 13/45/25 33/46/25 34/47/26 
f 34/47/26 14/48/26 13/45/25 
f 13/45/25 16/49/25 35/50/25 
f 35/50/25 33/46/25 13/45/25 
f 16/49/25 18/51/31 36/52/31 
f 36/52/31 35/50/25 16/49/25 
f 18/51/31 20/53/32 37/54/32 
f 37/54/32 36/52/31 18/51/31 
s 1
f 34/55/14 33/56/33 38/57/33 
f 38/57/33 39/58/14 34/55/14 
f 35/59/34 40/60/35 38/57/33 
f 38/57/33 33/56/33 35/59/34 
f 36/61/36 41/62/36 40/60/35 
f 40/60/35 35/59/34 36/61/36 
f 37/63/37 42/64/37 41/62/36 
f 41/62/36 36/61/36 37/63/37 
f 43/65/33 44/66/14 45/67/14 
f 45/67/14 46/68/38 43/65/33 
f 47/69/39 43/65/33 46/68/38 
f 46/68/38 48/70/40 47/69/39 
f 49/71/41 47/69/39 48/70/40 
f 48/70/40 50/72/42 49/71/41 
f 51/73/22 49/71/41 50/72/42 
f 50/72/42 52/74/37 51/73/22 
s 4
f 40/75/43 48/76/44 46/77/45 
f 46/77/45 38/78/45 40/75/43 
f 46/77/45 45/79/46 39/80/46 
f 39/80/46 38/78/45 46/77/45 
f 50/81/47 41/82/47 42/83/48 
f 42/83/48 52/84/49 50/81/47 
f 50/81/47 48/76/44 40/75/43 
f 40/75/43 41/82/47 50/81/47 
s 1
f 7/7/7 22/24/24 53/85/50 
f 53/85/50 6/86/51 7/7/7 
s 2
f 1/1/1 4/4/4 12/12/12 
f 12/12/12 11/11/11 1/1/1 
f 4/4/4 53/87/52 15/15/15 
f 15/15/15 12/12/12 4/4/4 
f 4/4/4 6/6/6 53/87/52 
s 1
f 6/86/51 5/88/53 8/8/8 
f 8/8/8 7/7/7 6/86/51 
f 17/18/18 15/17/17 53/85/50 
f 53/85/50 22/24/24 17/18/18 
s 2
f 1/1/1 54/89/54 55/90/55 
f 55/90/55 2/2/2 1/1/1 
f 54/89/54 56/91/56 57/92/57 
f 57/92/57 55/90/55 54/89/54 
s 1
f 58/93/58 10/10/10 9/9/9 
f 9/9/9 59/94/59 58/93/58 
s 2
f 11/11/11 14/14/14 60/95/60 
f 60/95/60 61/96/61 11/11/11 
f 61/96/61 60/95/60 62/97/62 
f 62/97/62 63/98/63 61/96/61 
s 1
f 63/99/64 62/100/65 64/101/66 
f 64/101/66 65/102/67 63/99/64 
f 64/101/66 20/22/22 19/21/21 
f 19/21/21 65/102/67 64/101/66 
f 21/23/23 10/10/10 58/93/58 
f 58/93/58 66/103/68 21/23/23 
f 19/21/21 21/23/23 66/103/68 
f 66/103/68 65/102/67 19/21/21 
s 4
f 55/104/22 67/105/22 23/26/22 
f 23/26/22 2/25/22 55/104/22 
f 57/106/22 68/107/22 67/105/22 
f 67/105/22 55/104/22 57/106/22 
f 59/108/22 69/109/22 68/107/22 
f 68/107/22 57/106/22 59/108/22 
f 9/33/22 27/34/22 69/109/22 
f 69/109/22 59/108/22 9/33/22 
s 1
f 67/110/69 70/111/69 28/112/26 
f 28/112/26 23/113/25 67/110/69 
f 68/114/70 71/115/70 70/111/69 
f 70/111/69 67/110/69 68/114/70 
f 69/116/71 72/117/71 71/115/70 
f 71/115/70 68/114/70 69/116/71 
f 27/43/30 32/44/9 72/117/71 
f 72/117/71 69/116/71 27/43/30 
s 8
f 34/47/26 73/118/26 60/119/26 
f 60/119/26 14/48/26 34/47/26 
f 60/119/26 73/118/26 74/120/26 
f 74/120/26 62/121/26 60/119/26 
f 62/121/26 74/120/26 75/122/32 
f 75/122/32 64/123/32 62/121/26 
f 64/123/32 75/122/32 37/54/32 
f 37/54/32 20/53/32 64/123/32 
s 1
f 34/124/14 39/125/14 76/126/72 
f 76/126/72 73/127/72 34/124/14 
f 73/127/72 76/126/72 77/128/73 
f 77/128/73 74/129/73 73/127/72 
f 74/129/73 77/128/73 78/130/74 
f 78/130/74 75/131/74 74/129/73 
f 75/131/74 78/130/74 42/64/37 
f 42/64/37 37/63/37 75/131/74 
f 45/132/14 44/133/14 79/134/72 
f 79/134/72 80/135/75 45/132/14 
f 80/135/75 79/134/72 81/136/76 
f 81/136/76 82/137/77 80/135/75 
f 82/137/77 81/136/76 83/138/78 
f 83/138/78 84/139/79 82/137/77 
f 84/139/79 83/138/78 51/73/22 
f 51/73/22 52/74/37 84/139/79 
s 4
f 80/140/80 82/141/81 77/142/82 
f 77/142/82 76/143/80 80/140/80 
f 80/140/80 76/143/80 39/80/46 
f 39/80/46 45/79/46 80/140/80 
f 42/83/48 78/144/83 84/145/83 
f 84/145/83 52/84/49 42/83/48 
f 84/145/83 78/144/83 77/142/82 
f 77/142/82 82/141/81 84/145/83 
s 1
f 58/93/58 56/146/84 85/147/85 
f 85/147/85 66/103/68 58/93/58 
s 2
f 1/1/1 11/11/11 61/96/61 
f 61/96/61 54/89/54 1/1/1 
f 54/89/54 61/96/61 63/98/63 
f 63/98/63 85/148/86 54/89/54 
f 85/148/86 56/91/56 54/89/54 
s 1
f 56/146/84 58/93/58 59/94/59 
f 59/94/59 57/149/87 56/146/84 
f 65/102/67 66/103/68 85/147/85 
f 85/147/85 63/99/64 65/102/67 
s off
f 44/150/88 43/151/88 86/152/88 
f 43/151/88 47/153/88 86/152/88 
f 47/153/89 49/154/89 86/152/89 
f 49/154/89 51/155/89 86/152/89 
f 79/156/90 44/150/90 86/152/90 
f 81/157/90 79/156/90 86/152/90 
f 83/158/91 81/157/91 86/152/91 
f 51/155/91 83/158/91 86/152/91 
# 162 faces

