# 3ds Max Wavefront OBJ Exporter v0.97b - (c)2007 guruware
# File Created: 24.01.2019 18:22:33

#
# object SM_WH_Pipe_05
#

v  -16.1690 -2.6084 -2.6082
v  -16.1690 -0.0002 -3.6886
v  -7.8919 -0.0002 -3.6886
v  -7.8919 -2.6084 -2.6082
v  -16.1690 2.6080 -2.6082
v  -7.8919 2.6080 -2.6082
v  -16.1690 3.6884 -0.0000
v  -7.8919 3.6884 -0.0000
v  -16.1690 2.6080 2.6082
v  -7.8919 2.6080 2.6082
v  -16.1690 -0.0002 3.6886
v  -7.8919 -0.0002 3.6886
v  -16.1690 -2.6084 2.6082
v  -7.8919 -2.6084 2.6082
v  -16.1690 -3.6888 -0.0000
v  -7.8919 -3.6888 -0.0000
v  -2.0160 3.2734 -3.2737
v  -7.8932 3.2734 -3.2737
v  -7.8932 4.6294 -0.0000
v  -2.0160 4.6294 -0.0000
v  -7.8932 3.2734 3.2736
v  -2.0160 3.2734 3.2736
v  -7.8932 -0.0002 4.6296
v  -2.0160 -0.0002 4.6296
v  -2.0160 -3.2738 3.2736
v  -7.8932 -3.2738 3.2736
v  -7.8932 -4.6298 -0.0000
v  -2.0160 -4.6298 -0.0000
v  -7.8932 -3.2738 -3.2737
v  -2.0160 -3.2738 -3.2737
v  -7.8932 -0.0002 -4.6296
v  -2.0160 -0.0002 -4.6296
v  -2.0161 7.4810 -0.0000
v  -2.0161 5.2899 -5.2899
v  -2.0161 5.2899 5.2898
v  -2.0161 0.0000 7.4810
v  -2.0161 -7.4810 -0.0000
v  -2.0161 -5.2899 5.2898
v  -2.0161 -5.2899 -5.2899
v  -2.0161 0.0000 -7.4810
v  11.4629 7.4810 -0.0000
v  11.4629 5.2899 -5.2899
v  11.4629 5.2899 5.2898
v  11.4629 0.0000 7.4810
v  11.4629 -7.4810 -0.0000
v  11.4629 -5.2899 5.2898
v  11.4629 -5.2899 -5.2899
v  11.4629 0.0000 -7.4810
v  11.4630 5.5825 -0.0000
v  11.4630 3.9474 -3.9476
v  11.4629 3.9474 3.9475
v  11.4629 -0.0001 5.5826
v  11.4629 -5.5828 -0.0000
v  11.4629 -3.9476 3.9475
v  11.4629 -3.9476 -3.9476
v  11.4629 -0.0001 -5.5827
v  16.1690 5.5825 -0.0000
v  16.1690 3.9474 -3.9476
v  16.1690 3.9474 3.9475
v  16.1690 -0.0001 5.5826
v  16.1690 -5.5828 -0.0000
v  16.1690 -3.9476 3.9475
v  16.1690 -3.9476 -3.9476
v  16.1690 -0.0001 -5.5827
v  16.1679 -0.0001 0.0000
# 65 vertices

vn 0.0000 -0.7071 -0.7071
vn 0.0000 -0.0000 -1.0000
vn 0.0000 0.7071 -0.7071
vn 0.0000 1.0000 -0.0000
vn -0.0000 0.7071 0.7071
vn 0.0000 0.7071 0.7071
vn -0.0000 -0.0000 1.0000
vn 0.0000 -0.7071 0.7071
vn -0.0000 -0.7071 0.7071
vn 0.0000 -1.0000 -0.0000
vn -0.0000 0.7071 -0.7071
vn 0.0000 1.0000 0.0000
vn 0.0000 0.0000 1.0000
vn 0.0000 -1.0000 0.0000
vn -0.0000 -0.7071 -0.7071
vn -0.0000 -0.0000 -1.0000
vn -0.0000 0.0000 -1.0000
vn -1.0000 -0.0000 0.0000
vn -1.0000 -0.0000 -0.0000
vn -1.0000 0.0000 -0.0000
vn -1.0000 0.0000 0.0000
vn -0.0000 1.0000 0.0000
vn -0.0000 -1.0000 0.0000
vn 1.0000 0.0000 0.0000
vn 1.0000 0.0000 -0.0000
vn 1.0000 -0.0000 0.0000
vn 1.0000 -0.0000 -0.0000
vn -0.0000 1.0000 -0.0000
vn -0.0000 0.0000 1.0000
vn 0.0000 0.0000 -1.0000
vn 1.0000 -0.0002 0.0001
vn 1.0000 -0.0002 -0.0001
vn 1.0000 -0.0001 -0.0002
vn 1.0000 0.0002 -0.0001
vn 1.0000 0.0002 0.0001
vn 1.0000 0.0001 0.0002
vn 1.0000 -0.0001 0.0002
vn 1.0000 0.0001 -0.0002
vn -1.0000 -0.0015 -0.0006
vn -1.0000 -0.0006 -0.0015
vn -1.0000 0.0006 -0.0015
vn -1.0000 0.0015 -0.0006
vn -1.0000 0.0015 0.0006
vn -1.0000 0.0006 0.0015
vn -1.0000 -0.0006 0.0015
vn -1.0000 -0.0015 0.0006
# 46 vertex normals

vt 0.7811 0.4688 0.0000
vt 0.7811 0.4632 0.0000
vt 0.7649 0.4632 0.0000
vt 0.7649 0.4688 0.0000
vt 0.7811 0.4577 0.0000
vt 0.7649 0.4577 0.0000
vt 0.7811 0.4521 0.0000
vt 0.7649 0.4521 0.0000
vt 0.7811 0.4466 0.0000
vt 0.7649 0.4466 0.0000
vt 0.7811 0.4410 0.0000
vt 0.7649 0.4410 0.0000
vt 0.7811 0.4354 0.0000
vt 0.7649 0.4354 0.0000
vt 0.7811 0.4299 0.0000
vt 0.7649 0.4299 0.0000
vt 0.7811 0.4743 0.0000
vt 0.7649 0.4743 0.0000
vt 0.1073 0.8721 0.0000
vt 0.0902 0.8721 0.0000
vt 0.0901 0.8824 0.0000
vt 0.1073 0.8824 0.0000
vt 0.0901 0.8928 0.0000
vt 0.1073 0.8928 0.0000
vt 0.0901 0.9031 0.0000
vt 0.1073 0.9031 0.0000
vt 0.1073 0.9134 0.0000
vt 0.0901 0.9134 0.0000
vt 0.0901 0.9238 0.0000
vt 0.1073 0.9238 0.0000
vt 0.1073 0.8411 0.0000
vt 0.0902 0.8411 0.0000
vt 0.0902 0.8515 0.0000
vt 0.1073 0.8515 0.0000
vt 0.0902 0.8618 0.0000
vt 0.1073 0.8618 0.0000
vt 0.9795 0.2057 0.0000
vt 0.9730 0.2084 0.0000
vt 0.9730 0.2140 0.0000
vt 0.9834 0.2097 0.0000
vt 0.9666 0.2057 0.0000
vt 0.9626 0.2097 0.0000
vt 0.9639 0.1993 0.0000
vt 0.9583 0.1993 0.0000
vt 0.9666 0.1928 0.0000
vt 0.9730 0.1902 0.0000
vt 0.9730 0.1846 0.0000
vt 0.9626 0.1889 0.0000
vt 0.9795 0.1928 0.0000
vt 0.9834 0.1889 0.0000
vt 0.9821 0.1993 0.0000
vt 0.9877 0.1993 0.0000
vt 0.8788 0.3497 0.0000
vt 0.8788 0.3890 0.0000
vt 0.8955 0.3890 0.0000
vt 0.8955 0.3497 0.0000
vt 0.8621 0.3497 0.0000
vt 0.8621 0.3890 0.0000
vt 0.8454 0.3497 0.0000
vt 0.8454 0.3890 0.0000
vt 0.8120 0.3497 0.0000
vt 0.8120 0.3890 0.0000
vt 0.8287 0.3890 0.0000
vt 0.8287 0.3497 0.0000
vt 0.9289 0.3497 0.0000
vt 0.9289 0.3890 0.0000
vt 0.9455 0.3890 0.0000
vt 0.9455 0.3497 0.0000
vt 0.9122 0.3497 0.0000
vt 0.9122 0.3890 0.0000
vt 0.8857 0.8828 0.0000
vt 0.8857 0.8883 0.0000
vt 0.8972 0.8931 0.0000
vt 0.9012 0.8892 0.0000
vt 0.8703 0.8892 0.0000
vt 0.8742 0.8931 0.0000
vt 0.8639 0.9046 0.0000
vt 0.8695 0.9046 0.0000
vt 0.8857 0.9264 0.0000
vt 0.8857 0.9209 0.0000
vt 0.8742 0.9161 0.0000
vt 0.8703 0.9200 0.0000
vt 0.9012 0.9200 0.0000
vt 0.8972 0.9161 0.0000
vt 0.9075 0.9046 0.0000
vt 0.9020 0.9046 0.0000
vt 0.9042 0.1270 0.0000
vt 0.8958 0.1270 0.0000
vt 0.8958 0.1362 0.0000
vt 0.9042 0.1362 0.0000
vt 0.8874 0.1270 0.0000
vt 0.8874 0.1362 0.0000
vt 0.8790 0.1270 0.0000
vt 0.8790 0.1362 0.0000
vt 0.8706 0.1270 0.0000
vt 0.8622 0.1270 0.0000
vt 0.8622 0.1362 0.0000
vt 0.8706 0.1362 0.0000
vt 0.9294 0.1270 0.0000
vt 0.9210 0.1270 0.0000
vt 0.9210 0.1362 0.0000
vt 0.9294 0.1362 0.0000
vt 0.9126 0.1270 0.0000
vt 0.9126 0.1362 0.0000
vt 0.6107 0.8262 0.0000
vt 0.6107 0.8372 0.0000
vt 0.6185 0.8294 0.0000
vt 0.6030 0.8294 0.0000
vt 0.5997 0.8372 0.0000
vt 0.6107 0.8482 0.0000
vt 0.6030 0.8449 0.0000
vt 0.6185 0.8449 0.0000
vt 0.6217 0.8372 0.0000
vt 0.7499 0.9860 0.0000
vt 0.7595 0.9900 0.0000
vt 0.7595 0.9873 0.0000
vt 0.7519 0.9841 0.0000
vt 0.7487 0.9765 0.0000
vt 0.7460 0.9765 0.0000
vt 0.7519 0.9689 0.0000
vt 0.7499 0.9670 0.0000
vt 0.7595 0.9658 0.0000
vt 0.7595 0.9630 0.0000
vt 0.7671 0.9689 0.0000
vt 0.7690 0.9670 0.0000
vt 0.7702 0.9765 0.0000
vt 0.7730 0.9765 0.0000
vt 0.7671 0.9841 0.0000
vt 0.7690 0.9860 0.0000
# 129 texture coords

g SM_WH_Pipe_05
s 1
f 1/1/1 2/2/2 3/3/2 
f 3/3/2 4/4/1 1/1/1 
f 2/2/2 5/5/3 6/6/3 
f 6/6/3 3/3/2 2/2/2 
f 5/5/3 7/7/4 8/8/4 
f 8/8/4 6/6/3 5/5/3 
f 7/7/4 9/9/5 10/10/6 
f 10/10/6 8/8/4 7/7/4 
f 9/9/5 11/11/7 12/12/7 
f 12/12/7 10/10/6 9/9/5 
f 11/11/7 13/13/8 14/14/9 
f 14/14/9 12/12/7 11/11/7 
f 13/13/8 15/15/10 16/16/10 
f 16/16/10 14/14/9 13/13/8 
f 15/17/10 1/1/1 4/4/1 
f 4/4/1 16/18/10 15/17/10 
f 17/19/11 18/20/11 19/21/12 
f 19/21/12 20/22/4 17/19/11 
f 20/22/4 19/21/12 21/23/6 
f 21/23/6 22/24/6 20/22/4 
f 22/24/6 21/23/6 23/25/13 
f 23/25/13 24/26/13 22/24/6 
f 25/27/8 26/28/8 27/29/14 
f 27/29/14 28/30/14 25/27/8 
f 28/31/14 27/32/14 29/33/1 
f 29/33/1 30/34/15 28/31/14 
f 30/34/15 29/33/1 31/35/16 
f 31/35/16 32/36/17 30/34/15 
f 32/36/17 31/35/16 18/20/11 
f 18/20/11 17/19/11 32/36/17 
f 24/26/13 23/25/13 26/28/8 
f 26/28/8 25/27/8 24/26/13 
s 4
f 17/37/18 20/38/19 33/39/19 
f 33/39/19 34/40/18 17/37/18 
f 20/38/19 22/41/19 35/42/19 
f 35/42/19 33/39/19 20/38/19 
f 22/41/19 24/43/20 36/44/19 
f 36/44/19 35/42/19 22/41/19 
f 25/45/20 28/46/20 37/47/20 
f 37/47/20 38/48/20 25/45/20 
f 28/46/20 30/49/21 39/50/21 
f 39/50/21 37/47/20 28/46/20 
f 30/49/21 32/51/21 40/52/21 
f 40/52/21 39/50/21 30/49/21 
f 32/51/21 17/37/18 34/40/18 
f 34/40/18 40/52/21 32/51/21 
f 24/43/20 25/45/20 38/48/20 
f 38/48/20 36/44/19 24/43/20 
s 1
f 33/53/22 41/54/4 42/55/11 
f 42/55/11 34/56/11 33/53/22 
f 35/57/6 43/58/6 41/54/4 
f 41/54/4 33/53/22 35/57/6 
f 36/59/13 44/60/13 43/58/6 
f 43/58/6 35/57/6 36/59/13 
f 37/61/14 45/62/23 46/63/8 
f 46/63/8 38/64/8 37/61/14 
f 39/65/15 47/66/15 45/67/23 
f 45/67/23 37/68/14 39/65/15 
f 40/69/16 48/70/17 47/66/15 
f 47/66/15 39/65/15 40/69/16 
f 34/56/11 42/55/11 48/70/17 
f 48/70/17 40/69/16 34/56/11 
f 38/64/8 46/63/8 44/60/13 
f 44/60/13 36/59/13 38/64/8 
s 4
f 41/71/24 49/72/24 50/73/25 
f 50/73/25 42/74/25 41/71/24 
f 43/75/24 51/76/24 49/72/24 
f 49/72/24 41/71/24 43/75/24 
f 44/77/24 52/78/26 51/76/24 
f 51/76/24 43/75/24 44/77/24 
f 45/79/26 53/80/26 54/81/26 
f 54/81/26 46/82/26 45/79/26 
f 47/83/27 55/84/27 53/80/26 
f 53/80/26 45/79/26 47/83/27 
f 48/85/27 56/86/27 55/84/27 
f 55/84/27 47/83/27 48/85/27 
f 42/74/25 50/73/25 56/86/27 
f 56/86/27 48/85/27 42/74/25 
f 46/82/26 54/81/26 52/78/26 
f 52/78/26 44/77/24 46/82/26 
s 1
f 50/87/11 49/88/22 57/89/28 
f 57/89/28 58/90/11 50/87/11 
f 49/88/22 51/91/5 59/92/5 
f 59/92/5 57/89/28 49/88/22 
f 51/91/5 52/93/13 60/94/29 
f 60/94/29 59/92/5 51/91/5 
f 54/95/8 53/96/14 61/97/23 
f 61/97/23 62/98/8 54/95/8 
f 53/99/14 55/100/1 63/101/15 
f 63/101/15 61/102/23 53/99/14 
f 55/100/1 56/103/16 64/104/30 
f 64/104/30 63/101/15 55/100/1 
f 56/103/16 50/87/11 58/90/11 
f 58/90/11 64/104/30 56/103/16 
f 52/93/13 54/95/8 62/98/8 
f 62/98/8 60/94/29 52/93/13 
s off
f 57/105/31 65/106/31 58/107/31 
f 59/108/32 65/106/32 57/105/32 
f 60/109/33 65/106/33 59/108/33 
f 61/110/34 65/106/34 62/111/34 
f 63/112/35 65/106/35 61/110/35 
f 64/113/36 65/106/36 63/112/36 
f 58/107/37 65/106/37 64/113/37 
f 62/111/38 65/106/38 60/109/38 
f 21/114/39 19/115/39 8/116/39 
f 8/116/39 10/117/39 21/114/39 
f 12/118/40 23/119/40 21/114/40 
f 21/114/40 10/117/40 12/118/40 
f 14/120/41 26/121/41 23/119/41 
f 23/119/41 12/118/41 14/120/41 
f 16/122/42 27/123/42 26/121/42 
f 26/121/42 14/120/42 16/122/42 
f 4/124/43 29/125/43 27/123/43 
f 27/123/43 16/122/43 4/124/43 
f 3/126/44 31/127/44 29/125/44 
f 29/125/44 4/124/44 3/126/44 
f 6/128/45 18/129/45 31/127/45 
f 31/127/45 3/126/45 6/128/45 
f 8/116/46 19/115/46 18/129/46 
f 18/129/46 6/128/46 8/116/46 
# 120 faces

