# 3ds Max Wavefront OBJ Exporter v0.97b - (c)2007 guruware
# File Created: 24.01.2019 18:21:07

#
# object SM_WH_Pipe_01
#

v  -0.0000 144.1227 -3.6886
v  2.6082 144.1227 -2.6082
v  2.6082 -144.1228 -2.6082
v  -0.0001 -144.1228 -3.6885
v  -2.6082 144.1227 -2.6082
v  -2.6083 -144.1228 -2.6082
v  -3.6886 144.1227 -0.0000
v  -3.6886 -144.1228 -0.0000
v  -2.6082 144.1227 2.6082
v  -2.6083 -144.1228 2.6082
v  -0.0000 144.1227 3.6886
v  -0.0001 -144.1228 3.6886
v  2.6082 144.1227 2.6082
v  2.6082 -144.1228 2.6082
v  3.6885 144.1227 -0.0000
v  3.6885 -144.1228 -0.0000
# 16 vertices

vn -0.0000 -0.0000 -1.0000
vn 0.7071 -0.0000 -0.7071
vn -0.7071 0.0000 -0.7071
vn -1.0000 0.0000 -0.0000
vn -0.7071 0.0000 0.7071
vn -0.0000 0.0000 1.0000
vn 0.7071 -0.0000 0.7071
vn 1.0000 -0.0000 -0.0000
# 8 vertex normals

vt 0.0100 0.5198 0.0000
vt 0.0100 0.5143 0.0000
vt 0.5770 0.5143 0.0000
vt 0.5770 0.5198 0.0000
vt 0.0100 0.5254 0.0000
vt 0.5770 0.5254 0.0000
vt 0.0100 0.5309 0.0000
vt 0.5770 0.5309 0.0000
vt 0.0100 0.4921 0.0000
vt 0.0100 0.4865 0.0000
vt 0.5770 0.4865 0.0000
vt 0.5770 0.4921 0.0000
vt 0.0100 0.4976 0.0000
vt 0.5770 0.4976 0.0000
vt 0.0100 0.5032 0.0000
vt 0.5770 0.5032 0.0000
vt 0.0100 0.5087 0.0000
vt 0.5770 0.5087 0.0000
# 18 texture coords

g SM_WH_Pipe_01
s 1
f 1/1/1 2/2/2 3/3/2 
f 3/3/2 4/4/1 1/1/1 
f 5/5/3 1/1/1 4/4/1 
f 4/4/1 6/6/3 5/5/3 
f 7/7/4 5/5/3 6/6/3 
f 6/6/3 8/8/4 7/7/4 
f 9/9/5 7/10/4 8/11/4 
f 8/11/4 10/12/5 9/9/5 
f 11/13/6 9/9/5 10/12/5 
f 10/12/5 12/14/6 11/13/6 
f 13/15/7 11/13/6 12/14/6 
f 12/14/6 14/16/7 13/15/7 
f 15/17/8 13/15/7 14/16/7 
f 14/16/7 16/18/8 15/17/8 
f 2/2/2 15/17/8 16/18/8 
f 16/18/8 3/3/2 2/2/2 
# 16 faces

