# 3ds Max Wavefront OBJ Exporter v0.97b - (c)2007 guruware
# File Created: 24.01.2019 18:21:49

#
# object SM_WH_Pipe_07
#

v  -3.5052 0.0000 -2.6083
v  -6.1135 0.0000 -3.6886
v  -4.9020 6.0906 -3.6886
v  -2.4923 5.0925 -2.6083
v  -8.7217 0.0000 -2.6083
v  -7.3117 7.0887 -2.6083
v  -9.8020 0.0000 -0.0001
v  -8.3098 7.5021 -0.0001
v  -8.7217 0.0000 2.6082
v  -7.3117 7.0887 2.6082
v  -6.1135 0.0000 3.6885
v  -4.9020 6.0906 3.6885
v  -3.5052 0.0000 2.6082
v  -2.4923 5.0925 2.6082
v  -2.4249 0.0000 -0.0001
v  -1.4942 4.6790 -0.0001
v  9.8020 -13.3073 -2.6083
v  9.8020 -15.9155 -3.6886
v  3.7114 -14.7040 -3.6886
v  4.7095 -12.2943 -2.6083
v  -1.4519 -11.2540 -3.6886
v  0.3924 -9.4096 -2.6083
v  -4.9020 -6.0906 -3.6886
v  -2.4923 -5.0925 -2.6083
v  9.8020 15.9155 -3.6886
v  9.8020 13.3073 -2.6083
v  4.7096 12.2943 -2.6083
v  3.7114 14.7040 -3.6886
v  0.3924 9.4097 -2.6083
v  -1.4519 11.2539 -3.6886
v  9.8020 -18.5237 -2.6083
v  2.7133 -17.1137 -2.6083
v  -3.2962 -13.0982 -2.6083
v  -7.3117 -7.0887 -2.6083
v  9.8020 18.5237 -2.6083
v  2.7133 17.1137 -2.6083
v  -3.2962 13.0983 -2.6083
v  9.8020 -19.6041 -0.0001
v  2.2999 -18.1118 -0.0001
v  -4.0601 -13.8622 -0.0001
v  -8.3098 -7.5022 -0.0001
v  9.8020 19.6041 -0.0001
v  2.2999 18.1118 -0.0001
v  -4.0601 13.8622 -0.0001
v  9.8020 -18.5237 2.6082
v  2.7133 -17.1137 2.6082
v  -3.2962 -13.0982 2.6082
v  -7.3117 -7.0887 2.6082
v  9.8020 18.5237 2.6082
v  2.7133 17.1137 2.6082
v  -3.2962 13.0983 2.6082
v  9.8020 -15.9155 3.6886
v  3.7114 -14.7040 3.6885
v  -1.4519 -11.2540 3.6885
v  -4.9020 -6.0906 3.6885
v  9.8020 15.9155 3.6885
v  3.7114 14.7040 3.6885
v  -1.4519 11.2539 3.6885
v  9.8020 -13.3073 2.6082
v  4.7095 -12.2943 2.6082
v  0.3924 -9.4096 2.6082
v  -2.4923 -5.0925 2.6082
v  9.8020 13.3073 2.6082
v  4.7096 12.2943 2.6082
v  0.3924 9.4097 2.6082
v  9.8020 -12.2269 -0.0001
v  5.1230 -11.2962 -0.0001
v  1.1563 -8.6457 -0.0001
v  -1.4942 -4.6790 -0.0001
v  9.8020 12.2269 -0.0001
v  5.1230 11.2962 -0.0001
v  1.1563 8.6458 -0.0001
# 72 vertices

vn 0.6816 -0.0000 -0.7317
vn -0.0477 -0.0000 -0.9989
vn -0.0441 0.0183 -0.9989
vn 0.6297 -0.2608 -0.7317
vn -0.7294 -0.0000 -0.6841
vn -0.6739 0.2791 -0.6840
vn -1.0000 0.0000 -0.0000
vn -0.9239 0.3827 -0.0000
vn -0.7294 0.0000 0.6840
vn -0.6739 0.2791 0.6840
vn -0.0477 0.0000 0.9989
vn -0.0441 0.0183 0.9989
vn 0.6816 -0.0000 0.7317
vn 0.6297 -0.2608 0.7317
vn 1.0000 -0.0000 -0.0000
vn 0.9239 -0.3827 -0.0000
vn 0.1343 0.6754 -0.7251
vn -0.0095 -0.0477 -0.9988
vn -0.0183 -0.0441 -0.9989
vn 0.2608 0.6297 -0.7317
vn -0.0338 -0.0338 -0.9989
vn 0.4820 0.4820 -0.7317
vn -0.0441 -0.0183 -0.9989
vn 0.6297 0.2608 -0.7317
vn -0.0095 0.0477 -0.9988
vn 0.1344 -0.6754 -0.7251
vn 0.2608 -0.6297 -0.7317
vn -0.0183 0.0441 -0.9989
vn 0.4820 -0.4820 -0.7317
vn -0.0338 0.0338 -0.9989
vn -0.1436 -0.7219 -0.6770
vn -0.2791 -0.6739 -0.6841
vn -0.5158 -0.5158 -0.6840
vn -0.6739 -0.2791 -0.6841
vn -0.1436 0.7219 -0.6770
vn -0.2791 0.6739 -0.6841
vn -0.5158 0.5158 -0.6841
vn -0.1951 -0.9808 -0.0000
vn -0.3827 -0.9239 -0.0000
vn -0.7071 -0.7071 -0.0000
vn -0.9239 -0.3827 -0.0000
vn -0.1951 0.9808 -0.0000
vn -0.3827 0.9239 -0.0000
vn -0.7071 0.7071 -0.0000
vn -0.1436 -0.7219 0.6770
vn -0.2791 -0.6739 0.6840
vn -0.5158 -0.5158 0.6840
vn -0.6739 -0.2791 0.6840
vn -0.1436 0.7219 0.6770
vn -0.2791 0.6739 0.6841
vn -0.5158 0.5158 0.6840
vn -0.0095 -0.0477 0.9988
vn -0.0183 -0.0441 0.9989
vn -0.0338 -0.0338 0.9989
vn -0.0441 -0.0183 0.9989
vn -0.0095 0.0477 0.9988
vn -0.0183 0.0441 0.9989
vn -0.0338 0.0338 0.9989
vn 0.1343 0.6754 0.7251
vn 0.2608 0.6297 0.7317
vn 0.4820 0.4820 0.7317
vn 0.6297 0.2608 0.7317
vn 0.1344 -0.6754 0.7251
vn 0.2608 -0.6297 0.7317
vn 0.4820 -0.4820 0.7317
vn 0.1951 0.9808 -0.0000
vn 0.3827 0.9239 -0.0000
vn 0.7071 0.7071 -0.0000
vn 0.9239 0.3827 -0.0000
vn 0.1951 -0.9808 -0.0000
vn 0.3827 -0.9239 -0.0000
vn 0.7071 -0.7071 -0.0000
# 72 vertex normals

vt 0.0756 0.8847 0.0000
vt 0.0810 0.8847 0.0000
vt 0.0811 0.8952 0.0000
vt 0.0757 0.8952 0.0000
vt 0.8275 0.5056 0.0000
vt 0.8329 0.5055 0.0000
vt 0.8331 0.5195 0.0000
vt 0.8276 0.5195 0.0000
vt 0.8384 0.5055 0.0000
vt 0.8386 0.5194 0.0000
vt 0.8440 0.5054 0.0000
vt 0.8441 0.5193 0.0000
vt 0.8494 0.5054 0.0000
vt 0.8495 0.5193 0.0000
vt 0.0590 0.8848 0.0000
vt 0.0645 0.8848 0.0000
vt 0.0645 0.8953 0.0000
vt 0.0590 0.8953 0.0000
vt 0.0700 0.8848 0.0000
vt 0.0701 0.8953 0.0000
vt 0.0746 0.8431 0.0000
vt 0.0796 0.8411 0.0000
vt 0.0811 0.8527 0.0000
vt 0.0756 0.8533 0.0000
vt 0.0811 0.8636 0.0000
vt 0.0756 0.8637 0.0000
vt 0.0810 0.8742 0.0000
vt 0.0755 0.8742 0.0000
vt 0.0801 0.9283 0.0000
vt 0.0750 0.9264 0.0000
vt 0.0759 0.9162 0.0000
vt 0.0815 0.9167 0.0000
vt 0.0758 0.9057 0.0000
vt 0.0813 0.9058 0.0000
vt 0.8262 0.4514 0.0000
vt 0.8318 0.4497 0.0000
vt 0.8327 0.4638 0.0000
vt 0.8273 0.4642 0.0000
vt 0.8327 0.4777 0.0000
vt 0.8273 0.4778 0.0000
vt 0.8328 0.4916 0.0000
vt 0.8273 0.4917 0.0000
vt 0.8329 0.5614 0.0000
vt 0.8272 0.5598 0.0000
vt 0.8281 0.5470 0.0000
vt 0.8335 0.5473 0.0000
vt 0.8278 0.5334 0.0000
vt 0.8333 0.5334 0.0000
vt 0.8379 0.4488 0.0000
vt 0.8380 0.4634 0.0000
vt 0.8382 0.4776 0.0000
vt 0.8383 0.4916 0.0000
vt 0.8390 0.5622 0.0000
vt 0.8388 0.5475 0.0000
vt 0.8387 0.5334 0.0000
vt 0.8440 0.4496 0.0000
vt 0.8434 0.4636 0.0000
vt 0.8436 0.4776 0.0000
vt 0.8438 0.4915 0.0000
vt 0.8451 0.5613 0.0000
vt 0.8442 0.5472 0.0000
vt 0.8442 0.5333 0.0000
vt 0.8496 0.4512 0.0000
vt 0.8488 0.4640 0.0000
vt 0.8490 0.4776 0.0000
vt 0.8493 0.4915 0.0000
vt 0.8507 0.5595 0.0000
vt 0.8496 0.5468 0.0000
vt 0.8496 0.5332 0.0000
vt 0.0600 0.8412 0.0000
vt 0.0650 0.8431 0.0000
vt 0.0641 0.8534 0.0000
vt 0.0586 0.8528 0.0000
vt 0.0642 0.8638 0.0000
vt 0.0587 0.8638 0.0000
vt 0.0644 0.8743 0.0000
vt 0.0589 0.8743 0.0000
vt 0.0655 0.9265 0.0000
vt 0.0605 0.9284 0.0000
vt 0.0589 0.9168 0.0000
vt 0.0645 0.9163 0.0000
vt 0.0589 0.9059 0.0000
vt 0.0645 0.9058 0.0000
vt 0.0698 0.8440 0.0000
vt 0.0699 0.8537 0.0000
vt 0.0699 0.8639 0.0000
vt 0.0700 0.8743 0.0000
vt 0.0702 0.9255 0.0000
vt 0.0702 0.9159 0.0000
vt 0.0701 0.9057 0.0000
# 90 texture coords

g SM_WH_Pipe_07
s 1
f 1/1/1 2/2/2 3/3/3 
f 3/3/3 4/4/4 1/1/1 
f 2/5/2 5/6/5 6/7/6 
f 6/7/6 3/8/3 2/5/2 
f 5/6/5 7/9/7 8/10/8 
f 8/10/8 6/7/6 5/6/5 
f 7/9/7 9/11/9 10/12/10 
f 10/12/10 8/10/8 7/9/7 
f 9/11/9 11/13/11 12/14/12 
f 12/14/12 10/12/10 9/11/9 
f 11/15/11 13/16/13 14/17/14 
f 14/17/14 12/18/12 11/15/11 
f 13/16/13 15/19/15 16/20/16 
f 16/20/16 14/17/14 13/16/13 
f 15/19/15 1/1/1 4/4/4 
f 4/4/4 16/20/16 15/19/15 
f 17/21/17 18/22/18 19/23/19 
f 19/23/19 20/24/20 17/21/17 
f 20/24/20 19/23/19 21/25/21 
f 21/25/21 22/26/22 20/24/20 
f 22/26/22 21/25/21 23/27/23 
f 23/27/23 24/28/24 22/26/22 
f 24/28/24 23/27/23 2/2/2 
f 2/2/2 1/1/1 24/28/24 
f 25/29/25 26/30/26 27/31/27 
f 27/31/27 28/32/28 25/29/25 
f 28/32/28 27/31/27 29/33/29 
f 29/33/29 30/34/30 28/32/28 
f 30/34/30 29/33/29 4/4/4 
f 4/4/4 3/3/3 30/34/30 
f 18/35/18 31/36/31 32/37/32 
f 32/37/32 19/38/19 18/35/18 
f 19/38/19 32/37/32 33/39/33 
f 33/39/33 21/40/21 19/38/19 
f 21/40/21 33/39/33 34/41/34 
f 34/41/34 23/42/23 21/40/21 
f 23/42/23 34/41/34 5/6/5 
f 5/6/5 2/5/2 23/42/23 
f 35/43/35 25/44/25 28/45/28 
f 28/45/28 36/46/36 35/43/35 
f 36/46/36 28/45/28 30/47/30 
f 30/47/30 37/48/37 36/46/36 
f 37/48/37 30/47/30 3/8/3 
f 3/8/3 6/7/6 37/48/37 
f 31/36/31 38/49/38 39/50/39 
f 39/50/39 32/37/32 31/36/31 
f 32/37/32 39/50/39 40/51/40 
f 40/51/40 33/39/33 32/37/32 
f 33/39/33 40/51/40 41/52/41 
f 41/52/41 34/41/34 33/39/33 
f 34/41/34 41/52/41 7/9/7 
f 7/9/7 5/6/5 34/41/34 
f 42/53/42 35/43/35 36/46/36 
f 36/46/36 43/54/43 42/53/42 
f 43/54/43 36/46/36 37/48/37 
f 37/48/37 44/55/44 43/54/43 
f 44/55/44 37/48/37 6/7/6 
f 6/7/6 8/10/8 44/55/44 
f 38/49/38 45/56/45 46/57/46 
f 46/57/46 39/50/39 38/49/38 
f 39/50/39 46/57/46 47/58/47 
f 47/58/47 40/51/40 39/50/39 
f 40/51/40 47/58/47 48/59/48 
f 48/59/48 41/52/41 40/51/40 
f 41/52/41 48/59/48 9/11/9 
f 9/11/9 7/9/7 41/52/41 
f 49/60/49 42/53/42 43/54/43 
f 43/54/43 50/61/50 49/60/49 
f 50/61/50 43/54/43 44/55/44 
f 44/55/44 51/62/51 50/61/50 
f 51/62/51 44/55/44 8/10/8 
f 8/10/8 10/12/10 51/62/51 
f 45/56/45 52/63/52 53/64/53 
f 53/64/53 46/57/46 45/56/45 
f 46/57/46 53/64/53 54/65/54 
f 54/65/54 47/58/47 46/57/46 
f 47/58/47 54/65/54 55/66/55 
f 55/66/55 48/59/48 47/58/47 
f 48/59/48 55/66/55 11/13/11 
f 11/13/11 9/11/9 48/59/48 
f 56/67/56 49/60/49 50/61/50 
f 50/61/50 57/68/57 56/67/56 
f 57/68/57 50/61/50 51/62/51 
f 51/62/51 58/69/58 57/68/57 
f 58/69/58 51/62/51 10/12/10 
f 10/12/10 12/14/12 58/69/58 
f 52/70/52 59/71/59 60/72/60 
f 60/72/60 53/73/53 52/70/52 
f 53/73/53 60/72/60 61/74/61 
f 61/74/61 54/75/54 53/73/53 
f 54/75/54 61/74/61 62/76/62 
f 62/76/62 55/77/55 54/75/54 
f 55/77/55 62/76/62 13/16/13 
f 13/16/13 11/15/11 55/77/55 
f 63/78/63 56/79/56 57/80/57 
f 57/80/57 64/81/64 63/78/63 
f 64/81/64 57/80/57 58/82/58 
f 58/82/58 65/83/65 64/81/64 
f 65/83/65 58/82/58 12/18/12 
f 12/18/12 14/17/14 65/83/65 
f 59/71/59 66/84/66 67/85/67 
f 67/85/67 60/72/60 59/71/59 
f 60/72/60 67/85/67 68/86/68 
f 68/86/68 61/74/61 60/72/60 
f 61/74/61 68/86/68 69/87/69 
f 69/87/69 62/76/62 61/74/61 
f 62/76/62 69/87/69 15/19/15 
f 15/19/15 13/16/13 62/76/62 
f 70/88/70 63/78/63 64/81/64 
f 64/81/64 71/89/71 70/88/70 
f 71/89/71 64/81/64 65/83/65 
f 65/83/65 72/90/72 71/89/71 
f 72/90/72 65/83/65 14/17/14 
f 14/17/14 16/20/16 72/90/72 
f 66/84/66 17/21/17 20/24/20 
f 20/24/20 67/85/67 66/84/66 
f 67/85/67 20/24/20 22/26/22 
f 22/26/22 68/86/68 67/85/67 
f 68/86/68 22/26/22 24/28/24 
f 24/28/24 69/87/69 68/86/68 
f 69/87/69 24/28/24 1/1/1 
f 1/1/1 15/19/15 69/87/69 
f 26/30/26 70/88/70 71/89/71 
f 71/89/71 27/31/27 26/30/26 
f 27/31/27 71/89/71 72/90/72 
f 72/90/72 29/33/29 27/31/27 
f 29/33/29 72/90/72 16/20/16 
f 16/20/16 4/4/4 29/33/29 
# 128 faces

