# 3ds Max Wavefront OBJ Exporter v0.97b - (c)2007 guruware
# File Created: 24.01.2019 18:23:05

#
# object SM_WH_Pipe_Nut
#

v  0.7332 8.0704 -2.3533
v  6.6227 4.6704 -2.3533
v  -0.0000 0.0000 -2.3533
v  -6.6228 4.6702 -2.3533
v  -0.7334 8.0704 -2.3533
v  -0.7333 -8.0704 -2.3533
v  -6.6227 -4.6704 -2.3533
v  6.6227 -4.6701 -2.3533
v  0.7333 -8.0704 -2.3533
v  7.3560 3.4003 -2.3533
v  7.3560 -3.4000 -2.3533
v  -7.3560 -3.4003 -2.3533
v  -7.3561 3.4000 -2.3533
v  -0.7334 8.0704 2.3533
v  -6.6228 4.6702 2.3533
v  -7.3561 3.4000 2.3533
v  -7.3560 -3.4003 2.3533
v  -6.6227 -4.6704 2.3533
v  -0.7333 -8.0704 2.3533
v  0.7333 -8.0704 2.3533
v  6.6227 -4.6701 2.3533
v  7.3560 -3.4000 2.3533
v  7.3560 3.4003 2.3533
v  6.6227 4.6704 2.3533
v  0.7332 8.0704 2.3533
v  -0.0001 0.0000 2.3522
# 26 vertices

vn 0.0000 0.0000 -1.0000
vn -0.2588 0.9659 -0.0000
vn -0.7071 0.7071 -0.0000
vn -0.8660 0.5000 -0.0000
vn -1.0000 -0.0000 -0.0000
vn -1.0000 -0.0000 0.0000
vn -0.7071 -0.7071 0.0000
vn -0.8660 -0.5000 0.0000
vn -0.2588 -0.9659 0.0000
vn 0.2588 -0.9659 -0.0000
vn 0.7071 -0.7071 -0.0000
vn 0.8660 -0.5000 -0.0000
vn 1.0000 0.0000 -0.0000
vn 1.0000 0.0000 0.0000
vn 0.7071 0.7071 0.0000
vn 0.8660 0.5000 0.0000
vn 0.2588 0.9659 0.0000
vn -0.0001 -0.0001 1.0000
vn 0.0001 -0.0001 1.0000
vn 0.0001 0.0001 1.0000
vn -0.0001 0.0001 1.0000
vn -0.0001 -0.0000 1.0000
vn 0.0001 0.0000 1.0000
vn 0.0000 -0.0001 1.0000
vn -0.0000 0.0001 1.0000
# 25 vertex normals

vt 0.9593 0.4534 0.0000
vt 0.9420 0.4438 0.0000
vt 0.9610 0.4299 0.0000
vt 0.9806 0.4431 0.0000
vt 0.9636 0.4533 0.0000
vt 0.9628 0.4063 0.0000
vt 0.9801 0.4159 0.0000
vt 0.9415 0.4166 0.0000
vt 0.9585 0.4064 0.0000
vt 0.9398 0.4401 0.0000
vt 0.9394 0.4203 0.0000
vt 0.9823 0.4196 0.0000
vt 0.9826 0.4394 0.0000
vt 0.4823 0.9206 0.0000
vt 0.4823 0.9343 0.0000
vt 0.4625 0.9343 0.0000
vt 0.4625 0.9206 0.0000
vt 0.4582 0.9206 0.0000
vt 0.4582 0.9343 0.0000
vt 0.4106 0.7130 0.0000
vt 0.4106 0.7328 0.0000
vt 0.3969 0.7328 0.0000
vt 0.3969 0.7130 0.0000
vt 0.3917 0.9343 0.0000
vt 0.3874 0.9343 0.0000
vt 0.3874 0.9206 0.0000
vt 0.3917 0.9206 0.0000
vt 0.4115 0.9343 0.0000
vt 0.4115 0.9206 0.0000
vt 0.4158 0.9343 0.0000
vt 0.4158 0.9206 0.0000
vt 0.4356 0.9343 0.0000
vt 0.4356 0.9206 0.0000
vt 0.4399 0.9343 0.0000
vt 0.4399 0.9206 0.0000
vt 0.9677 0.2893 0.0000
vt 0.9677 0.2695 0.0000
vt 0.9814 0.2695 0.0000
vt 0.9814 0.2893 0.0000
vt 0.5064 0.9206 0.0000
vt 0.5107 0.9206 0.0000
vt 0.5107 0.9343 0.0000
vt 0.5064 0.9343 0.0000
vt 0.4866 0.9206 0.0000
vt 0.4866 0.9343 0.0000
vt 0.9802 0.6322 0.0000
vt 0.9630 0.6421 0.0000
vt 0.9609 0.6185 0.0000
vt 0.9587 0.6421 0.0000
vt 0.9416 0.6322 0.0000
vt 0.9416 0.6049 0.0000
vt 0.9587 0.5950 0.0000
vt 0.9630 0.5950 0.0000
vt 0.9802 0.6049 0.0000
vt 0.9823 0.6086 0.0000
vt 0.9823 0.6285 0.0000
vt 0.9394 0.6284 0.0000
vt 0.9394 0.6086 0.0000
# 58 texture coords

g SM_WH_Pipe_Nut
s 2
f 1/1/1 2/2/1 3/3/1 
f 4/4/1 5/5/1 3/3/1 
f 6/6/1 7/7/1 3/3/1 
f 8/8/1 9/9/1 3/3/1 
f 10/10/1 11/11/1 3/3/1 
f 12/12/1 13/13/1 3/3/1 
f 2/2/1 10/10/1 3/3/1 
f 5/5/1 1/1/1 3/3/1 
f 13/13/1 4/4/1 3/3/1 
f 7/7/1 12/12/1 3/3/1 
f 9/9/1 6/6/1 3/3/1 
f 11/11/1 8/8/1 3/3/1 
s 1
f 14/14/2 5/15/2 4/16/3 
f 4/16/3 15/17/3 14/14/2 
f 16/18/4 15/17/3 4/16/3 
f 4/16/3 13/19/4 16/18/4 
s off
f 17/20/5 16/21/5 13/22/5 
f 13/22/6 12/23/6 17/20/6 
s 1
f 18/24/7 17/25/8 12/26/8 
f 12/26/8 7/27/7 18/24/7 
f 19/28/9 18/24/7 7/27/7 
f 7/27/7 6/29/9 19/28/9 
f 20/30/10 19/28/9 6/29/9 
f 6/29/9 9/31/10 20/30/10 
f 21/32/11 20/30/10 9/31/10 
f 9/31/10 8/33/11 21/32/11 
f 22/34/12 21/32/11 8/33/11 
f 8/33/11 11/35/12 22/34/12 
s off
f 23/36/13 22/37/13 11/38/13 
f 11/38/14 10/39/14 23/36/14 
s 1
f 24/40/15 23/41/16 10/42/16 
f 10/42/16 2/43/15 24/40/15 
f 25/44/17 24/40/15 2/43/15 
f 2/43/15 1/45/17 25/44/17 
f 14/14/2 25/44/17 1/45/17 
f 1/45/17 5/15/2 14/14/2 
s off
f 24/46/18 25/47/18 26/48/18 
f 14/49/19 15/50/19 26/48/19 
f 18/51/20 19/52/20 26/48/20 
f 20/53/21 21/54/21 26/48/21 
f 22/55/22 23/56/22 26/48/22 
f 16/57/23 17/58/23 26/48/23 
f 25/47/24 14/49/24 26/48/24 
f 23/56/18 24/46/18 26/48/18 
f 15/50/19 16/57/19 26/48/19 
f 19/52/25 20/53/25 26/48/25 
f 17/58/20 18/51/20 26/48/20 
f 21/54/21 22/55/21 26/48/21 
# 48 faces

