# 3ds Max Wavefront OBJ Exporter v0.97b - (c)2007 guruware
# File Created: 24.01.2019 18:17:33

#
# object SM_WaterBottle
#

v  -16.4027 34.4550 -42.7290
v  -15.4233 38.9427 -40.1844
v  -0.7495 38.9427 -43.0346
v  -0.7991 34.4550 -45.7651
v  -30.0284 34.4550 -34.5426
v  -28.2366 38.9427 -32.4845
v  -40.0322 34.4550 -22.1917
v  -37.6430 38.9427 -20.8672
v  -45.2079 34.4550 -7.1586
v  -42.5093 38.9427 -6.7333
v  -44.9303 34.4550 8.7353
v  -42.2495 38.9427 8.2106
v  -39.2337 34.4550 23.5747
v  -36.8929 38.9427 22.1687
v  -28.8046 34.4550 35.5716
v  -27.0853 38.9427 33.4498
v  -14.9012 34.4550 43.2766
v  -14.0110 38.9427 40.6964
v  0.7992 34.4550 45.7651
v  0.7520 38.9427 43.0346
v  16.4040 34.4550 42.7315
v  15.4259 38.9427 40.1844
v  30.0285 34.4550 34.5426
v  28.2378 38.9427 32.4845
v  40.0322 34.4550 22.1917
v  37.6456 38.9426 20.8672
v  45.2079 34.4550 7.1612
v  42.5118 38.9426 6.7358
v  44.9303 34.4550 -8.7327
v  42.2507 38.9426 -8.2106
v  39.2337 34.4550 -23.5747
v  36.8942 38.9426 -22.1687
v  28.8046 34.4550 -35.5690
v  27.0878 38.9427 -33.4498
v  14.9012 34.4550 -43.2766
v  14.0135 38.9427 -40.6938
v  -9.7357 45.7546 -29.9603
v  -25.4857 45.7546 -18.5162
v  0.0006 47.5038 0.0003
v  -31.5032 45.7546 0.0013
v  -25.4857 45.7546 18.5162
v  -9.7357 45.7546 29.9603
v  9.7357 45.7546 29.9603
v  25.4870 45.7546 18.5162
v  31.5032 45.7546 0.0013
v  25.4870 45.7546 -18.5162
v  9.7357 45.7546 -29.9603
v  -13.7474 43.1609 -35.8238
v  -0.6692 43.1608 -38.3658
v  -25.1673 43.1609 -28.9593
v  -33.5524 43.1609 -18.6053
v  -37.8901 43.1609 -6.0074
v  -37.6583 43.1609 7.3140
v  -32.8825 43.1609 19.7515
v  -24.1421 43.1609 29.8049
v  -12.4891 43.1609 36.2670
v  0.6705 43.1608 38.3530
v  13.7486 43.1608 35.8085
v  25.1699 43.1608 28.9466
v  33.5549 43.1608 18.5900
v  37.8927 43.1608 5.9921
v  37.6609 43.1608 -7.3267
v  32.8850 43.1608 -19.7643
v  24.1447 43.1608 -29.8202
v  12.4916 43.1608 -36.2797
v  -28.8046 -36.2043 35.5716
v  -27.0853 -40.6919 33.4448
v  -14.0110 -40.6919 40.6913
v  -14.9012 -36.2043 43.2766
v  -39.2337 -36.2043 23.5747
v  -36.8929 -40.6919 22.1636
v  -44.9303 -36.2043 8.7353
v  -42.2495 -40.6919 8.2080
v  -45.2079 -36.2043 -7.1586
v  -42.5093 -40.6919 -6.7384
v  -40.0322 -36.2043 -22.1917
v  -37.6430 -40.6919 -20.8697
v  -30.0285 -36.2043 -34.5426
v  -28.2366 -40.6919 -32.4870
v  -16.4027 -36.2043 -42.7289
v  -15.4234 -40.6919 -40.1869
v  -0.7992 -36.2043 -45.7651
v  -0.7495 -40.6919 -43.0397
v  28.8046 -36.2043 -35.5690
v  27.0878 -40.6919 -33.4524
v  14.0135 -40.6919 -40.6989
v  14.9012 -36.2043 -43.2766
v  39.2337 -36.2043 -23.5747
v  36.8942 -40.6919 -22.1713
v  44.9303 -36.2043 -8.7327
v  42.2507 -40.6919 -8.2157
v  45.2079 -36.2043 7.1612
v  42.5118 -40.6919 6.7307
v  40.0322 -36.2043 22.1917
v  37.6456 -40.6919 20.8646
v  30.0285 -36.2043 34.5426
v  28.2378 -40.6919 32.4820
v  16.4040 -36.2043 42.7315
v  15.4259 -40.6919 40.1793
v  0.7992 -36.2043 45.7651
v  0.7520 -40.6919 43.0321
v  -20.4603 -47.5038 23.9568
v  -31.4064 -47.5038 2.4720
v  0.0006 -47.3862 -0.0014
v  -23.9549 -47.5038 -20.4596
v  -2.4713 -47.5038 -31.4071
v  20.4603 -47.5038 -23.9568
v  31.4064 -47.5038 -2.4720
v  23.9549 -47.5038 20.4622
v  2.4713 -47.5038 31.4071
v  -32.2317 -44.4848 23.4194
v  -12.3108 -44.4847 37.8920
v  -39.8412 -44.4848 0.0013
v  -32.2317 -44.4848 -23.4168
v  -12.3108 -44.4848 -37.8895
v  32.2330 -44.4848 -23.4168
v  12.3121 -44.4848 -37.8895
v  39.8424 -44.4848 0.0013
v  32.2330 -44.4847 23.4194
v  12.3121 -44.4847 37.8920
# 120 vertices

vn -0.3063 0.5193 -0.7978
vn -0.2783 0.6297 -0.7253
vn -0.0135 0.6299 -0.7766
vn -0.0150 0.5199 -0.8541
vn -0.5606 0.5195 -0.6449
vn -0.5095 0.6299 -0.5861
vn -0.7471 0.5199 -0.4141
vn -0.6792 0.6301 -0.3764
vn -0.8437 0.5200 -0.1336
vn -0.7669 0.6302 -0.1215
vn -0.8385 0.5200 0.1630
vn -0.7621 0.6303 0.1481
vn -0.7323 0.5198 0.4400
vn -0.6654 0.6304 0.3998
vn -0.5376 0.5198 0.6639
vn -0.4884 0.6304 0.6033
vn -0.2782 0.5197 0.8078
vn -0.2527 0.6303 0.7340
vn 0.0149 0.5198 0.8541
vn 0.0136 0.6304 0.7762
vn 0.3062 0.5195 0.7977
vn 0.2782 0.6303 0.7248
vn 0.5606 0.5195 0.6449
vn 0.5094 0.6302 0.5860
vn 0.7472 0.5196 0.4143
vn 0.6790 0.6303 0.3764
vn 0.8439 0.5197 0.1336
vn 0.7669 0.6301 0.1216
vn 0.8386 0.5197 -0.1630
vn 0.7623 0.6300 -0.1481
vn 0.7323 0.5197 -0.4401
vn 0.6657 0.6300 -0.4000
vn 0.5378 0.5194 -0.6641
vn 0.4888 0.6298 -0.6037
vn 0.2781 0.5198 -0.8077
vn 0.2529 0.6299 -0.7344
vn -0.0683 0.9754 -0.2096
vn -0.1797 0.9751 -0.1296
vn 0.0000 1.0000 0.0000
vn -0.2222 0.9750 0.0013
vn -0.1803 0.9749 0.1306
vn -0.0794 0.9741 0.2119
vn 0.0683 0.9753 0.2100
vn 0.1798 0.9751 0.1297
vn 0.2221 0.9750 -0.0013
vn 0.1802 0.9750 -0.1304
vn 0.0793 0.9741 -0.2116
vn -0.1946 0.8454 -0.4974
vn -0.0082 0.8524 -0.5228
vn -0.3402 0.8519 -0.3981
vn -0.4655 0.8490 -0.2500
vn -0.5181 0.8506 -0.0894
vn -0.5084 0.8543 0.1082
vn -0.4569 0.8492 0.2646
vn -0.3128 0.8604 0.4023
vn -0.1796 0.8484 0.4980
vn 0.0082 0.8527 0.5224
vn 0.1944 0.8457 0.4969
vn 0.3401 0.8521 0.3979
vn 0.4653 0.8492 0.2498
vn 0.5180 0.8507 0.0893
vn 0.5084 0.8543 -0.1083
vn 0.4571 0.8491 -0.2648
vn 0.3130 0.8602 -0.4026
vn 0.1796 0.8481 -0.4984
vn -0.5373 -0.5204 0.6637
vn -0.4402 -0.6789 0.5876
vn -0.2832 -0.5946 0.7525
vn -0.2781 -0.5203 0.8074
vn -0.7320 -0.5202 0.4400
vn -0.6940 -0.6099 0.3827
vn -0.8384 -0.5200 0.1631
vn -0.7422 -0.6475 0.1729
vn -0.8437 -0.5199 -0.1335
vn -0.7656 -0.6265 -0.1460
vn -0.7472 -0.5198 -0.4142
vn -0.7016 -0.6147 -0.3605
vn -0.5607 -0.5193 -0.6449
vn -0.4946 -0.6374 -0.5909
vn -0.3065 -0.5189 -0.7980
vn -0.3029 -0.5877 -0.7502
vn -0.0149 -0.5191 -0.8546
vn -0.0104 -0.6420 -0.7666
vn 0.5379 -0.5191 -0.6643
vn 0.4404 -0.6785 -0.5879
vn 0.2832 -0.5945 -0.7525
vn 0.2783 -0.5192 -0.8081
vn 0.7325 -0.5194 -0.4401
vn 0.6940 -0.6097 -0.3828
vn 0.8387 -0.5196 -0.1630
vn 0.7423 -0.6474 -0.1731
vn 0.8438 -0.5198 0.1337
vn 0.7657 -0.6264 0.1459
vn 0.7471 -0.5198 0.4142
vn 0.7016 -0.6147 0.3604
vn 0.5605 -0.5197 0.6447
vn 0.4946 -0.6374 0.5909
vn 0.3061 -0.5201 0.7974
vn 0.3029 -0.5878 0.7501
vn 0.0149 -0.5202 0.8539
vn 0.0104 -0.6422 0.7665
vn -0.1370 -0.9762 0.1679
vn -0.2055 -0.9785 0.0187
vn 0.0000 -1.0000 0.0000
vn -0.1526 -0.9739 -0.1678
vn -0.0184 -0.9762 -0.2163
vn 0.1370 -0.9762 -0.1680
vn 0.2055 -0.9785 -0.0187
vn 0.1552 -0.9785 0.1359
vn 0.0122 -0.9762 0.2164
vn -0.4711 -0.8137 0.3405
vn -0.1979 -0.8150 0.5447
vn -0.5901 -0.8073 -0.0026
vn -0.4701 -0.8123 -0.3452
vn -0.1816 -0.8264 -0.5330
vn 0.4708 -0.8140 -0.3402
vn 0.1977 -0.8154 -0.5440
vn 0.5900 -0.8074 0.0026
vn 0.4771 -0.8091 0.3431
vn 0.1783 -0.8178 0.5472
vn -0.3256 0.0000 0.9455
vn -0.6293 0.0000 0.7772
vn -0.8572 0.0000 0.5151
vn -0.9816 0.0000 0.1908
vn -0.9877 0.0000 -0.1564
vn -0.8746 0.0000 -0.4848
vn -0.6560 0.0000 -0.7548
vn -0.3584 0.0000 -0.9336
vn -0.0175 -0.0000 -0.9998
vn 0.3256 -0.0000 -0.9455
vn 0.6293 -0.0000 -0.7772
vn 0.8571 -0.0000 -0.5151
vn 0.9816 -0.0000 -0.1908
vn 0.9877 -0.0000 0.1564
vn 0.8746 -0.0000 0.4849
vn 0.6561 -0.0000 0.7547
vn 0.3584 -0.0000 0.9336
vn 0.0174 0.0000 0.9998
# 138 vertex normals

vt 0.5975 0.8060 0.0000
vt 0.5890 0.8028 0.0000
vt 0.5941 0.7763 0.0000
vt 0.6031 0.7765 0.0000
vt 0.5821 0.8319 0.0000
vt 0.5753 0.8260 0.0000
vt 0.5589 0.8511 0.0000
vt 0.5545 0.8432 0.0000
vt 0.5304 0.8611 0.0000
vt 0.5289 0.8522 0.0000
vt 0.5002 0.8605 0.0000
vt 0.5019 0.8516 0.0000
vt 0.4720 0.8497 0.0000
vt 0.4767 0.8419 0.0000
vt 0.4493 0.8300 0.0000
vt 0.4562 0.8243 0.0000
vt 0.4345 0.8037 0.0000
vt 0.4430 0.8008 0.0000
vt 0.4299 0.7740 0.0000
vt 0.4389 0.7741 0.0000
vt 0.4356 0.7445 0.0000
vt 0.4440 0.7477 0.0000
vt 0.4509 0.7186 0.0000
vt 0.4578 0.7245 0.0000
vt 0.4742 0.6994 0.0000
vt 0.4786 0.7072 0.0000
vt 0.5027 0.6894 0.0000
vt 0.5041 0.6982 0.0000
vt 0.5329 0.6900 0.0000
vt 0.5312 0.6988 0.0000
vt 0.5610 0.7008 0.0000
vt 0.5564 0.7085 0.0000
vt 0.5838 0.7205 0.0000
vt 0.5768 0.7262 0.0000
vt 0.5986 0.7467 0.0000
vt 0.5901 0.7497 0.0000
vt 0.5685 0.7921 0.0000
vt 0.5487 0.8197 0.0000
vt 0.5165 0.7752 0.0000
vt 0.5167 0.8303 0.0000
vt 0.4845 0.8196 0.0000
vt 0.4644 0.7923 0.0000
vt 0.4646 0.7584 0.0000
vt 0.4843 0.7308 0.0000
vt 0.5164 0.7202 0.0000
vt 0.5485 0.7309 0.0000
vt 0.5687 0.7582 0.0000
vt 0.5791 0.7989 0.0000
vt 0.5834 0.7761 0.0000
vt 0.5672 0.8190 0.0000
vt 0.5494 0.8340 0.0000
vt 0.5273 0.8418 0.0000
vt 0.5039 0.8413 0.0000
vt 0.4821 0.8327 0.0000
vt 0.4645 0.8175 0.0000
vt 0.4530 0.7973 0.0000
vt 0.4496 0.7743 0.0000
vt 0.4540 0.7515 0.0000
vt 0.4658 0.7315 0.0000
vt 0.4837 0.7165 0.0000
vt 0.5058 0.7087 0.0000
vt 0.5292 0.7092 0.0000
vt 0.5510 0.7177 0.0000
vt 0.5686 0.7329 0.0000
vt 0.5801 0.7531 0.0000
vt 0.6377 0.7166 0.0000
vt 0.6448 0.7223 0.0000
vt 0.6313 0.7457 0.0000
vt 0.6228 0.7428 0.0000
vt 0.6600 0.6963 0.0000
vt 0.6647 0.7040 0.0000
vt 0.6882 0.6854 0.0000
vt 0.6900 0.6943 0.0000
vt 0.7185 0.6847 0.0000
vt 0.7170 0.6936 0.0000
vt 0.7471 0.6947 0.0000
vt 0.7426 0.7026 0.0000
vt 0.7701 0.7142 0.0000
vt 0.7632 0.7201 0.0000
vt 0.7858 0.7399 0.0000
vt 0.7774 0.7431 0.0000
vt 0.7909 0.7696 0.0000
vt 0.7818 0.7697 0.0000
vt 0.7718 0.8256 0.0000
vt 0.7647 0.8198 0.0000
vt 0.7782 0.7964 0.0000
vt 0.7867 0.7994 0.0000
vt 0.7495 0.8458 0.0000
vt 0.7448 0.8381 0.0000
vt 0.7212 0.8568 0.0000
vt 0.7195 0.8479 0.0000
vt 0.6910 0.8575 0.0000
vt 0.6924 0.8486 0.0000
vt 0.6623 0.8475 0.0000
vt 0.6667 0.8397 0.0000
vt 0.6392 0.8280 0.0000
vt 0.6462 0.8221 0.0000
vt 0.6237 0.8022 0.0000
vt 0.6322 0.7990 0.0000
vt 0.6186 0.7726 0.0000
vt 0.6278 0.7724 0.0000
vt 0.6632 0.7353 0.0000
vt 0.7005 0.7158 0.0000
vt 0.7048 0.7711 0.0000
vt 0.7404 0.7291 0.0000
vt 0.7594 0.7667 0.0000
vt 0.7463 0.8069 0.0000
vt 0.7090 0.8265 0.0000
vt 0.6690 0.8132 0.0000
vt 0.6502 0.7754 0.0000
vt 0.6639 0.7144 0.0000
vt 0.6388 0.7495 0.0000
vt 0.7048 0.7005 0.0000
vt 0.7458 0.7143 0.0000
vt 0.7710 0.7495 0.0000
vt 0.7456 0.8278 0.0000
vt 0.7708 0.7927 0.0000
vt 0.7046 0.8417 0.0000
vt 0.6635 0.8280 0.0000
vt 0.6386 0.7926 0.0000
vt 0.1205 0.5479 0.0000
vt 0.1205 0.6706 0.0000
vt 0.0929 0.6706 0.0000
vt 0.0929 0.5479 0.0000
vt 0.0652 0.6706 0.0000
vt 0.0652 0.5479 0.0000
vt 0.0376 0.6706 0.0000
vt 0.0376 0.5479 0.0000
vt 0.0100 0.6706 0.0000
vt 0.0100 0.5479 0.0000
vt 0.5072 0.5478 0.0000
vt 0.5072 0.6706 0.0000
vt 0.4796 0.6706 0.0000
vt 0.4796 0.5478 0.0000
vt 0.4520 0.6706 0.0000
vt 0.4520 0.5478 0.0000
vt 0.4243 0.6706 0.0000
vt 0.4243 0.5478 0.0000
vt 0.3967 0.6706 0.0000
vt 0.3967 0.5478 0.0000
vt 0.3691 0.5478 0.0000
vt 0.3691 0.6706 0.0000
vt 0.3415 0.6706 0.0000
vt 0.3415 0.5478 0.0000
vt 0.3138 0.6706 0.0000
vt 0.3138 0.5478 0.0000
vt 0.2862 0.6706 0.0000
vt 0.2862 0.5478 0.0000
vt 0.2586 0.6706 0.0000
vt 0.2586 0.5478 0.0000
vt 0.2310 0.6706 0.0000
vt 0.2310 0.5479 0.0000
vt 0.2034 0.6706 0.0000
vt 0.2034 0.5479 0.0000
vt 0.1757 0.6706 0.0000
vt 0.1757 0.5479 0.0000
vt 0.1481 0.6706 0.0000
vt 0.1481 0.5479 0.0000
# 158 texture coords

g SM_WaterBottle
s 2
f 1/1/1 2/2/2 3/3/3 
f 3/3/3 4/4/4 1/1/1 
f 5/5/5 6/6/6 2/2/2 
f 2/2/2 1/1/1 5/5/5 
f 7/7/7 8/8/8 6/6/6 
f 6/6/6 5/5/5 7/7/7 
f 9/9/9 10/10/10 8/8/8 
f 8/8/8 7/7/7 9/9/9 
f 11/11/11 12/12/12 10/10/10 
f 10/10/10 9/9/9 11/11/11 
f 13/13/13 14/14/14 12/12/12 
f 12/12/12 11/11/11 13/13/13 
f 15/15/15 16/16/16 14/14/14 
f 14/14/14 13/13/13 15/15/15 
f 17/17/17 18/18/18 16/16/16 
f 16/16/16 15/15/15 17/17/17 
f 19/19/19 20/20/20 18/18/18 
f 18/18/18 17/17/17 19/19/19 
f 21/21/21 22/22/22 20/20/20 
f 20/20/20 19/19/19 21/21/21 
f 23/23/23 24/24/24 22/22/22 
f 22/22/22 21/21/21 23/23/23 
f 25/25/25 26/26/26 24/24/24 
f 24/24/24 23/23/23 25/25/25 
f 27/27/27 28/28/28 26/26/26 
f 26/26/26 25/25/25 27/27/27 
f 29/29/29 30/30/30 28/28/28 
f 28/28/28 27/27/27 29/29/29 
f 31/31/31 32/32/32 30/30/30 
f 30/30/30 29/29/29 31/31/31 
f 33/33/33 34/34/34 32/32/32 
f 32/32/32 31/31/31 33/33/33 
f 35/35/35 36/36/36 34/34/34 
f 34/34/34 33/33/33 35/35/35 
f 4/4/4 3/3/3 36/36/36 
f 36/36/36 35/35/35 4/4/4 
f 37/37/37 38/38/38 39/39/39 
f 38/38/38 40/40/40 39/39/39 
f 40/40/40 41/41/41 39/39/39 
f 41/41/41 42/42/42 39/39/39 
f 43/43/43 44/44/44 39/39/39 
f 44/44/44 45/45/45 39/39/39 
f 45/45/45 46/46/46 39/39/39 
f 46/46/46 47/47/47 39/39/39 
f 48/48/48 49/49/49 3/3/3 
f 3/3/3 2/2/2 48/48/48 
f 50/50/50 48/48/48 2/2/2 
f 2/2/2 6/6/6 50/50/50 
f 51/51/51 50/50/50 6/6/6 
f 6/6/6 8/8/8 51/51/51 
f 52/52/52 51/51/51 8/8/8 
f 8/8/8 10/10/10 52/52/52 
f 53/53/53 52/52/52 10/10/10 
f 10/10/10 12/12/12 53/53/53 
f 54/54/54 53/53/53 12/12/12 
f 12/12/12 14/14/14 54/54/54 
f 55/55/55 54/54/54 14/14/14 
f 14/14/14 16/16/16 55/55/55 
f 56/56/56 55/55/55 16/16/16 
f 16/16/16 18/18/18 56/56/56 
f 57/57/57 56/56/56 18/18/18 
f 18/18/18 20/20/20 57/57/57 
f 58/58/58 57/57/57 20/20/20 
f 20/20/20 22/22/22 58/58/58 
f 59/59/59 58/58/58 22/22/22 
f 22/22/22 24/24/24 59/59/59 
f 60/60/60 59/59/59 24/24/24 
f 24/24/24 26/26/26 60/60/60 
f 61/61/61 60/60/60 26/26/26 
f 26/26/26 28/28/28 61/61/61 
f 62/62/62 61/61/61 28/28/28 
f 28/28/28 30/30/30 62/62/62 
f 63/63/63 62/62/62 30/30/30 
f 30/30/30 32/32/32 63/63/63 
f 64/64/64 63/63/63 32/32/32 
f 32/32/32 34/34/34 64/64/64 
f 65/65/65 64/64/64 34/34/34 
f 34/34/34 36/36/36 65/65/65 
f 49/49/49 65/65/65 36/36/36 
f 36/36/36 3/3/3 49/49/49 
f 48/48/48 37/37/37 49/49/49 
f 50/50/50 38/38/38 37/37/37 
f 37/37/37 48/48/48 50/50/50 
f 51/51/51 38/38/38 50/50/50 
f 52/52/52 40/40/40 38/38/38 
f 38/38/38 51/51/51 52/52/52 
f 53/53/53 40/40/40 52/52/52 
f 54/54/54 41/41/41 40/40/40 
f 40/40/40 53/53/53 54/54/54 
f 55/55/55 41/41/41 54/54/54 
f 56/56/56 42/42/42 41/41/41 
f 41/41/41 55/55/55 56/56/56 
f 58/58/58 43/43/43 57/57/57 
f 59/59/59 44/44/44 43/43/43 
f 43/43/43 58/58/58 59/59/59 
f 60/60/60 44/44/44 59/59/59 
f 61/61/61 45/45/45 44/44/44 
f 44/44/44 60/60/60 61/61/61 
f 62/62/62 45/45/45 61/61/61 
f 63/63/63 46/46/46 45/45/45 
f 45/45/45 62/62/62 63/63/63 
f 64/64/64 46/46/46 63/63/63 
f 65/65/65 47/47/47 46/46/46 
f 46/46/46 64/64/64 65/65/65 
f 49/49/49 37/37/37 47/47/47 
f 47/47/47 65/65/65 49/49/49 
f 57/57/57 43/43/43 42/42/42 
f 42/42/42 56/56/56 57/57/57 
f 66/66/66 67/67/67 68/68/68 
f 68/68/68 69/69/69 66/66/66 
f 70/70/70 71/71/71 67/67/67 
f 67/67/67 66/66/66 70/70/70 
f 72/72/72 73/73/73 71/71/71 
f 71/71/71 70/70/70 72/72/72 
f 74/74/74 75/75/75 73/73/73 
f 73/73/73 72/72/72 74/74/74 
f 76/76/76 77/77/77 75/75/75 
f 75/75/75 74/74/74 76/76/76 
f 78/78/78 79/79/79 77/77/77 
f 77/77/77 76/76/76 78/78/78 
f 80/80/80 81/81/81 79/79/79 
f 79/79/79 78/78/78 80/80/80 
f 82/82/82 83/83/83 81/81/81 
f 81/81/81 80/80/80 82/82/82 
f 84/84/84 85/85/85 86/86/86 
f 86/86/86 87/87/87 84/84/84 
f 88/88/88 89/89/89 85/85/85 
f 85/85/85 84/84/84 88/88/88 
f 90/90/90 91/91/91 89/89/89 
f 89/89/89 88/88/88 90/90/90 
f 92/92/92 93/93/93 91/91/91 
f 91/91/91 90/90/90 92/92/92 
f 94/94/94 95/95/95 93/93/93 
f 93/93/93 92/92/92 94/94/94 
f 96/96/96 97/97/97 95/95/95 
f 95/95/95 94/94/94 96/96/96 
f 98/98/98 99/99/99 97/97/97 
f 97/97/97 96/96/96 98/98/98 
f 100/100/100 101/101/101 99/99/99 
f 99/99/99 98/98/98 100/100/100 
f 69/69/69 68/68/68 101/101/101 
f 101/101/101 100/100/100 69/69/69 
f 87/87/87 86/86/86 83/83/83 
f 83/83/83 82/82/82 87/87/87 
f 102/102/102 103/103/103 104/104/104 
f 103/103/103 105/105/105 104/104/104 
f 105/105/105 106/106/106 104/104/104 
f 107/107/107 108/108/108 104/104/104 
f 108/108/108 109/109/109 104/104/104 
f 109/109/109 110/110/110 104/104/104 
f 110/110/110 102/102/102 104/104/104 
f 106/106/106 107/107/107 104/104/104 
f 111/111/111 112/112/112 68/68/68 
f 68/68/68 67/67/67 111/111/111 
f 71/71/71 111/111/111 67/67/67 
f 113/113/113 111/111/111 71/71/71 
f 71/71/71 73/73/73 113/113/113 
f 75/75/75 113/113/113 73/73/73 
f 114/114/114 113/113/113 75/75/75 
f 75/75/75 77/77/77 114/114/114 
f 79/79/79 114/114/114 77/77/77 
f 115/115/115 114/114/114 79/79/79 
f 79/79/79 81/81/81 115/115/115 
f 83/83/83 115/115/115 81/81/81 
f 116/116/116 117/117/117 86/86/86 
f 86/86/86 85/85/85 116/116/116 
f 89/89/89 116/116/116 85/85/85 
f 118/118/118 116/116/116 89/89/89 
f 89/89/89 91/91/91 118/118/118 
f 93/93/93 118/118/118 91/91/91 
f 119/119/119 118/118/118 93/93/93 
f 93/93/93 95/95/95 119/119/119 
f 97/97/97 119/119/119 95/95/95 
f 120/120/120 119/119/119 97/97/97 
f 97/97/97 99/99/99 120/120/120 
f 101/101/101 120/120/120 99/99/99 
f 112/112/112 120/120/120 101/101/101 
f 101/101/101 68/68/68 112/112/112 
f 117/117/117 115/115/115 83/83/83 
f 83/83/83 86/86/86 117/117/117 
f 103/103/103 102/102/102 111/111/111 
f 111/111/111 113/113/113 103/103/103 
f 105/105/105 103/103/103 113/113/113 
f 113/113/113 114/114/114 105/105/105 
f 106/106/106 105/105/105 114/114/114 
f 114/114/114 115/115/115 106/106/106 
f 106/106/106 115/115/115 117/117/117 
f 107/107/107 106/106/106 117/117/117 
f 116/116/116 107/107/107 117/117/117 
f 108/108/108 107/107/107 116/116/116 
f 116/116/116 118/118/118 108/108/108 
f 109/109/109 108/108/108 118/118/118 
f 118/118/118 119/119/119 109/109/109 
f 120/120/120 110/110/110 109/109/109 
f 109/109/109 119/119/119 120/120/120 
f 112/112/112 111/111/111 102/102/102 
f 112/112/112 102/102/102 110/110/110 
f 112/112/112 110/110/110 120/120/120 
s 1
f 69/121/121 17/122/121 15/123/122 
f 15/123/122 66/124/122 69/121/121 
f 66/124/122 15/123/122 13/125/123 
f 13/125/123 70/126/123 66/124/122 
f 70/126/123 13/125/123 11/127/124 
f 11/127/124 72/128/124 70/126/123 
f 72/128/124 11/127/124 9/129/125 
f 9/129/125 74/130/125 72/128/124 
f 74/131/125 9/132/125 7/133/126 
f 7/133/126 76/134/126 74/131/125 
f 76/134/126 7/133/126 5/135/127 
f 5/135/127 78/136/127 76/134/126 
f 78/136/127 5/135/127 1/137/128 
f 1/137/128 80/138/128 78/136/127 
f 80/138/128 1/137/128 4/139/129 
f 4/139/129 82/140/129 80/138/128 
f 87/141/130 82/140/129 4/139/129 
f 4/139/129 35/142/130 87/141/130 
f 87/141/130 35/142/130 33/143/131 
f 33/143/131 84/144/131 87/141/130 
f 84/144/131 33/143/131 31/145/132 
f 31/145/132 88/146/132 84/144/131 
f 88/146/132 31/145/132 29/147/133 
f 29/147/133 90/148/133 88/146/132 
f 90/148/133 29/147/133 27/149/134 
f 27/149/134 92/150/134 90/148/133 
f 92/150/134 27/149/134 25/151/135 
f 25/151/135 94/152/135 92/150/134 
f 94/152/135 25/151/135 23/153/136 
f 23/153/136 96/154/136 94/152/135 
f 96/154/136 23/153/136 21/155/137 
f 21/155/137 98/156/137 96/154/136 
f 98/156/137 21/155/137 19/157/138 
f 19/157/138 100/158/138 98/156/137 
f 100/158/138 19/157/138 17/122/121 
f 17/122/121 69/121/121 100/158/138 
s 2
f 42/42/42 43/43/43 39/39/39 
f 47/47/47 37/37/37 39/39/39 
# 236 faces

