# 3ds Max Wavefront OBJ Exporter v0.97b - (c)2007 guruware
# File Created: 23.01.2019 02:31:51

#
# object hjfujh
#

v  72.3093 50.6305 -55.4629
v  78.1310 53.5934 -31.5814
v  86.8487 50.6305 -31.6833
v  -99.0808 -38.3187 -19.2519
v  -97.0720 -26.9296 -36.6489
v  -123.9230 -43.6209 -30.3488
v  19.4843 -53.8778 151.6211
v  31.9774 -43.6087 151.6211
v  23.8135 -50.3183 125.1668
v  19.4843 -53.8778 124.9461
v  26.9608 -43.6087 -25.3977
v  17.9396 -49.8783 -6.8160
v  31.9470 -43.6087 -16.4536
v  42.0912 29.0946 -41.3103
v  29.4048 29.0629 -44.2516
v  28.6839 23.5998 -43.2045
v  41.4131 50.6305 -70.6845
v  16.2145 33.6014 -49.8308
v  56.4074 42.4725 -55.2266
v  49.3863 29.0614 -27.0045
v  62.6190 42.7239 -45.0309
v  31.7809 -34.9767 -30.0169
v  -124.0814 42.4501 -62.1981
v  -149.9975 50.6305 -70.6856
v  -136.6220 37.6388 -53.8511
v  26.0294 3.4851 -35.1345
v  -118.2981 31.7744 -47.8252
v  -130.6205 26.1925 -43.7005
v  -114.9468 15.9355 -41.7382
v  -149.9971 28.7184 -44.1835
v  -99.4080 22.3051 -39.1521
v  -91.5367 34.1008 -50.6056
v  -114.6845 41.4900 -58.1464
v  -130.9166 34.8445 -46.3987
v  -119.6874 36.5832 -48.0721
v  -51.0135 2.4068 -39.1439
v  -27.9556 -3.9119 -37.9324
v  -27.5525 0.2803 -37.1394
v  -48.9446 9.5591 -35.1927
v  -50.0092 32.1666 -48.1911
v  -18.1102 27.3258 -43.9181
v  -15.5312 33.6811 -45.9308
v  -45.7215 37.8695 -49.5946
v  -102.1352 8.6918 -40.3502
v  -73.5199 13.9047 -36.2637
v  -72.8900 3.3433 -39.3243
v  -62.1947 16.6734 -36.7051
v  -64.0138 8.4401 -40.3006
v  -56.3703 44.0578 -57.1586
v  -57.8413 36.6429 -53.6631
v  9.9858 52.9100 -63.4112
v  1.0121 50.6305 -83.9950
v  -16.6879 47.9233 -70.6848
v  -8.7955 36.2348 -53.0828
v  19.4215 23.6041 -42.6384
v  10.0503 29.8837 -43.7477
v  19.2392 20.5011 -42.6105
v  -54.2888 25.4429 -41.0531
v  -11.1172 20.6666 -42.6420
v  -70.8230 32.3529 -48.4427
v  -89.5916 39.5073 -51.6249
v  13.4227 3.7667 -39.4033
v  9.9397 25.9737 -43.6593
v  -9.3077 31.3770 -44.1366
v  -97.9218 50.6305 -70.6853
v  -70.4548 -13.5724 -33.3602
v  -46.6735 -7.8531 -33.0797
v  -45.5669 -4.1335 -35.3589
v  -74.1721 -7.2926 -37.6290
v  -70.2692 -18.4756 -35.1510
v  -35.2559 -12.2959 -36.3278
v  -37.8662 -2.2099 -38.2591
v  -77.3663 -5.8498 -37.5663
v  -32.4194 48.1547 -70.6849
v  -30.2230 43.4039 -59.6589
v  -51.2083 50.6305 -91.2607
v  -53.8752 52.9002 -69.1398
v  -80.3097 52.5286 -66.1346
v  149.9977 50.6305 -148.3714
v  -149.9960 50.6305 -148.3769
v  -51.5277 -43.6153 -30.3356
v  -84.8551 -23.0762 -34.2734
v  -1.5616 -43.6113 -30.3264
v  18.4075 -42.9632 -24.7374
v  21.1148 -33.7566 -32.2110
v  12.3452 -53.8778 -17.8631
v  -27.3217 -36.6438 -31.6672
v  -34.3306 -53.8778 -9.5810
v  -149.9973 -43.6230 -30.3536
v  -149.9971 -53.8778 -17.8592
v  -129.3494 -53.8778 -17.8597
v  -107.2071 -53.8778 -4.6222
v  -76.6160 -50.3869 -19.7041
v  -82.6611 -45.1640 -18.9928
v  -51.0045 -50.4135 -25.6749
v  -50.7270 -53.8778 -17.8616
v  41.9002 8.2877 132.6639
v  45.8074 28.7179 151.6231
v  45.8134 28.7486 135.6388
v  40.0275 22.0690 30.7492
v  43.3761 24.2560 55.1740
v  51.9509 33.9199 50.0460
v  45.8658 29.0183 -4.6033
v  43.1725 14.9453 28.0908
v  43.5628 16.9833 54.3089
v  42.0026 8.8328 21.2716
v  39.1693 -5.9710 40.2479
v  35.5883 5.2412 44.4203
v  38.7663 15.4802 77.4318
v  42.0005 8.8227 70.1886
v  41.0068 3.6219 95.1594
v  37.7053 9.9313 104.0012
v  39.5643 -3.9248 112.2201
v  51.8692 29.4265 95.0440
v  55.5641 36.8713 80.5316
v  61.8757 41.3771 138.8129
v  50.7853 31.5414 125.1968
v  40.0517 -1.3613 60.4464
v  31.9729 -43.6087 126.7868
v  57.3723 38.4292 -30.1896
v  67.4698 49.1958 -40.8927
v  64.3862 44.1585 -14.7810
v  72.3094 50.6305 -2.0425
v  67.8385 49.9159 -21.4747
v  54.7726 43.5256 31.4009
v  35.3498 -25.8833 18.3802
v  34.9064 -28.2118 33.6451
v  -149.9971 -53.8778 23.4108
v  -79.4699 -53.8778 25.1448
v  11.4771 -53.8778 -3.9878
v  0.5793 -53.8778 -6.7435
v  14.4083 -49.8833 16.1239
v  -2.8675 -53.8778 19.2790
v  9.3401 -53.8778 45.4049
v  -0.5892 -53.8778 109.7977
v  19.4843 -53.8778 118.2380
v  31.9572 -43.6087 39.7662
v  23.9420 -39.1312 11.7304
v  15.1384 -46.2131 51.6103
v  -4.9677 -53.8778 73.8795
v  34.6813 -29.4264 106.5485
v  28.4211 -40.9646 60.4584
v  34.9943 -27.7647 76.9816
v  21.3282 -42.9806 73.9076
v  25.4707 -46.7136 119.3969
v  32.7081 -38.8175 94.2351
v  38.6244 1.0412 75.6898
v  39.1559 -6.0478 82.8686
v  -37.6352 -53.8778 151.6197
v  -77.9869 -53.8778 90.8212
v  60.7685 46.7676 82.0186
v  72.3095 50.6306 86.1753
v  72.3094 44.9505 31.5586
v  72.3096 50.6306 151.6231
v  84.2746 50.6306 87.7337
v  150.0007 50.6306 151.6241
v  86.8871 50.6305 31.6463
v  72.3093 50.6305 -70.6843
v  115.6337 53.1081 30.5947
v  118.9057 50.6306 34.6835
v  114.6910 50.6307 21.4746
v  108.7048 50.6308 21.6955
v  111.6033 53.1081 34.1427
v  112.6258 50.6307 39.0649
v  104.1193 50.6307 33.2840
# 165 vertices

vn -0.2584 0.9660 -0.0014
vn 0.0306 0.9994 -0.0172
vn 0.1115 0.9937 -0.0044
vn -0.0308 0.7746 0.6318
vn -0.0963 0.4341 0.8957
vn -0.1334 0.5794 0.8041
vn -0.3373 0.9414 -0.0000
vn -0.8598 0.5106 0.0001
vn -0.6373 0.7571 0.1438
vn -0.3663 0.9300 0.0290
vn -0.2663 0.7901 0.5521
vn -0.5812 0.8121 -0.0513
vn -0.7402 0.6707 0.0465
vn -0.4583 0.6403 0.6164
vn -0.1105 0.5423 0.8329
vn -0.1373 0.2678 0.9536
vn 0.0015 0.9560 0.2934
vn 0.0638 0.6819 0.7287
vn -0.2910 0.8769 0.3826
vn -0.8328 0.5428 0.1090
vn -0.6292 0.7734 0.0767
vn -0.6138 0.3757 0.6943
vn -0.0306 0.8305 0.5562
vn 0.0036 0.9423 0.3347
vn -0.0654 0.7901 0.6095
vn -0.1013 0.2485 0.9633
vn 0.1689 0.4321 0.8859
vn 0.0032 0.3374 0.9413
vn -0.0615 0.1941 0.9791
vn 0.0069 0.5016 0.8651
vn -0.0654 0.3583 0.9313
vn -0.0604 0.4781 0.8762
vn -0.0299 0.8282 0.5597
vn -0.3001 0.5417 0.7852
vn 0.3353 0.5619 0.7562
vn -0.0952 -0.1047 0.9899
vn -0.0079 0.0289 0.9996
vn 0.0233 -0.0163 0.9996
vn 0.0026 -0.0184 0.9998
vn -0.1056 0.6049 0.7893
vn -0.0227 0.2901 0.9567
vn 0.0286 0.6679 0.7437
vn -0.0844 0.5828 0.8082
vn -0.0852 0.0180 0.9962
vn -0.0149 0.1082 0.9940
vn 0.0185 -0.0081 0.9998
vn -0.0542 0.1790 0.9824
vn 0.0481 -0.2076 0.9770
vn 0.0002 0.6926 0.7213
vn -0.0254 0.5429 0.8394
vn -0.0154 0.9055 0.4241
vn -0.0330 0.9994 -0.0036
vn -0.0706 0.9279 0.3660
vn 0.0076 0.8201 0.5722
vn -0.0067 0.2239 0.9746
vn 0.0661 0.5047 0.8608
vn -0.0065 0.1239 0.9923
vn 0.0133 0.5560 0.8311
vn 0.0210 0.1954 0.9805
vn -0.0009 0.5645 0.8254
vn -0.1106 0.5409 0.8338
vn -0.1300 0.2479 0.9600
vn -0.0363 0.0951 0.9948
vn 0.0307 0.5447 0.8381
vn -0.0679 0.9634 0.2593
vn -0.4230 -0.0199 0.9059
vn 0.0776 0.1204 0.9897
vn 0.0123 0.7128 0.7013
vn -0.0512 0.1112 0.9925
vn -0.0667 0.0379 0.9971
vn 0.0688 0.1502 0.9863
vn 0.0754 0.2663 0.9609
vn -0.0194 0.1676 0.9857
vn 0.1125 0.9627 0.2460
vn 0.1416 0.8793 0.4548
vn 0.0211 0.9997 -0.0150
vn 0.0876 0.9671 0.2390
vn -0.0718 0.9506 0.3020
vn 0.0000 1.0000 -0.0000
vn -0.0293 0.4788 0.8774
vn -0.1333 0.3728 0.9183
vn 0.0352 0.5898 0.8068
vn -0.1545 0.7498 0.6434
vn -0.0738 0.3085 0.9484
vn -0.3461 0.8664 0.3599
vn -0.0025 0.4789 0.8779
vn -0.0422 0.9650 0.2590
vn -0.0001 0.5109 0.8597
vn 0.0000 0.9415 0.3369
vn -0.0895 0.9299 0.3567
vn -0.0532 0.9618 0.2686
vn 0.2400 0.6410 0.7291
vn 0.2796 0.4952 0.8226
vn -0.1798 0.7083 0.6827
vn -0.0409 0.9671 0.2511
vn -0.9730 0.2309 -0.0069
vn -0.8567 0.5157 -0.0067
vn -0.8597 0.4939 -0.1303
vn -0.9929 0.1178 0.0154
vn -0.9171 0.3971 0.0359
vn -0.8387 0.5413 0.0594
vn -0.8776 0.4704 -0.0926
vn -0.9970 -0.0177 -0.0750
vn -0.9785 0.2061 0.0105
vn -0.9822 0.1881 0.0001
vn -0.9966 0.0607 -0.0548
vn -0.9919 0.1010 -0.0772
vn -0.9851 0.1640 -0.0525
vn -0.9948 0.0720 -0.0727
vn -0.9954 -0.0755 -0.0595
vn -0.9785 0.2043 0.0278
vn -0.9961 0.0869 0.0167
vn -0.8733 0.4864 0.0270
vn -0.8489 0.5251 0.0598
vn -0.6455 0.7637 -0.0111
vn -0.8124 0.5768 -0.0855
vn -0.9958 0.0563 0.0717
vn -0.8414 0.5302 0.1047
vn -0.7604 0.6494 -0.0046
vn -0.5908 0.8037 -0.0710
vn -0.7125 0.7012 0.0258
vn -0.2747 0.9614 0.0144
vn -0.5745 0.8164 0.0581
vn -0.6089 0.7925 0.0338
vn -0.9397 0.3406 0.0316
vn -0.9821 0.1882 0.0002
vn -0.2475 0.9639 -0.0978
vn -0.0189 0.9994 -0.0288
vn -0.4548 0.8896 0.0426
vn -0.0905 0.9958 0.0143
vn -0.3112 0.9419 -0.1260
vn -0.4412 0.8958 0.0539
vn -0.7555 0.6552 -0.0033
vn -0.7422 0.6696 0.0290
vn -0.4464 0.8559 -0.2613
vn -0.1533 0.9881 0.0150
vn -0.9622 0.2722 -0.0021
vn -0.5679 0.8139 -0.1225
vn -0.9516 0.3074 -0.0061
vn -0.3791 0.9243 0.0430
vn -0.7290 0.6602 0.1807
vn -0.8609 0.5031 0.0759
vn -0.9881 0.1533 -0.0157
vn -0.9926 0.1192 0.0251
vn -0.6226 0.7822 0.0231
vn -0.1937 0.9811 0.0018
vn -0.2293 0.9725 0.0415
vn -0.3472 0.9378 -0.0095
vn -0.1462 0.9892 0.0090
vn -0.0628 0.9961 0.0623
vn 0.3123 0.9428 -0.1166
vn 0.1374 0.9884 0.0645
vn 0.0052 0.9990 -0.0445
vn -0.1114 0.9809 0.1596
vn 0.0072 0.9897 0.1430
vn -0.0709 0.9975 0.0032
# 156 vertex normals

vt 0.4435 0.7849 0.0000
vt 0.5065 0.7998 0.0000
vt 0.5062 0.8233 0.0000
vt 0.5090 0.1417 0.0000
vt 0.4553 0.1497 0.0000
vt 0.5001 0.0788 0.0000
vt 0.9900 0.4572 0.0000
vt 0.9900 0.4999 0.0000
vt 0.9202 0.4720 0.0000
vt 0.9196 0.4572 0.0000
vt 0.5002 0.4901 0.0000
vt 0.5719 0.4572 0.0000
vt 0.5465 0.4998 0.0000
vt 0.3049 0.5269 0.0000
vt 0.3050 0.4834 0.0000
vt 0.3197 0.4815 0.0000
vt 0.2150 0.5151 0.0000
vt 0.2860 0.4486 0.0000
vt 0.4400 0.7376 0.0000
vt 0.5185 0.6949 0.0000
vt 0.4710 0.7519 0.0000
vt 0.5055 0.5230 0.0000
vt 0.2453 0.0782 0.0000
vt 0.2150 0.0100 0.0000
vt 0.2716 0.0455 0.0000
vt 0.3737 0.4745 0.0000
vt 0.2932 0.0937 0.0000
vt 0.3126 0.0612 0.0000
vt 0.3402 0.1026 0.0000
vt 0.3058 0.0101 0.0000
vt 0.3287 0.1436 0.0000
vt 0.2836 0.1643 0.0000
vt 0.2566 0.1034 0.0000
vt 0.2948 0.0604 0.0000
vt 0.2875 0.0899 0.0000
vt 0.3765 0.2712 0.0000
vt 0.3935 0.3321 0.0000
vt 0.3840 0.3331 0.0000
vt 0.3645 0.2767 0.0000
vt 0.2918 0.2739 0.0000
vt 0.3096 0.3581 0.0000
vt 0.2913 0.3649 0.0000
vt 0.2767 0.2852 0.0000
vt 0.3596 0.1364 0.0000
vt 0.3525 0.2119 0.0000
vt 0.3740 0.2135 0.0000
vt 0.3451 0.2418 0.0000
vt 0.3603 0.2369 0.0000
vt 0.2509 0.2571 0.0000
vt 0.2731 0.2532 0.0000
vt 0.2287 0.4322 0.0000
vt 0.1799 0.4085 0.0000
vt 0.2150 0.3618 0.0000
vt 0.2750 0.3826 0.0000
vt 0.3187 0.4571 0.0000
vt 0.2984 0.4324 0.0000
vt 0.3280 0.4566 0.0000
vt 0.3161 0.2629 0.0000
vt 0.3275 0.3765 0.0000
vt 0.2910 0.2190 0.0000
vt 0.2698 0.1694 0.0000
vt 0.3729 0.4413 0.0000
vt 0.3133 0.4321 0.0000
vt 0.3001 0.3813 0.0000
vt 0.2150 0.1474 0.0000
vt 0.4200 0.2200 0.0000
vt 0.4035 0.2826 0.0000
vt 0.3947 0.2857 0.0000
vt 0.4020 0.2101 0.0000
vt 0.4326 0.2204 0.0000
vt 0.4160 0.3128 0.0000
vt 0.3889 0.3059 0.0000
vt 0.3987 0.2017 0.0000
vt 0.2150 0.3203 0.0000
vt 0.2478 0.3261 0.0000
vt 0.1607 0.2707 0.0000
vt 0.2150 0.2636 0.0000
vt 0.2277 0.1939 0.0000
vt 0.0100 0.8016 0.0000
vt 0.0100 0.0100 0.0000
vt 0.5002 0.2698 0.0000
vt 0.4450 0.1819 0.0000
vt 0.5002 0.4017 0.0000
vt 0.5002 0.4581 0.0000
vt 0.4737 0.4615 0.0000
vt 0.4770 0.4945 0.0000
vt 0.5428 0.4384 0.0000
vt 0.4814 0.3337 0.0000
vt 0.5647 0.3152 0.0000
vt 0.5001 0.0100 0.0000
vt 0.5428 0.0100 0.0000
vt 0.5428 0.0645 0.0000
vt 0.5777 0.1229 0.0000
vt 0.5437 0.2036 0.0000
vt 0.5246 0.1877 0.0000
vt 0.5280 0.2712 0.0000
vt 0.5428 0.2719 0.0000
vt 0.2623 0.5599 0.0000
vt 0.9399 0.6394 0.0000
vt 0.9899 0.6943 0.0000
vt 0.9477 0.6944 0.0000
vt 0.6709 0.6740 0.0000
vt 0.7354 0.6800 0.0000
vt 0.7219 0.7155 0.0000
vt 0.5776 0.6949 0.0000
vt 0.6639 0.6571 0.0000
vt 0.7331 0.6626 0.0000
vt 0.6460 0.6407 0.0000
vt 0.6961 0.6010 0.0000
vt 0.7070 0.6311 0.0000
vt 0.7941 0.6564 0.0000
vt 0.7750 0.6407 0.0000
vt 0.8409 0.6268 0.0000
vt 0.8643 0.6416 0.0000
vt 0.8860 0.6065 0.0000
vt 0.8405 0.7048 0.0000
vt 0.8023 0.7278 0.0000
vt 0.9561 0.7478 0.0000
vt 0.9201 0.7082 0.0000
vt 0.7493 0.6134 0.0000
vt 0.9245 0.4999 0.0000
vt 0.5101 0.7341 0.0000
vt 0.4819 0.7676 0.0000
vt 0.5508 0.7579 0.0000
vt 0.5844 0.7849 0.0000
vt 0.5331 0.7693 0.0000
vt 0.6727 0.7405 0.0000
vt 0.6384 0.5475 0.0000
vt 0.6787 0.5412 0.0000
vt 0.6517 0.0100 0.0000
vt 0.6562 0.1961 0.0000
vt 0.5794 0.4361 0.0000
vt 0.5721 0.4073 0.0000
vt 0.6325 0.4438 0.0000
vt 0.6408 0.3982 0.0000
vt 0.7097 0.4304 0.0000
vt 0.8796 0.4042 0.0000
vt 0.9019 0.4572 0.0000
vt 0.6948 0.4998 0.0000
vt 0.6207 0.4931 0.0000
vt 0.7261 0.4501 0.0000
vt 0.7849 0.3927 0.0000
vt 0.8710 0.5380 0.0000
vt 0.7500 0.4944 0.0000
vt 0.7930 0.5424 0.0000
vt 0.7842 0.4755 0.0000
vt 0.9050 0.4777 0.0000
vt 0.8388 0.5111 0.0000
vt 0.7896 0.6198 0.0000
vt 0.8085 0.6008 0.0000
vt 0.9900 0.3065 0.0000
vt 0.8295 0.2000 0.0000
vt 0.8062 0.7533 0.0000
vt 0.8172 0.7850 0.0000
vt 0.6731 0.7849 0.0000
vt 0.9899 0.7850 0.0000
vt 0.8213 0.8165 0.0000
vt 0.9899 0.9900 0.0000
vt 0.6733 0.8234 0.0000
vt 0.1983 0.9900 0.0000
vt 0.4033 0.7849 0.0000
vt 0.6705 0.8993 0.0000
vt 0.6813 0.9079 0.0000
vt 0.6465 0.8968 0.0000
vt 0.6471 0.8810 0.0000
vt 0.6799 0.8886 0.0000
vt 0.6929 0.8913 0.0000
vt 0.6776 0.8689 0.0000
vt 0.5099 0.4998 0.0000
vt 0.4730 0.6950 0.0000
vt 0.2150 0.5966 0.0000
# 171 texture coords

g hjfujh
s 1
f 1/1/1 2/2/2 3/3/3 
f 4/4/4 5/5/5 6/6/6 
f 7/7/7 8/8/8 9/9/9 
f 9/9/9 10/10/10 7/7/7 
f 11/11/11 12/12/12 13/13/13 
f 14/14/14 15/15/15 16/16/16 
f 15/15/15 17/17/17 18/18/18 
f 19/19/19 20/20/20 21/21/21 
f 20/20/20 22/22/22 13/13/13 
f 23/23/23 24/24/24 25/25/25 
f 16/16/16 26/26/26 14/14/14 
f 27/27/27 28/28/28 29/29/29 
f 30/30/30 28/28/28 25/25/25 
f 25/25/25 24/24/24 30/30/30 
f 31/31/31 32/32/32 33/33/33 
f 33/33/33 27/27/27 31/31/31 
f 34/34/34 35/35/35 25/25/25 
f 25/25/25 28/28/28 34/34/34 
f 27/27/27 33/33/33 35/35/35 
f 27/27/27 35/35/35 34/34/34 
f 34/34/34 28/28/28 27/27/27 
f 36/36/36 37/37/37 38/38/38 
f 38/38/38 39/39/39 36/36/36 
f 40/40/40 41/41/41 42/42/42 
f 42/42/42 43/43/43 40/40/40 
f 31/31/31 27/27/27 29/29/29 
f 29/29/29 44/44/44 31/31/31 
f 45/45/45 31/31/31 44/44/44 
f 44/44/44 46/46/46 45/45/45 
f 47/47/47 45/45/45 46/46/46 
f 46/46/46 48/48/48 47/47/47 
f 39/39/39 47/47/47 48/48/48 
f 48/48/48 36/36/36 39/39/39 
f 49/49/49 50/50/50 40/40/40 
f 40/40/40 43/43/43 49/49/49 
f 51/51/51 52/52/52 53/53/53 
f 53/53/53 54/54/54 51/51/51 
f 51/51/51 17/17/17 52/52/52 
f 18/18/18 17/17/17 51/51/51 
f 54/54/54 18/18/18 51/51/51 
f 55/55/55 18/18/18 56/56/56 
f 55/55/55 57/57/57 16/16/16 
f 16/16/16 15/15/15 55/55/55 
f 58/58/58 59/59/59 41/41/41 
f 41/41/41 40/40/40 58/58/58 
f 49/49/49 60/60/60 50/50/50 
f 61/61/61 33/33/33 32/32/32 
f 49/49/49 61/61/61 60/60/60 
f 61/61/61 32/32/32 60/60/60 
f 60/60/60 45/45/45 47/47/47 
f 47/47/47 58/58/58 60/60/60 
f 39/39/39 38/38/38 58/58/58 
f 58/58/58 47/47/47 39/39/39 
f 50/50/50 60/60/60 58/58/58 
f 58/58/58 40/40/40 50/50/50 
f 62/62/62 63/63/63 59/59/59 
f 59/59/59 38/38/38 62/62/62 
f 37/37/37 62/62/62 38/38/38 
f 38/38/38 59/59/59 58/58/58 
f 64/64/64 59/59/59 63/63/63 
f 63/63/63 56/56/56 64/64/64 
f 54/54/54 64/64/64 56/56/56 
f 56/56/56 18/18/18 54/54/54 
f 65/65/65 33/33/33 61/61/61 
f 54/54/54 42/42/42 64/64/64 
f 64/64/64 42/42/42 41/41/41 
f 41/41/41 59/59/59 64/64/64 
f 62/62/62 57/57/57 63/63/63 
f 62/62/62 26/26/26 16/16/16 
f 16/16/16 57/57/57 62/62/62 
f 66/66/66 67/67/67 68/68/68 
f 68/68/68 69/69/69 66/66/66 
f 67/67/67 66/66/66 70/70/70 
f 70/70/70 71/71/71 67/67/67 
f 67/67/67 71/71/71 72/72/72 
f 72/72/72 68/68/68 67/67/67 
f 68/68/68 72/72/72 73/73/73 
f 73/73/73 69/69/69 68/68/68 
f 73/73/73 72/72/72 36/36/36 
f 36/36/36 46/46/46 73/73/73 
f 69/69/69 73/73/73 70/70/70 
f 70/70/70 66/66/66 69/69/69 
f 5/5/5 44/44/44 29/29/29 
f 29/29/29 6/6/6 5/5/5 
f 72/72/72 37/37/37 36/36/36 
f 36/36/36 48/48/48 46/46/46 
f 54/54/54 53/53/53 74/74/74 
f 74/74/74 75/75/75 54/54/54 
f 74/74/74 53/53/53 52/52/52 
f 52/52/52 76/76/76 74/74/74 
f 75/75/75 74/74/74 77/77/77 
f 43/43/43 75/75/75 77/77/77 
f 49/49/49 43/43/43 77/77/77 
f 77/77/77 74/74/74 76/76/76 
f 49/49/49 77/77/77 78/78/78 
f 78/78/78 61/61/61 49/49/49 
f 78/78/78 65/65/65 61/61/61 
f 76/76/76 65/65/65 78/78/78 
f 78/78/78 77/77/77 76/76/76 
f 52/52/52 79/79/79 80/80/79 
f 80/80/79 76/76/76 52/52/52 
f 75/75/75 43/43/43 42/42/42 
f 42/42/42 54/54/54 75/75/75 
f 35/35/35 33/33/33 23/23/23 
f 23/23/23 25/25/25 35/35/35 
f 81/81/80 71/71/71 70/70/70 
f 70/70/70 82/82/81 81/81/80 
f 83/83/82 84/84/83 85/85/84 
f 85/85/84 84/84/83 11/11/11 
f 11/11/11 22/86/22 85/85/84 
f 86/87/85 84/84/83 83/83/82 
f 87/88/86 88/89/87 86/87/85 
f 86/87/85 83/83/82 87/88/86 
f 87/88/86 81/81/80 88/89/87 
f 89/90/88 90/91/89 91/92/90 
f 91/92/90 6/6/6 89/90/88 
f 92/93/91 93/94/92 94/95/93 
f 81/81/80 95/96/94 88/89/87 
f 96/97/95 95/96/94 93/94/92 
f 93/94/92 92/93/91 96/97/95 
f 95/96/94 96/97/95 88/89/87 
f 93/94/92 95/96/94 81/81/80 
f 81/81/80 94/95/93 93/94/92 
f 94/95/93 81/81/80 82/82/81 
f 94/95/93 82/82/81 5/5/5 
f 6/6/6 91/92/90 92/93/91 
f 92/93/91 4/4/4 6/6/6 
f 92/93/91 94/95/93 4/4/4 
f 94/95/93 5/5/5 4/4/4 
f 92/93/91 91/92/90 90/91/89 
f 88/89/87 96/97/95 92/93/91 
f 87/88/86 37/37/37 71/71/71 
f 71/71/71 81/81/80 87/88/86 
f 83/83/82 62/62/62 37/37/37 
f 37/37/37 87/88/86 83/83/82 
f 37/37/37 72/72/72 71/71/71 
f 83/83/82 85/85/84 26/26/26 
f 26/26/26 62/62/62 83/83/82 
f 28/28/28 30/30/30 89/90/88 
f 89/90/88 6/6/6 28/28/28 
f 29/29/29 28/28/28 6/6/6 
f 5/5/5 82/82/81 73/73/73 
f 73/73/73 44/44/44 5/5/5 
f 82/82/81 70/70/70 73/73/73 
f 73/73/73 46/46/46 44/44/44 
f 55/55/55 56/56/56 63/63/63 
f 63/63/63 57/57/57 55/55/55 
f 55/55/55 15/15/15 18/18/18 
f 14/14/14 19/98/19 17/17/17 
f 97/99/96 8/8/8 98/100/97 
f 98/100/97 99/101/98 97/99/96 
f 100/102/99 101/103/100 102/104/101 
f 102/104/101 103/105/102 100/102/99 
f 101/103/100 100/102/99 104/106/103 
f 104/106/103 105/107/104 101/103/100 
f 104/106/103 106/108/105 107/109/106 
f 107/109/106 108/110/107 104/106/103 
f 109/111/108 110/112/109 111/113/110 
f 111/113/110 112/114/111 109/111/108 
f 111/113/110 113/115/112 112/114/111 
f 113/115/112 97/99/96 112/114/111 
f 109/111/108 112/114/111 114/116/113 
f 114/116/113 115/117/114 109/111/108 
f 99/101/98 98/100/97 116/118/115 
f 116/118/115 117/119/116 99/101/98 
f 101/103/100 109/111/108 102/104/101 
f 101/103/100 105/107/104 110/112/109 
f 110/112/109 109/111/108 101/103/100 
f 110/112/109 105/107/104 108/110/107 
f 108/110/107 107/109/106 118/120/117 
f 118/120/117 110/112/109 108/110/107 
f 119/121/118 8/8/8 97/99/96 
f 21/21/21 20/20/20 120/122/119 
f 1/1/1 21/21/21 121/123/120 
f 122/124/121 123/125/122 124/126/123 
f 120/122/119 124/126/123 121/123/120 
f 121/123/120 21/21/21 120/122/119 
f 2/2/2 123/125/122 3/3/3 
f 121/123/120 124/126/123 2/2/2 
f 2/2/2 124/126/123 123/125/122 
f 1/1/1 121/123/120 2/2/2 
f 120/122/119 122/124/121 124/126/123 
f 125/127/124 123/125/122 122/124/121 
f 20/20/20 122/124/121 120/122/119 
f 103/105/102 20/20/20 13/13/13 
f 8/8/8 119/121/118 9/9/9 
f 107/109/106 106/108/105 126/128/125 
f 126/128/125 127/129/126 107/109/106 
f 92/93/79 90/91/79 128/130/79 
f 128/130/79 129/131/91 92/93/79 
f 130/132/127 86/87/85 131/133/128 
f 12/12/12 86/87/85 130/132/127 
f 132/134/129 133/135/130 134/136/131 
f 135/137/79 10/10/10 136/138/132 
f 127/129/126 137/139/133 107/109/106 
f 103/105/102 104/106/103 100/102/99 
f 103/105/102 13/13/13 126/128/125 
f 126/128/125 106/108/105 103/105/102 
f 103/105/102 106/108/105 104/106/103 
f 132/134/129 130/132/127 131/133/128 
f 131/133/128 133/135/130 132/134/129 
f 137/139/133 127/129/126 126/128/125 
f 126/128/125 138/140/134 137/139/133 
f 126/128/125 13/13/13 12/12/12 
f 12/12/12 138/140/134 126/128/125 
f 132/134/129 134/136/131 137/139/133 
f 12/12/12 130/132/127 132/134/129 
f 138/140/134 12/12/12 132/134/129 
f 137/139/133 138/140/134 132/134/129 
f 137/139/133 134/136/131 139/141/135 
f 134/136/131 140/142/136 139/141/135 
f 119/121/118 97/99/96 113/115/112 
f 113/115/112 141/143/137 119/121/118 
f 142/144/138 143/145/139 137/139/133 
f 144/146/140 140/142/136 136/138/132 
f 140/142/136 135/137/79 136/138/132 
f 144/146/140 139/141/135 140/142/136 
f 145/147/141 141/143/137 146/148/142 
f 144/146/140 136/138/132 145/147/141 
f 145/147/141 146/148/142 144/146/140 
f 142/144/138 137/139/133 139/141/135 
f 139/141/135 144/146/140 142/144/138 
f 141/143/137 143/145/139 142/144/138 
f 142/144/138 146/148/142 141/143/137 
f 146/148/142 142/144/138 144/146/140 
f 145/147/141 119/121/118 141/143/137 
f 111/113/110 147/149/143 148/150/144 
f 118/120/117 143/145/139 148/150/144 
f 148/150/144 113/115/112 111/113/110 
f 111/113/110 110/112/109 147/149/143 
f 147/149/143 118/120/117 148/150/144 
f 110/112/109 118/120/117 147/149/143 
f 141/143/137 113/115/112 148/150/144 
f 148/150/144 143/145/139 141/143/137 
f 118/120/117 107/109/106 137/139/133 
f 137/139/133 143/145/139 118/120/117 
f 145/147/141 136/138/132 10/10/10 
f 10/10/10 9/9/9 145/147/141 
f 119/121/118 145/147/141 9/9/9 
f 131/133/128 86/87/85 88/89/87 
f 133/135/130 131/133/128 88/89/87 
f 140/142/136 134/136/131 133/135/130 
f 133/135/130 88/89/87 140/142/136 
f 149/151/79 135/137/7 140/142/10 
f 140/142/10 150/152/79 149/151/79 
f 105/107/104 104/106/103 108/110/107 
f 97/99/96 99/101/98 117/119/116 
f 97/99/96 117/119/116 114/116/113 
f 112/114/111 97/99/96 114/116/113 
f 115/117/114 102/104/101 109/111/108 
f 151/153/145 115/117/114 116/118/115 
f 151/153/145 152/154/146 153/155/147 
f 153/155/147 125/127/124 151/153/145 
f 116/118/115 154/156/148 152/154/146 
f 152/154/146 151/153/145 116/118/115 
f 125/127/124 122/124/121 103/105/102 
f 125/127/124 103/105/102 102/104/101 
f 125/127/124 102/104/101 115/117/114 
f 115/117/114 151/153/145 125/127/124 
f 115/117/114 114/116/113 117/119/116 
f 117/119/116 116/118/115 115/117/114 
f 98/100/97 154/156/148 116/118/115 
f 155/157/79 156/158/79 157/159/149 
f 157/159/149 123/125/122 153/155/147 
f 157/159/149 152/154/146 155/157/79 
f 152/154/146 154/156/148 155/157/79 
f 154/156/148 156/158/79 155/157/79 
f 157/159/149 3/3/3 123/125/122 
f 157/159/149 153/155/147 152/154/146 
f 79/160/79 158/161/150 3/3/3 
f 159/162/151 160/163/152 161/164/153 
f 79/160/79 3/3/3 162/165/79 
f 162/165/79 161/164/153 79/160/79 
f 163/166/154 164/167/155 160/163/152 
f 160/163/152 159/162/151 163/166/154 
f 159/162/151 161/164/153 165/168/156 
f 165/168/156 163/166/154 159/162/151 
f 163/166/154 165/168/156 164/167/155 
f 156/158/79 160/163/152 164/167/155 
f 156/158/79 164/167/155 165/168/156 
f 165/168/156 157/159/149 156/158/79 
f 157/159/149 165/168/156 162/165/79 
f 162/165/79 3/3/3 157/159/149 
f 79/160/79 161/164/153 160/163/152 
f 160/163/152 156/158/79 79/160/79 
f 161/164/153 162/165/79 165/168/156 
f 26/26/26 85/85/84 22/86/22 
f 22/86/22 14/14/14 26/26/26 
f 22/22/22 11/169/11 13/13/13 
f 20/20/20 14/170/14 22/22/22 
f 21/21/21 1/1/1 19/19/19 
f 19/98/19 158/171/150 17/17/17 
f 1/1/1 158/161/150 19/19/19 
f 52/52/52 17/17/17 158/171/150 
f 52/52/52 158/171/150 79/79/79 
f 80/80/79 24/24/24 65/65/65 
f 65/65/65 76/76/76 80/80/79 
f 65/65/65 23/23/23 33/33/33 
f 65/65/65 24/24/24 23/23/23 
f 32/32/32 31/31/31 45/45/45 
f 45/45/45 60/60/60 32/32/32 
f 158/161/150 1/1/1 3/3/3 
f 15/15/15 14/14/14 17/17/17 
f 19/19/19 14/170/14 20/20/20 
f 20/20/20 103/105/102 122/124/121 
f 125/127/124 153/155/147 123/125/122 
f 11/11/11 84/84/83 12/12/12 
f 84/84/83 86/87/85 12/12/12 
f 88/89/79 92/93/79 129/131/79 
f 140/142/79 88/89/79 129/131/79 
f 129/131/79 150/152/79 140/142/79 
f 149/151/79 7/7/79 10/10/79 
f 10/10/79 135/137/79 149/151/79 
# 313 faces

