# 3ds Max Wavefront OBJ Exporter v0.97b - (c)2007 guruware
# File Created: 30.01.2019 22:17:53

#
# object Object2222
#

v  150.0020 0.1149 31.2411
v  75.0449 0.3636 18.7443
v  32.1752 0.1149 31.2411
v  131.2598 4.5368 6.2482
v  131.2656 0.1149 18.7443
v  150.0020 0.1149 18.7442
v  112.5234 9.6681 6.2481
v  112.5234 0.1149 18.7442
v  131.2578 0.4307 -18.7445
v  131.2598 0.7517 -6.2483
v  150.0020 0.1149 -6.2482
v  112.5195 3.6748 -18.7445
v  112.5234 3.0283 -6.2483
v  93.7813 4.3684 -18.7447
v  75.0430 10.9285 -18.7446
v  75.0430 5.5774 -6.2483
v  93.7832 5.2411 -6.2478
v  75.0449 7.7006 6.2486
v  93.7852 7.0398 6.2480
v  93.7852 0.2135 18.7442
v  85.2327 0.1147 -24.4436
v  75.0397 0.1147 -25.6236
v  102.3550 0.1147 -24.4634
v  112.5178 0.1147 -24.3199
v  150.0020 0.1147 -31.2406
v  112.5156 0.1147 -31.2406
v  8.6813 0.1147 -25.4960
v  18.8105 10.5089 -18.7445
v  28.9650 0.1147 -25.5156
v  37.5566 6.7799 -18.7445
v  37.5537 0.1147 -24.8843
v  64.5048 0.1147 -24.2183
v  56.2949 3.4820 -18.7445
v  48.1134 0.1147 -24.1988
v  37.5684 0.1149 18.7443
v  37.5625 5.4853 6.2480
v  18.8242 11.7254 6.2486
v  18.8301 0.1149 18.7442
v  0.0859 13.3167 6.2486
v  0.0898 0.1149 18.7442
v  56.3066 9.8642 6.2486
v  56.3047 0.1149 18.7442
v  56.3027 12.5163 -6.2481
v  37.5586 9.8483 -6.2482
v  0.0723 7.8920 -18.7445
v  0.0762 6.9719 -6.2483
v  18.8184 7.7519 -6.2480
v  -112.3418 0.1149 18.7442
v  -112.3594 2.5717 6.2486
v  -131.0938 2.0328 6.2486
v  -131.0801 0.1149 18.7443
v  -74.8672 0.1149 18.7443
v  -74.8770 4.0091 6.2486
v  -93.6211 0.1149 6.2486
v  -93.6074 0.1149 18.7443
v  -74.8906 0.1149 -6.2480
v  -74.9004 5.5362 -18.7446
v  -93.6387 0.1149 -18.7444
v  -93.6270 0.1149 -6.2480
v  -112.3770 0.1149 -18.7444
v  -112.3730 4.5827 -6.2481
v  -131.1074 0.1149 -6.2480
v  -131.1191 0.1185 -18.7445
v  -18.6563 10.0455 6.2480
v  -18.6484 0.1149 18.7442
v  -37.3984 11.5688 6.2479
v  -37.3867 0.1149 18.7443
v  -18.6699 9.1156 -18.7445
v  -18.6660 6.1387 -6.2480
v  -37.4160 9.0010 -18.7445
v  -37.4043 0.1268 -6.2480
v  -56.1563 8.3805 -18.7445
v  -56.1465 0.1149 -6.2480
v  -56.1367 0.9313 6.2480
v  -56.1270 0.1149 18.7442
v  -65.6502 0.1147 -25.0700
v  -74.9058 0.1147 -24.5127
v  -46.6430 0.1147 -25.0894
v  -37.4180 0.1147 -25.2060
v  -28.4077 0.1147 -25.2345
v  -87.0689 0.1147 -23.1285
v  -125.4224 0.1147 -23.0771
v  -86.4014 0.1149 31.2411
v  -150.0020 0.1149 31.2411
v  -150.0020 0.1147 -31.2406
v  37.5508 0.1147 -31.2406
v  0.0625 0.1147 -31.2408
v  -37.4199 0.1147 -31.2408
v  -74.9121 0.1147 -31.2408
# 89 vertices

vn 0.0007 1.0000 0.0001
vn 0.0197 0.9490 0.3148
vn -0.0010 1.0000 0.0002
vn 0.1416 0.9891 0.0399
vn 0.0000 0.9810 0.1939
vn 0.0844 0.9935 0.0759
vn 0.0674 0.9945 0.0797
vn 0.0233 0.9539 0.2993
vn 0.0584 0.9972 -0.0469
vn 0.0879 0.9794 -0.1816
vn 0.1051 0.9920 -0.0702
vn 0.1141 0.9534 -0.2794
vn 0.1144 0.9712 -0.2088
vn 0.1084 0.9220 -0.3718
vn -0.0300 0.9678 -0.2499
vn 0.1006 0.9949 0.0082
vn 0.0781 0.9893 -0.1229
vn 0.0862 0.9755 0.2023
vn 0.0036 0.9831 0.1829
vn 0.0082 0.9645 0.2638
vn 0.0795 0.8819 -0.4648
vn -0.0252 0.8854 -0.4641
vn 0.0036 0.9390 -0.3438
vn 0.0368 0.9559 -0.2913
vn 0.0123 0.9999 -0.0110
vn -0.0061 1.0000 -0.0055
vn -0.0216 0.8785 -0.4772
vn -0.0240 0.9134 -0.4064
vn 0.0244 0.8756 -0.4825
vn 0.1687 0.8226 -0.5431
vn 0.0455 0.8940 -0.4457
vn -0.0387 0.9329 -0.3579
vn 0.0020 0.8221 -0.5694
vn 0.0494 0.9205 -0.3877
vn 0.0125 0.9533 0.3017
vn 0.0485 0.9089 0.4142
vn 0.0660 0.9671 0.2457
vn -0.0000 0.9163 0.4004
vn -0.0474 0.9849 0.1664
vn -0.0100 0.9134 0.4069
vn 0.0173 0.9161 0.4006
vn -0.0101 0.9376 0.3476
vn 0.1106 0.9714 -0.2099
vn 0.0282 0.9992 -0.0286
vn -0.0394 0.8959 -0.4425
vn -0.0482 0.9869 -0.1539
vn -0.0879 0.9948 -0.0509
vn 0.0184 0.9961 0.0866
vn 0.0576 0.9775 0.2027
vn -0.1701 0.9854 -0.0083
vn 0.0395 0.9938 0.1041
vn -0.0078 0.9932 0.1158
vn -0.0231 0.9997 0.0000
vn 0.0263 0.9989 0.0384
vn 0.0000 1.0000 -0.0000
vn -0.0828 0.9922 0.0936
vn -0.2254 0.9565 -0.1851
vn -0.0032 0.9991 -0.0433
vn 0.1347 0.9909 -0.0001
vn 0.0001 0.9807 -0.1957
vn 0.0182 0.9966 -0.0806
vn -0.1592 0.9857 -0.0548
vn -0.0426 0.9984 -0.0384
vn -0.0898 0.9828 0.1613
vn 0.0000 0.9313 0.3643
vn -0.2122 0.9772 0.0003
vn -0.0710 0.9430 0.3252
vn -0.0510 0.9375 -0.3442
vn -0.2088 0.9772 -0.0395
vn -0.0222 0.9870 -0.1591
vn -0.1697 0.9854 0.0147
vn -0.0503 0.9848 -0.1663
vn -0.0004 0.9583 0.2858
vn -0.0760 0.9971 0.0001
vn -0.0000 0.9993 0.0379
vn -0.0348 0.9018 -0.4308
vn -0.0646 0.9250 -0.3744
vn -0.0045 0.8783 -0.4780
vn -0.0056 0.8760 -0.4822
vn 0.0019 0.8753 -0.4836
vn -0.0000 1.0000 -0.0000
vn 0.0001 1.0000 -0.0004
vn -0.0152 0.9997 0.0180
vn -0.0001 1.0000 -0.0000
vn 0.0000 1.0000 0.0000
vn -0.0000 1.0000 0.0000
# 86 vertex normals

vt 0.9995 0.0103 -0.3134
vt 0.7481 0.0665 -0.3016
vt 0.6073 0.0111 -0.3134
vt 0.9336 0.1348 -0.3134
vt 0.9355 0.0701 -0.3134
vt 0.9972 0.0722 -0.3134
vt 0.8703 0.1357 0.1402
vt 0.8732 0.0659 -0.3134
vt 0.9367 0.2614 -0.2984
vt 0.9366 0.1991 -0.2832
vt 0.9981 0.1983 -0.3134
vt 0.8752 0.2622 -0.3134
vt 0.8740 0.2003 -0.1751
vt 0.8117 0.2615 -0.1114
vt 0.7480 0.2589 0.2000
vt 0.7491 0.1989 -0.0540
vt 0.8110 0.2000 -0.0700
vt 0.7489 0.1358 0.0468
vt 0.8107 0.1364 0.1632
vt 0.8102 0.0650 -0.3087
vt 0.7842 0.2929 -0.1085
vt 0.7498 0.2983 0.0320
vt 0.8408 0.2900 -0.2038
vt 0.8752 0.2897 -0.3134
vt 0.9986 0.3233 -0.3134
vt 0.8752 0.3238 -0.3133
vt 0.5285 0.3021 0.0149
vt 0.5614 0.2625 0.1801
vt 0.5965 0.2999 -0.0274
vt 0.6235 0.2639 0.0030
vt 0.6248 0.2971 -0.0981
vt 0.7146 0.2947 -0.1323
vt 0.6860 0.2668 -0.1535
vt 0.6599 0.2950 -0.1750
vt 0.6240 0.0666 -0.3134
vt 0.6227 0.1334 -0.0584
vt 0.5591 0.1391 0.2378
vt 0.5623 0.0634 -0.3134
vt 0.4998 0.1392 0.3134
vt 0.4996 0.0617 -0.3134
vt 0.6864 0.1378 0.1495
vt 0.6860 0.0664 -0.3134
vt 0.6850 0.1988 0.2754
vt 0.6231 0.1996 0.1487
vt 0.4993 0.2663 0.0558
vt 0.4985 0.2037 0.0122
vt 0.5612 0.2013 0.0492
vt 0.1256 0.0741 -0.3134
vt 0.1255 0.1364 -0.3134
vt 0.0630 0.1364 -0.3134
vt 0.0634 0.0744 -0.3134
vt 0.2500 0.0733 -0.3134
vt 0.2502 0.1357 -0.3134
vt 0.1881 0.1363 -0.3134
vt 0.1877 0.0740 -0.3134
vt 0.2498 0.1987 -0.3134
vt 0.2523 0.2639 0.1241
vt 0.1876 0.2618 -0.3134
vt 0.1883 0.1993 -0.3134
vt 0.1250 0.2614 -0.3134
vt 0.1256 0.1983 -0.3134
vt 0.0628 0.1987 -0.3134
vt 0.0629 0.2608 -0.3132
vt 0.4394 0.1368 0.1581
vt 0.4374 0.0623 -0.3134
vt 0.3818 0.1348 0.2304
vt 0.3744 0.0650 -0.3134
vt 0.4371 0.2663 0.1139
vt 0.4363 0.2026 -0.0274
vt 0.3755 0.2685 0.1085
vt 0.3715 0.2018 -0.3128
vt 0.3139 0.2669 0.0790
vt 0.3117 0.1977 -0.3134
vt 0.3124 0.1349 -0.2746
vt 0.3125 0.0717 -0.3134
vt 0.2798 0.2982 0.0628
vt 0.2496 0.2938 0.0885
vt 0.3443 0.3032 -0.1084
vt 0.3746 0.3046 -0.0976
vt 0.4042 0.3037 -0.0959
vt 0.2083 0.2853 -0.1870
vt 0.0818 0.2827 -0.3128
vt 0.2126 0.0120 -0.3134
vt 0.0009 0.0124 -0.3134
vt 0.0005 0.3228 -0.3118
vt 0.6262 0.3315 -0.2028
vt 0.5005 0.3358 -0.1256
vt 0.3738 0.3383 -0.2900
vt 0.2465 0.3287 0.0470
# 89 texture coords

g Object2222
s 1
f 1/1/1 2/2/2 3/3/3 
f 4/4/4 5/5/5 6/6/6 
f 4/4/4 7/7/7 8/8/8 
f 8/8/8 5/5/5 4/4/4 
f 9/9/9 10/10/10 11/11/11 
f 9/9/9 12/12/12 13/13/13 
f 13/13/13 10/10/10 9/9/9 
f 13/13/13 7/7/7 4/4/4 
f 4/4/4 10/10/10 13/13/13 
f 11/11/11 4/4/4 6/6/6 
f 11/11/11 10/10/10 4/4/4 
f 14/14/14 15/15/15 16/16/16 
f 16/16/16 17/17/17 14/14/14 
f 16/16/16 18/18/18 19/19/19 
f 19/19/19 17/17/17 16/16/16 
f 19/19/19 7/7/7 13/13/13 
f 13/13/13 17/17/17 19/19/19 
f 13/13/13 12/12/12 14/14/14 
f 14/14/14 17/17/17 13/13/13 
f 8/8/8 7/7/7 19/19/19 
f 19/19/19 20/20/20 8/8/8 
f 19/19/19 18/18/18 2/2/2 
f 2/2/2 20/20/20 19/19/19 
f 15/15/15 14/14/14 21/21/21 
f 21/21/21 22/22/22 15/15/15 
f 21/21/21 14/14/14 23/23/23 
f 14/14/14 12/12/12 24/24/24 
f 24/24/24 23/23/23 14/14/14 
f 25/25/25 9/9/9 11/11/11 
f 24/24/24 12/12/12 9/9/9 
f 26/26/26 9/9/9 25/25/25 
f 27/27/27 28/28/28 29/29/29 
f 28/28/28 30/30/30 31/31/31 
f 31/31/31 29/29/29 28/28/28 
f 22/22/22 32/32/32 33/33/33 
f 33/33/33 15/15/15 22/22/22 
f 30/30/30 33/33/33 34/34/34 
f 34/34/34 31/31/31 30/30/30 
f 34/34/34 33/33/33 32/32/32 
f 35/35/35 36/36/36 37/37/37 
f 37/37/37 38/38/38 35/35/35 
f 37/37/37 39/39/39 40/40/40 
f 40/40/40 38/38/38 37/37/37 
f 2/2/2 18/18/18 41/41/41 
f 41/41/41 42/42/42 2/2/2 
f 41/41/41 36/36/36 35/35/35 
f 35/35/35 42/42/42 41/41/41 
f 16/16/16 15/15/15 33/33/33 
f 33/33/33 43/43/43 16/16/16 
f 33/33/33 30/30/30 44/44/44 
f 44/44/44 43/43/43 33/33/33 
f 44/44/44 36/36/36 41/41/41 
f 41/41/41 43/43/43 44/44/44 
f 41/41/41 18/18/18 16/16/16 
f 16/16/16 43/43/43 41/41/41 
f 28/28/28 45/45/45 46/46/46 
f 46/46/46 47/47/47 28/28/28 
f 46/46/46 39/39/39 37/37/37 
f 37/37/37 47/47/47 46/46/46 
f 37/37/37 36/36/36 44/44/44 
f 44/44/44 47/47/47 37/37/37 
f 44/44/44 30/30/30 28/28/28 
f 28/28/28 47/47/47 44/44/44 
f 48/48/48 49/49/49 50/50/50 
f 50/50/50 51/51/51 48/48/48 
f 52/52/52 53/53/53 54/54/54 
f 54/54/54 55/55/55 52/52/52 
f 54/54/54 49/49/49 48/48/48 
f 48/48/48 55/55/55 54/54/54 
f 56/56/56 57/57/57 58/58/58 
f 58/58/58 59/59/59 56/56/56 
f 58/58/58 60/60/60 61/61/61 
f 61/61/61 59/59/59 58/58/58 
f 61/61/61 49/49/49 54/54/54 
f 54/54/54 59/59/59 61/61/61 
f 54/54/54 53/53/53 56/56/56 
f 56/56/56 59/59/59 54/54/54 
f 50/50/50 49/49/49 61/61/61 
f 61/61/61 62/62/62 50/50/50 
f 61/61/61 60/60/60 63/63/63 
f 63/63/63 62/62/62 61/61/61 
f 40/40/40 39/39/39 64/64/64 
f 64/64/64 65/65/65 40/40/40 
f 64/64/64 66/66/66 67/67/67 
f 67/67/67 65/65/65 64/64/64 
f 46/46/46 45/45/45 68/68/68 
f 68/68/68 69/69/69 46/46/46 
f 68/68/68 70/70/70 71/71/71 
f 71/71/71 69/69/69 68/68/68 
f 71/71/71 66/66/66 64/64/64 
f 64/64/64 69/69/69 71/71/71 
f 64/64/64 39/39/39 46/46/46 
f 46/46/46 69/69/69 64/64/64 
f 72/72/72 57/57/57 56/56/56 
f 56/56/56 73/73/73 72/72/72 
f 56/56/56 53/53/53 74/74/74 
f 74/74/74 73/73/73 56/56/56 
f 74/74/74 66/66/66 71/71/71 
f 71/71/71 73/73/73 74/74/74 
f 71/71/71 70/70/70 72/72/72 
f 72/72/72 73/73/73 71/71/71 
f 67/67/67 66/66/66 74/74/74 
f 74/74/74 75/75/75 67/67/67 
f 74/74/74 53/53/53 52/52/52 
f 52/52/52 75/75/75 74/74/74 
f 57/57/57 72/72/72 76/76/76 
f 76/76/76 77/77/77 57/57/57 
f 76/76/76 72/72/72 78/78/78 
f 72/72/72 70/70/70 79/79/79 
f 79/79/79 78/78/78 72/72/72 
f 70/70/70 68/68/68 80/80/80 
f 80/80/80 79/79/79 70/70/70 
f 60/60/60 58/58/58 81/81/81 
f 81/81/81 82/82/82 60/60/60 
f 77/77/77 81/81/81 58/58/58 
f 58/58/58 57/57/57 77/77/77 
f 1/1/1 6/6/6 5/5/5 
f 1/1/1 5/5/5 8/8/8 
f 1/1/1 8/8/8 20/20/20 
f 1/1/1 20/20/20 2/2/2 
f 42/42/42 35/35/35 3/3/3 
f 35/35/35 38/38/38 3/3/3 
f 38/38/38 40/40/40 3/3/3 
f 40/40/40 65/65/65 3/3/3 
f 65/65/65 67/67/67 3/3/3 
f 67/67/67 75/75/75 83/83/55 
f 83/83/55 3/3/3 67/67/67 
f 75/75/75 52/52/52 83/83/55 
f 52/52/52 55/55/55 83/83/55 
f 55/55/55 48/48/48 83/83/55 
f 48/48/48 51/51/51 84/84/83 
f 84/84/83 83/83/55 48/48/48 
f 84/84/83 62/62/62 85/85/84 
f 82/82/82 85/85/84 63/63/63 
f 63/63/63 60/60/60 82/82/82 
f 62/62/62 63/63/63 85/85/84 
f 84/84/83 51/51/51 50/50/50 
f 84/84/83 50/50/50 62/62/62 
f 2/2/2 42/42/42 3/3/3 
f 9/9/9 26/26/26 24/24/24 
f 24/24/24 26/26/26 23/23/23 
f 86/86/85 32/32/32 22/22/22 
f 22/22/22 26/26/26 86/86/85 
f 34/34/34 86/86/85 31/31/31 
f 31/31/31 86/86/85 29/29/29 
f 29/29/29 86/86/85 87/87/85 
f 87/87/85 27/27/27 29/29/29 
f 87/87/85 88/88/85 80/80/80 
f 80/80/80 27/27/27 87/87/85 
f 80/80/80 88/88/85 79/79/79 
f 79/79/79 88/88/85 78/78/78 
f 78/78/78 88/88/85 89/89/86 
f 89/89/86 76/76/76 78/78/78 
f 76/76/76 89/89/86 77/77/77 
f 77/77/77 89/89/86 81/81/81 
f 89/89/86 85/85/84 82/82/82 
f 82/82/82 81/81/81 89/89/86 
f 80/80/80 68/68/68 45/45/45 
f 45/45/45 28/28/28 27/27/27 
f 80/80/80 45/45/45 27/27/27 
f 21/21/21 23/23/23 26/26/26 
f 86/86/85 34/34/34 32/32/32 
f 22/22/22 21/21/21 26/26/26 
# 163 faces

