# 3ds Max Wavefront OBJ Exporter v0.97b - (c)2007 guruware
# File Created: 19.12.2018 13:16:40

mtllib SM_Floor_01.mtl

#
# object SM_Floor_01
#

v  -149.9990 -11.8660 -149.9999
v  150.0000 -11.8660 -149.9999
v  149.9990 -11.8685 150.0000
v  -150.0000 -11.8677 150.0000
v  -149.9990 0.0000 -149.9999
v  149.9990 -0.0025 150.0000
v  150.0000 0.0000 -149.9999
v  -150.0000 -0.0017 150.0000
# 8 vertices

vn -0.0000 -1.0000 -0.0000
vn 0.0000 -1.0000 -0.0000
vn 0.0000 1.0000 0.0000
# 3 vertex normals

vt 0.0005 0.0005 0.0000
vt 0.9995 0.0005 0.0000
vt 0.9995 0.9995 0.0000
vt 0.0005 0.9995 0.0000
# 4 texture coords

g SM_Floor_01
usemtl MAT_Floor_01
s 1
f 1/1/1 2/2/2 3/3/1 
f 3/3/1 4/4/1 1/1/1 
f 5/1/3 6/3/3 7/2/3 
f 6/3/3 5/1/3 8/4/3 
# 4 faces

