# 3ds Max Wavefront OBJ Exporter v0.97b - (c)2007 guruware
# File Created: 23.01.2019 20:35:30

#
# object Object2187
#

v  -28.6355 -15.1459 11.3058
v  -28.6355 -15.1459 -11.3058
v  28.6355 -15.1459 -11.3058
v  28.6355 -15.1459 11.3058
v  -28.6355 15.1459 11.3058
v  28.6355 15.1459 11.3058
v  28.6355 15.1460 -11.3058
v  -28.6355 15.1459 -11.3058
v  -29.5771 -13.1067 14.4427
v  29.5771 -13.1066 14.4427
v  29.5771 13.1066 14.4427
v  -29.5771 13.1066 14.4427
v  31.7724 -13.1066 12.2474
v  31.7724 -13.1066 -12.2474
v  31.7724 13.1067 -12.2474
v  31.7724 13.1066 12.2474
v  29.5771 -13.1066 -14.4427
v  -29.5771 -13.1066 -14.4427
v  -29.5771 13.1066 -14.4427
v  29.5771 13.1067 -14.4427
v  -31.7724 -13.1066 -12.2474
v  -31.7724 -13.1067 12.2474
v  -31.7724 13.1066 12.2474
v  -31.7724 13.1066 -12.2474
# 24 vertices

vn 0.0000 -1.0000 -0.0000
vn -0.0000 1.0000 0.0000
vn 0.0000 -0.0000 1.0000
vn 1.0000 0.0000 0.0000
vn -0.0000 0.0000 -1.0000
vn -1.0000 -0.0000 0.0000
vn -0.3186 -0.8928 0.3186
vn -0.4928 -0.8480 0.1949
vn -0.4928 -0.8480 -0.1949
vn -0.3186 -0.8928 -0.3186
vn -0.1949 -0.8480 -0.4928
vn 0.1949 -0.8480 -0.4928
vn 0.3186 -0.8928 -0.3186
vn 0.4928 -0.8480 -0.1949
vn 0.4928 -0.8480 0.1949
vn 0.3186 -0.8928 0.3186
vn 0.1949 -0.8480 0.4928
vn -0.1949 -0.8480 0.4928
vn -0.3186 0.8928 0.3186
vn -0.1949 0.8480 0.4928
vn 0.1949 0.8480 0.4928
vn 0.3186 0.8928 0.3186
vn 0.4928 0.8480 0.1949
vn 0.4928 0.8480 -0.1949
vn 0.3186 0.8928 -0.3186
vn 0.1949 0.8480 -0.4928
vn -0.1949 0.8480 -0.4928
vn -0.3186 0.8928 -0.3186
vn -0.4928 0.8480 -0.1949
vn -0.4928 0.8480 0.1949
vn 0.7071 -0.0000 0.7071
vn 0.7071 0.0000 0.7071
vn -0.7071 -0.0000 0.7071
vn 0.7071 0.0000 -0.7071
vn -0.7071 0.0000 -0.7071
# 35 vertex normals

vt 0.6154 0.8480 0.0000
vt 0.6186 0.9107 0.0000
vt 0.4623 0.9121 0.0000
vt 0.4637 0.8489 0.0000
vt 0.6193 0.9110 0.0000
vt 0.4617 0.9118 0.0000
vt 0.4634 0.8491 0.0000
vt 0.6154 0.8474 0.0000
vt 0.8125 0.8396 0.0000
vt 0.9863 0.8385 0.0000
vt 0.9817 0.9168 0.0000
vt 0.8100 0.9132 0.0000
vt 0.4114 0.9345 0.0000
vt 0.4693 0.9345 0.0000
vt 0.4693 0.9965 0.0000
vt 0.4114 0.9965 0.0000
vt 0.1806 0.9298 0.0000
vt 0.3378 0.9303 0.0000
vt 0.3402 0.9950 0.0000
vt 0.1769 0.9936 0.0000
vt 0.4114 0.9334 0.0000
vt 0.4710 0.9334 0.0000
vt 0.4710 0.9971 0.0000
vt 0.4114 0.9971 0.0000
vt 0.6224 0.8459 0.0000
vt 0.6256 0.9128 0.0000
vt 0.6207 0.9177 0.0000
vt 0.4602 0.9191 0.0000
vt 0.4553 0.9142 0.0000
vt 0.4567 0.8468 0.0000
vt 0.4616 0.8420 0.0000
vt 0.6175 0.8410 0.0000
vt 0.6214 0.9178 0.0000
vt 0.4597 0.9186 0.0000
vt 0.4549 0.9139 0.0000
vt 0.4566 0.8471 0.0000
vt 0.4613 0.8423 0.0000
vt 0.6174 0.8406 0.0000
vt 0.6222 0.8453 0.0000
vt 0.6261 0.9130 0.0000
vt 0.4062 0.9345 0.0000
vt 0.4062 0.9965 0.0000
vt 0.4763 0.9971 0.0000
vt 0.4763 0.9334 0.0000
vt 0.4745 0.9345 0.0000
vt 0.4745 0.9965 0.0000
vt 0.4061 0.9334 0.0000
vt 0.4061 0.9971 0.0000
# 48 texture coords

g Object2187
s 1
f 1/1/1 2/2/1 3/3/1 
f 3/3/1 4/4/1 1/1/1 
f 5/5/2 6/6/2 7/7/2 
f 7/7/2 8/8/2 5/5/2 
f 9/9/3 10/10/3 11/11/3 
f 11/11/3 12/12/3 9/9/3 
f 13/13/4 14/14/4 15/15/4 
f 15/15/4 16/16/4 13/13/4 
f 17/17/5 18/18/5 19/19/5 
f 19/19/5 20/20/5 17/17/5 
f 21/21/6 22/22/6 23/23/6 
f 23/23/6 24/24/6 21/21/6 
s 2
f 1/1/7 22/25/8 21/26/9 
f 21/26/9 2/2/10 1/1/7 
f 2/2/10 18/27/11 17/28/12 
f 17/28/12 3/3/13 2/2/10 
f 3/3/13 14/29/14 13/30/15 
f 13/30/15 4/4/16 3/3/13 
f 4/4/16 10/31/17 9/32/18 
f 9/32/18 1/1/7 4/4/16 
f 5/5/19 12/33/20 11/34/21 
f 11/34/21 6/6/22 5/5/19 
f 6/6/22 16/35/23 15/36/24 
f 15/36/24 7/7/25 6/6/22 
f 7/7/25 20/37/26 19/38/27 
f 19/38/27 8/8/28 7/7/25 
f 8/8/28 24/39/29 23/40/30 
f 23/40/30 5/5/19 8/8/28 
s 4
f 10/41/31 13/13/31 16/16/32 
f 16/16/32 11/42/32 10/41/31 
f 12/43/33 23/23/33 22/22/33 
f 22/22/33 9/44/33 12/43/33 
f 14/14/34 17/45/34 20/46/34 
f 20/46/34 15/15/34 14/14/34 
f 18/47/35 21/21/35 24/24/35 
f 24/24/35 19/48/35 18/47/35 
s 2
f 1/1/7 9/32/18 22/25/8 
f 13/30/15 10/31/17 4/4/16 
f 2/2/10 21/26/9 18/27/11 
f 17/28/12 14/29/14 3/3/13 
f 5/5/19 23/40/30 12/33/20 
f 6/6/22 11/34/21 16/35/23 
f 8/8/28 19/38/27 24/39/29 
f 7/7/25 15/36/24 20/37/26 
# 44 faces

