# 3ds Max Wavefront OBJ Exporter v0.97b - (c)2007 guruware
# File Created: 23.01.2019 19:21:53

#
# object SM_Wall_BS_01
#

v  149.9990 149.9998 -14.9990
v  149.9990 -149.9998 -15.0020
v  -149.9990 -149.9998 -15.0023
v  -149.9990 149.9997 -15.0004
v  -149.9990 149.9998 15.0024
v  -149.9990 -149.9998 14.9994
v  149.9990 -149.9998 14.9991
v  149.9990 149.9997 15.0010
# 8 vertices

vn 0.0000 0.0000 -1.0000
vn 0.0000 -0.0000 1.0000
# 2 vertex normals

vt 0.0005 0.9995 0.0000
vt 0.0005 0.0005 0.0000
vt 0.9995 0.0005 0.0000
vt 0.9995 0.9995 0.0000
# 4 texture coords

g SM_Wall_BS_01
s off
f 1/1/1 2/2/1 3/3/1 
f 3/3/1 4/4/1 1/1/1 
f 5/1/2 6/2/2 7/3/2 
f 7/3/2 8/4/2 5/1/2 
# 4 faces

