# 3ds Max Wavefront OBJ Exporter v0.97b - (c)2007 guruware
# File Created: 23.01.2019 17:30:56

#
# object SM_Wall_Window_01
#

v  149.9990 149.9996 15.0013
v  66.3018 107.4171 15.0012
v  66.3018 50.2301 15.0016
v  149.9990 -149.9999 15.0032
v  -149.9990 149.9998 14.9999
v  -66.3008 107.4171 15.0007
v  -66.3008 50.2301 15.0012
v  -149.9990 -149.9999 15.0029
v  -149.9990 149.9997 -15.0015
v  -66.3018 107.4172 -15.0014
v  -66.3018 50.2302 -15.0018
v  -149.9990 -149.9998 -15.0034
v  66.3008 107.4172 -15.0008
v  149.9990 149.9999 -15.0000
v  66.3008 50.2302 -15.0013
v  149.9990 -149.9998 -15.0030
# 16 vertices

vn -0.0000 0.0000 1.0000
vn 0.0000 0.0000 -1.0000
vn -0.0000 1.0000 0.0000
vn -1.0000 -0.0000 0.0000
vn -1.0000 0.0000 0.0000
vn 0.0000 -1.0000 -0.0000
vn 1.0000 0.0000 -0.0000
vn 1.0000 -0.0000 -0.0000
# 8 vertex normals

vt 0.9995 0.9995 -0.8445
vt 0.7208 0.8577 -0.8445
vt 0.7208 0.6673 -0.8445
vt 0.9995 0.0005 -0.8445
vt 0.0005 0.9995 0.8445
vt 0.2792 0.8577 -0.8445
vt 0.2792 0.6673 -0.8445
vt 0.0005 0.0005 0.8445
vt 0.2574 0.7455 -0.8445
vt 0.2574 0.6581 0.0000
vt 0.7376 0.6581 -0.8445
vt 0.7376 0.7455 0.0000
vt 0.5474 0.5080 -0.8445
vt 0.5474 0.3009 -0.8445
vt 0.6561 0.3009 -0.8445
vt 0.6561 0.5080 -0.8445
vt 0.3080 0.6581 -0.8445
vt 0.7882 0.6581 -0.8445
vt 0.7882 0.7455 -0.8445
vt 0.3080 0.7455 -0.8445
vt 0.2246 0.3915 -0.8445
vt 0.2246 0.5971 -0.8445
vt 0.1128 0.5971 -0.8445
vt 0.1128 0.3915 -0.8445
# 24 texture coords

g SM_Wall_Window_01
s 1
f 1/1/1 2/2/1 3/3/1 
f 3/3/1 4/4/1 1/1/1 
f 1/1/1 5/5/1 6/6/1 
f 6/6/1 2/2/1 1/1/1 
f 7/7/1 6/6/1 5/5/1 
f 5/5/1 8/8/1 7/7/1 
f 3/3/1 7/7/1 8/8/1 
f 8/8/1 4/4/1 3/3/1 
f 9/1/2 10/2/2 11/3/2 
f 11/3/2 12/4/2 9/1/2 
f 13/6/2 10/2/2 9/1/2 
f 9/1/2 14/5/2 13/6/2 
f 15/7/2 13/6/2 14/5/2 
f 14/5/2 16/8/2 15/7/2 
f 11/3/2 15/7/2 16/8/2 
f 16/8/2 12/4/2 11/3/2 
s off
f 11/9/3 7/10/3 3/11/3 
f 3/11/3 15/12/3 11/9/3 
f 13/13/4 15/14/4 3/15/4 
f 3/15/5 2/16/5 13/13/5 
f 10/17/6 13/18/6 2/19/6 
f 2/19/6 6/20/6 10/17/6 
f 11/21/7 10/22/7 6/23/7 
f 6/23/8 7/24/8 11/21/8 
# 24 faces

