# 3ds Max Wavefront OBJ Exporter v0.97b - (c)2007 guruware
# File Created: 23.01.2019 19:23:03

#
# object SM_Wall_Door_01
#

v  -79.9961 110.0001 -14.9998
v  -150.0000 149.9999 -14.9998
v  150.0000 150.0001 -14.9986
v  80.0029 110.0001 -14.9994
v  -79.9980 -150.0001 -15.0017
v  -150.0000 -150.0001 -15.0017
v  150.0000 -150.0001 -15.0014
v  80.0010 -150.0001 -15.0014
v  79.9961 110.0001 15.0003
v  150.0000 149.9999 15.0003
v  -150.0000 150.0001 15.0016
v  -80.0029 110.0001 15.0007
v  79.9980 -150.0001 14.9985
v  150.0000 -150.0001 14.9985
v  -150.0000 -150.0001 14.9987
v  -80.0010 -150.0001 14.9987
# 16 vertices

vn 0.0000 0.0000 -1.0000
vn -0.0000 0.0000 -1.0000
vn 0.0000 -0.0000 1.0000
vn -0.0000 -0.0000 1.0000
# 4 vertex normals

vt 0.7664 0.8663 0.0000
vt 0.9995 0.9995 0.0000
vt 0.0005 0.9995 0.0000
vt 0.2336 0.8663 0.0000
vt 0.7664 0.0005 0.0000
vt 0.9995 0.0005 0.0000
vt 0.0005 0.0005 0.0000
vt 0.2336 0.0005 0.0000
# 8 texture coords

g SM_Wall_Door_01
s 1
f 1/1/1 2/2/1 3/3/1 
f 3/3/1 4/4/1 1/1/1 
f 2/2/1 1/1/1 5/5/1 
f 5/5/1 6/6/1 2/2/1 
f 4/4/1 3/3/1 7/7/1 
f 7/7/1 8/8/2 4/4/1 
f 9/1/3 10/2/3 11/3/3 
f 11/3/3 12/4/3 9/1/3 
f 10/2/3 9/1/3 13/5/3 
f 13/5/3 14/6/3 10/2/3 
f 12/4/3 11/3/3 15/7/3 
f 15/7/3 16/8/4 12/4/3 
# 12 faces

