# 3ds Max Wavefront OBJ Exporter v0.97b - (c)2007 guruware
# File Created: 23.01.2019 21:08:47

#
# object SM_Wall_Border_01
#

v  148.8367 63.4604 24.1451
v  -148.8352 63.4600 24.1451
v  -148.8352 -84.4131 24.1450
v  148.8367 -84.4126 24.1450
v  148.2615 64.8118 22.2184
v  148.2615 64.8118 -22.2177
v  -147.4846 64.8113 -22.7933
v  -147.4846 64.8113 22.7938
v  150.1863 -84.4126 -22.7935
v  150.1865 63.4602 -22.7932
v  150.1863 63.4604 22.7938
v  150.1863 -84.4126 22.7936
v  148.6863 64.2112 -23.9944
v  148.8359 63.4602 -24.1445
v  -148.8360 63.4602 -24.1446
v  -148.6848 64.2107 -23.9945
v  -148.6848 64.2107 23.9950
v  148.6863 64.2112 23.9952
v  149.0115 64.6616 -22.9684
v  149.0115 64.6616 22.9692
v  -149.5862 64.6611 22.1932
v  -148.8352 64.8113 21.4425
v  -148.8352 64.8113 -21.4420
v  -149.5862 64.6611 -22.1927
v  -148.2346 64.6611 -23.5441
v  -148.2346 64.6611 23.5445
v  150.0369 64.2112 -22.6431
v  150.0369 64.2112 22.6438
v  -150.0364 64.2107 22.6437
v  -150.0364 64.2107 -22.6432
v  -150.1866 63.4602 22.7938
v  -150.1866 63.4602 -22.7933
v  -149.8103 -84.4131 23.7695
v  -149.8108 63.4600 23.7697
v  149.8123 63.4604 23.7698
v  149.8123 -84.4126 23.7697
v  -149.2112 64.6611 23.1691
v  -148.4602 64.8113 22.4184
v  149.6619 64.2112 -23.6191
v  149.8115 63.4602 -23.7692
v  -149.6604 64.2107 -23.6191
v  -149.8116 63.4602 -23.7692
v  -149.6604 64.2107 23.6196
v  -148.4602 64.8113 -22.4180
v  -149.2112 64.6611 -23.1687
v  149.6619 64.2112 23.6198
v  -150.1864 -84.4126 22.7940
v  148.8351 -84.4131 -24.1444
v  -148.8367 -84.4126 -24.1444
v  -150.1864 -84.4126 -22.7930
v  149.8122 -84.4131 -23.7687
v  -149.8123 -84.4126 -23.7691
# 52 vertices

vn 0.1897 0.1140 0.9752
vn -0.1897 0.1141 0.9752
vn -0.1828 -0.0000 0.9832
vn 0.1826 -0.0000 0.9832
vn 0.0744 0.9945 0.0739
vn 0.0744 0.9945 -0.0739
vn -0.0100 0.9949 -0.1002
vn -0.0100 0.9949 0.1002
vn 0.9833 0.0000 -0.1821
vn 0.9753 0.1137 -0.1894
vn 0.9754 0.1136 0.1890
vn 0.9833 -0.0000 0.1820
vn 0.1249 0.6059 -0.7857
vn 0.1896 0.1139 -0.9752
vn -0.1897 0.1142 -0.9752
vn -0.1624 0.5087 -0.8455
vn -0.1628 0.5086 0.8455
vn 0.1251 0.6057 0.7858
vn 0.2150 0.9527 -0.2149
vn 0.2152 0.9527 0.2148
vn -0.4543 0.8886 0.0641
vn -0.1000 0.9949 0.0102
vn -0.1000 0.9949 -0.0102
vn -0.4543 0.8885 -0.0642
vn -0.0636 0.8884 -0.4547
vn -0.0641 0.8886 0.4542
vn 0.7859 0.6056 -0.1247
vn 0.7860 0.6056 0.1246
vn -0.8455 0.5085 0.1629
vn -0.8454 0.5087 -0.1628
vn -0.9752 0.1142 0.1898
vn -0.9752 0.1141 -0.1894
vn -0.7069 -0.0000 0.7073
vn -0.7008 0.1329 0.7009
vn 0.7012 0.1327 0.7005
vn 0.7076 -0.0000 0.7066
vn -0.2975 0.9072 0.2974
vn -0.0627 0.9961 0.0627
vn 0.5697 0.5927 -0.5693
vn 0.7010 0.1325 -0.7007
vn -0.5949 0.5400 -0.5954
vn -0.7010 0.1331 -0.7007
vn -0.5951 0.5396 0.5955
vn -0.0627 0.9961 -0.0627
vn -0.2977 0.9072 -0.2973
vn 0.5694 0.5930 0.5693
vn -0.9831 -0.0000 0.1830
vn 0.1825 -0.0000 -0.9832
vn -0.1826 -0.0000 -0.9832
vn -0.9833 -0.0000 -0.1820
vn 0.7074 0.0000 -0.7069
vn -0.7076 -0.0000 -0.7067
# 52 vertex normals

vt 0.8572 0.4804 0.0000
vt 0.0157 0.4798 0.0000
vt 0.0161 0.0064 0.0000
vt 0.8574 0.0070 0.0000
vt 0.0115 0.4633 0.0000
vt 0.0115 0.3007 0.0000
vt 0.9871 0.2988 0.0000
vt 0.9871 0.4653 0.0000
vt 0.9920 0.0070 0.0000
vt 0.9920 0.4804 0.0000
vt 0.8632 0.4804 0.0000
vt 0.8632 0.0070 0.0000
vt 0.0102 0.2949 0.0000
vt 0.0093 0.2926 0.0000
vt 0.9922 0.2924 0.0000
vt 0.9912 0.2947 0.0000
vt 0.9912 0.4694 0.0000
vt 0.9922 0.4716 0.0000
vt 0.0093 0.4714 0.0000
vt 0.0102 0.4692 0.0000
vt 0.0092 0.2984 0.0000
vt 0.0092 0.4657 0.0000
vt 0.9937 0.4632 0.0000
vt 0.9913 0.4608 0.0000
vt 0.9913 0.3033 0.0000
vt 0.9937 0.3008 0.0000
vt 0.9896 0.2964 0.0000
vt 0.9896 0.4676 0.0000
vt 0.0057 0.2993 0.0000
vt 0.0057 0.4648 0.0000
vt 0.0034 0.2984 0.0000
vt 0.0034 0.4657 0.0000
vt 0.9956 0.4648 0.0000
vt 0.9956 0.2993 0.0000
vt 0.9979 0.4657 0.0000
vt 0.9979 0.2984 0.0000
vt 0.0135 0.0064 0.0000
vt 0.0127 0.4798 0.0000
vt 0.8602 0.4804 0.0000
vt 0.8603 0.0070 0.0000
vt 0.9926 0.4663 0.0000
vt 0.9901 0.4640 0.0000
vt 0.0070 0.2962 0.0000
vt 0.0054 0.2945 0.0000
vt 0.9943 0.2961 0.0000
vt 0.9960 0.2945 0.0000
vt 0.9960 0.4696 0.0000
vt 0.9943 0.4679 0.0000
vt 0.9901 0.3001 0.0000
vt 0.9926 0.2977 0.0000
vt 0.0054 0.4696 0.0000
vt 0.0070 0.4679 0.0000
vt 0.0129 0.0064 0.0000
vt 0.0099 0.4798 0.0000
# 54 texture coords

g SM_Wall_Border_01
s 1
f 1/1/1 2/2/2 3/3/3 
f 3/3/3 4/4/4 1/1/1 
f 5/5/5 6/6/6 7/7/7 
f 7/7/7 8/8/8 5/5/5 
f 9/9/9 10/10/10 11/11/11 
f 11/11/11 12/12/12 9/9/9 
f 13/13/13 14/14/14 15/15/15 
f 15/15/15 16/16/16 13/13/13 
f 17/17/17 2/18/2 1/19/1 
f 1/19/1 18/20/18 17/17/17 
f 19/21/19 6/6/6 5/5/5 
f 5/5/5 20/22/20 19/21/19 
f 21/23/21 22/24/22 23/25/23 
f 23/25/23 24/26/24 21/23/21 
f 19/21/19 13/13/13 16/16/16 
f 16/16/16 25/27/25 19/21/19 
f 6/6/6 19/21/19 25/27/25 
f 25/27/25 7/7/7 6/6/6 
f 26/28/26 17/17/17 18/20/18 
f 18/20/18 20/22/20 26/28/26 
f 8/8/8 26/28/26 20/22/20 
f 20/22/20 5/5/5 8/8/8 
f 27/29/27 19/21/19 20/22/20 
f 20/22/20 28/30/28 27/29/27 
f 10/31/10 27/29/27 28/30/28 
f 28/30/28 11/32/11 10/31/10 
f 29/33/29 21/23/21 24/26/24 
f 24/26/24 30/34/30 29/33/29 
f 31/35/31 29/33/29 30/34/30 
f 30/34/30 32/36/32 31/35/31 
f 33/37/33 3/3/3 2/2/2 
f 2/2/2 34/38/34 33/37/33 
f 35/39/35 1/1/1 4/4/4 
f 4/4/4 36/40/36 35/39/35 
f 37/41/37 26/28/26 8/8/8 
f 8/8/8 38/42/38 37/41/37 
f 39/43/39 27/29/27 10/31/10 
f 10/31/10 40/44/40 39/43/39 
f 41/45/41 16/16/16 15/15/15 
f 15/15/15 42/46/42 41/45/41 
f 34/47/34 2/18/2 17/17/17 
f 17/17/17 43/48/43 34/47/34 
f 43/48/43 17/17/17 26/28/26 
f 26/28/26 37/41/37 43/48/43 
f 27/29/27 39/43/39 19/21/19 
f 44/49/44 7/7/7 25/27/25 
f 25/27/25 45/50/45 44/49/44 
f 45/50/45 25/27/25 16/16/16 
f 16/16/16 41/45/41 45/50/45 
f 35/51/35 11/32/11 28/30/28 
f 28/30/28 46/52/46 35/51/35 
f 20/22/20 46/52/46 28/30/28 
f 47/53/47 33/37/33 34/38/34 
f 34/38/34 31/54/31 47/53/47 
f 11/11/11 35/39/35 36/40/36 
f 36/40/36 12/12/12 11/11/11 
f 21/23/21 37/41/37 38/42/38 
f 38/42/38 22/24/22 21/23/21 
f 13/13/13 39/43/39 40/44/40 
f 40/44/40 14/14/14 13/13/13 
f 30/34/30 41/45/41 42/46/42 
f 42/46/42 32/36/32 30/34/30 
f 31/35/31 34/47/34 43/48/43 
f 43/48/43 29/33/29 31/35/31 
f 29/33/29 43/48/43 37/41/37 
f 37/41/37 21/23/21 29/33/29 
f 39/43/39 13/13/13 19/21/19 
f 23/25/23 44/49/44 45/50/45 
f 45/50/45 24/26/24 23/25/23 
f 24/26/24 45/50/45 41/45/41 
f 41/45/41 30/34/30 24/26/24 
f 1/19/1 35/51/35 46/52/46 
f 46/52/46 18/20/18 1/19/1 
f 20/22/20 18/20/18 46/52/46 
f 44/49/44 38/42/38 8/8/8 
f 8/8/8 7/7/7 44/49/44 
f 23/25/23 22/24/22 38/42/38 
f 38/42/38 44/49/44 23/25/23 
f 15/1/15 14/2/14 48/3/48 
f 48/3/48 49/4/49 15/1/15 
f 47/9/47 31/10/31 32/11/32 
f 32/11/32 50/12/50 47/9/47 
f 51/37/51 48/3/48 14/2/14 
f 14/2/14 40/38/40 51/37/51 
f 42/39/42 15/1/15 49/4/49 
f 49/4/49 52/40/52 42/39/42 
f 9/53/9 51/37/51 40/38/40 
f 40/38/40 10/54/10 9/53/9 
f 32/11/32 42/39/42 52/40/52 
f 52/40/52 50/12/50 32/11/32 
# 90 faces

