# 3ds Max Wavefront OBJ Exporter v0.97b - (c)2007 guruware
# File Created: 25.01.2019 02:05:57

#
# object SM_Decal_01_Crack_01
#

v  -149.9991 74.9999 -0.0000
v  -149.9991 -74.9999 -0.0001
v  149.9990 -74.9998 -0.0001
v  149.9990 74.9999 -0.0001
# 4 vertices

vn -0.0000 -0.0000 1.0000
vn 0.0000 -0.0000 1.0000
vn 0.0000 0.0000 1.0000
# 3 vertex normals

vt 0.5377 0.5181 0.0000
vt 0.5377 0.0317 0.0000
vt 0.9875 0.0317 0.0000
vt 0.9875 0.5181 0.0000
# 4 texture coords

g SM_Decal_01_Crack_01
s 1
f 1/1/1 2/2/1 3/3/2 
f 3/3/2 4/4/3 1/1/1 
# 2 faces

