# 3ds Max Wavefront OBJ Exporter v0.97b - (c)2007 guruware
# File Created: 30.01.2019 19:42:56

#
# object SM_Decal_01_Patch_005
#

v  -35.0356 -24.7588 -17.3114
v  -2.6588 -24.7588 -17.3114
v  -2.6588 24.7588 -17.3114
v  -35.0356 24.7588 -17.3114
v  -35.0356 -24.7588 17.3114
v  -2.6588 -24.7588 17.3114
v  35.0356 -24.7588 -17.3114
v  35.0356 24.7587 -17.3114
v  35.0356 -24.7588 17.3114
# 9 vertices

vn 0.0000 0.7071 0.7071
vn 0.0000 0.0000 1.0000
vn 0.0000 1.0000 -0.0000
# 3 vertex normals

vt 0.0000 0.8489 0.0000
vt 0.0540 0.8489 0.0000
vt 0.0540 1.0000 0.0000
vt 0.0000 1.0000 0.0000
vt 0.0000 0.7433 0.0000
vt 0.0540 0.7433 0.0000
vt 0.2500 0.8489 0.0000
vt 0.2500 1.0000 0.0000
vt 0.1872 1.0000 0.0000
vt 0.1872 0.8489 0.0000
vt 0.2500 0.7433 0.0000
vt 0.1872 0.7433 0.0000
# 12 texture coords

g SM_Decal_01_Patch_005
s 1
f 1/1/1 2/2/1 3/3/2 
f 3/3/2 4/4/2 1/1/1 
f 5/5/3 6/6/3 2/2/1 
f 2/2/1 1/1/1 5/5/3 
f 7/7/1 8/8/2 3/9/2 
f 3/9/2 2/10/1 7/7/1 
f 9/11/3 7/7/1 2/10/1 
f 2/10/1 6/12/3 9/11/3 
# 8 faces

