# 3ds Max Wavefront OBJ Exporter v0.97b - (c)2007 guruware
# File Created: 24.01.2019 17:13:12

#
# object SM_Lamp_03_Wire
#

v  0.7554 -19.9999 0.0000
v  0.0000 -19.9999 -0.7554
v  0.0000 19.9998 -0.7554
v  0.7554 19.9998 0.0000
v  -0.7554 -19.9999 0.0000
v  -0.7554 19.9998 0.0000
v  0.0000 -19.9999 0.7554
v  0.0000 19.9998 0.7554
# 8 vertices

vn 1.0000 -0.0000 0.0000
vn -0.0000 -0.0000 -1.0000
vn 1.0000 0.0000 0.0000
vn -1.0000 0.0000 0.0000
vn -1.0000 -0.0000 0.0000
vn 0.0000 0.0000 1.0000
# 6 vertex normals

vt 0.5557 0.3992 0.0000
vt 0.5528 0.3992 0.0000
vt 0.5528 0.0106 0.0000
vt 0.5557 0.0106 0.0000
vt 0.5500 0.3992 0.0000
vt 0.5500 0.0106 0.0000
vt 0.5471 0.3992 0.0000
vt 0.5471 0.0106 0.0000
vt 0.5585 0.3992 0.0000
vt 0.5585 0.0106 0.0000
# 10 texture coords

g SM_Lamp_03_Wire
s 1
f 1/1/1 2/2/2 3/3/2 
f 3/3/2 4/4/3 1/1/1 
f 2/2/2 5/5/4 6/6/5 
f 6/6/5 3/3/2 2/2/2 
f 5/5/4 7/7/6 8/8/6 
f 8/8/6 6/6/5 5/5/4 
f 7/9/6 1/1/1 4/4/3 
f 4/4/3 8/10/6 7/9/6 
# 8 faces

