# 3ds Max Wavefront OBJ Exporter v0.97b - (c)2007 guruware
# File Created: 24.01.2019 03:45:26

#
# object SM_Distribution_Box_Door
#

v  -68.4894 -49.5750 -1.1653
v  -1.5342 -49.5750 -1.1653
v  -1.5342 -49.5750 1.3978
v  -68.4894 -49.5750 1.3978
v  -67.5192 -48.2650 -1.1653
v  -2.5043 -48.2650 -1.1653
v  -67.5211 47.9055 -1.1653
v  -68.4894 49.5750 -1.1653
v  -1.5342 49.5750 -1.1653
v  -2.5024 47.9055 -1.1653
v  -69.0006 -49.0637 -1.1653
v  -69.0006 -49.0637 1.3978
v  -69.0006 49.0637 1.3978
v  -69.0006 49.0637 -1.1653
v  -57.6335 38.2956 1.9753
v  -56.6572 39.7836 1.9753
v  -68.4844 48.9973 1.9753
v  -57.6335 14.0731 1.9753
v  -68.4844 -48.9973 1.9753
v  -56.6572 13.1007 1.9753
v  -68.4894 49.5750 1.3978
v  -13.3663 39.7836 1.9753
v  -1.5391 48.9973 1.9753
v  -1.5391 -48.9973 1.9753
v  -13.3663 13.1007 1.9753
v  -67.5192 -48.2650 -0.8436
v  -2.5043 -48.2650 -0.8436
v  -67.5211 47.9055 -0.8436
v  -68.3622 48.9693 1.6257
v  -56.6572 39.7836 1.6257
v  -57.6335 38.2956 1.6257
v  -68.6178 -48.7138 1.6257
v  -57.6335 14.0731 1.6257
v  -56.6572 13.1007 1.6257
v  -68.1066 -49.2251 1.6257
v  -13.3663 13.1007 1.6257
v  -1.9170 -49.2251 1.6257
v  -68.1066 -49.2251 -0.8367
v  -68.6178 -48.7138 -0.8367
v  -1.9170 -49.2251 -0.8367
v  -68.6178 48.7137 -0.8367
v  -68.1066 49.2249 -0.8367
v  -1.5342 49.5750 1.3978
v  -1.6614 48.9693 1.6257
v  -13.3663 39.7836 1.6257
v  -1.0229 -49.0637 -1.1653
v  -1.0229 49.0637 -1.1653
v  -1.0229 49.0637 1.3978
v  -1.0229 -49.0637 1.3978
v  -12.3900 38.2956 1.9753
v  -12.3900 14.0731 1.9753
v  -2.5024 47.9055 -0.8436
v  -12.3900 38.2956 1.6257
v  -1.4057 -48.7138 1.6257
v  -12.3900 14.0731 1.6257
v  -1.4057 -48.7138 -0.8367
v  -1.9170 49.2249 -0.8367
v  -1.4057 48.7137 -0.8367
v  -12.1151 39.6078 1.8315
v  -58.4852 39.6078 1.8315
v  -58.4852 13.0167 1.8315
v  -12.1151 13.0167 1.8315
v  -57.2589 38.4637 3.0890
v  -57.8132 38.6089 2.6511
v  -57.8132 14.1472 2.6511
v  -57.2589 14.2924 3.0890
v  -57.0962 39.6843 2.6511
v  -57.5070 39.2724 2.6511
v  -56.2826 39.4361 3.0890
v  -56.7046 37.9117 2.6511
v  -55.7283 38.8841 2.6511
v  -56.4763 39.9882 2.6511
v  -56.7046 14.8445 2.6511
v  -57.0962 13.0718 2.6511
v  -56.2826 13.3200 3.0890
v  -57.5070 13.4837 2.6511
v  -55.7283 13.8720 2.6511
v  -56.4763 12.7679 2.6511
v  -56.4763 12.7679 2.0078
v  -13.5472 12.7679 2.0078
v  -13.5472 12.7679 2.6511
v  -12.7646 38.4637 3.0890
v  -12.7646 14.2924 3.0890
v  -12.2103 14.1472 2.6511
v  -12.2103 38.6089 2.6511
v  -12.9273 39.6843 2.6511
v  -13.7410 39.4361 3.0890
v  -12.5166 39.2724 2.6511
v  -14.2953 38.8841 2.6511
v  -13.3189 37.9117 2.6511
v  -13.5472 39.9882 2.6511
v  -13.3189 14.8445 2.6511
v  -12.9273 13.0718 2.6511
v  -12.5166 13.4837 2.6511
v  -13.7410 13.3200 3.0890
v  -14.2953 13.8720 2.6511
v  -57.0962 39.6843 2.0078
v  -57.5070 39.2724 2.0078
v  -57.8132 38.6089 2.0078
v  -57.8132 14.1472 2.0078
v  -56.7046 37.9117 2.0078
v  -55.7283 38.8841 2.0078
v  -56.4763 39.9882 2.0078
v  -56.7046 14.8445 2.0078
v  -57.5070 13.4837 2.0078
v  -57.0962 13.0718 2.0078
v  -55.7283 13.8720 2.0078
v  -14.2953 13.8720 2.0078
v  -13.5472 39.9882 2.0078
v  -12.5166 39.2724 2.0078
v  -12.9273 39.6843 2.0078
v  -12.2103 14.1472 2.0078
v  -12.2103 38.6089 2.0078
v  -14.2953 38.8841 2.0078
v  -13.3189 37.9117 2.0078
v  -13.3189 14.8445 2.0078
v  -12.9273 13.0718 2.0078
v  -12.5166 13.4837 2.0078
v  -57.2589 38.4637 0.9265
v  -57.2589 14.2924 0.9265
v  -57.8132 14.1472 1.3644
v  -57.8132 38.6089 1.3644
v  -57.0962 39.6843 1.3644
v  -56.2826 39.4361 0.9265
v  -57.5070 39.2724 1.3644
v  -56.7046 37.9117 1.3644
v  -55.7283 38.8841 1.3644
v  -56.4763 39.9882 1.3644
v  -56.7046 14.8445 1.3644
v  -57.0962 13.0718 1.3644
v  -57.5070 13.4837 1.3644
v  -56.2826 13.3200 0.9265
v  -55.7283 13.8720 1.3644
v  -56.4763 12.7679 1.3644
v  -13.5472 12.7679 1.3644
v  -12.7646 38.4637 0.9265
v  -12.2103 38.6089 1.3644
v  -12.2103 14.1472 1.3644
v  -12.7646 14.2924 0.9265
v  -12.9273 39.6843 1.3644
v  -12.5166 39.2724 1.3644
v  -13.7410 39.4361 0.9265
v  -14.2953 38.8841 1.3644
v  -13.3189 37.9117 1.3644
v  -13.5472 39.9882 1.3644
v  -13.3189 14.8445 1.3644
v  -12.9273 13.0718 1.3644
v  -13.7410 13.3200 0.9265
v  -12.5166 13.4837 1.3644
v  -14.2953 13.8720 1.3644
v  -12.1151 39.6078 1.7804
v  -12.1151 13.0167 1.7804
v  -58.4852 13.0167 1.7804
v  -58.4852 39.6078 1.7804
# 154 vertices

vn -0.3827 -0.9239 -0.0000
vn 0.3827 -0.9239 -0.0000
vn 0.3419 -0.8752 0.3422
vn -0.3419 -0.8752 0.3422
vn 0.0000 -0.0000 -1.0000
vn -1.0000 0.0000 0.0000
vn -0.9380 0.0000 0.3466
vn 0.0000 0.0000 1.0000
vn -0.3827 0.9239 -0.0000
vn -0.7071 0.7071 -0.0000
vn -0.6833 0.6833 0.2573
vn -0.3419 0.8752 0.3421
vn -0.7071 -0.7071 -0.0000
vn -0.6833 -0.6833 0.2573
vn 0.0000 1.0000 -0.0000
vn 1.0000 0.0000 -0.0000
vn 0.9244 0.3815 -0.0000
vn 0.7071 0.7071 -0.0000
vn 0.9244 0.3815 -0.0009
vn 0.1223 -0.9884 -0.0899
vn 0.7071 -0.7071 -0.0000
vn 0.3522 -0.9340 -0.0604
vn 0.9948 -0.0000 -0.1015
vn 0.9947 -0.0000 -0.1033
vn -0.2248 0.6880 0.6900
vn -0.2248 -0.6879 0.6901
vn 0.2248 -0.6879 0.6901
vn -0.7456 0.0000 0.6664
vn 0.3419 0.8752 0.3421
vn 0.3827 0.9239 -0.0000
vn 1.0000 0.0000 0.0000
vn 0.9380 0.0000 0.3466
vn 0.6833 0.6833 0.2573
vn 0.6833 -0.6833 0.2573
vn 0.0000 -1.0000 0.0000
vn -1.0000 0.0000 -0.0000
vn -0.9244 0.3815 -0.0000
vn -0.9244 0.3815 -0.0009
vn -0.1223 -0.9884 -0.0899
vn -0.3522 -0.9340 -0.0604
vn -0.9948 -0.0000 -0.1015
vn -0.9947 -0.0000 -0.1033
vn 0.2248 0.6880 0.6900
vn 0.7456 0.0000 0.6664
vn -0.1696 0.0168 0.9854
vn -0.5928 0.1326 0.7943
vn -0.5928 -0.1326 0.7943
vn -0.1696 -0.0168 0.9854
vn -0.3306 0.4145 0.8478
vn -0.4197 0.3293 0.8458
vn -0.0143 0.1678 0.9857
vn 0.5191 -0.1467 0.8420
vn 0.1456 -0.5210 0.8411
vn -0.1421 0.5841 0.7992
vn 0.5191 0.1467 0.8420
vn -0.3306 -0.4145 0.8478
vn -0.0143 -0.1678 0.9857
vn -0.4197 -0.3293 0.8458
vn 0.1456 0.5210 0.8411
vn -0.1421 -0.5841 0.7992
vn -0.2259 -0.9741 0.0000
vn 0.2259 -0.9741 0.0000
vn 0.1696 0.0168 0.9854
vn 0.1696 -0.0168 0.9854
vn 0.5928 -0.1326 0.7943
vn 0.5928 0.1326 0.7943
vn 0.3306 0.4145 0.8478
vn 0.0143 0.1678 0.9857
vn 0.4197 0.3293 0.8458
vn -0.1456 -0.5210 0.8411
vn -0.5191 -0.1467 0.8420
vn 0.1421 0.5841 0.7992
vn -0.5191 0.1467 0.8420
vn 0.3306 -0.4145 0.8478
vn 0.4197 -0.3293 0.8458
vn 0.0143 -0.1678 0.9857
vn -0.1456 0.5210 0.8411
vn 0.1421 -0.5841 0.7992
vn -0.8207 0.5714 -0.0000
vn -0.5821 0.8131 -0.0000
vn -0.9767 -0.2145 0.0000
vn -0.9767 0.2145 -0.0000
vn 0.3818 -0.9243 0.0000
vn 0.7057 -0.7085 0.0000
vn -0.2259 0.9741 -0.0000
vn -0.5821 -0.8131 0.0000
vn -0.8207 -0.5714 0.0000
vn 0.7057 0.7085 -0.0000
vn 0.3818 0.9243 -0.0000
vn -0.3818 0.9243 0.0000
vn -0.3817 0.9243 -0.0000
vn 0.2259 0.9741 -0.0000
vn 0.5821 0.8131 -0.0000
vn 0.8207 0.5714 -0.0000
vn 0.9767 0.2145 -0.0000
vn 0.9767 -0.2145 0.0000
vn -0.7057 -0.7085 0.0000
vn -0.3818 -0.9243 0.0000
vn 0.8207 -0.5714 0.0000
vn 0.5821 -0.8131 0.0000
vn -0.7057 0.7085 -0.0000
vn -0.1696 0.0168 -0.9854
vn -0.1696 -0.0168 -0.9854
vn -0.5928 -0.1326 -0.7943
vn -0.5928 0.1326 -0.7943
vn -0.3306 0.4145 -0.8478
vn -0.0143 0.1678 -0.9857
vn -0.4197 0.3293 -0.8458
vn 0.5191 -0.1467 -0.8420
vn 0.1456 -0.5210 -0.8411
vn -0.1421 0.5841 -0.7992
vn 0.5191 0.1467 -0.8420
vn -0.3306 -0.4145 -0.8478
vn -0.4197 -0.3293 -0.8458
vn -0.0143 -0.1678 -0.9857
vn 0.1456 0.5210 -0.8411
vn -0.1421 -0.5841 -0.7992
vn 0.1696 0.0168 -0.9854
vn 0.5928 0.1326 -0.7943
vn 0.5928 -0.1326 -0.7943
vn 0.1696 -0.0168 -0.9854
vn 0.3306 0.4145 -0.8478
vn 0.4197 0.3293 -0.8458
vn 0.0143 0.1678 -0.9857
vn -0.1456 -0.5210 -0.8411
vn -0.5191 -0.1467 -0.8420
vn 0.1421 0.5841 -0.7992
vn -0.5191 0.1467 -0.8420
vn 0.3306 -0.4145 -0.8478
vn 0.0143 -0.1678 -0.9857
vn 0.4197 -0.3293 -0.8458
vn -0.1456 0.5210 -0.8411
vn 0.1421 -0.5841 -0.7992
vn -0.5821 0.8131 0.0000
vn -0.2259 0.9741 0.0000
vn -0.3818 0.9243 -0.0000
# 136 vertex normals

vt 0.6478 0.3323 0.0000
vt 0.6478 0.0102 0.0000
vt 0.6600 0.0104 0.0000
vt 0.6600 0.3320 0.0000
vt 0.0355 0.7185 0.0000
vt 0.0394 0.7132 0.0000
vt 0.3015 0.7133 0.0000
vt 0.3054 0.7186 0.0000
vt 0.0381 0.3247 0.0000
vt 0.0342 0.3180 0.0000
vt 0.3041 0.3180 0.0000
vt 0.3002 0.3248 0.0000
vt 0.0215 0.4535 0.0000
vt 0.0098 0.4535 0.0000
vt 0.0098 0.0049 0.0000
vt 0.0215 0.0049 0.0000
vt 0.0334 0.7165 0.0000
vt 0.0321 0.3200 0.0000
vt 0.0820 0.0541 0.0000
vt 0.0752 0.0585 0.0000
vt 0.0321 0.0046 0.0000
vt 0.1925 0.0541 0.0000
vt 0.4801 0.0046 0.0000
vt 0.1969 0.0585 0.0000
vt 0.2698 0.3448 0.0000
vt 0.2700 0.3412 0.0000
vt 0.2826 0.3418 0.0000
vt 0.2820 0.3450 0.0000
vt 0.6480 0.3358 0.0000
vt 0.6606 0.3353 0.0000
vt 0.0752 0.2561 0.0000
vt 0.0321 0.3100 0.0000
vt 0.4801 0.3100 0.0000
vt 0.1969 0.2561 0.0000
vt 0.7179 0.7842 0.0000
vt 0.7169 0.5919 0.0000
vt 0.7179 0.5919 0.0000
vt 0.7189 0.7842 0.0000
vt 0.4782 0.3180 0.0000
vt 0.4782 0.6031 0.0000
vt 0.4773 0.6031 0.0000
vt 0.4773 0.3180 0.0000
vt 0.7305 0.3811 0.0000
vt 0.7652 0.4089 0.0000
vt 0.7623 0.4133 0.0000
vt 0.7300 0.6707 0.0000
vt 0.7623 0.4849 0.0000
vt 0.7652 0.4878 0.0000
vt 0.7316 0.6722 0.0000
vt 0.8933 0.4877 0.0000
vt 0.9274 0.6720 0.0000
vt 0.1946 0.6476 0.0000
vt 0.1946 0.6498 0.0000
vt 0.1873 0.6498 0.0000
vt 0.1873 0.6476 0.0000
vt 0.6778 0.3571 0.0000
vt 0.6851 0.3571 0.0000
vt 0.6851 0.5529 0.0000
vt 0.6778 0.5529 0.0000
vt 0.9442 0.0489 0.0000
vt 0.9515 0.0475 0.0000
vt 0.9516 0.0496 0.0000
vt 0.1946 0.3579 0.0000
vt 0.1873 0.3586 0.0000
vt 0.2857 0.3446 0.0000
vt 0.6638 0.3324 0.0000
vt 0.6638 0.0100 0.0000
vt 0.0063 0.4532 0.0000
vt 0.0063 0.0052 0.0000
vt 0.2820 0.6666 0.0000
vt 0.2698 0.6669 0.0000
vt 0.9278 0.3809 0.0000
vt 0.8932 0.4087 0.0000
vt 0.0215 0.4647 0.0000
vt 0.0215 0.9133 0.0000
vt 0.0098 0.9133 0.0000
vt 0.0098 0.4647 0.0000
vt 0.3062 0.3201 0.0000
vt 0.3075 0.7165 0.0000
vt 0.0820 0.2605 0.0000
vt 0.1925 0.2605 0.0000
vt 0.2826 0.6699 0.0000
vt 0.2700 0.6704 0.0000
vt 0.6480 0.0066 0.0000
vt 0.6606 0.0072 0.0000
vt 0.6940 0.5838 0.0000
vt 0.6944 0.3914 0.0000
vt 0.6953 0.3914 0.0000
vt 0.6950 0.5838 0.0000
vt 0.2925 0.3558 0.0000
vt 0.2935 0.3558 0.0000
vt 0.2935 0.6409 0.0000
vt 0.2925 0.6409 0.0000
vt 0.8961 0.4131 0.0000
vt 0.9289 0.6705 0.0000
vt 0.8962 0.4848 0.0000
vt 0.6696 0.2968 0.0000
vt 0.6769 0.2968 0.0000
vt 0.6769 0.2989 0.0000
vt 0.6696 0.2989 0.0000
vt 0.9447 0.2462 0.0000
vt 0.9520 0.2454 0.0000
vt 0.9519 0.2476 0.0000
vt 0.6696 0.0071 0.0000
vt 0.6769 0.0078 0.0000
vt 0.2857 0.6670 0.0000
vt 0.0063 0.9130 0.0000
vt 0.0063 0.4650 0.0000
vt 0.7397 0.8898 0.0000
vt 0.7397 0.7130 0.0000
vt 0.8411 0.7130 0.0000
vt 0.8411 0.8898 0.0000
vt 0.8424 0.8985 0.0000
vt 0.8431 0.9015 0.0000
vt 0.7369 0.9015 0.0000
vt 0.7376 0.8985 0.0000
vt 0.8482 0.8980 0.0000
vt 0.8462 0.9000 0.0000
vt 0.8466 0.8942 0.0000
vt 0.8398 0.8956 0.0000
vt 0.8438 0.8916 0.0000
vt 0.8496 0.8951 0.0000
vt 0.7402 0.8956 0.0000
vt 0.7318 0.8980 0.0000
vt 0.7334 0.8942 0.0000
vt 0.7338 0.9000 0.0000
vt 0.7362 0.8916 0.0000
vt 0.7304 0.8951 0.0000
vt 0.0106 0.9393 0.0000
vt 0.1898 0.9393 0.0000
vt 0.1898 0.9420 0.0000
vt 0.0106 0.9420 0.0000
vt 0.8424 0.7056 0.0000
vt 0.7376 0.7056 0.0000
vt 0.7369 0.7026 0.0000
vt 0.8431 0.7026 0.0000
vt 0.8482 0.7060 0.0000
vt 0.8466 0.7099 0.0000
vt 0.8462 0.7041 0.0000
vt 0.8438 0.7124 0.0000
vt 0.8398 0.7085 0.0000
vt 0.8496 0.7089 0.0000
vt 0.7402 0.7085 0.0000
vt 0.7318 0.7060 0.0000
vt 0.7338 0.7041 0.0000
vt 0.7334 0.7099 0.0000
vt 0.7362 0.7124 0.0000
vt 0.7304 0.7089 0.0000
vt 0.0077 0.9539 0.0000
vt 0.0101 0.9539 0.0000
vt 0.0101 0.9565 0.0000
vt 0.0077 0.9565 0.0000
vt 0.6886 0.6670 0.0000
vt 0.6886 0.7691 0.0000
vt 0.6859 0.7691 0.0000
vt 0.6859 0.6670 0.0000
vt 0.7513 0.0108 0.0000
vt 0.7455 0.0108 0.0000
vt 0.7455 0.0082 0.0000
vt 0.7513 0.0082 0.0000
vt 0.6886 0.7721 0.0000
vt 0.6859 0.7721 0.0000
vt 0.0130 0.9539 0.0000
vt 0.0130 0.9565 0.0000
vt 0.4919 0.7387 0.0000
vt 0.4919 0.6424 0.0000
vt 0.4946 0.6424 0.0000
vt 0.4946 0.7387 0.0000
vt 0.6886 0.6615 0.0000
vt 0.6886 0.6639 0.0000
vt 0.6859 0.6639 0.0000
vt 0.6859 0.6615 0.0000
vt 0.0077 0.9245 0.0000
vt 0.0134 0.9245 0.0000
vt 0.0134 0.9272 0.0000
vt 0.0077 0.9272 0.0000
vt 0.1864 0.9245 0.0000
vt 0.1864 0.9272 0.0000
vt 0.0077 0.9420 0.0000
vt 0.0077 0.9393 0.0000
vt 0.1922 0.9539 0.0000
vt 0.1922 0.9565 0.0000
vt 0.1951 0.9539 0.0000
vt 0.1975 0.9539 0.0000
vt 0.1975 0.9565 0.0000
vt 0.1951 0.9565 0.0000
vt 0.5213 0.7476 0.0000
vt 0.5213 0.6454 0.0000
vt 0.5240 0.6454 0.0000
vt 0.5240 0.7476 0.0000
vt 0.9300 0.0108 0.0000
vt 0.9243 0.0108 0.0000
vt 0.9243 0.0082 0.0000
vt 0.9300 0.0082 0.0000
vt 0.5213 0.7506 0.0000
vt 0.5240 0.7506 0.0000
vt 0.5094 0.6424 0.0000
vt 0.5094 0.7387 0.0000
vt 0.5067 0.7387 0.0000
vt 0.5067 0.6424 0.0000
vt 0.1951 0.9420 0.0000
vt 0.1927 0.9420 0.0000
vt 0.1927 0.9393 0.0000
vt 0.1951 0.9393 0.0000
vt 0.1922 0.9245 0.0000
vt 0.1922 0.9272 0.0000
vt 0.5213 0.6424 0.0000
vt 0.5240 0.6424 0.0000
# 208 texture coords

g SM_Distribution_Box_Door
s 4
f 1/1/1 2/2/2 3/3/3 
f 3/3/3 4/4/4 1/1/1 
s 2
f 1/5/5 5/6/5 6/7/5 
f 6/7/5 2/8/5 1/5/5 
f 7/9/5 8/10/5 9/11/5 
f 9/11/5 10/12/5 7/9/5 
s 32
f 11/13/6 12/14/7 13/15/7 
f 13/15/7 14/16/6 11/13/6 
s 2
f 5/6/5 11/17/5 14/18/5 
f 14/18/5 7/9/5 5/6/5 
s 1
f 15/19/8 16/20/8 17/21/8 
f 18/22/8 19/23/8 20/24/8 
f 17/21/8 19/23/8 18/22/8 
f 18/22/8 15/19/8 17/21/8 
s 4
f 8/25/9 14/26/10 13/27/11 
f 13/27/11 21/28/12 8/25/9 
s 2
f 14/18/5 8/10/5 7/9/5 
s 4
f 11/29/13 1/1/1 4/4/4 
f 4/4/4 12/30/14 11/29/13 
s 1
f 16/20/8 22/31/8 23/32/8 
f 23/32/8 17/21/8 16/20/8 
f 24/33/8 25/34/8 20/24/8 
f 20/24/8 19/23/8 24/33/8 
f 26/35/15 27/36/15 6/37/15 
f 6/37/15 5/38/15 26/35/15 
s 4
f 5/39/16 7/40/16 28/41/16 
f 28/41/16 26/42/16 5/39/16 
s 8
f 29/43/5 30/44/5 31/45/5 
f 32/46/5 33/47/5 34/48/5 
f 34/48/5 35/49/5 32/46/5 
f 29/43/5 31/45/5 33/47/5 
f 33/47/5 32/46/5 29/43/5 
f 35/49/5 34/48/5 36/50/5 
f 36/50/5 37/51/5 35/49/5 
s 2
f 1/5/5 11/17/5 5/6/5 
s 16
f 32/52/17 35/53/18 38/54/18 
f 38/54/18 39/55/19 32/52/17 
s 4
f 37/56/15 40/57/15 38/58/15 
f 38/58/15 35/59/15 37/56/15 
s 1
f 29/60/20 41/61/21 42/62/22 
s 16
f 29/63/23 32/52/17 39/55/19 
f 39/55/19 41/64/24 29/63/23 
s 4
f 17/65/25 21/28/12 13/27/11 
f 19/66/26 12/30/14 4/4/4 
f 3/3/3 24/67/27 19/66/26 
f 19/66/26 4/4/4 3/3/3 
s 32
f 12/14/7 19/68/28 17/69/28 
f 17/69/28 13/15/7 12/14/7 
s 4
f 21/28/12 43/70/29 9/71/30 
f 9/71/30 8/25/9 21/28/12 
s 8
f 29/43/5 44/72/5 45/73/5 
f 45/73/5 30/44/5 29/43/5 
s 32
f 46/74/31 47/75/31 48/76/32 
f 48/76/32 49/77/32 46/74/31 
s 2
f 6/7/5 10/12/5 47/78/5 
f 47/78/5 46/79/5 6/7/5 
s 1
f 50/80/8 23/32/8 22/31/8 
f 51/81/8 25/34/8 24/33/8 
f 23/32/8 50/80/8 51/81/8 
f 51/81/8 24/33/8 23/32/8 
s 4
f 9/71/30 43/70/29 48/82/33 
f 48/82/33 47/83/18 9/71/30 
s 2
f 47/78/5 10/12/5 9/11/5 
s 4
f 46/84/21 49/85/34 3/3/3 
f 3/3/3 2/2/2 46/84/21 
s 1
f 52/86/35 28/87/35 7/88/35 
f 7/88/35 10/89/35 52/86/35 
s 4
f 6/90/36 27/91/36 52/92/36 
f 52/92/36 10/93/36 6/90/36 
s 8
f 53/94/5 45/73/5 44/72/5 
f 54/95/5 37/51/5 36/50/5 
f 36/50/5 55/96/5 54/95/5 
f 44/72/5 54/95/5 55/96/5 
f 55/96/5 53/94/5 44/72/5 
s 2
f 2/8/5 6/7/5 46/79/5 
s 16
f 54/97/37 56/98/38 40/99/10 
f 40/99/10 37/100/10 54/97/37 
s 1
f 44/101/39 57/102/40 58/103/13 
s 16
f 44/104/41 58/105/42 56/98/38 
f 56/98/38 54/97/37 44/104/41 
s 4
f 23/106/43 48/82/33 43/70/29 
f 24/67/27 3/3/3 49/85/34 
f 21/28/12 17/65/25 23/106/43 
f 23/106/43 43/70/29 21/28/12 
s 32
f 49/77/32 48/76/32 23/107/44 
f 23/107/44 24/108/44 49/77/32 
s 1
f 29/60/20 42/62/22 57/102/40 
f 57/102/40 44/101/39 29/60/20 
f 59/109/8 60/110/8 61/111/8 
f 61/111/8 62/112/8 59/109/8 
s 4
f 63/113/45 64/114/46 65/115/47 
f 65/115/47 66/116/48 63/113/45 
f 67/117/49 68/118/50 63/113/45 
f 63/113/45 69/119/51 67/117/49 
f 70/120/52 71/121/53 69/119/51 
f 69/119/51 63/113/45 70/120/52 
f 67/117/49 69/119/51 72/122/54 
f 68/118/50 64/114/46 63/113/45 
f 70/120/52 63/113/45 66/116/48 
f 66/116/48 73/123/55 70/120/52 
f 74/124/56 75/125/57 66/116/48 
f 66/116/48 76/126/58 74/124/56 
f 73/123/55 66/116/48 75/125/57 
f 75/125/57 77/127/59 73/123/55 
f 74/124/56 78/128/60 75/125/57 
f 76/126/58 66/116/48 65/115/47 
s 2
f 79/129/61 80/130/62 81/131/62 
f 81/131/62 78/132/61 79/129/61 
s 4
f 82/133/63 83/134/64 84/135/65 
f 84/135/65 85/136/66 82/133/63 
f 86/137/67 87/138/68 82/133/63 
f 82/133/63 88/139/69 86/137/67 
f 69/119/51 71/121/53 89/140/70 
f 89/140/70 87/138/68 69/119/51 
f 90/141/71 82/133/63 87/138/68 
f 87/138/68 89/140/70 90/141/71 
f 86/137/67 91/142/72 87/138/68 
f 88/139/69 82/133/63 85/136/66 
f 83/134/64 82/133/63 90/141/71 
f 90/141/71 92/143/73 83/134/64 
f 93/144/74 94/145/75 83/134/64 
f 83/134/64 95/146/76 93/144/74 
f 96/147/77 77/127/59 75/125/57 
f 75/125/57 95/146/76 96/147/77 
f 92/143/73 96/147/77 95/146/76 
f 95/146/76 83/134/64 92/143/73 
f 93/144/74 95/146/76 81/148/78 
f 94/145/75 84/135/65 83/134/64 
f 72/122/54 69/119/51 87/138/68 
f 87/138/68 91/142/72 72/122/54 
f 78/128/60 81/148/78 95/146/76 
f 95/146/76 75/125/57 78/128/60 
s 2
f 68/149/79 67/150/80 97/151/80 
f 97/151/80 98/152/79 68/149/79 
f 65/153/81 64/154/82 99/155/82 
f 99/155/82 100/156/81 65/153/81 
s 1
f 71/157/83 70/158/84 101/159/84 
f 101/159/84 102/160/83 71/157/83 
s 2
f 64/154/82 68/161/79 98/162/79 
f 98/162/79 99/155/82 64/154/82 
f 67/150/80 72/163/85 103/164/85 
f 103/164/85 97/151/80 67/150/80 
f 70/165/31 73/166/31 104/167/31 
f 104/167/31 101/168/31 70/165/31 
f 74/169/86 76/170/87 105/171/87 
f 105/171/87 106/172/86 74/169/86 
s 1
f 73/173/88 77/174/89 107/175/89 
f 107/175/89 104/176/88 73/173/88 
f 77/174/89 96/177/90 108/178/91 
f 108/178/91 107/175/89 77/174/89 
s 2
f 76/170/87 65/153/81 100/156/81 
f 100/156/81 105/171/87 76/170/87 
f 78/132/61 74/179/86 106/180/86 
f 106/180/86 79/129/61 78/132/61 
f 72/163/85 91/181/92 109/182/92 
f 109/182/92 103/164/85 72/163/85 
f 86/183/93 88/184/94 110/185/94 
f 110/185/94 111/186/93 86/183/93 
f 85/187/95 84/188/96 112/189/96 
f 112/189/96 113/190/95 85/187/95 
s 1
f 90/191/97 89/192/98 114/193/98 
f 114/193/98 115/194/97 90/191/97 
f 89/192/98 71/157/83 102/160/83 
f 102/160/83 114/193/98 89/192/98 
s 2
f 88/195/94 85/187/95 113/190/95 
f 113/190/95 110/196/94 88/195/94 
f 91/181/92 86/183/93 111/186/93 
f 111/186/93 109/182/92 91/181/92 
f 92/197/6 90/198/6 115/199/6 
f 115/199/6 116/200/6 92/197/6 
f 94/201/99 93/202/100 117/203/100 
f 117/203/100 118/204/99 94/201/99 
s 1
f 96/177/90 92/205/101 116/206/101 
f 116/206/101 108/178/91 96/177/90 
s 2
f 84/188/96 94/207/99 118/208/99 
f 118/208/99 112/189/96 84/188/96 
f 93/202/100 81/131/62 80/130/62 
f 80/130/62 117/203/100 93/202/100 
s 4
f 119/113/102 120/116/103 121/115/104 
f 121/115/104 122/114/105 119/113/102 
f 123/117/106 124/119/107 119/113/102 
f 119/113/102 125/118/108 123/117/106 
f 126/120/109 119/113/102 124/119/107 
f 124/119/107 127/121/110 126/120/109 
f 123/117/106 128/122/111 124/119/107 
f 125/118/108 119/113/102 122/114/105 
f 126/120/109 129/123/112 120/116/103 
f 120/116/103 119/113/102 126/120/109 
f 130/124/113 131/126/114 120/116/103 
f 120/116/103 132/125/115 130/124/113 
f 129/123/112 133/127/116 132/125/115 
f 132/125/115 120/116/103 129/123/112 
f 130/124/113 132/125/115 134/128/117 
f 131/126/114 121/115/104 120/116/103 
s 2
f 79/129/61 134/132/61 135/131/62 
f 135/131/62 80/130/62 79/129/61 
s 4
f 136/133/118 137/136/119 138/135/120 
f 138/135/120 139/134/121 136/133/118 
f 140/137/122 141/139/123 136/133/118 
f 136/133/118 142/138/124 140/137/122 
f 124/119/107 142/138/124 143/140/125 
f 143/140/125 127/121/110 124/119/107 
f 144/141/126 143/140/125 142/138/124 
f 142/138/124 136/133/118 144/141/126 
f 140/137/122 142/138/124 145/142/127 
f 141/139/123 137/136/119 136/133/118 
f 139/134/121 146/143/128 144/141/126 
f 144/141/126 136/133/118 139/134/121 
f 147/144/129 148/146/130 139/134/121 
f 139/134/121 149/145/131 147/144/129 
f 150/147/132 148/146/130 132/125/115 
f 132/125/115 133/127/116 150/147/132 
f 146/143/128 139/134/121 148/146/130 
f 148/146/130 150/147/132 146/143/128 
f 147/144/129 135/148/133 148/146/130 
f 149/145/131 139/134/121 138/135/120 
f 128/122/111 145/142/127 142/138/124 
f 142/138/124 124/119/107 128/122/111 
f 134/128/117 132/125/115 148/146/130 
f 148/146/130 135/148/133 134/128/117 
s 2
f 125/149/79 98/152/79 97/151/80 
f 97/151/80 123/150/134 125/149/79 
f 121/153/81 100/156/81 99/155/82 
f 99/155/82 122/154/82 121/153/81 
s 1
f 127/157/83 102/160/83 101/159/84 
f 101/159/84 126/158/84 127/157/83 
s 2
f 122/154/82 99/155/82 98/162/79 
f 98/162/79 125/161/79 122/154/82 
f 123/150/134 97/151/80 103/164/85 
f 103/164/85 128/163/135 123/150/134 
f 126/165/31 101/168/31 104/167/31 
f 104/167/31 129/166/31 126/165/31 
f 130/169/86 106/172/86 105/171/87 
f 105/171/87 131/170/87 130/169/86 
s 1
f 129/173/88 104/176/88 107/175/89 
f 107/175/89 133/174/89 129/173/88 
f 133/174/89 107/175/89 108/178/91 
f 108/178/91 150/177/136 133/174/89 
s 2
f 131/170/87 105/171/87 100/156/81 
f 100/156/81 121/153/81 131/170/87 
f 134/132/61 79/129/61 106/180/86 
f 106/180/86 130/179/86 134/132/61 
f 128/163/135 103/164/85 109/182/92 
f 109/182/92 145/181/92 128/163/135 
f 140/183/93 111/186/93 110/185/94 
f 110/185/94 141/184/94 140/183/93 
f 137/187/95 113/190/95 112/189/96 
f 112/189/96 138/188/96 137/187/95 
s 1
f 144/191/97 115/194/97 114/193/98 
f 114/193/98 143/192/98 144/191/97 
f 143/192/98 114/193/98 102/160/83 
f 102/160/83 127/157/83 143/192/98 
s 2
f 141/195/94 110/196/94 113/190/95 
f 113/190/95 137/187/95 141/195/94 
f 145/181/92 109/182/92 111/186/93 
f 111/186/93 140/183/93 145/181/92 
f 146/197/6 116/200/6 115/199/6 
f 115/199/6 144/198/6 146/197/6 
f 149/201/99 118/204/99 117/203/100 
f 117/203/100 147/202/100 149/201/99 
s 1
f 150/177/136 108/178/91 116/206/101 
f 116/206/101 146/205/101 150/177/136 
s 2
f 138/188/96 112/189/96 118/208/99 
f 118/208/99 149/207/99 138/188/96 
f 147/202/100 117/203/100 80/130/62 
f 80/130/62 135/131/62 147/202/100 
s 1
f 151/109/5 152/112/5 153/111/5 
f 153/111/5 154/110/5 151/109/5 
# 268 faces

