# 3ds Max Wavefront OBJ Exporter v0.97b - (c)2007 guruware
# File Created: 24.01.2019 03:45:37

#
# object SM_Distribution_Box_Wire_02
#

v  -0.7578 -49.9999 1.8251
v  -0.7578 49.9999 1.8251
v  -1.8249 49.9999 0.7558
v  -1.8249 -49.9999 0.7558
v  0.7578 -49.9999 -1.8251
v  0.7578 49.9999 -1.8251
v  1.8249 49.9999 -0.7558
v  1.8249 -49.9999 -0.7558
v  1.8249 -49.9999 0.7558
v  1.8249 49.9999 0.7558
v  0.7578 49.9999 1.8251
v  0.7578 -49.9999 1.8251
v  -1.8249 -49.9999 -0.7558
v  -1.8249 49.9999 -0.7558
v  -0.7578 49.9999 -1.8251
v  -0.7578 -49.9999 -1.8251
# 16 vertices

vn -0.3832 0.0000 0.9237
vn -0.9241 0.0000 0.3822
vn 0.3832 -0.0000 -0.9237
vn 0.9241 -0.0000 -0.3822
vn 0.9241 0.0000 0.3822
vn 0.3832 0.0000 0.9237
vn -0.9241 -0.0000 -0.3822
vn -0.3832 -0.0000 -0.9237
# 8 vertex normals

vt 0.2513 0.3530 0.0000
vt 0.2513 0.6487 0.0000
vt 0.2448 0.6487 0.0000
vt 0.2448 0.3530 0.0000
vt 0.2256 0.3530 0.0000
vt 0.2256 0.6487 0.0000
vt 0.2191 0.6487 0.0000
vt 0.2191 0.3530 0.0000
vt 0.2133 0.3530 0.0000
vt 0.2133 0.6487 0.0000
vt 0.2068 0.6487 0.0000
vt 0.2068 0.3530 0.0000
vt 0.2390 0.3530 0.0000
vt 0.2390 0.6487 0.0000
vt 0.2325 0.6487 0.0000
vt 0.2325 0.3530 0.0000
vt 0.2582 0.3530 0.0000
vt 0.2582 0.6487 0.0000
# 18 texture coords

g SM_Distribution_Box_Wire_02
s 1
f 1/1/1 2/2/1 3/3/2 
f 3/3/2 4/4/2 1/1/1 
f 5/5/3 6/6/3 7/7/4 
f 7/7/4 8/8/4 5/5/3 
f 9/9/5 10/10/5 11/11/6 
f 11/11/6 12/12/6 9/9/5 
f 13/13/7 14/14/7 15/15/8 
f 15/15/8 16/16/8 13/13/7 
f 12/17/6 11/18/6 2/2/1 
f 2/2/1 1/1/1 12/17/6 
f 16/16/8 15/15/8 6/6/3 
f 6/6/3 5/5/3 16/16/8 
f 8/8/4 7/7/4 10/10/5 
f 10/10/5 9/9/5 8/8/4 
f 4/4/2 3/3/2 14/14/7 
f 14/14/7 13/13/7 4/4/2 
# 16 faces

