# 3ds Max Wavefront OBJ Exporter v0.97b - (c)2007 guruware
# File Created: 24.01.2019 22:26:15

#
# object SM_Wire_Line_01
#

v  -1.7030 100.0000 0.9832
v  -1.7030 -0.0000 0.9832
v  0.0000 -0.0000 1.9664
v  0.0000 100.0000 1.9664
v  -1.7030 100.0000 -0.9832
v  -1.7030 -0.0000 -0.9832
v  1.7030 100.0000 0.9832
v  1.7030 -0.0000 0.9832
v  1.7030 -0.0000 -0.9832
v  1.7030 100.0000 -0.9832
v  0.0000 -0.0000 -1.9664
v  0.0000 100.0000 -1.9664
v  -1.7030 -100.0000 0.9832
v  0.0000 -100.0000 1.9664
v  -1.7030 -100.0000 -0.9832
v  1.7030 -100.0000 0.9832
v  1.7030 -100.0000 -0.9832
v  0.0000 -100.0000 -1.9664
# 18 vertices

vn -0.8660 0.0000 0.5000
vn 0.0000 -0.0000 1.0000
vn 0.0000 0.0000 1.0000
vn -0.8660 0.0000 -0.5000
vn 0.8660 -0.0000 0.5000
vn 0.8660 -0.0000 -0.5000
vn 0.0000 0.0000 -1.0000
vn 0.0000 -0.0000 -1.0000
# 8 vertex normals

vt 0.9800 0.0649 0.0000
vt 0.3374 0.0649 0.0000
vt 0.3374 0.0499 0.0000
vt 0.9800 0.0499 0.0000
vt 0.9800 0.0799 0.0000
vt 0.3374 0.0799 0.0000
vt 0.9800 0.0350 0.0000
vt 0.3374 0.0350 0.0000
vt 0.3374 0.0200 0.0000
vt 0.9800 0.0200 0.0000
vt 0.9800 0.1098 0.0000
vt 0.3374 0.1098 0.0000
vt 0.3374 0.0948 0.0000
vt 0.9800 0.0948 0.0000
vt 0.3255 0.0649 0.0000
vt 0.3255 0.0499 0.0000
vt 0.3255 0.0799 0.0000
vt 0.3255 0.0350 0.0000
vt 0.3255 0.0200 0.0000
vt 0.3255 0.1098 0.0000
vt 0.3255 0.0948 0.0000
# 21 texture coords

g SM_Wire_Line_01
s 1
f 1/1/1 2/2/1 3/3/2 
f 3/3/2 4/4/3 1/1/1 
f 5/5/4 6/6/4 2/2/1 
f 2/2/1 1/1/1 5/5/4 
f 7/7/5 8/8/5 9/9/6 
f 9/9/6 10/10/6 7/7/5 
f 10/11/6 9/12/6 11/13/7 
f 11/13/7 12/14/8 10/11/6 
f 12/14/8 11/13/7 6/6/4 
f 6/6/4 5/5/4 12/14/8 
f 4/4/3 3/3/2 8/8/5 
f 8/8/5 7/7/5 4/4/3 
f 2/1/1 13/15/1 14/16/2 
f 14/16/2 3/4/2 2/1/1 
f 6/5/4 15/17/4 13/15/1 
f 13/15/1 2/1/1 6/5/4 
f 8/7/5 16/18/5 17/19/6 
f 17/19/6 9/10/6 8/7/5 
f 9/11/6 17/20/6 18/21/8 
f 18/21/8 11/14/7 9/11/6 
f 11/14/7 18/21/8 15/17/4 
f 15/17/4 6/5/4 11/14/7 
f 3/4/2 14/16/2 16/18/5 
f 16/18/5 8/7/5 3/4/2 
# 24 faces

