# 3ds Max Wavefront OBJ Exporter v0.97b - (c)2007 guruware
# File Created: 24.01.2019 21:25:44

#
# object SM_Wire_Set_03
#

v  -2.4974 -25.0002 -1.9665
v  -4.2004 -25.0002 -0.9833
v  -4.2004 74.9998 -0.9833
v  -2.4974 74.9998 -1.9665
v  -4.2004 -25.0002 0.9832
v  -4.2004 74.9998 0.9832
v  -0.7944 -25.0002 0.9832
v  -0.7944 -25.0002 -0.9833
v  -0.7944 74.9998 -0.9833
v  -0.7944 74.9998 0.9832
v  -2.4974 -25.0002 1.9664
v  -2.4974 74.9998 1.9664
v  3.6911 -25.0002 -1.3909
v  1.7917 -25.0002 -1.8998
v  1.7918 74.9998 -1.8998
v  3.6912 74.9998 -1.3909
v  0.4013 -25.0002 -0.5093
v  0.4013 74.9998 -0.5093
v  2.8096 -25.0002 1.8991
v  4.2001 -25.0002 0.5086
v  4.2002 74.9998 0.5086
v  2.8097 74.9998 1.8991
v  0.9102 -25.0002 1.3901
v  0.9103 74.9998 1.3901
v  -2.4975 -74.9999 -1.9665
v  -4.2005 -74.9999 -0.9833
v  -4.2005 -74.9999 0.9832
v  -0.7945 -74.9999 0.9832
v  -0.7945 -74.9999 -0.9833
v  -2.4975 -74.9999 1.9664
v  3.6911 -74.9999 -1.3908
v  1.7917 -74.9999 -1.8998
v  0.4012 -74.9999 -0.5093
v  2.8096 -74.9999 1.8991
v  4.2000 -74.9999 0.5086
v  0.9102 -74.9999 1.3901
# 36 vertices

vn 0.0000 -0.0000 -1.0000
vn -0.8660 0.0000 -0.5000
vn -0.8660 0.0000 0.5000
vn 0.8660 -0.0000 0.5000
vn 0.8660 -0.0000 -0.5000
vn 0.0000 0.0000 1.0000
vn 0.7071 -0.0000 -0.7071
vn -0.2588 0.0000 -0.9659
vn -0.9659 0.0000 -0.2588
vn 0.2588 -0.0000 0.9659
vn 0.9659 -0.0000 0.2588
vn -0.7071 0.0000 0.7071
# 12 vertex normals

vt 0.2174 0.2851 0.0000
vt 0.2174 0.2702 0.0000
vt 0.9784 0.2702 0.0000
vt 0.9784 0.2851 0.0000
vt 0.2174 0.2552 0.0000
vt 0.9784 0.2552 0.0000
vt 0.2174 0.3151 0.0000
vt 0.2174 0.3001 0.0000
vt 0.9784 0.3001 0.0000
vt 0.9784 0.3151 0.0000
vt 0.2174 0.2403 0.0000
vt 0.2174 0.2253 0.0000
vt 0.9784 0.2253 0.0000
vt 0.9784 0.2403 0.0000
vt 0.5960 0.2851 0.0000
vt 0.5960 0.2702 0.0000
vt 0.5960 0.2552 0.0000
vt 0.5960 0.3151 0.0000
vt 0.5960 0.3001 0.0000
vt 0.5960 0.2403 0.0000
vt 0.5960 0.2253 0.0000
vt 0.5969 0.2851 0.0000
vt 0.5969 0.2702 0.0000
vt 0.5969 0.2552 0.0000
vt 0.5969 0.3151 0.0000
vt 0.5969 0.3001 0.0000
vt 0.5969 0.2403 0.0000
vt 0.5969 0.2253 0.0000
# 28 texture coords

g SM_Wire_Set_03
s 1
f 1/1/1 2/2/2 3/3/2 
f 3/3/2 4/4/1 1/1/1 
f 2/2/2 5/5/3 6/6/3 
f 6/6/3 3/3/2 2/2/2 
f 7/7/4 8/8/5 9/9/5 
f 9/9/5 10/10/4 7/7/4 
f 11/11/6 7/12/4 10/13/4 
f 10/13/4 12/14/6 11/11/6 
f 5/5/3 11/11/6 12/14/6 
f 12/14/6 6/6/3 5/5/3 
f 8/8/5 1/1/1 4/4/1 
f 4/4/1 9/9/5 8/8/5 
f 13/1/7 14/2/8 15/3/8 
f 15/3/8 16/4/7 13/1/7 
f 14/2/8 17/5/9 18/6/9 
f 18/6/9 15/3/8 14/2/8 
f 19/7/10 20/8/11 21/9/11 
f 21/9/11 22/10/10 19/7/10 
f 23/11/12 19/12/10 22/13/10 
f 22/13/10 24/14/12 23/11/12 
f 17/5/9 23/11/12 24/14/12 
f 24/14/12 18/6/9 17/5/9 
f 20/8/11 13/1/7 16/4/7 
f 16/4/7 21/9/11 20/8/11 
f 2/3/2 1/4/1 25/15/1 
f 25/15/1 26/16/2 2/3/2 
f 5/6/3 2/3/2 26/16/2 
f 26/16/2 27/17/3 5/6/3 
f 8/9/5 7/10/4 28/18/4 
f 28/18/4 29/19/5 8/9/5 
f 7/13/4 11/14/6 30/20/6 
f 30/20/6 28/21/4 7/13/4 
f 11/14/6 5/6/3 27/17/3 
f 27/17/3 30/20/6 11/14/6 
f 1/4/1 8/9/5 29/19/5 
f 29/19/5 25/15/1 1/4/1 
f 14/3/8 13/4/7 31/22/7 
f 31/22/7 32/23/8 14/3/8 
f 17/6/9 14/3/8 32/23/8 
f 32/23/8 33/24/9 17/6/9 
f 20/9/11 19/10/10 34/25/10 
f 34/25/10 35/26/11 20/9/11 
f 19/13/10 23/14/12 36/27/12 
f 36/27/12 34/28/10 19/13/10 
f 23/14/12 17/6/9 33/24/9 
f 33/24/9 36/27/12 23/14/12 
f 13/4/7 20/9/11 35/26/11 
f 35/26/11 31/22/7 13/4/7 
# 48 faces

