# 3ds Max Wavefront OBJ Exporter v0.97b - (c)2007 guruware
# File Created: 24.01.2019 21:25:32

#
# object SM_Wire_Set_02
#

v  -2.3481 -50.1809 -2.0704
v  -4.0511 -50.1809 -1.0871
v  -4.0510 49.8191 -1.0871
v  -2.3480 49.8191 -2.0704
v  -4.0511 -50.1809 0.8793
v  -4.0510 49.8191 0.8793
v  -0.6451 -50.1809 0.8793
v  -0.6451 -50.1809 -1.0871
v  -0.6450 49.8191 -1.0871
v  -0.6451 49.8191 0.8793
v  -2.3481 -50.1809 1.8625
v  -2.3480 49.8191 1.8625
v  3.8405 -50.1809 -1.4947
v  1.9411 -50.1809 -2.0037
v  1.9411 49.8191 -2.0037
v  3.8406 49.8191 -1.4947
v  0.5506 -50.1809 -0.6132
v  0.5507 49.8191 -0.6132
v  2.9590 -50.1809 1.7952
v  4.3495 -50.1809 0.4047
v  4.3495 49.8191 0.4047
v  2.9591 49.8191 1.7952
v  1.0596 -50.1809 1.2862
v  1.0596 49.8191 1.2862
v  4.6791 -45.1172 0.8369
v  2.6702 -45.1172 2.0703
v  2.6702 -74.9999 2.0703
v  4.6791 -74.9999 0.8369
v  -4.6795 -74.9999 0.8369
v  -4.6795 -45.1172 0.8369
v  -4.7736 -45.1172 -1.4713
v  -4.7736 -74.9999 -1.4713
v  4.7733 -74.9999 -1.4713
v  4.7733 -45.1172 -1.4713
v  -2.6706 -74.9999 2.0703
v  -2.6705 -45.1172 2.0703
v  -1.2446 -74.9998 2.0703
v  -1.2446 -45.1172 2.0703
v  1.2443 -45.1172 2.0703
v  1.2442 -75.0000 2.0703
v  -0.0002 -74.9998 1.5756
v  -0.0001 -45.1172 1.5756
v  4.6792 74.9998 0.8369
v  2.6703 74.9998 2.0703
v  2.6702 45.1172 2.0703
v  4.6791 45.1172 0.8369
v  -4.6795 45.1172 0.8369
v  -4.6794 74.9998 0.8369
v  -4.7736 74.9998 -1.4713
v  -4.7736 45.1172 -1.4713
v  4.7733 45.1172 -1.4713
v  4.7733 74.9998 -1.4713
v  -2.6705 45.1172 2.0703
v  -2.6705 74.9998 2.0703
v  -1.2446 45.1173 2.0703
v  -1.2446 74.9998 2.0703
v  1.2443 74.9998 2.0703
v  1.2442 45.1172 2.0703
v  -0.0002 45.1173 1.5756
v  -0.0001 74.9998 1.5756
# 60 vertices

vn 0.0000 -0.0000 -1.0000
vn -0.8660 0.0000 -0.5000
vn -0.8660 0.0000 0.5000
vn 0.8660 -0.0000 0.5000
vn 0.8660 -0.0000 -0.5000
vn -0.0000 0.0000 1.0000
vn 0.0000 0.0000 1.0000
vn 0.7071 -0.0000 -0.7071
vn -0.2588 0.0000 -0.9659
vn -0.9659 0.0000 -0.2588
vn 0.2588 -0.0000 0.9659
vn 0.9659 -0.0000 0.2588
vn -0.7071 0.0000 0.7071
vn 0.8626 -0.0000 0.5059
vn 0.2718 -0.0000 0.9623
vn -0.8626 0.0000 0.5059
vn -0.9992 0.0000 0.0408
vn -0.9992 0.0000 0.0407
vn 0.9992 -0.0000 0.0408
vn -0.2718 0.0000 0.9623
vn 0.1880 0.0000 0.9822
vn 0.1880 -0.0000 0.9822
vn -0.1881 0.0000 0.9822
# 23 vertex normals

vt 0.2174 0.2851 0.0000
vt 0.2174 0.2702 0.0000
vt 0.9784 0.2702 0.0000
vt 0.9784 0.2851 0.0000
vt 0.2174 0.2552 0.0000
vt 0.9784 0.2552 0.0000
vt 0.2174 0.3151 0.0000
vt 0.2174 0.3001 0.0000
vt 0.9784 0.3001 0.0000
vt 0.9784 0.3151 0.0000
vt 0.2174 0.2403 0.0000
vt 0.2174 0.2253 0.0000
vt 0.9784 0.2253 0.0000
vt 0.9784 0.2403 0.0000
vt 0.1153 0.0196 0.0000
vt 0.1329 0.0196 0.0000
vt 0.1329 0.2470 0.0000
vt 0.1153 0.2470 0.0000
vt 0.1914 0.2470 0.0000
vt 0.1914 0.0196 0.0000
vt 0.2090 0.0196 0.0000
vt 0.2090 0.2470 0.0000
vt 0.0977 0.2470 0.0000
vt 0.0977 0.0196 0.0000
vt 0.1739 0.2470 0.0000
vt 0.1739 0.0196 0.0000
vt 0.1633 0.2470 0.0000
vt 0.1633 0.0196 0.0000
vt 0.1434 0.0196 0.0000
vt 0.1434 0.2470 0.0000
vt 0.1534 0.2470 0.0000
vt 0.1534 0.0196 0.0000
# 32 texture coords

g SM_Wire_Set_02
s 1
f 1/1/1 2/2/2 3/3/2 
f 3/3/2 4/4/1 1/1/1 
f 2/2/2 5/5/3 6/6/3 
f 6/6/3 3/3/2 2/2/2 
f 7/7/4 8/8/5 9/9/5 
f 9/9/5 10/10/4 7/7/4 
f 11/11/6 7/12/4 10/13/4 
f 10/13/4 12/14/7 11/11/6 
f 5/5/3 11/11/6 12/14/7 
f 12/14/7 6/6/3 5/5/3 
f 8/8/5 1/1/1 4/4/1 
f 4/4/1 9/9/5 8/8/5 
f 13/1/8 14/2/9 15/3/9 
f 15/3/9 16/4/8 13/1/8 
f 14/2/9 17/5/10 18/6/10 
f 18/6/10 15/3/9 14/2/9 
f 19/7/11 20/8/12 21/9/12 
f 21/9/12 22/10/11 19/7/11 
f 23/11/13 19/12/11 22/13/11 
f 22/13/11 24/14/13 23/11/13 
f 17/5/10 23/11/13 24/14/13 
f 24/14/13 18/6/10 17/5/10 
f 20/8/12 13/1/8 16/4/8 
f 16/4/8 21/9/12 20/8/12 
f 25/15/14 26/16/15 27/17/15 
f 27/17/15 28/18/14 25/15/14 
f 29/19/16 30/20/16 31/21/17 
f 31/21/17 32/22/18 29/19/16 
f 25/15/14 28/18/14 33/23/19 
f 33/23/19 34/24/19 25/15/14 
f 30/20/16 29/19/16 35/25/20 
f 35/25/20 36/26/20 30/20/16 
f 35/25/20 37/27/21 38/28/22 
f 38/28/22 36/26/20 35/25/20 
f 27/17/15 26/16/15 39/29/23 
f 39/29/23 40/30/23 27/17/15 
f 41/31/6 42/32/6 38/28/22 
f 38/28/22 37/27/21 41/31/6 
f 40/30/23 39/29/23 42/32/6 
f 42/32/6 41/31/6 40/30/23 
f 43/15/14 44/16/15 45/17/15 
f 45/17/15 46/18/14 43/15/14 
f 47/19/16 48/20/16 49/21/17 
f 49/21/17 50/22/18 47/19/16 
f 43/15/14 46/18/14 51/23/19 
f 51/23/19 52/24/19 43/15/14 
f 48/20/16 47/19/16 53/25/20 
f 53/25/20 54/26/20 48/20/16 
f 53/25/20 55/27/21 56/28/22 
f 56/28/22 54/26/20 53/25/20 
f 45/17/15 44/16/15 57/29/23 
f 57/29/23 58/30/23 45/17/15 
f 59/31/6 60/32/6 56/28/22 
f 56/28/22 55/27/21 59/31/6 
f 58/30/23 57/29/23 60/32/6 
f 60/32/6 59/31/6 58/30/23 
# 56 faces

