# 3ds Max Wavefront OBJ Exporter v0.97b - (c)2007 guruware
# File Created: 24.01.2019 21:27:37

#
# object SM_Wire_Holder
#

v  4.5494 14.9413 0.5374
v  2.5962 14.9413 1.7708
v  2.5962 -14.9413 1.7708
v  4.5494 -14.9413 0.5374
v  -4.5495 -14.9413 0.5374
v  -4.5495 14.9414 0.5374
v  -4.6410 14.9414 -1.7708
v  -4.6410 -14.9413 -1.7708
v  4.6409 -14.9413 -1.7708
v  4.6409 14.9413 -1.7708
v  -2.5963 -14.9413 1.7708
v  -2.5963 14.9414 1.7708
v  -1.2100 -14.9413 1.7708
v  -1.2100 14.9414 1.7708
v  1.2099 14.9413 1.7708
v  1.2098 -14.9413 1.7708
v  -0.0001 -14.9413 1.2761
v  -0.0000 14.9413 1.2761
# 18 vertices

vn 0.8660 -0.0000 0.5000
vn 0.2779 -0.0000 0.9606
vn -0.8660 0.0000 0.5000
vn -0.9992 0.0000 0.0396
vn 0.9992 -0.0000 0.0396
vn -0.2779 0.0000 0.9606
vn 0.1928 -0.0000 0.9812
vn -0.1928 0.0000 0.9812
vn -0.0000 0.0000 1.0000
vn 0.0000 0.0000 1.0000
# 10 vertex normals

vt 0.1153 0.0196 0.0000
vt 0.1329 0.0196 0.0000
vt 0.1329 0.2470 0.0000
vt 0.1153 0.2470 0.0000
vt 0.1914 0.2470 0.0000
vt 0.1914 0.0196 0.0000
vt 0.2090 0.0196 0.0000
vt 0.2090 0.2470 0.0000
vt 0.0977 0.2470 0.0000
vt 0.0977 0.0196 0.0000
vt 0.1739 0.2470 0.0000
vt 0.1739 0.0196 0.0000
vt 0.1633 0.2470 0.0000
vt 0.1633 0.0196 0.0000
vt 0.1434 0.0196 0.0000
vt 0.1434 0.2470 0.0000
vt 0.1534 0.2470 0.0000
vt 0.1534 0.0196 0.0000
# 18 texture coords

g SM_Wire_Holder
s 1
f 1/1/1 2/2/2 3/3/2 
f 3/3/2 4/4/1 1/1/1 
f 5/5/3 6/6/3 7/7/4 
f 7/7/4 8/8/4 5/5/3 
f 1/1/1 4/4/1 9/9/5 
f 9/9/5 10/10/5 1/1/1 
f 6/6/3 5/5/3 11/11/6 
f 11/11/6 12/12/6 6/6/3 
f 11/11/6 13/13/7 14/14/7 
f 14/14/7 12/12/6 11/11/6 
f 3/3/2 2/2/2 15/15/8 
f 15/15/8 16/16/8 3/3/2 
f 17/17/9 18/18/10 14/14/7 
f 14/14/7 13/13/7 17/17/9 
f 16/16/8 15/15/8 18/18/10 
f 18/18/10 17/17/9 16/16/8 
# 16 faces

