# 3ds Max Wavefront OBJ Exporter v0.97b - (c)2007 guruware
# File Created: 24.01.2019 21:27:27

#
# object SM_Wire_Angle_02
#

v  -8.6262 -10.7328 0.9832
v  -0.8286 -6.3960 0.9832
v  -2.0275 -5.1865 1.9664
v  -8.6113 -9.0298 1.9664
v  -8.6262 -10.7328 -0.9832
v  -0.8286 -6.3960 -0.9832
v  -8.5964 -7.3269 0.9832
v  -3.2264 -3.9771 0.9832
v  -3.2264 -3.9771 -0.9832
v  -8.5964 -7.3269 -0.9832
v  -2.0275 -5.1865 -1.9665
v  -8.6113 -9.0298 -1.9665
v  3.6964 7.8460 0.9832
v  1.9934 7.8460 1.9664
v  1.3069 0.4670 1.9664
v  2.9702 0.1017 0.9832
v  3.6964 7.8460 -0.9832
v  2.9702 0.1017 -0.9832
v  0.2904 7.8460 0.9832
v  0.2904 7.8460 -0.9832
v  -0.3565 0.8323 -0.9832
v  -0.3565 0.8323 0.9832
v  1.9934 7.8460 -1.9665
v  1.3069 0.4670 -1.9665
v  3.6964 18.0882 0.9832
v  1.9934 18.0882 1.9664
v  3.6964 18.0882 -0.9832
v  0.2904 18.0882 0.9832
v  0.2904 18.0882 -0.9832
v  1.9934 18.0882 -1.9665
v  -8.6260 -16.3853 1.9664
v  -8.6409 -18.0882 0.9832
v  -1.8949 -15.7732 0.9832
v  -2.5088 -14.3259 1.9664
v  -8.6409 -18.0882 -0.9832
v  -1.8949 -15.7732 -0.9832
v  -8.6111 -14.6824 0.9832
v  -3.1227 -12.8786 0.9832
v  -3.1227 -12.8786 -0.9832
v  -8.6111 -14.6824 -0.9832
v  -2.5088 -14.3259 -1.9665
v  -8.6260 -16.3853 -1.9665
v  8.6407 2.3265 0.9832
v  6.9377 2.3265 1.9664
v  6.2512 -5.0525 1.9664
v  7.9146 -5.4178 0.9832
v  8.6407 2.3265 -0.9832
v  7.9146 -5.4178 -0.9832
v  5.2347 2.3265 0.9832
v  5.2347 2.3265 -0.9832
v  4.5878 -4.6872 -0.9832
v  4.5878 -4.6872 0.9832
v  6.9377 2.3265 -1.9665
v  6.2512 -5.0525 -1.9665
v  2.4491 -11.1475 1.9664
v  3.6480 -12.3569 0.9832
v  3.6480 -12.3569 -0.9832
v  1.2502 -9.9380 -0.9832
v  1.2502 -9.9380 0.9832
v  2.4491 -11.1475 -1.9665
v  8.6407 18.0569 0.9832
v  6.9377 18.0569 1.9664
v  8.6407 18.0569 -0.9832
v  5.2347 18.0569 0.9832
v  5.2347 18.0569 -0.9832
v  6.9377 18.0569 -1.9665
# 66 vertices

vn 0.4503 -0.8005 0.3955
vn 0.6188 -0.6319 0.4667
vn 0.0562 -0.0604 0.9966
vn 0.0935 -0.1707 0.9809
vn 0.4468 -0.8033 -0.3939
vn 0.6205 -0.6313 -0.4651
vn -0.4497 0.7208 0.5274
vn -0.6020 0.5946 0.5329
vn -0.6036 0.5908 -0.5354
vn -0.4392 0.7213 -0.5355
vn 0.0537 -0.0566 -0.9970
vn 0.0865 -0.1636 -0.9827
vn 0.8689 -0.0402 0.4934
vn 0.0147 -0.0015 0.9999
vn 0.0653 -0.0282 0.9975
vn 0.8400 -0.2678 0.4719
vn 0.8688 -0.0403 -0.4935
vn 0.8402 -0.2675 -0.4718
vn -0.8615 0.0400 0.5062
vn -0.8615 0.0401 -0.5062
vn -0.8038 0.2658 -0.5323
vn -0.8037 0.2668 0.5319
vn 0.0148 -0.0015 -0.9999
vn 0.0648 -0.0278 -0.9975
vn 0.8660 -0.0000 0.5000
vn -0.0000 -0.0000 1.0000
vn 0.8660 -0.0000 -0.5000
vn -0.8660 0.0000 0.5000
vn -0.8660 0.0000 -0.5000
vn 0.0000 0.0000 -1.0000
vn 0.0376 -0.1062 0.9936
vn 0.2918 -0.8503 0.4379
vn 0.3772 -0.7968 0.4722
vn 0.0194 -0.0392 0.9990
vn 0.2918 -0.8503 -0.4379
vn 0.3772 -0.7968 -0.4722
vn -0.2670 0.8062 0.5279
vn -0.3809 0.7758 0.5031
vn -0.3809 0.7758 -0.5031
vn -0.2670 0.8062 -0.5279
vn 0.0194 -0.0392 -0.9990
vn 0.0376 -0.1062 -0.9936
vn 0.0687 -0.0315 0.9971
vn 0.8376 -0.2772 0.4707
vn 0.8380 -0.2766 -0.4703
vn -0.7985 0.2771 -0.5344
vn -0.7984 0.2787 0.5337
vn 0.0679 -0.0307 -0.9972
vn 0.0506 -0.0513 0.9974
vn 0.6242 -0.6237 0.4705
vn 0.6239 -0.6243 -0.4701
vn -0.6061 0.5941 -0.5289
vn -0.6073 0.5934 0.5282
vn 0.0496 -0.0507 -0.9975
# 54 vertex normals

vt 0.2174 0.1712 0.0000
vt 0.2806 0.1712 0.0000
vt 0.2806 0.1861 0.0000
vt 0.2174 0.1861 0.0000
vt 0.2174 0.1562 0.0000
vt 0.2806 0.1562 0.0000
vt 0.2174 0.2011 0.0000
vt 0.2806 0.2011 0.0000
vt 0.2806 0.2161 0.0000
vt 0.2174 0.2161 0.0000
vt 0.2174 0.1263 0.0000
vt 0.2806 0.1263 0.0000
vt 0.2806 0.1412 0.0000
vt 0.2174 0.1412 0.0000
vt 0.3922 0.1712 0.0000
vt 0.3922 0.1861 0.0000
vt 0.3438 0.1861 0.0000
vt 0.3438 0.1712 0.0000
vt 0.3922 0.1562 0.0000
vt 0.3438 0.1562 0.0000
vt 0.3922 0.2011 0.0000
vt 0.3922 0.2161 0.0000
vt 0.3438 0.2161 0.0000
vt 0.3438 0.2011 0.0000
vt 0.3922 0.1263 0.0000
vt 0.3922 0.1412 0.0000
vt 0.3438 0.1412 0.0000
vt 0.3438 0.1263 0.0000
vt 0.4702 0.1712 0.0000
vt 0.4702 0.1861 0.0000
vt 0.4702 0.1562 0.0000
vt 0.4702 0.2011 0.0000
vt 0.4702 0.2161 0.0000
vt 0.4702 0.1263 0.0000
vt 0.4702 0.1412 0.0000
vt 0.2502 0.1712 0.0000
vt 0.2502 0.1861 0.0000
vt 0.2502 0.1562 0.0000
vt 0.2502 0.2011 0.0000
vt 0.2502 0.2161 0.0000
vt 0.2502 0.1263 0.0000
vt 0.2502 0.1412 0.0000
vt 0.5119 0.1712 0.0000
vt 0.5119 0.1861 0.0000
vt 0.5119 0.1562 0.0000
vt 0.5119 0.2011 0.0000
vt 0.5119 0.2161 0.0000
vt 0.5119 0.1263 0.0000
vt 0.5119 0.1412 0.0000
# 49 texture coords

g SM_Wire_Angle_02
s 1
f 1/1/1 2/2/2 3/3/3 
f 3/3/3 4/4/4 1/1/1 
f 5/5/5 6/6/6 2/2/2 
f 2/2/2 1/1/1 5/5/5 
f 7/7/7 8/8/8 9/9/9 
f 9/9/9 10/10/10 7/7/7 
f 10/11/10 9/12/9 11/13/11 
f 11/13/11 12/14/12 10/11/10 
f 12/14/12 11/13/11 6/6/6 
f 6/6/6 5/5/5 12/14/12 
f 4/4/4 3/3/3 8/8/8 
f 8/8/8 7/7/7 4/4/4 
f 13/15/13 14/16/14 15/17/15 
f 15/17/15 16/18/16 13/15/13 
f 17/19/17 13/15/13 16/18/16 
f 16/18/16 18/20/18 17/19/17 
f 19/21/19 20/22/20 21/23/21 
f 21/23/21 22/24/22 19/21/19 
f 20/25/20 23/26/23 24/27/24 
f 24/27/24 21/28/21 20/25/20 
f 23/26/23 17/19/17 18/20/18 
f 18/20/18 24/27/24 23/26/23 
f 14/16/14 19/21/19 22/24/22 
f 22/24/22 15/17/15 14/16/14 
f 16/18/16 15/17/15 3/3/3 
f 3/3/3 2/2/2 16/18/16 
f 18/20/18 16/18/16 2/2/2 
f 2/2/2 6/6/6 18/20/18 
f 22/24/22 21/23/21 9/9/9 
f 9/9/9 8/8/8 22/24/22 
f 21/28/21 24/27/24 11/13/11 
f 11/13/11 9/12/9 21/28/21 
f 24/27/24 18/20/18 6/6/6 
f 6/6/6 11/13/11 24/27/24 
f 15/17/15 22/24/22 8/8/8 
f 8/8/8 3/3/3 15/17/15 
f 25/29/25 26/30/26 14/16/14 
f 14/16/14 13/15/13 25/29/25 
f 27/31/27 25/29/25 13/15/13 
f 13/15/13 17/19/17 27/31/27 
f 28/32/28 29/33/29 20/22/20 
f 20/22/20 19/21/19 28/32/28 
f 29/34/29 30/35/30 23/26/23 
f 23/26/23 20/25/20 29/34/29 
f 30/35/30 27/31/27 17/19/17 
f 17/19/17 23/26/23 30/35/30 
f 26/30/26 28/32/28 19/21/19 
f 19/21/19 14/16/14 26/30/26 
f 31/4/31 32/1/32 33/36/33 
f 33/36/33 34/37/34 31/4/31 
f 35/5/35 36/38/36 33/36/33 
f 33/36/33 32/1/32 35/5/35 
f 37/7/37 38/39/38 39/40/39 
f 39/40/39 40/10/40 37/7/37 
f 40/11/40 39/41/39 41/42/41 
f 41/42/41 42/14/42 40/11/40 
f 42/14/42 41/42/41 36/38/36 
f 36/38/36 35/5/35 42/14/42 
f 37/7/37 31/4/31 34/37/34 
f 34/37/34 38/39/38 37/7/37 
f 43/15/13 44/16/14 45/17/43 
f 45/17/43 46/18/44 43/15/13 
f 47/19/17 43/15/13 46/18/44 
f 46/18/44 48/20/45 47/19/17 
f 49/21/19 50/22/20 51/23/46 
f 51/23/46 52/24/47 49/21/19 
f 50/25/20 53/26/23 54/27/48 
f 54/27/48 51/28/46 50/25/20 
f 53/26/23 47/19/17 48/20/45 
f 48/20/45 54/27/48 53/26/23 
f 44/16/14 49/21/19 52/24/47 
f 52/24/47 45/17/43 44/16/14 
f 46/18/44 45/17/43 55/3/49 
f 55/3/49 56/2/50 46/18/44 
f 48/20/45 46/18/44 56/2/50 
f 56/2/50 57/6/51 48/20/45 
f 52/24/47 51/23/46 58/9/52 
f 58/9/52 59/8/53 52/24/47 
f 51/28/46 54/27/48 60/13/54 
f 60/13/54 58/12/52 51/28/46 
f 54/27/48 48/20/45 57/6/51 
f 57/6/51 60/13/54 54/27/48 
f 45/17/43 52/24/47 59/8/53 
f 59/8/53 55/3/49 45/17/43 
f 61/43/25 62/44/26 44/16/14 
f 44/16/14 43/15/13 61/43/25 
f 63/45/27 61/43/25 43/15/13 
f 43/15/13 47/19/17 63/45/27 
f 64/46/28 65/47/29 50/22/20 
f 50/22/20 49/21/19 64/46/28 
f 65/48/29 66/49/30 53/26/23 
f 53/26/23 50/25/20 65/48/29 
f 66/49/30 63/45/27 47/19/17 
f 47/19/17 53/26/23 66/49/30 
f 62/44/26 64/46/28 49/21/19 
f 49/21/19 44/16/14 62/44/26 
f 33/36/33 56/2/50 55/3/49 
f 55/3/49 34/37/34 33/36/33 
f 57/6/51 56/2/50 33/36/33 
f 33/36/33 36/38/36 57/6/51 
f 59/8/53 58/9/52 39/40/39 
f 39/40/39 38/39/38 59/8/53 
f 58/12/52 60/13/54 41/42/41 
f 41/42/41 39/41/39 58/12/52 
f 60/13/54 57/6/51 36/38/36 
f 36/38/36 41/42/41 60/13/54 
f 34/37/34 55/3/49 59/8/53 
f 59/8/53 38/39/38 34/37/34 
# 108 faces

