# 3ds Max Wavefront OBJ Exporter v0.97b - (c)2007 guruware
# File Created: 24.01.2019 21:26:05

#
# object SM_Wire_Line_02
#

v  0.0000 100.0000 1.9664
v  -1.7030 100.0000 0.9832
v  -1.7030 0.0000 0.9832
v  0.0000 0.0000 1.9664
v  -1.7030 100.0000 -0.9832
v  -1.7030 0.0000 -0.9832
v  1.7030 100.0000 -0.9832
v  1.7030 100.0000 0.9832
v  1.7030 0.0000 0.9832
v  1.7030 0.0000 -0.9832
v  0.0000 100.0000 -1.9664
v  0.0000 0.0000 -1.9664
v  -1.7030 -100.0000 0.9832
v  0.0000 -100.0000 1.9664
v  -1.7030 -100.0000 -0.9832
v  1.7030 -100.0000 0.9832
v  1.7030 -100.0000 -0.9832
v  0.0000 -100.0000 -1.9664
# 18 vertices

vn 0.0000 -0.0000 1.0000
vn -0.8660 0.0000 0.5000
vn -0.8660 0.0000 -0.5000
vn 0.8660 -0.0000 -0.5000
vn 0.8660 -0.0000 0.5000
vn 0.0000 -0.0000 -1.0000
vn -0.8660 -0.0000 0.5000
vn 0.8660 0.0000 -0.5000
vn 0.0000 0.0000 -1.0000
# 9 vertex normals

vt 0.2174 0.2851 0.0000
vt 0.2174 0.2702 0.0000
vt 0.9784 0.2702 0.0000
vt 0.9784 0.2851 0.0000
vt 0.2174 0.2552 0.0000
vt 0.9784 0.2552 0.0000
vt 0.2174 0.3151 0.0000
vt 0.2174 0.3001 0.0000
vt 0.9784 0.3001 0.0000
vt 0.9784 0.3151 0.0000
vt 0.2174 0.2403 0.0000
vt 0.2174 0.2253 0.0000
vt 0.9784 0.2253 0.0000
vt 0.9784 0.2403 0.0000
# 14 texture coords

g SM_Wire_Line_02
s 1
f 1/1/1 2/2/2 3/3/2 
f 3/3/2 4/4/1 1/1/1 
f 2/2/2 5/5/3 6/6/3 
f 6/6/3 3/3/2 2/2/2 
f 7/7/4 8/8/5 9/9/5 
f 9/9/5 10/10/4 7/7/4 
f 11/11/6 7/12/4 10/13/4 
f 10/13/4 12/14/6 11/11/6 
f 5/5/3 11/11/6 12/14/6 
f 12/14/6 6/6/3 5/5/3 
f 8/8/5 1/1/1 4/4/1 
f 4/4/1 9/9/5 8/8/5 
f 4/1/1 3/2/2 13/3/7 
f 13/3/7 14/4/1 4/1/1 
f 3/2/2 6/5/3 15/6/3 
f 15/6/3 13/3/7 3/2/2 
f 10/7/4 9/8/5 16/9/5 
f 16/9/5 17/10/8 10/7/4 
f 12/11/6 10/12/4 17/13/8 
f 17/13/8 18/14/9 12/11/6 
f 6/5/3 12/11/6 18/14/9 
f 18/14/9 15/6/3 6/5/3 
f 9/8/5 4/1/1 14/4/1 
f 14/4/1 16/9/5 9/8/5 
# 24 faces

