# 3ds Max Wavefront OBJ Exporter v0.97b - (c)2007 guruware
# File Created: 24.01.2019 22:26:25

#
# object SM_Wire_Line_03
#

v  1.7029 -50.0000 0.9832
v  1.7029 50.0000 0.9832
v  -0.0001 50.0000 1.9664
v  -0.0001 -50.0000 1.9664
v  1.7029 -50.0000 -0.9832
v  1.7029 50.0000 -0.9832
v  -1.7031 -50.0000 0.9832
v  -1.7030 50.0000 0.9832
v  -1.7030 50.0000 -0.9832
v  -1.7031 -50.0000 -0.9832
v  -0.0001 50.0000 -1.9664
v  -0.0001 -50.0000 -1.9664
# 12 vertices

vn 0.8660 -0.0000 0.5000
vn -0.0000 0.0000 1.0000
vn 0.8660 -0.0000 -0.5000
vn -0.8660 0.0000 0.5000
vn -0.8660 0.0000 -0.5000
vn -0.0000 0.0000 -1.0000
# 6 vertex normals

vt 0.9800 0.0649 0.0000
vt 0.3249 0.0649 0.0000
vt 0.3249 0.0499 0.0000
vt 0.9800 0.0499 0.0000
vt 0.9800 0.0799 0.0000
vt 0.3249 0.0799 0.0000
vt 0.9800 0.0350 0.0000
vt 0.3249 0.0350 0.0000
vt 0.3249 0.0200 0.0000
vt 0.9800 0.0200 0.0000
vt 0.9800 0.1098 0.0000
vt 0.3249 0.1098 0.0000
vt 0.3249 0.0948 0.0000
vt 0.9800 0.0948 0.0000
# 14 texture coords

g SM_Wire_Line_03
s 1
f 1/1/1 2/2/1 3/3/2 
f 3/3/2 4/4/2 1/1/1 
f 5/5/3 6/6/3 2/2/1 
f 2/2/1 1/1/1 5/5/3 
f 7/7/4 8/8/4 9/9/5 
f 9/9/5 10/10/5 7/7/4 
f 10/11/5 9/12/5 11/13/6 
f 11/13/6 12/14/6 10/11/5 
f 12/14/6 11/13/6 6/6/3 
f 6/6/3 5/5/3 12/14/6 
f 4/4/2 3/3/2 8/8/4 
f 8/8/4 7/7/4 4/4/2 
# 12 faces

