# 3ds Max Wavefront OBJ Exporter v0.97b - (c)2007 guruware
# File Created: 06.02.2019 14:38:40

#
# object SM_Decal_Nail_001
#

v  -2.6785 -0.0000 3.2115
v  -0.2794 -0.0000 -2.5774
v  -3.0473 0.0000 -0.4788
v  -3.5621 0.0000 0.2990
v  -3.5710 0.0000 -1.6851
v  3.5710 -0.0000 2.1421
v  3.3679 -0.0001 -1.9532
v  0.5715 -0.0000 -3.3337
v  1.8692 -0.0000 3.3336
# 9 vertices

vn 0.0000 1.0000 0.0000
vn 0.0000 1.0000 -0.0000
# 2 vertex normals

vt 0.8419 0.8644 0.0000
vt 0.8503 0.8697 0.0000
vt 0.8448 0.8695 0.0000
vt 0.8434 0.8689 0.0000
vt 0.8452 0.8715 0.0000
vt 0.8510 0.8600 0.0000
vt 0.8545 0.8655 0.0000
vt 0.8521 0.8699 0.0000
vt 0.8477 0.8600 0.0000
# 9 texture coords

g SM_Decal_Nail_001
s 1
f 1/1/1 2/2/2 3/3/1 
f 3/3/1 4/4/1 1/1/1 
f 2/2/2 5/5/1 3/3/1 
f 6/6/2 7/7/2 8/8/2 
f 8/8/2 9/9/2 6/6/2 
f 9/9/2 8/8/2 2/2/2 
f 2/2/2 1/1/1 9/9/2 
# 7 faces

