# 3ds Max Wavefront OBJ Exporter v0.97b - (c)2007 guruware
# File Created: 24.01.2019 18:40:16

#
# object SM_Water_Pipes_02_01
#

v  -150.0000 -27.4843 -13.7027
v  -146.7090 -27.4843 -13.7027
v  -146.7090 -31.6781 1.9604
v  -150.0000 -31.6781 1.9605
v  -150.0000 -16.0179 -25.1680
v  -146.7090 -16.0179 -25.1680
v  -150.0000 -0.3538 -29.3658
v  -146.7090 -0.3538 -29.3658
v  -150.0000 26.7727 -13.7027
v  -146.7090 26.7727 -13.7027
v  -146.7090 15.3103 -25.1680
v  -150.0000 15.3103 -25.1680
v  -150.0000 30.9704 1.9605
v  -146.7090 30.9704 1.9605
v  -150.0000 26.7727 17.6236
v  -146.7090 26.7727 17.6236
v  -150.0000 15.3103 29.0889
v  -146.7090 15.3103 29.0889
v  -150.0000 -0.3538 33.2867
v  -146.7090 -0.3538 33.2867
v  -150.0000 -27.4843 17.6236
v  -146.7090 -27.4843 17.6236
v  -146.7090 -16.0179 29.0889
v  -150.0000 -16.0179 29.0889
v  -143.2891 -29.3462 -14.7776
v  -143.2891 -33.8277 1.9604
v  -143.2891 -17.0929 -27.0298
v  -143.2891 -0.3538 -31.5156
v  -143.2891 28.6343 -14.7775
v  -143.2891 16.3853 -27.0298
v  -143.2891 33.1201 1.9605
v  -143.2891 28.6343 18.6985
v  -143.2891 16.3852 30.9507
v  -143.2891 -0.3538 35.4365
v  -143.2891 -29.3462 18.6985
v  -143.2891 -17.0929 30.9507
v  -91.5271 -29.3462 -14.7776
v  -59.3442 -41.8690 1.9604
v  -107.7465 -33.8277 1.9604
v  -109.6182 -29.3462 -14.7776
v  21.6088 -17.0929 -27.0298
v  41.0836 -17.0929 -31.7354
v  22.0935 -29.3462 -14.7776
v  -94.4603 -17.0929 -27.0298
v  -38.8379 28.6343 -14.7775
v  -12.6297 38.1089 -1.3098
v  10.2401 33.1201 1.9605
v  14.6997 28.6343 -14.7776
v  -128.4832 25.9036 17.1702
v  -96.6175 28.6343 18.6985
v  -91.2966 33.1201 1.9605
v  -103.1113 16.3852 30.9507
v  -127.3605 13.6546 29.4224
v  -116.0266 -0.3538 35.4365
v  -90.0407 -30.9823 18.6985
v  -57.5849 -40.0315 8.8233
v  -15.6474 -36.7889 6.9136
v  -11.5665 -29.3462 18.6984
v  19.0003 16.3853 -27.0298
v  21.7703 -0.3538 -31.5156
v  5.4555 -17.0929 30.9507
v  76.4846 -0.3538 35.4364
v  11.1247 -0.3538 35.4364
v  150.0000 -27.4843 -13.7027
v  150.0000 -31.6781 1.9604
v  147.2226 -31.6781 1.9604
v  147.2226 -27.4843 -13.7027
v  150.0000 -16.0179 -25.1680
v  147.2226 -16.0179 -25.1680
v  150.0000 -0.3538 -29.3658
v  147.2226 -0.3538 -29.3658
v  150.0000 26.7727 -13.7027
v  150.0000 15.3103 -25.1680
v  147.2226 15.3103 -25.1680
v  147.2226 26.7727 -13.7027
v  150.0000 30.9704 1.9605
v  147.2226 30.9704 1.9605
v  150.0000 26.7727 17.6236
v  147.2226 26.7727 17.6236
v  150.0000 15.3103 29.0889
v  147.2226 15.3103 29.0889
v  150.0000 -0.3538 33.2867
v  147.2226 -0.3538 33.2867
v  150.0000 -27.4843 17.6236
v  150.0000 -16.0179 29.0889
v  147.2226 -16.0179 29.0889
v  147.2226 -27.4843 17.6236
v  142.5800 -33.8277 1.9604
v  142.5800 -29.3462 -14.7776
v  142.5800 -17.0929 -27.0298
v  142.5800 -0.3538 -31.5156
v  142.5800 16.3853 -27.0298
v  142.5800 28.6343 -14.7775
v  142.5800 33.1201 1.9605
v  142.5800 28.6343 18.6985
v  142.5800 16.3852 30.9507
v  142.5800 -0.3538 35.4365
v  142.5800 -17.0929 30.9507
v  142.5800 -29.3462 18.6984
v  -89.6031 18.8287 32.2913
v  -81.0407 31.0778 20.0392
v  -75.2602 33.1201 1.9605
v  -31.2964 -0.3538 35.4364
v  -16.0945 -0.3538 35.4364
v  -12.2119 20.7377 35.3037
v  -41.4794 16.3852 30.9506
v  -90.1239 12.0264 32.1188
v  -85.4637 10.0734 32.6421
v  -83.8782 17.9071 33.3093
v  -7.9471 33.7847 21.6197
v  -42.8325 28.6343 18.6985
v  -39.8912 33.1201 1.9605
v  -75.4722 28.9034 17.9413
v  -82.1899 -0.3538 35.4365
v  -72.8515 -17.0929 30.9507
v  -74.4246 16.3852 30.9506
v  -65.8950 28.6343 18.6985
v  80.3672 16.3852 30.9506
v  110.1130 28.6343 18.6985
v  84.6320 28.6343 18.6985
v  79.3867 41.8690 3.1590
v  26.6784 16.3852 30.9506
v  6.4475 20.2091 36.2211
v  3.6137 33.2499 22.1676
v  13.4294 28.6343 18.6985
v  67.6188 39.5585 1.9605
v  -17.4637 -17.0929 30.9506
v  102.1431 33.1201 1.9605
v  85.6703 34.9304 -16.8940
v  51.8617 28.6343 -14.7776
v  88.3345 16.3853 -27.0298
v  56.2343 16.3853 -27.0298
v  40.0443 -0.3538 -36.2211
v  93.2380 -0.3538 -31.5156
v  92.5513 -17.0929 -27.0298
v  87.6211 -29.3462 -14.7776
v  -15.7301 -29.3462 -14.7776
v  7.7457 -38.4225 1.9604
v  -19.3046 -38.1151 1.9604
# 139 vertices

vn -0.0000 -0.8661 -0.4999
vn -0.2899 -0.8289 -0.4785
vn -0.2899 -0.9571 -0.0000
vn -0.0000 -1.0000 0.0000
vn 0.0000 -0.5000 -0.8660
vn -0.2899 -0.4785 -0.8288
vn 0.0000 0.0000 -1.0000
vn -0.2899 0.0000 -0.9571
vn 0.0000 0.8660 -0.5000
vn -0.2899 0.8289 -0.4785
vn -0.2899 0.4786 -0.8288
vn 0.0000 0.5001 -0.8660
vn 0.0000 1.0000 0.0000
vn -0.2899 0.9571 -0.0000
vn 0.0000 0.8660 0.5000
vn -0.2899 0.8289 0.4785
vn 0.0000 0.5001 0.8660
vn -0.2899 0.4786 0.8288
vn 0.0000 -0.0000 1.0000
vn -0.2899 -0.0000 0.9571
vn 0.0000 -0.8661 0.4999
vn -0.2899 -0.8289 0.4785
vn -0.2899 -0.4785 0.8288
vn 0.0000 -0.5000 0.8660
vn -0.2655 -0.8350 -0.4820
vn -0.2655 -0.9641 -0.0000
vn -0.2655 -0.4821 -0.8349
vn -0.2655 0.0000 -0.9641
vn -0.2655 0.8350 -0.4820
vn -0.2655 0.4821 -0.8349
vn -0.2426 0.9698 0.0263
vn -0.1657 0.8542 0.4929
vn -0.1828 0.5005 0.8462
vn -0.2483 0.0188 0.9685
vn -0.2732 -0.8348 0.4780
vn -0.2697 -0.4783 0.8357
vn -0.0435 -0.8253 -0.5630
vn -0.0409 -0.9885 -0.1456
vn -0.0514 -0.9982 -0.0296
vn -0.1039 -0.5084 -0.8548
vn -0.0523 -0.5335 -0.8442
vn -0.0209 -0.8141 -0.5804
vn -0.0000 -0.5000 -0.8660
vn -0.0370 0.8482 -0.5284
vn -0.0012 0.9865 -0.1639
vn 0.0936 0.9955 -0.0159
vn 0.0057 0.8417 -0.5399
vn 0.0467 0.8399 0.5407
vn -0.1419 0.8820 0.4493
vn -0.0360 0.9991 -0.0241
vn -0.0931 0.5012 0.8603
vn 0.0159 0.5271 0.8496
vn -0.0206 0.0358 0.9991
vn -0.0546 -0.8270 0.5596
vn -0.0122 -0.8852 0.4651
vn 0.0496 -0.9182 0.3929
vn 0.0243 -0.7822 0.6225
vn -0.0282 0.5205 -0.8534
vn -0.1351 -0.0108 -0.9908
vn -0.0000 -0.5000 0.8660
vn -0.0000 0.0000 1.0000
vn 0.0361 -0.0971 0.9946
vn 0.0000 -0.8661 -0.4999
vn 0.0000 -1.0000 -0.0000
vn 0.2230 -0.9748 -0.0000
vn 0.2230 -0.8443 -0.4873
vn 0.2230 -0.4874 -0.8442
vn 0.2230 -0.0000 -0.9748
vn 0.2230 0.4875 -0.8442
vn 0.2230 0.8442 -0.4874
vn 0.2230 0.9748 0.0000
vn 0.2230 0.8442 0.4874
vn 0.2230 0.4875 0.8442
vn 0.2230 0.0000 0.9748
vn 0.2230 -0.4874 0.8442
vn 0.2230 -0.8443 0.4873
vn 0.2180 -0.9759 -0.0054
vn 0.2080 -0.8471 -0.4890
vn 0.2080 -0.4891 -0.8471
vn 0.2080 -0.0000 -0.9781
vn 0.2080 0.4891 -0.8470
vn 0.2212 0.8443 -0.4881
vn 0.2080 0.9781 0.0000
vn 0.2080 0.8471 0.4890
vn 0.2080 0.4891 0.8470
vn 0.2080 0.0000 0.9781
vn 0.2080 -0.4891 0.8471
vn 0.2156 -0.8429 0.4930
vn -0.1398 0.4354 0.8893
vn 0.1632 0.8639 0.4764
vn 0.0236 0.9993 -0.0305
vn -0.0353 -0.0545 0.9979
vn 0.0000 -0.1274 0.9918
vn -0.0857 0.4222 0.9024
vn -0.0870 0.4742 0.8761
vn -0.0666 0.1123 0.9914
vn 0.0011 0.1394 0.9902
vn 0.1006 0.3271 0.9396
vn -0.0361 0.9063 0.4212
vn -0.0843 0.8682 0.4889
vn -0.0938 0.9956 -0.0005
vn 0.2312 0.8477 0.4774
vn 0.0000 0.0000 1.0000
vn 0.0047 -0.4788 0.8779
vn 0.0933 0.4692 0.8782
vn -0.0057 0.8646 0.5025
vn -0.0000 0.5001 0.8660
vn 0.0380 0.8532 0.5203
vn -0.0155 0.7438 0.6682
vn -0.0203 0.9867 0.1611
vn 0.0884 0.4946 0.8646
vn 0.1510 0.4185 0.8956
vn 0.2255 0.8962 0.3819
vn 0.2418 0.8715 0.4266
vn -0.1027 0.9936 0.0470
vn 0.2011 0.9793 0.0240
vn 0.0437 0.8126 -0.5812
vn -0.0627 0.7816 -0.6207
vn 0.0194 0.3868 -0.9220
vn -0.0095 0.5402 -0.8415
vn -0.0585 0.0789 -0.9952
vn 0.0284 0.0125 -0.9995
vn 0.0370 -0.5071 -0.8611
vn 0.0282 -0.8473 -0.5304
vn 0.0109 -0.7991 -0.6011
vn 0.0055 -1.0000 -0.0019
vn 0.0550 -0.9901 -0.1292
# 127 vertex normals

vt 0.3671 0.0065 0.0000
vt 0.3674 0.0125 0.0000
vt 0.3379 0.0131 0.0000
vt 0.3377 0.0072 0.0000
vt 0.0380 0.0071 0.0000
vt 0.0378 0.0130 0.0000
vt 0.0082 0.0130 0.0000
vt 0.0085 0.0071 0.0000
vt 0.0678 0.0071 0.0000
vt 0.0678 0.0130 0.0000
vt 0.1278 0.0070 0.0000
vt 0.1278 0.0130 0.0000
vt 0.0978 0.0130 0.0000
vt 0.0978 0.0071 0.0000
vt 0.1578 0.0070 0.0000
vt 0.1578 0.0130 0.0000
vt 0.1879 0.0070 0.0000
vt 0.1879 0.0130 0.0000
vt 0.2179 0.0070 0.0000
vt 0.2179 0.0130 0.0000
vt 0.2479 0.0071 0.0000
vt 0.2479 0.0130 0.0000
vt 0.3079 0.0071 0.0000
vt 0.3079 0.0130 0.0000
vt 0.2779 0.0130 0.0000
vt 0.2779 0.0071 0.0000
vt 0.3691 0.0200 0.0000
vt 0.3383 0.0203 0.0000
vt 0.0375 0.0203 0.0000
vt 0.0067 0.0203 0.0000
vt 0.0677 0.0202 0.0000
vt 0.1278 0.0202 0.0000
vt 0.0978 0.0202 0.0000
vt 0.1578 0.0202 0.0000
vt 0.1879 0.0202 0.0000
vt 0.2179 0.0202 0.0000
vt 0.2479 0.0202 0.0000
vt 0.3081 0.0202 0.0000
vt 0.2780 0.0202 0.0000
vt 0.3691 0.1134 0.0000
vt 0.3383 0.1715 0.0000
vt 0.3383 0.0843 0.0000
vt 0.3691 0.0807 0.0000
vt 0.0375 0.3174 0.0000
vt 0.0375 0.3525 0.0000
vt 0.0067 0.3185 0.0000
vt 0.0375 0.1082 0.0000
vt 0.1278 0.2084 0.0000
vt 0.1578 0.2557 0.0000
vt 0.1578 0.2969 0.0000
vt 0.1278 0.3049 0.0000
vt 0.1879 0.0469 0.0000
vt 0.1879 0.1043 0.0000
vt 0.1578 0.1139 0.0000
vt 0.2179 0.0926 0.0000
vt 0.2179 0.0489 0.0000
vt 0.2479 0.0693 0.0000
vt 0.3081 0.1162 0.0000
vt 0.3259 0.1747 0.0000
vt 0.3294 0.2502 0.0000
vt 0.3081 0.2576 0.0000
vt 0.0978 0.3127 0.0000
vt 0.0677 0.3177 0.0000
vt 0.2780 0.2883 0.0000
vt 0.2479 0.4163 0.0000
vt 0.2479 0.2985 0.0000
vt 0.3670 0.5502 0.0000
vt 0.3376 0.5494 0.0000
vt 0.3379 0.5444 0.0000
vt 0.3674 0.5452 0.0000
vt 0.0381 0.5495 0.0000
vt 0.0087 0.5503 0.0000
vt 0.0084 0.5453 0.0000
vt 0.0379 0.5445 0.0000
vt 0.0679 0.5495 0.0000
vt 0.0678 0.5445 0.0000
vt 0.1278 0.5496 0.0000
vt 0.0978 0.5495 0.0000
vt 0.0978 0.5445 0.0000
vt 0.1278 0.5446 0.0000
vt 0.1579 0.5496 0.0000
vt 0.1578 0.5446 0.0000
vt 0.1879 0.5496 0.0000
vt 0.1879 0.5446 0.0000
vt 0.2179 0.5496 0.0000
vt 0.2179 0.5446 0.0000
vt 0.2479 0.5496 0.0000
vt 0.2479 0.5446 0.0000
vt 0.3079 0.5495 0.0000
vt 0.2779 0.5495 0.0000
vt 0.2779 0.5445 0.0000
vt 0.3079 0.5445 0.0000
vt 0.3383 0.5353 0.0000
vt 0.3691 0.5357 0.0000
vt 0.0066 0.5358 0.0000
vt 0.0374 0.5354 0.0000
vt 0.0677 0.5354 0.0000
vt 0.0978 0.5354 0.0000
vt 0.1278 0.5354 0.0000
vt 0.1578 0.5354 0.0000
vt 0.1879 0.5354 0.0000
vt 0.2179 0.5354 0.0000
vt 0.2479 0.5354 0.0000
vt 0.2780 0.5354 0.0000
vt 0.3081 0.5354 0.0000
vt 0.2179 0.1169 0.0000
vt 0.1879 0.1324 0.0000
vt 0.1578 0.1428 0.0000
vt 0.2479 0.2220 0.0000
vt 0.2479 0.2494 0.0000
vt 0.2179 0.2564 0.0000
vt 0.2179 0.2037 0.0000
vt 0.2257 0.1160 0.0000
vt 0.2292 0.1244 0.0000
vt 0.2179 0.1273 0.0000
vt 0.1879 0.2641 0.0000
vt 0.1879 0.2012 0.0000
vt 0.1578 0.2065 0.0000
vt 0.1879 0.1432 0.0000
vt 0.2479 0.1303 0.0000
vt 0.2780 0.1471 0.0000
vt 0.2179 0.1443 0.0000
vt 0.1879 0.1597 0.0000
vt 0.2179 0.4233 0.0000
vt 0.1879 0.4769 0.0000
vt 0.1879 0.4310 0.0000
vt 0.1578 0.4225 0.0000
vt 0.2179 0.3265 0.0000
vt 0.2179 0.2900 0.0000
vt 0.1879 0.2849 0.0000
vt 0.1879 0.3026 0.0000
vt 0.1578 0.4031 0.0000
vt 0.2780 0.2470 0.0000
vt 0.1578 0.4625 0.0000
vt 0.1278 0.4328 0.0000
vt 0.1278 0.3719 0.0000
vt 0.0978 0.4376 0.0000
vt 0.0978 0.3798 0.0000
vt 0.0677 0.3506 0.0000
vt 0.0677 0.4465 0.0000
vt 0.0374 0.4452 0.0000
vt 0.0067 0.4367 0.0000
vt 0.0067 0.1136 0.0000
vt 0.0067 0.0810 0.0000
vt 0.0067 0.2503 0.0000
vt 0.3691 0.3183 0.0000
vt 0.3691 0.4366 0.0000
vt 0.3383 0.2924 0.0000
vt 0.3383 0.2437 0.0000
vt 0.3691 0.2501 0.0000
# 150 texture coords

g SM_Water_Pipes_02_01
s 1
f 1/1/1 2/2/2 3/3/3 
f 3/3/3 4/4/4 1/1/1 
f 5/5/5 6/6/6 2/7/2 
f 2/7/2 1/8/1 5/5/5 
f 7/9/7 8/10/8 6/6/6 
f 6/6/6 5/5/5 7/9/7 
f 9/11/9 10/12/10 11/13/11 
f 11/13/11 12/14/12 9/11/9 
f 13/15/13 14/16/14 10/12/10 
f 10/12/10 9/11/9 13/15/13 
f 15/17/15 16/18/16 14/16/14 
f 14/16/14 13/15/13 15/17/15 
f 17/19/17 18/20/18 16/18/16 
f 16/18/16 15/17/15 17/19/17 
f 19/21/19 20/22/20 18/20/18 
f 18/20/18 17/19/17 19/21/19 
f 21/23/21 22/24/22 23/25/23 
f 23/25/23 24/26/24 21/23/21 
f 4/4/4 3/3/3 22/24/22 
f 22/24/22 21/23/21 4/4/4 
f 12/14/12 11/13/11 8/10/8 
f 8/10/8 7/9/7 12/14/12 
f 24/26/24 23/25/23 20/22/20 
f 20/22/20 19/21/19 24/26/24 
f 25/27/25 26/28/26 3/3/3 
f 3/3/3 2/2/2 25/27/25 
f 27/29/27 25/30/25 2/7/2 
f 2/7/2 6/6/6 27/29/27 
f 28/31/28 27/29/27 6/6/6 
f 6/6/6 8/10/8 28/31/28 
f 29/32/29 30/33/30 11/13/11 
f 11/13/11 10/12/10 29/32/29 
f 31/34/31 29/32/29 10/12/10 
f 10/12/10 14/16/14 31/34/31 
f 32/35/32 31/34/31 14/16/14 
f 14/16/14 16/18/16 32/35/32 
f 33/36/33 32/35/32 16/18/16 
f 16/18/16 18/20/18 33/36/33 
f 34/37/34 33/36/33 18/20/18 
f 18/20/18 20/22/20 34/37/34 
f 35/38/35 36/39/36 23/25/23 
f 23/25/23 22/24/22 35/38/35 
f 26/28/26 35/38/35 22/24/22 
f 22/24/22 3/3/3 26/28/26 
f 30/33/30 28/31/28 8/10/8 
f 8/10/8 11/13/11 30/33/30 
f 36/39/36 34/37/34 20/22/20 
f 20/22/20 23/25/23 36/39/36 
f 37/40/37 38/41/38 39/42/39 
f 39/42/39 40/43/1 37/40/37 
f 41/44/40 42/45/41 43/46/42 
f 28/31/28 44/47/43 27/29/27 
f 29/32/29 45/48/44 30/33/30 
f 46/49/45 47/50/46 48/51/47 
f 49/52/48 50/53/49 51/54/50 
f 51/54/50 31/34/31 49/52/48 
f 52/55/51 50/53/49 49/52/48 
f 49/52/48 53/56/52 52/55/51 
f 54/57/53 52/55/51 53/56/52 
f 53/56/52 34/37/34 54/57/53 
f 35/38/35 55/58/54 36/39/36 
f 56/59/55 57/60/56 58/61/57 
f 58/61/57 55/58/54 56/59/55 
f 59/62/58 60/63/59 28/31/28 
f 28/31/28 30/33/30 59/62/58 
f 61/64/60 62/65/61 63/66/62 
f 64/67/63 65/68/64 66/69/65 
f 66/69/65 67/70/66 64/67/63 
f 68/71/5 64/72/63 67/73/66 
f 67/73/66 69/74/67 68/71/5 
f 70/75/7 68/71/5 69/74/67 
f 69/74/67 71/76/68 70/75/7 
f 72/77/9 73/78/12 74/79/69 
f 74/79/69 75/80/70 72/77/9 
f 76/81/13 72/77/9 75/80/70 
f 75/80/70 77/82/71 76/81/13 
f 78/83/15 76/81/13 77/82/71 
f 77/82/71 79/84/72 78/83/15 
f 80/85/17 78/83/15 79/84/72 
f 79/84/72 81/86/73 80/85/17 
f 82/87/19 80/85/17 81/86/73 
f 81/86/73 83/88/74 82/87/19 
f 84/89/21 85/90/24 86/91/75 
f 86/91/75 87/92/76 84/89/21 
f 65/68/64 84/89/21 87/92/76 
f 87/92/76 66/69/65 65/68/64 
f 73/78/12 70/75/7 71/76/68 
f 71/76/68 74/79/69 73/78/12 
f 85/90/24 82/87/19 83/88/74 
f 83/88/74 86/91/75 85/90/24 
f 67/70/66 66/69/65 88/93/77 
f 88/93/77 89/94/78 67/70/66 
f 69/74/67 67/73/66 89/95/78 
f 89/95/78 90/96/79 69/74/67 
f 71/76/68 69/74/67 90/96/79 
f 90/96/79 91/97/80 71/76/68 
f 75/80/70 74/79/69 92/98/81 
f 92/98/81 93/99/82 75/80/70 
f 77/82/71 75/80/70 93/99/82 
f 93/99/82 94/100/83 77/82/71 
f 79/84/72 77/82/71 94/100/83 
f 94/100/83 95/101/84 79/84/72 
f 81/86/73 79/84/72 95/101/84 
f 95/101/84 96/102/85 81/86/73 
f 83/88/74 81/86/73 96/102/85 
f 96/102/85 97/103/86 83/88/74 
f 87/92/76 86/91/75 98/104/87 
f 98/104/87 99/105/88 87/92/76 
f 66/69/65 87/92/76 99/105/88 
f 99/105/88 88/93/77 66/69/65 
f 74/79/69 71/76/68 91/97/80 
f 91/97/80 92/98/81 74/79/69 
f 86/91/75 83/88/74 97/103/86 
f 97/103/86 98/104/87 86/91/75 
f 31/34/31 32/35/32 49/52/48 
f 49/52/48 32/35/32 33/36/33 
f 33/36/33 53/56/52 49/52/48 
f 53/56/52 33/36/33 34/37/34 
f 100/106/89 101/107/90 50/53/49 
f 50/53/49 52/55/51 100/106/89 
f 101/107/90 102/108/91 51/54/50 
f 51/54/50 50/53/49 101/107/90 
f 103/109/92 104/110/93 105/111/94 
f 105/111/94 106/112/95 103/109/92 
f 107/113/96 108/114/97 109/115/98 
f 105/111/94 110/116/99 111/117/100 
f 111/117/100 106/112/95 105/111/94 
f 111/117/100 110/116/99 46/49/45 
f 46/49/45 112/118/101 111/117/100 
f 102/108/91 101/107/90 113/119/102 
f 101/107/90 100/106/89 109/115/98 
f 109/115/98 113/119/102 101/107/90 
f 107/113/96 54/57/53 114/120/103 
f 114/120/103 108/114/97 107/113/96 
f 114/120/103 54/57/53 115/121/104 
f 108/114/97 116/122/105 109/115/98 
f 109/115/98 100/106/89 107/113/96 
f 116/122/105 117/123/106 113/119/102 
f 113/119/102 109/115/98 116/122/105 
f 113/119/102 117/123/106 102/108/91 
f 107/113/96 100/106/89 52/55/51 
f 52/55/51 54/57/53 107/113/96 
f 97/103/86 96/102/85 118/124/107 
f 118/124/107 62/65/61 97/103/86 
f 96/102/85 95/101/84 119/125/108 
f 96/102/85 119/125/108 120/126/109 
f 118/124/107 96/102/85 120/126/109 
f 120/126/109 119/125/108 121/127/110 
f 62/65/61 118/124/107 122/128/111 
f 122/128/111 63/66/62 62/65/61 
f 123/129/112 124/130/113 110/116/99 
f 110/116/99 105/111/94 123/129/112 
f 110/116/99 124/130/113 47/50/46 
f 47/50/46 46/49/45 110/116/99 
f 122/128/111 118/124/107 120/126/109 
f 120/126/109 125/131/114 122/128/111 
f 125/131/114 120/126/109 126/132/115 
f 126/132/115 47/50/46 125/131/114 
f 47/50/46 126/132/115 48/51/47 
f 45/48/44 112/118/101 46/49/45 
f 46/49/45 48/51/47 45/48/44 
f 45/48/44 102/108/91 112/118/101 
f 112/118/101 102/108/91 117/123/106 
f 117/123/106 111/117/100 112/118/101 
f 117/123/106 116/122/105 106/112/95 
f 106/112/95 111/117/100 117/123/106 
f 116/122/105 108/114/97 114/120/103 
f 116/122/105 114/120/103 103/109/92 
f 106/112/95 116/122/105 103/109/92 
f 105/111/94 104/110/93 63/66/62 
f 63/66/62 123/129/112 105/111/94 
f 104/110/93 127/133/60 61/64/60 
f 61/64/60 63/66/62 104/110/93 
f 104/110/93 103/109/92 115/121/104 
f 115/121/104 127/133/60 104/110/93 
f 103/109/92 114/120/103 115/121/104 
f 63/66/62 122/128/111 123/129/112 
f 123/129/112 122/128/111 125/131/114 
f 125/131/114 124/130/113 123/129/112 
f 124/130/113 125/131/114 47/50/46 
f 120/126/109 121/127/110 126/132/115 
f 119/125/108 128/134/116 121/127/110 
f 121/127/110 129/135/117 130/136/118 
f 119/125/108 95/101/84 94/100/83 
f 94/100/83 128/134/116 119/125/108 
f 128/134/116 94/100/83 93/99/82 
f 93/99/82 129/135/117 128/134/116 
f 93/99/82 92/98/81 131/137/119 
f 131/137/119 129/135/117 93/99/82 
f 129/135/117 131/137/119 132/138/120 
f 132/138/120 130/136/118 129/135/117 
f 126/132/115 121/127/110 130/136/118 
f 130/136/118 48/51/47 126/132/115 
f 121/127/110 128/134/116 129/135/117 
f 130/136/118 132/138/120 59/62/58 
f 59/62/58 48/51/47 130/136/118 
f 59/62/58 133/139/121 60/63/59 
f 133/139/121 42/45/41 41/44/40 
f 41/44/40 60/63/59 133/139/121 
f 59/62/58 132/138/120 133/139/121 
f 134/140/122 135/141/123 42/45/41 
f 42/45/41 133/139/121 134/140/122 
f 42/45/41 135/141/123 136/142/124 
f 136/142/124 43/46/42 42/45/41 
f 37/143/37 40/144/1 44/47/43 
f 92/98/81 91/97/80 134/140/122 
f 134/140/122 131/137/119 92/98/81 
f 134/140/122 91/97/80 90/96/79 
f 90/96/79 135/141/123 134/140/122 
f 135/141/123 90/96/79 89/95/78 
f 89/95/78 136/142/124 135/141/123 
f 132/138/120 131/137/119 134/140/122 
f 134/140/122 133/139/121 132/138/120 
f 35/38/35 26/28/26 39/42/39 
f 39/42/39 55/58/54 35/38/35 
f 26/28/26 25/27/25 40/43/1 
f 40/43/1 39/42/39 26/28/26 
f 40/144/1 25/30/25 27/29/27 
f 27/29/27 44/47/43 40/144/1 
f 41/44/40 43/46/42 137/145/125 
f 43/146/42 136/147/124 138/148/126 
f 57/60/56 138/148/126 58/61/57 
f 58/61/57 61/64/60 127/133/60 
f 55/58/54 39/42/39 38/41/38 
f 38/41/38 56/59/55 55/58/54 
f 138/148/126 139/149/127 137/150/125 
f 137/150/125 43/146/42 138/148/126 
f 139/149/127 138/148/126 57/60/56 
f 38/41/38 139/149/127 57/60/56 
f 57/60/56 56/59/55 38/41/38 
f 38/41/38 37/40/37 137/150/125 
f 137/150/125 139/149/127 38/41/38 
f 137/145/125 37/143/37 44/47/43 
f 44/47/43 41/44/40 137/145/125 
f 138/148/126 99/105/88 58/61/57 
f 138/148/126 88/93/77 99/105/88 
f 99/105/88 98/104/87 61/64/60 
f 61/64/60 58/61/57 99/105/88 
f 58/61/57 127/133/60 115/121/104 
f 115/121/104 55/58/54 58/61/57 
f 54/57/53 34/37/34 36/39/36 
f 54/57/53 36/39/36 115/121/104 
f 29/32/29 31/34/31 51/54/50 
f 45/48/44 29/32/29 51/54/50 
f 51/54/50 102/108/91 45/48/44 
f 45/48/44 48/51/47 59/62/58 
f 28/31/28 60/63/59 44/47/43 
f 60/63/59 41/44/40 44/47/43 
f 98/104/87 97/103/86 62/65/61 
f 61/64/60 98/104/87 62/65/61 
f 136/147/124 89/94/78 88/93/77 
f 136/147/124 88/93/77 138/148/126 
f 55/58/54 115/121/104 36/39/36 
f 45/48/44 59/62/58 30/33/30 
# 254 faces

