# 3ds Max Wavefront OBJ Exporter v0.97b - (c)2007 guruware
# File Created: 24.01.2019 18:42:22

#
# object SM_Water_Pipes_01_07
#

v  -10.1875 -34.9540 5.8818
v  -5.8828 -34.9540 10.1884
v  -5.8828 34.9537 10.1880
v  -10.1875 34.9537 5.8817
v  10.1875 -34.9537 -5.8818
v  5.8828 -34.9537 -10.1884
v  5.8828 34.9540 -10.1884
v  10.1875 34.9540 -5.8820
v  10.1875 -34.9538 5.8828
v  11.7656 -34.9537 -0.0000
v  11.7656 34.9540 -0.0002
v  10.1875 34.9539 5.8823
v  -11.7656 34.9538 -0.0002
v  -10.1875 34.9539 -5.8827
v  -10.1875 -34.9539 -5.8828
v  -11.7656 -34.9539 0.0000
v  5.8828 34.9539 10.1880
v  0.0000 34.9538 11.7642
v  0.0000 -34.9540 11.7646
v  5.8828 -34.9539 10.1884
v  -5.8828 34.9539 -10.1884
v  0.0000 34.9540 -11.7646
v  0.0000 -34.9537 -11.7646
v  -5.8828 -34.9538 -10.1884
# 24 vertices

vn -0.8660 0.0000 0.5001
vn -0.5001 0.0000 0.8660
vn 0.8660 -0.0000 -0.5000
vn 0.5001 0.0000 -0.8660
vn 0.5001 -0.0000 -0.8660
vn 0.8660 -0.0000 -0.5001
vn 0.8660 0.0000 0.5001
vn 1.0000 -0.0000 -0.0000
vn 1.0000 0.0000 -0.0000
vn -1.0000 0.0000 0.0000
vn -0.8660 0.0000 -0.5001
vn -0.8660 -0.0000 -0.5001
vn 0.5000 0.0000 0.8660
vn 0.0000 0.0000 1.0000
vn -0.0000 0.0000 1.0000
vn -0.5000 0.0000 -0.8660
vn 0.0000 0.0000 -1.0000
vn -0.0000 0.0000 -1.0000
# 18 vertex normals

vt 0.4014 0.9061 0.0000
vt 0.4014 0.8976 0.0000
vt 0.4986 0.8976 0.0000
vt 0.4986 0.9061 0.0000
vt 0.4014 0.9569 0.0000
vt 0.4014 0.9484 0.0000
vt 0.4986 0.9484 0.0000
vt 0.4986 0.9569 0.0000
vt 0.4014 0.9738 0.0000
vt 0.4014 0.9653 0.0000
vt 0.4986 0.9653 0.0000
vt 0.4986 0.9738 0.0000
vt 0.4986 0.9146 0.0000
vt 0.4986 0.9230 0.0000
vt 0.4014 0.9230 0.0000
vt 0.4014 0.9146 0.0000
vt 0.4986 0.9823 0.0000
vt 0.4986 0.9907 0.0000
vt 0.4014 0.9907 0.0000
vt 0.4014 0.9823 0.0000
vt 0.4986 0.9315 0.0000
vt 0.4986 0.9400 0.0000
vt 0.4014 0.9400 0.0000
vt 0.4014 0.9315 0.0000
vt 0.4986 0.8892 0.0000
vt 0.4014 0.8892 0.0000
# 26 texture coords

g SM_Water_Pipes_01_07
s 1
f 1/1/1 2/2/2 3/3/2 
f 3/3/2 4/4/1 1/1/1 
f 5/5/3 6/6/4 7/7/5 
f 7/7/5 8/8/6 5/5/3 
f 9/9/7 10/10/8 11/11/9 
f 11/11/9 12/12/7 9/9/7 
f 13/13/10 14/14/11 15/15/12 
f 15/15/12 16/16/10 13/13/10 
f 17/17/13 18/18/14 19/19/15 
f 19/19/15 20/20/13 17/17/13 
f 21/21/16 22/22/17 23/23/18 
f 23/23/18 24/24/16 21/21/16 
f 4/4/1 13/13/10 16/16/10 
f 16/16/10 1/1/1 4/4/1 
f 8/8/6 11/11/9 10/10/8 
f 10/10/8 5/5/3 8/8/6 
f 18/25/14 3/3/2 2/2/2 
f 2/2/2 19/26/15 18/25/14 
f 22/22/17 7/7/5 6/6/4 
f 6/6/4 23/23/18 22/22/17 
f 12/12/7 17/17/13 20/20/13 
f 20/20/13 9/9/7 12/12/7 
f 14/14/11 21/21/16 24/24/16 
f 24/24/16 15/15/12 14/14/11 
# 24 faces

