# 3ds Max Wavefront OBJ Exporter v0.97b - (c)2007 guruware
# File Created: 24.01.2019 18:41:16

#
# object SM_Water_Pipes_01_04
#

v  -11.7656 -109.9997 0.0000
v  -11.7656 109.9995 -0.0006
v  -10.1875 109.9996 -5.8827
v  -10.1875 -109.9996 -5.8828
v  5.8828 -109.9997 10.1885
v  5.8828 109.9996 10.1872
v  0.0000 109.9995 11.7633
v  0.0000 -109.9997 11.7646
v  -5.8828 -109.9995 -10.1885
v  -5.8828 109.9997 -10.1884
v  0.0000 109.9998 -11.7645
v  0.0000 -109.9995 -11.7647
v  -10.1875 -109.9998 5.8818
v  -10.1875 109.9995 5.8812
v  10.1875 -109.9994 -5.8818
v  10.1875 109.9998 -5.8824
v  11.7656 109.9998 -0.0006
v  11.7656 -109.9995 -0.0000
v  -5.8828 109.9995 10.1872
v  -5.8828 -109.9998 10.1885
v  5.8828 109.9998 -10.1884
v  5.8828 -109.9994 -10.1885
v  10.1875 -109.9995 5.8828
v  10.1875 109.9997 5.8815
# 24 vertices

vn -1.0000 0.0000 0.0000
vn -1.0000 -0.0000 0.0000
vn -0.8660 -0.0000 -0.5001
vn -0.8660 0.0000 -0.5001
vn 0.5000 0.0000 0.8660
vn 0.0000 0.0000 1.0000
vn -0.0000 0.0000 1.0000
vn -0.5000 0.0000 -0.8660
vn 0.0000 0.0000 -1.0000
vn -0.0000 0.0000 -1.0000
vn -0.8660 0.0000 0.5000
vn -0.8660 0.0000 0.5001
vn 0.8660 -0.0000 -0.5000
vn 0.8660 -0.0000 -0.5001
vn 1.0000 0.0000 -0.0000
vn 1.0000 -0.0000 -0.0000
vn -0.5001 0.0000 0.8660
vn 0.5001 -0.0000 -0.8660
vn 0.5001 0.0000 -0.8660
vn 0.8660 0.0000 0.5001
# 20 vertex normals

vt 0.3782 0.9146 0.0000
vt 0.6837 0.9146 0.0000
vt 0.6837 0.9230 0.0000
vt 0.3782 0.9230 0.0000
vt 0.3782 0.9823 0.0000
vt 0.6837 0.9823 0.0000
vt 0.6837 0.9907 0.0000
vt 0.3782 0.9907 0.0000
vt 0.3782 0.9315 0.0000
vt 0.6837 0.9315 0.0000
vt 0.6837 0.9400 0.0000
vt 0.3782 0.9400 0.0000
vt 0.3782 0.9061 0.0000
vt 0.6837 0.9061 0.0000
vt 0.3782 0.9569 0.0000
vt 0.6837 0.9569 0.0000
vt 0.6837 0.9653 0.0000
vt 0.3782 0.9653 0.0000
vt 0.3782 0.8892 0.0000
vt 0.6837 0.8892 0.0000
vt 0.6837 0.8976 0.0000
vt 0.3782 0.8976 0.0000
vt 0.6837 0.9484 0.0000
vt 0.3782 0.9484 0.0000
vt 0.3782 0.9738 0.0000
vt 0.6837 0.9738 0.0000
# 26 texture coords

g SM_Water_Pipes_01_04
s 1
f 1/1/1 2/2/2 3/3/3 
f 3/3/3 4/4/4 1/1/1 
f 5/5/5 6/6/5 7/7/6 
f 7/7/6 8/8/7 5/5/5 
f 9/9/8 10/10/8 11/11/9 
f 11/11/9 12/12/10 9/9/8 
f 13/13/11 14/14/12 2/2/2 
f 2/2/2 1/1/1 13/13/11 
f 15/15/13 16/16/14 17/17/15 
f 17/17/15 18/18/16 15/15/13 
f 8/19/7 7/20/6 19/21/17 
f 19/21/17 20/22/17 8/19/7 
f 12/12/10 11/11/9 21/23/18 
f 21/23/18 22/24/19 12/12/10 
f 23/25/20 24/26/20 6/6/5 
f 6/6/5 5/5/5 23/25/20 
f 4/4/4 3/3/3 10/10/8 
f 10/10/8 9/9/8 4/4/4 
f 13/13/11 20/22/17 19/21/17 
f 19/21/17 14/14/12 13/13/11 
f 15/15/13 22/24/19 21/23/18 
f 21/23/18 16/16/14 15/15/13 
f 23/25/20 18/18/16 17/17/15 
f 17/17/15 24/26/20 23/25/20 
# 24 faces

