# 3ds Max Wavefront OBJ Exporter v0.97b - (c)2007 guruware
# File Created: 24.01.2019 18:42:31

#
# object SM_Water_Pipes_01_14
#

v  -7.6569 5.6710 -13.2657
v  -13.2622 5.6710 -7.6590
v  -10.1906 10.0003 -5.8817
v  -5.8833 10.0003 -10.1916
v  7.6577 5.6712 13.2648
v  13.2644 5.6712 7.6607
v  10.1903 10.0005 5.8833
v  5.8817 10.0005 10.1906
v  -7.6581 5.6711 13.2622
v  -0.0008 5.6712 15.3167
v  -0.0021 10.0004 11.7646
v  -5.8859 10.0004 10.1906
v  -7.6578 0.0000 -13.2638
v  -13.2636 0.0000 -7.6581
v  0.0005 10.0003 -11.7655
v  0.0017 5.6710 -15.3176
v  7.6573 0.0000 13.2666
v  13.2639 0.0000 7.6616
v  -7.6586 0.0000 13.2649
v  -0.0013 0.0000 15.3176
v  -13.2635 5.6710 7.6555
v  -10.1919 10.0003 5.8833
v  -11.7671 10.0003 -0.0005
v  -15.3154 5.6710 -0.0005
v  13.2644 5.6712 -7.6565
v  10.1903 10.0005 -5.8817
v  11.7655 10.0005 -0.0004
v  15.3163 5.6712 -0.0005
v  5.8842 10.0004 -10.1915
v  7.6590 5.6711 -13.2605
v  -0.0003 10.0004 0.0001
v  7.6581 0.0000 -13.2606
v  0.0003 0.0000 -15.3158
v  -15.3163 0.0000 0.0014
v  -13.2644 0.0000 7.6574
v  15.3159 0.0000 0.0014
v  13.2639 0.0000 -7.6546
v  -7.6569 -5.6709 -13.2657
v  -5.8833 -10.0002 -10.1916
v  -10.1906 -10.0002 -5.8817
v  -13.2622 -5.6709 -7.6590
v  7.6577 -5.6712 13.2647
v  5.8817 -10.0005 10.1906
v  10.1903 -10.0005 5.8833
v  13.2644 -5.6712 7.6607
v  -7.6581 -5.6710 13.2622
v  -5.8859 -10.0004 10.1906
v  -0.0021 -10.0004 11.7645
v  -0.0008 -5.6711 15.3167
v  0.0017 -5.6710 -15.3176
v  0.0005 -10.0003 -11.7655
v  -13.2635 -5.6710 7.6555
v  -15.3154 -5.6709 -0.0005
v  -11.7671 -10.0002 -0.0005
v  -10.1919 -10.0003 5.8833
v  13.2644 -5.6711 -7.6565
v  15.3163 -5.6712 -0.0005
v  11.7655 -10.0004 -0.0005
v  10.1903 -10.0004 -5.8817
v  5.8842 -10.0003 -10.1916
v  7.6590 -5.6710 -13.2606
v  -0.0003 -10.0003 0.0001
# 62 vertices

vn -0.3867 0.6340 -0.6697
vn -0.6697 0.6339 -0.3868
vn -0.4178 0.8759 -0.2411
vn -0.2413 0.8759 -0.4178
vn 0.3865 0.6342 0.6697
vn 0.6696 0.6342 0.3867
vn 0.4177 0.8760 0.2411
vn 0.2410 0.8760 0.4178
vn -0.3868 0.6338 0.6699
vn -0.0001 0.6343 0.7731
vn -0.0001 0.8760 0.4822
vn -0.2413 0.8758 0.4180
vn -0.5001 0.0000 -0.8660
vn -0.8660 0.0000 -0.5000
vn -0.8660 0.0001 -0.5001
vn -0.5000 -0.0002 -0.8660
vn -0.0000 0.8761 -0.4821
vn 0.0001 0.6341 -0.7733
vn 0.4998 -0.0000 0.8661
vn 0.8660 -0.0000 0.5000
vn 0.8660 0.0000 0.5000
vn 0.4999 0.0002 0.8661
vn -0.5001 -0.0000 0.8659
vn -0.0001 -0.0000 1.0000
vn -0.0001 0.0002 1.0000
vn -0.5002 0.0005 0.8659
vn -0.6700 0.6337 0.3867
vn -0.4180 0.8758 0.2412
vn -0.4825 0.8759 -0.0000
vn -0.7734 0.6339 -0.0000
vn 0.6697 0.6341 -0.3867
vn 0.4178 0.8760 -0.2412
vn 0.4823 0.8760 -0.0001
vn 0.7732 0.6342 -0.0001
vn 0.2414 0.8758 -0.4179
vn 0.3871 0.6337 -0.6698
vn -0.0000 1.0000 -0.0000
vn 0.0003 -0.0003 -1.0000
vn 0.5003 -0.0001 -0.8659
vn 0.5002 0.0000 -0.8659
vn 0.0002 0.0000 -1.0000
vn -0.8661 0.0003 0.5000
vn -1.0000 0.0002 -0.0001
vn -1.0000 -0.0000 0.0001
vn -0.8660 -0.0000 0.5000
vn 0.8660 -0.0002 -0.5001
vn 1.0000 -0.0001 -0.0001
vn 1.0000 -0.0000 -0.0000
vn 0.8660 0.0000 -0.5000
vn -0.3867 -0.6340 -0.6697
vn -0.2413 -0.8759 -0.4178
vn -0.4178 -0.8759 -0.2411
vn -0.6697 -0.6339 -0.3868
vn 0.3865 -0.6342 0.6697
vn 0.2410 -0.8760 0.4178
vn 0.4177 -0.8760 0.2411
vn 0.6696 -0.6342 0.3867
vn -0.3868 -0.6338 0.6699
vn -0.2413 -0.8758 0.4180
vn -0.0001 -0.8760 0.4822
vn -0.0001 -0.6343 0.7731
vn -0.5000 0.0002 -0.8660
vn -0.8660 -0.0001 -0.5001
vn 0.0001 -0.6341 -0.7733
vn -0.0000 -0.8761 -0.4821
vn 0.4999 -0.0002 0.8661
vn -0.5002 -0.0005 0.8659
vn -0.0001 -0.0002 1.0000
vn -0.6700 -0.6337 0.3867
vn -0.7734 -0.6339 -0.0000
vn -0.4825 -0.8759 -0.0000
vn -0.4180 -0.8758 0.2412
vn 0.6697 -0.6341 -0.3867
vn 0.7732 -0.6342 -0.0001
vn 0.4823 -0.8760 -0.0001
vn 0.4178 -0.8760 -0.2412
vn 0.2414 -0.8758 -0.4179
vn 0.3871 -0.6337 -0.6698
vn -0.0000 -1.0000 -0.0000
vn 0.0003 0.0003 -1.0000
vn 0.5003 0.0001 -0.8659
vn -0.8661 -0.0003 0.5000
vn -1.0000 -0.0002 -0.0001
vn 0.8660 0.0002 -0.5001
vn 1.0000 0.0001 -0.0001
# 85 vertex normals

vt 0.7886 0.1421 0.0000
vt 0.7769 0.1489 0.0000
vt 0.7747 0.1408 0.0000
vt 0.7827 0.1362 0.0000
vt 0.7517 0.1052 0.0000
vt 0.7634 0.0984 0.0000
vt 0.7656 0.1065 0.0000
vt 0.7576 0.1111 0.0000
vt 0.7449 0.1304 0.0000
vt 0.7449 0.1169 0.0000
vt 0.7530 0.1191 0.0000
vt 0.7530 0.1282 0.0000
vt 0.0735 0.9477 0.0000
vt 0.0613 0.9477 0.0000
vt 0.0613 0.9390 0.0000
vt 0.0735 0.9390 0.0000
vt 0.7873 0.1282 0.0000
vt 0.7954 0.1304 0.0000
vt 0.1466 0.9477 0.0000
vt 0.1344 0.9477 0.0000
vt 0.1344 0.9389 0.0000
vt 0.1466 0.9389 0.0000
vt 0.0247 0.9477 0.0000
vt 0.0125 0.9477 0.0000
vt 0.0125 0.9390 0.0000
vt 0.0247 0.9390 0.0000
vt 0.7517 0.1421 0.0000
vt 0.7576 0.1362 0.0000
vt 0.7656 0.1408 0.0000
vt 0.7634 0.1489 0.0000
vt 0.7886 0.1052 0.0000
vt 0.7827 0.1111 0.0000
vt 0.7747 0.1065 0.0000
vt 0.7769 0.0984 0.0000
vt 0.7873 0.1191 0.0000
vt 0.7954 0.1169 0.0000
vt 0.7701 0.1236 0.0000
vt 0.0857 0.9390 0.0000
vt 0.0979 0.9389 0.0000
vt 0.0979 0.9477 0.0000
vt 0.0857 0.9477 0.0000
vt 0.0369 0.9390 0.0000
vt 0.0491 0.9390 0.0000
vt 0.0491 0.9477 0.0000
vt 0.0369 0.9477 0.0000
vt 0.1101 0.9389 0.0000
vt 0.1222 0.9389 0.0000
vt 0.1222 0.9477 0.0000
vt 0.1101 0.9477 0.0000
vt 0.1588 0.9389 0.0000
vt 0.1588 0.9477 0.0000
# 51 texture coords

g SM_Water_Pipes_01_14
s 2
f 1/1/1 2/2/2 3/3/3 
f 3/3/3 4/4/4 1/1/1 
f 5/5/5 6/6/6 7/7/7 
f 7/7/7 8/8/8 5/5/5 
f 9/9/9 10/10/10 11/11/11 
f 11/11/11 12/12/12 9/9/9 
s 1
f 13/13/13 14/14/14 2/15/15 
f 2/15/15 1/16/16 13/13/13 
s 2
f 4/4/4 15/17/17 16/18/18 
f 16/18/18 1/1/1 4/4/4 
s 1
f 17/19/19 18/20/20 6/21/21 
f 6/21/21 5/22/22 17/19/19 
f 19/23/23 20/24/24 10/25/25 
f 10/25/25 9/26/26 19/23/23 
s 2
f 21/27/27 22/28/28 23/29/29 
f 23/29/29 24/30/30 21/27/27 
f 25/31/31 26/32/32 27/33/33 
f 27/33/33 28/34/34 25/31/31 
f 5/5/5 8/8/8 11/11/11 
f 11/11/11 10/10/10 5/5/5 
f 29/35/35 30/36/36 16/18/18 
f 16/18/18 15/17/17 29/35/35 
f 24/30/30 23/29/29 3/3/3 
f 3/3/3 2/2/2 24/30/30 
f 28/34/34 27/33/33 7/7/7 
f 7/7/7 6/6/6 28/34/34 
f 9/9/9 12/12/12 22/28/28 
f 22/28/28 21/27/27 9/9/9 
f 30/36/36 29/35/35 26/32/32 
f 26/32/32 25/31/31 30/36/36 
f 22/28/28 12/12/12 31/37/37 
f 15/17/17 4/4/4 31/37/37 
f 26/32/32 29/35/35 31/37/37 
f 11/11/11 8/8/8 31/37/37 
f 3/3/3 23/29/29 31/37/37 
f 7/7/7 27/33/33 31/37/37 
f 29/35/35 15/17/17 31/37/37 
f 12/12/12 11/11/11 31/37/37 
f 23/29/29 22/28/28 31/37/37 
f 27/33/33 26/32/32 31/37/37 
f 4/4/4 3/3/3 31/37/37 
f 8/8/8 7/7/7 31/37/37 
s 1
f 16/38/38 30/39/39 32/40/40 
f 32/40/40 33/41/41 16/38/38 
f 21/42/42 24/43/43 34/44/44 
f 34/44/44 35/45/45 21/42/42 
f 25/46/46 28/47/47 36/48/48 
f 36/48/48 37/49/49 25/46/46 
f 1/16/16 16/38/38 33/41/41 
f 33/41/41 13/13/13 1/16/16 
f 5/22/22 10/50/25 20/51/24 
f 20/51/24 17/19/19 5/22/22 
f 24/43/43 2/15/15 14/14/14 
f 14/14/14 34/44/44 24/43/43 
f 28/47/47 6/21/21 18/20/20 
f 18/20/20 36/48/48 28/47/47 
f 9/26/26 21/42/42 35/45/45 
f 35/45/45 19/23/23 9/26/26 
f 30/39/39 25/46/46 37/49/49 
f 37/49/49 32/40/40 30/39/39 
s 2
f 38/1/50 39/4/51 40/3/52 
f 40/3/52 41/2/53 38/1/50 
f 42/5/54 43/8/55 44/7/56 
f 44/7/56 45/6/57 42/5/54 
f 46/9/58 47/12/59 48/11/60 
f 48/11/60 49/10/61 46/9/58 
s 1
f 13/13/13 38/16/62 41/15/63 
f 41/15/63 14/14/14 13/13/13 
s 2
f 39/4/51 38/1/50 50/18/64 
f 50/18/64 51/17/65 39/4/51 
s 1
f 17/19/19 42/22/66 45/21/20 
f 45/21/20 18/20/20 17/19/19 
f 19/23/23 46/26/67 49/25/68 
f 49/25/68 20/24/24 19/23/23 
s 2
f 52/27/69 53/30/70 54/29/71 
f 54/29/71 55/28/72 52/27/69 
f 56/31/73 57/34/74 58/33/75 
f 58/33/75 59/32/76 56/31/73 
f 42/5/54 49/10/61 48/11/60 
f 48/11/60 43/8/55 42/5/54 
f 60/35/77 51/17/65 50/18/64 
f 50/18/64 61/36/78 60/35/77 
f 53/30/70 41/2/53 40/3/52 
f 40/3/52 54/29/71 53/30/70 
f 57/34/74 45/6/57 44/7/56 
f 44/7/56 58/33/75 57/34/74 
f 46/9/58 52/27/69 55/28/72 
f 55/28/72 47/12/59 46/9/58 
f 61/36/78 56/31/73 59/32/76 
f 59/32/76 60/35/77 61/36/78 
f 55/28/72 62/37/79 47/12/59 
f 51/17/65 62/37/79 39/4/51 
f 59/32/76 62/37/79 60/35/77 
f 48/11/60 62/37/79 43/8/55 
f 40/3/52 62/37/79 54/29/71 
f 44/7/56 62/37/79 58/33/75 
f 60/35/77 62/37/79 51/17/65 
f 47/12/59 62/37/79 48/11/60 
f 54/29/71 62/37/79 55/28/72 
f 58/33/75 62/37/79 59/32/76 
f 39/4/51 62/37/79 40/3/52 
f 43/8/55 62/37/79 44/7/56 
s 1
f 50/38/80 33/41/41 32/40/40 
f 32/40/40 61/39/81 50/38/80 
f 52/42/82 35/45/45 34/44/44 
f 34/44/44 53/43/83 52/42/82 
f 56/46/84 37/49/49 36/48/48 
f 36/48/48 57/47/85 56/46/84 
f 38/16/62 13/13/13 33/41/41 
f 33/41/41 50/38/80 38/16/62 
f 42/22/66 17/19/19 20/51/24 
f 20/51/24 49/50/68 42/22/66 
f 53/43/83 34/44/44 14/14/14 
f 14/14/14 41/15/63 53/43/83 
f 57/47/85 36/48/48 18/20/20 
f 18/20/20 45/21/20 57/47/85 
f 46/26/67 19/23/23 35/45/45 
f 35/45/45 52/42/82 46/26/67 
f 61/39/81 32/40/40 37/49/49 
f 37/49/49 56/46/84 61/39/81 
# 120 faces

