# 3ds Max Wavefront OBJ Exporter v0.97b - (c)2007 guruware
# File Created: 24.01.2019 18:40:37

#
# object SM_Water_Pipes_02_03
#

v  -67.1998 33.3715 24.0267
v  -64.3818 33.3276 24.0267
v  -63.8658 48.8523 28.2204
v  -67.1992 48.9072 28.2204
v  -67.2003 22.9718 12.5603
v  -64.7596 22.9359 12.5603
v  -67.2004 19.2146 -3.1038
v  -64.8979 19.1803 -3.1038
v  -67.1998 33.3716 -30.2303
v  -64.3819 33.3277 -30.2303
v  -64.7596 22.9359 -18.7679
v  -67.2003 22.9718 -18.7679
v  -67.1992 48.9073 -34.4281
v  -63.8658 48.8523 -34.4281
v  -67.1987 64.5704 -30.2303
v  -63.3499 64.5069 -30.2303
v  -67.1982 76.0357 -18.7679
v  -62.9721 75.9660 -18.7679
v  -67.1981 80.2335 -3.1038
v  -62.8339 80.1615 -3.1038
v  -67.1987 64.5703 24.0267
v  -63.3499 64.5069 24.0267
v  -62.9721 75.9660 12.5603
v  -67.1982 76.0357 12.5603
v  -61.5289 32.1835 25.8885
v  -60.4058 48.6789 30.3701
v  -62.3511 21.1659 13.6353
v  -62.6521 17.1214 -3.1038
v  -61.5289 32.1835 -32.0919
v  -62.3511 21.1659 -19.8429
v  -60.4058 48.6790 -36.5777
v  -59.2827 65.3793 -32.0919
v  -58.4605 77.6039 -19.8429
v  -58.1595 82.0795 -3.1038
v  -59.2827 65.3792 25.8885
v  -58.4605 77.6038 13.6353
v  -16.7766 17.3137 25.8885
v  -2.8885 14.1891 26.0010
v  -6.7952 29.3728 36.5778
v  -24.0831 7.8225 13.6353
v  -9.4642 -9.4000 13.6352
v  -13.0461 -13.3045 -3.1039
v  -26.7581 3.9956 -3.1039
v  0.3193 -0.0200 -32.0919
v  -9.4642 -9.4000 -19.8430
v  -24.0831 7.8225 -19.8429
v  -16.7767 17.3137 -32.0919
v  13.6848 10.7809 -36.5778
v  -6.7952 29.3728 -36.5777
v  11.8458 36.9734 -36.0715
v  17.4308 29.1268 -32.0919
v  10.4928 52.1960 -19.8429
v  17.0583 37.3268 -26.3047
v  7.8053 47.5985 -31.0085
v  40.4158 29.2053 -3.1039
v  36.8339 26.7711 -19.8429
v  13.1678 55.7969 -3.1039
v  27.0503 20.1897 25.8885
v  36.8339 26.7711 13.6352
v  10.4928 52.1960 13.6352
v  3.1863 42.3608 25.8885
v  13.6848 10.7809 36.5778
v  18.4321 -82.0794 24.0266
v  34.0952 -82.0795 28.2203
v  34.0562 -78.1717 28.2203
v  18.3990 -78.7969 24.0266
v  6.9667 -82.0794 12.5602
v  6.9381 -79.2498 12.5602
v  2.7690 -82.0794 -3.1039
v  2.7420 -79.4146 -3.1039
v  18.4321 -82.0794 -30.2304
v  6.9667 -82.0794 -18.7680
v  6.9381 -79.2498 -18.7680
v  18.3990 -78.7969 -30.2304
v  34.0952 -82.0795 -34.4282
v  34.0562 -78.1717 -34.4282
v  49.7584 -82.0795 -30.2304
v  49.7132 -77.5392 -30.2304
v  61.2238 -82.0795 -18.7680
v  61.1742 -77.0718 -18.7680
v  65.4214 -82.0795 -3.1039
v  65.3703 -76.8997 -3.1039
v  49.7584 -82.0795 24.0266
v  61.2238 -82.0795 12.5602
v  61.1742 -77.0718 12.5602
v  49.7133 -77.5393 24.0266
v  33.8165 -70.9919 30.3700
v  17.1246 -72.9600 25.8884
v  4.9060 -74.3699 13.6352
v  0.4326 -74.8792 -3.1039
v  4.9060 -74.3699 -19.8430
v  17.1245 -72.9600 -32.0920
v  33.8165 -70.9919 -36.5778
v  50.5084 -68.9787 -32.0920
v  62.7269 -67.4786 -19.8430
v  67.2004 -66.9242 -3.1039
v  62.7269 -67.4786 13.6352
v  50.5085 -68.9788 25.8885
v  27.5985 -21.4166 30.3700
v  11.9340 -31.5562 25.8885
v  5.8697 -15.0903 25.8885
v  5.7427 4.3627 25.8031
v  -37.9661 27.5914 25.8885
v  -32.1789 42.6597 30.3701
v  0.4675 -39.3151 13.6352
v  0.3193 -0.0200 22.5072
v  -42.2023 17.2854 13.6352
v  -3.7305 -42.1912 -3.1039
v  -43.7533 13.3590 -3.1039
v  0.4675 -39.3151 -19.8430
v  11.9340 -31.5562 -32.0920
v  -37.9661 27.5914 -32.0920
v  -42.2023 17.2854 -19.8429
v  27.5985 -21.4165 -36.5778
v  -42.7047 44.9043 -36.5778
v  -32.1789 42.6598 -36.5777
v  43.2631 -12.1727 -32.0919
v  27.0503 20.1897 -32.0919
v  -47.8833 61.4582 -30.5210
v  -26.3917 58.3655 -32.0919
v  3.1863 42.3608 -35.8888
v  54.7295 -6.1993 -19.8429
v  -43.0998 67.6306 -23.4160
v  -22.1555 69.8620 -19.8429
v  58.9276 -4.1732 -3.1039
v  -20.6045 74.0712 -3.1038
v  54.7295 -6.1993 13.6352
v  43.2631 -12.1728 25.8885
v  -26.3917 58.3654 25.8885
v  -22.1555 69.8620 13.6353
# 130 vertices

vn -0.0081 -0.5197 0.8543
vn -0.3450 -0.4789 0.8072
vn -0.2892 0.0154 0.9571
vn 0.0000 0.0017 1.0000
vn -0.0130 -0.8836 0.4680
vn -0.3722 -0.8185 0.4377
vn -0.0149 -0.9999 0.0000
vn -0.3860 -0.9225 -0.0020
vn -0.0081 -0.5198 -0.8543
vn -0.3398 -0.4787 -0.8095
vn -0.3689 -0.8189 -0.4397
vn -0.0130 -0.8836 -0.4681
vn 0.0000 0.0017 -1.0000
vn -0.2837 0.0153 -0.9588
vn 0.0083 0.5020 -0.8648
vn -0.2345 0.4963 -0.8358
vn 0.0143 0.8666 -0.4988
vn -0.2034 0.8508 -0.4846
vn 0.0165 0.9999 0.0000
vn -0.1934 0.9811 -0.0009
vn 0.0083 0.5019 0.8649
vn -0.2389 0.4968 0.8343
vn -0.2057 0.8512 0.4828
vn 0.0143 0.8666 0.4988
vn -0.3492 -0.4649 0.8136
vn -0.2571 0.0259 0.9660
vn -0.4105 -0.7970 0.4430
vn -0.4373 -0.8993 -0.0023
vn -0.3543 -0.4630 -0.8125
vn -0.4129 -0.7959 -0.4429
vn -0.2417 0.0462 -0.9692
vn -0.0950 0.5066 -0.8569
vn -0.0858 0.8571 -0.5079
vn -0.0830 0.9966 -0.0007
vn -0.1666 0.5103 0.8437
vn -0.1043 0.8664 0.4883
vn -0.2967 -0.4891 0.8202
vn -0.2958 -0.4555 0.8396
vn -0.0365 -0.0111 0.9993
vn -0.5355 -0.6703 0.5138
vn -0.7145 -0.3971 0.5760
vn -0.8844 -0.4667 -0.0055
vn -0.6418 -0.7668 -0.0078
vn -0.3869 -0.2458 -0.8888
vn -0.7347 -0.4088 -0.5413
vn -0.5282 -0.6732 -0.5175
vn -0.2859 -0.4007 -0.8705
vn 0.0341 -0.0037 -0.9994
vn -0.0633 -0.0866 -0.9942
vn 0.4778 0.2849 -0.8310
vn 0.5721 0.3042 -0.7617
vn 0.5724 0.7337 -0.3661
vn 0.6383 0.4990 -0.5862
vn 0.4971 0.6200 -0.6070
vn 0.7960 0.6053 0.0005
vn 0.6979 0.5327 -0.4787
vn 0.5922 0.8058 -0.0008
vn 0.5159 0.3528 0.7806
vn 0.7012 0.5263 0.4810
vn 0.5135 0.7052 0.4889
vn 0.3701 0.5171 0.7717
vn 0.0246 -0.0250 0.9994
vn -0.4987 -0.0050 0.8668
vn 0.0016 0.0000 1.0000
vn 0.0118 -0.1448 0.9894
vn -0.4798 -0.1860 0.8574
vn -0.8656 -0.0087 0.5007
vn -0.8387 -0.2258 0.4957
vn -0.9999 -0.0101 0.0000
vn -0.9696 -0.2447 0.0019
vn -0.4987 -0.0050 -0.8668
vn -0.8655 -0.0087 -0.5008
vn -0.8391 -0.2305 -0.4928
vn -0.4799 -0.1931 -0.8558
vn 0.0016 0.0000 -1.0000
vn 0.0125 -0.1515 -0.9884
vn 0.5012 0.0050 -0.8653
vn 0.5048 -0.1179 -0.8552
vn 0.8664 0.0086 -0.4993
vn 0.8646 -0.0965 -0.4931
vn 1.0000 0.0099 -0.0000
vn 0.9961 -0.0884 0.0008
vn 0.5012 0.0050 0.8653
vn 0.8664 0.0086 0.4993
vn 0.8641 -0.0939 0.4945
vn 0.5038 -0.1129 0.8564
vn 0.0202 -0.1438 0.9894
vn -0.4692 -0.2116 0.8574
vn -0.8265 -0.2673 0.4955
vn -0.9575 -0.2883 0.0016
vn -0.8287 -0.2635 -0.4938
vn -0.4714 -0.2055 -0.8577
vn 0.0193 -0.1379 -0.9903
vn 0.5100 -0.0780 -0.8566
vn 0.8688 -0.0368 -0.4937
vn 0.9997 -0.0224 0.0008
vn 0.8682 -0.0385 0.4947
vn 0.5098 -0.0820 0.8564
vn 0.0446 -0.0271 0.9986
vn -0.4537 -0.1129 0.8840
vn -0.5159 -0.1713 0.8394
vn -0.5949 -0.2114 0.7755
vn -0.1639 -0.4772 0.8634
vn -0.0803 0.0182 0.9966
vn -0.8323 -0.1880 0.5214
vn -0.4306 -0.2102 0.8777
vn -0.2901 -0.8252 0.4847
vn -0.9772 -0.2124 -0.0009
vn -0.3385 -0.9410 -0.0038
vn -0.8331 -0.1837 -0.5217
vn -0.4585 -0.1100 -0.8819
vn -0.1634 -0.4813 -0.8612
vn -0.2845 -0.8275 -0.4840
vn 0.0228 0.0020 -0.9997
vn -0.0098 0.0318 -0.9994
vn -0.0220 0.0099 -0.9997
vn 0.4883 0.1430 -0.8609
vn 0.4204 0.3200 -0.8491
vn 0.1533 0.4976 -0.8538
vn 0.0861 0.5261 -0.8461
vn 0.1355 0.3220 -0.9370
vn 0.8265 0.2663 -0.4960
vn 0.1341 0.6176 -0.7750
vn 0.2638 0.8316 -0.4887
vn 0.9490 0.3154 0.0015
vn 0.3458 0.9383 -0.0000
vn 0.8238 0.2706 0.4981
vn 0.4869 0.1491 0.8607
vn 0.1608 0.5171 0.8407
vn 0.3014 0.8179 0.4901
# 130 vertex normals

vt 0.7289 0.6795 0.0000
vt 0.7240 0.6777 0.0000
vt 0.7398 0.6498 0.0000
vt 0.7454 0.6519 0.0000
vt 0.7153 0.7055 0.0000
vt 0.7109 0.7044 0.0000
vt 0.7075 0.7337 0.0000
vt 0.7034 0.7330 0.0000
vt 0.7196 0.4285 0.0000
vt 0.7149 0.4307 0.0000
vt 0.6999 0.4050 0.0000
vt 0.7042 0.4036 0.0000
vt 0.7381 0.4548 0.0000
vt 0.7328 0.4574 0.0000
vt 0.7558 0.4839 0.0000
vt 0.7497 0.4863 0.0000
vt 0.7690 0.5166 0.0000
vt 0.7622 0.5182 0.0000
vt 0.7747 0.5522 0.0000
vt 0.7677 0.5524 0.0000
vt 0.7608 0.6216 0.0000
vt 0.7546 0.6197 0.0000
vt 0.7648 0.5870 0.0000
vt 0.7716 0.5880 0.0000
vt 0.6903 0.3770 0.0000
vt 0.6944 0.3760 0.0000
vt 0.7171 0.6764 0.0000
vt 0.7328 0.6484 0.0000
vt 0.7047 0.7035 0.0000
vt 0.6973 0.7334 0.0000
vt 0.7081 0.4325 0.0000
vt 0.6937 0.4064 0.0000
vt 0.7259 0.4593 0.0000
vt 0.7429 0.4880 0.0000
vt 0.7555 0.5194 0.0000
vt 0.7609 0.5527 0.0000
vt 0.7477 0.6185 0.0000
vt 0.7579 0.5863 0.0000
vt 0.6842 0.3771 0.0000
vt 0.6272 0.6645 0.0000
vt 0.6031 0.6514 0.0000
vt 0.6291 0.6370 0.0000
vt 0.6245 0.6948 0.0000
vt 0.5779 0.6974 0.0000
vt 0.5786 0.7290 0.0000
vt 0.6230 0.7261 0.0000
vt 0.5714 0.4539 0.0000
vt 0.5677 0.4218 0.0000
vt 0.6144 0.4210 0.0000
vt 0.6194 0.4510 0.0000
vt 0.5731 0.4835 0.0000
vt 0.6233 0.4783 0.0000
vt 0.6113 0.5067 0.0000
vt 0.5947 0.5081 0.0000
vt 0.6312 0.5318 0.0000
vt 0.6062 0.5193 0.0000
vt 0.6291 0.5163 0.0000
vt 0.5718 0.5596 0.0000
vt 0.5715 0.5348 0.0000
vt 0.6330 0.5576 0.0000
vt 0.5760 0.6092 0.0000
vt 0.5733 0.5843 0.0000
vt 0.6331 0.5834 0.0000
vt 0.6315 0.6099 0.0000
vt 0.5787 0.6355 0.0000
vt 0.5662 0.3902 0.0000
vt 0.6106 0.3899 0.0000
vt 0.4227 0.6947 0.0000
vt 0.4071 0.6665 0.0000
vt 0.4136 0.6640 0.0000
vt 0.4284 0.6927 0.0000
vt 0.4362 0.7221 0.0000
vt 0.4413 0.7208 0.0000
vt 0.4442 0.7505 0.0000
vt 0.4490 0.7496 0.0000
vt 0.4132 0.4359 0.0000
vt 0.4246 0.4076 0.0000
vt 0.4298 0.4085 0.0000
vt 0.4190 0.4375 0.0000
vt 0.3997 0.4651 0.0000
vt 0.4064 0.4672 0.0000
vt 0.3870 0.4966 0.0000
vt 0.3946 0.4985 0.0000
vt 0.3781 0.5308 0.0000
vt 0.3865 0.5318 0.0000
vt 0.3757 0.5669 0.0000
vt 0.3843 0.5665 0.0000
vt 0.3921 0.6361 0.0000
vt 0.3808 0.6026 0.0000
vt 0.3890 0.6010 0.0000
vt 0.3996 0.6337 0.0000
vt 0.4305 0.3787 0.0000
vt 0.4354 0.3793 0.0000
vt 0.4264 0.6600 0.0000
vt 0.4398 0.6896 0.0000
vt 0.4513 0.7189 0.0000
vt 0.4588 0.7491 0.0000
vt 0.4400 0.4097 0.0000
vt 0.4306 0.4397 0.0000
vt 0.4194 0.4702 0.0000
vt 0.4091 0.5015 0.0000
vt 0.4022 0.5335 0.0000
vt 0.4005 0.5659 0.0000
vt 0.4046 0.5981 0.0000
vt 0.4138 0.6296 0.0000
vt 0.4452 0.3790 0.0000
vt 0.5155 0.6440 0.0000
vt 0.5158 0.6756 0.0000
vt 0.5489 0.6702 0.0000
vt 0.5790 0.6531 0.0000
vt 0.6729 0.6681 0.0000
vt 0.6814 0.6394 0.0000
vt 0.5167 0.7074 0.0000
vt 0.5792 0.6652 0.0000
vt 0.6659 0.6973 0.0000
vt 0.5200 0.7385 0.0000
vt 0.6613 0.7281 0.0000
vt 0.5060 0.4163 0.0000
vt 0.5074 0.4481 0.0000
vt 0.6646 0.4441 0.0000
vt 0.6556 0.4155 0.0000
vt 0.5094 0.4796 0.0000
vt 0.6941 0.4673 0.0000
vt 0.6752 0.4721 0.0000
vt 0.5102 0.5092 0.0000
vt 0.5724 0.5099 0.0000
vt 0.7230 0.4922 0.0000
vt 0.6854 0.5002 0.0000
vt 0.6277 0.5053 0.0000
vt 0.5098 0.5362 0.0000
vt 0.7230 0.5098 0.0000
vt 0.6926 0.5276 0.0000
vt 0.5100 0.5619 0.0000
vt 0.6958 0.5549 0.0000
vt 0.5117 0.5875 0.0000
vt 0.5141 0.6145 0.0000
vt 0.6894 0.6105 0.0000
vt 0.6947 0.5824 0.0000
vt 0.5070 0.3851 0.0000
vt 0.6487 0.3850 0.0000
# 140 texture coords

g SM_Water_Pipes_02_03
s 1
f 1/1/1 2/2/2 3/3/3 
f 3/3/3 4/4/4 1/1/1 
f 5/5/5 6/6/6 2/2/2 
f 2/2/2 1/1/1 5/5/5 
f 7/7/7 8/8/8 6/6/6 
f 6/6/6 5/5/5 7/7/7 
f 9/9/9 10/10/10 11/11/11 
f 11/11/11 12/12/12 9/9/9 
f 13/13/13 14/14/14 10/10/10 
f 10/10/10 9/9/9 13/13/13 
f 15/15/15 16/16/16 14/14/14 
f 14/14/14 13/13/13 15/15/15 
f 17/17/17 18/18/18 16/16/16 
f 16/16/16 15/15/15 17/17/17 
f 19/19/19 20/20/20 18/18/18 
f 18/18/18 17/17/17 19/19/19 
f 21/21/21 22/22/22 23/23/23 
f 23/23/23 24/24/24 21/21/21 
f 4/4/4 3/3/3 22/22/22 
f 22/22/22 21/21/21 4/4/4 
f 12/12/12 11/11/11 8/25/8 
f 8/25/8 7/26/7 12/12/12 
f 24/24/24 23/23/23 20/20/20 
f 20/20/20 19/19/19 24/24/24 
f 25/27/25 26/28/26 3/3/3 
f 3/3/3 2/2/2 25/27/25 
f 27/29/27 25/27/25 2/2/2 
f 2/2/2 6/6/6 27/29/27 
f 28/30/28 27/29/27 6/6/6 
f 6/6/6 8/8/8 28/30/28 
f 29/31/29 30/32/30 11/11/11 
f 11/11/11 10/10/10 29/31/29 
f 31/33/31 29/31/29 10/10/10 
f 10/10/10 14/14/14 31/33/31 
f 32/34/32 31/33/31 14/14/14 
f 14/14/14 16/16/16 32/34/32 
f 33/35/33 32/34/32 16/16/16 
f 16/16/16 18/18/18 33/35/33 
f 34/36/34 33/35/33 18/18/18 
f 18/18/18 20/20/20 34/36/34 
f 35/37/35 36/38/36 23/23/23 
f 23/23/23 22/22/22 35/37/35 
f 26/28/26 35/37/35 22/22/22 
f 22/22/22 3/3/3 26/28/26 
f 30/32/30 28/39/28 8/25/8 
f 8/25/8 11/11/11 30/32/30 
f 36/38/36 34/36/34 20/20/20 
f 20/20/20 23/23/23 36/38/36 
f 37/40/37 38/41/38 39/42/39 
f 40/43/40 41/44/41 37/40/37 
f 42/45/42 41/44/41 40/43/40 
f 40/43/40 43/46/43 42/45/42 
f 44/47/44 45/48/45 46/49/46 
f 46/49/46 47/50/47 44/47/44 
f 48/51/48 44/47/44 47/50/47 
f 47/50/47 49/52/49 48/51/48 
f 50/53/50 51/54/51 48/51/48 
f 52/55/52 53/56/53 54/57/54 
f 55/58/55 56/59/56 52/55/52 
f 52/55/52 57/60/57 55/58/55 
f 58/61/58 59/62/59 60/63/60 
f 60/63/60 61/64/61 58/61/58 
f 39/42/39 62/65/62 61/64/61 
f 45/48/45 42/66/42 43/67/43 
f 43/67/43 46/49/46 45/48/45 
f 59/62/59 55/58/55 57/60/57 
f 57/60/57 60/63/60 59/62/59 
f 63/68/63 64/69/64 65/70/65 
f 65/70/65 66/71/66 63/68/63 
f 67/72/67 63/68/63 66/71/66 
f 66/71/66 68/73/68 67/72/67 
f 69/74/69 67/72/67 68/73/68 
f 68/73/68 70/75/70 69/74/69 
f 71/76/71 72/77/72 73/78/73 
f 73/78/73 74/79/74 71/76/71 
f 75/80/75 71/76/71 74/79/74 
f 74/79/74 76/81/76 75/80/75 
f 77/82/77 75/80/75 76/81/76 
f 76/81/76 78/83/78 77/82/77 
f 79/84/79 77/82/77 78/83/78 
f 78/83/78 80/85/80 79/84/79 
f 81/86/81 79/84/79 80/85/80 
f 80/85/80 82/87/82 81/86/81 
f 83/88/83 84/89/84 85/90/85 
f 85/90/85 86/91/86 83/88/83 
f 64/69/64 83/88/83 86/91/86 
f 86/91/86 65/70/65 64/69/64 
f 72/77/72 69/92/69 70/93/70 
f 70/93/70 73/78/73 72/77/72 
f 84/89/84 81/86/81 82/87/82 
f 82/87/82 85/90/85 84/89/84 
f 66/71/66 65/70/65 87/94/87 
f 87/94/87 88/95/88 66/71/66 
f 68/73/68 66/71/66 88/95/88 
f 88/95/88 89/96/89 68/73/68 
f 70/75/70 68/73/68 89/96/89 
f 89/96/89 90/97/90 70/75/70 
f 74/79/74 73/78/73 91/98/91 
f 91/98/91 92/99/92 74/79/74 
f 76/81/76 74/79/74 92/99/92 
f 92/99/92 93/100/93 76/81/76 
f 78/83/78 76/81/76 93/100/93 
f 93/100/93 94/101/94 78/83/78 
f 80/85/80 78/83/78 94/101/94 
f 94/101/94 95/102/95 80/85/80 
f 82/87/82 80/85/80 95/102/95 
f 95/102/95 96/103/96 82/87/82 
f 86/91/86 85/90/85 97/104/97 
f 97/104/97 98/105/98 86/91/86 
f 65/70/65 86/91/86 98/105/98 
f 98/105/98 87/94/87 65/70/65 
f 73/78/73 70/93/70 90/106/90 
f 90/106/90 91/98/91 73/78/73 
f 85/90/85 82/87/82 96/103/96 
f 96/103/96 97/104/97 85/90/85 
f 88/95/88 87/94/87 99/107/99 
f 99/107/99 100/108/100 88/95/88 
f 101/109/101 99/107/99 62/65/62 
f 62/65/62 102/110/102 101/109/101 
f 26/28/26 25/27/25 103/111/103 
f 103/111/103 104/112/104 26/28/26 
f 104/112/104 103/111/103 37/40/37 
f 37/40/37 39/42/39 104/112/104 
f 89/96/89 88/95/88 100/108/100 
f 100/108/100 105/113/105 89/96/89 
f 41/44/41 101/109/101 106/114/106 
f 25/27/25 27/29/27 107/115/107 
f 107/115/107 103/111/103 25/27/25 
f 103/111/103 107/115/107 40/43/40 
f 40/43/40 37/40/37 103/111/103 
f 90/97/90 89/96/89 105/113/105 
f 105/113/105 108/116/108 90/97/90 
f 108/116/108 105/113/105 41/44/41 
f 41/44/41 42/45/42 108/116/108 
f 27/29/27 28/30/28 109/117/109 
f 109/117/109 107/115/107 27/29/27 
f 107/115/107 109/117/109 43/46/43 
f 43/46/43 40/43/40 107/115/107 
f 92/99/92 91/98/91 110/118/110 
f 110/118/110 111/119/111 92/99/92 
f 111/119/111 110/118/110 45/48/45 
f 45/48/45 44/47/44 111/119/111 
f 30/32/30 29/31/29 112/120/112 
f 112/120/112 113/121/113 30/32/30 
f 113/121/113 112/120/112 47/50/47 
f 47/50/47 46/49/46 113/121/113 
f 93/100/93 92/99/92 111/119/111 
f 111/119/111 114/122/114 93/100/93 
f 114/122/114 111/119/111 44/47/44 
f 44/47/44 48/51/48 114/122/114 
f 112/120/112 115/123/115 116/124/116 
f 112/120/112 116/124/116 49/52/49 
f 49/52/49 47/50/47 112/120/112 
f 94/101/94 93/100/93 114/122/114 
f 114/122/114 117/125/117 94/101/94 
f 117/125/117 114/122/114 48/51/48 
f 48/51/48 118/126/118 117/125/117 
f 115/123/115 119/127/119 120/128/120 
f 120/128/120 116/124/116 115/123/115 
f 116/124/116 120/128/120 121/129/121 
f 121/129/121 49/52/49 116/124/116 
f 95/102/95 94/101/94 117/125/117 
f 117/125/117 122/130/122 95/102/95 
f 122/130/122 117/125/117 118/126/118 
f 118/126/118 56/59/56 122/130/122 
f 120/128/120 119/127/119 123/131/123 
f 123/131/123 124/132/124 120/128/120 
f 124/132/124 52/55/52 54/57/54 
f 96/103/96 95/102/95 122/130/122 
f 122/130/122 125/133/125 96/103/96 
f 125/133/125 122/130/122 56/59/56 
f 56/59/56 55/58/55 125/133/125 
f 33/35/33 34/36/34 126/134/126 
f 126/134/126 124/132/124 33/35/33 
f 124/132/124 126/134/126 57/60/57 
f 57/60/57 52/55/52 124/132/124 
f 98/105/98 97/104/97 127/135/127 
f 127/135/127 128/136/128 98/105/98 
f 128/136/128 127/135/127 59/62/59 
f 59/62/59 58/61/58 128/136/128 
f 36/38/36 35/37/35 129/137/129 
f 129/137/129 130/138/130 36/38/36 
f 130/138/130 129/137/129 61/64/61 
f 61/64/61 60/63/60 130/138/130 
f 87/94/87 98/105/98 128/136/128 
f 128/136/128 99/107/99 87/94/87 
f 62/65/62 99/107/99 58/61/58 
f 35/37/35 26/28/26 104/112/104 
f 104/112/104 129/137/129 35/37/35 
f 129/137/129 104/112/104 39/42/39 
f 39/42/39 61/64/61 129/137/129 
f 91/98/91 90/106/90 108/139/108 
f 108/139/108 110/118/110 91/98/91 
f 110/118/110 108/139/108 42/66/42 
f 42/66/42 45/48/45 110/118/110 
f 28/39/28 30/32/30 113/121/113 
f 113/121/113 109/140/109 28/39/28 
f 109/140/109 113/121/113 46/49/46 
f 46/49/46 43/67/43 109/140/109 
f 97/104/97 96/103/96 125/133/125 
f 125/133/125 127/135/127 97/104/97 
f 127/135/127 125/133/125 55/58/55 
f 55/58/55 59/62/59 127/135/127 
f 34/36/34 36/38/36 130/138/130 
f 130/138/130 126/134/126 34/36/34 
f 126/134/126 130/138/130 60/63/60 
f 60/63/60 57/60/57 126/134/126 
f 52/55/52 56/59/56 53/56/53 
f 51/54/51 118/126/118 48/51/48 
f 49/52/49 121/129/121 50/53/50 
f 50/53/50 48/51/48 49/52/49 
f 50/53/50 121/129/121 54/57/54 
f 54/57/54 121/129/121 120/128/120 
f 120/128/120 124/132/124 54/57/54 
f 53/56/53 51/54/51 50/53/50 
f 118/126/118 51/54/51 53/56/53 
f 53/56/53 56/59/56 118/126/118 
f 53/56/53 50/53/50 54/57/54 
f 31/33/31 32/34/32 119/127/119 
f 119/127/119 115/123/115 31/33/31 
f 33/35/33 124/132/124 123/131/123 
f 32/34/32 33/35/33 123/131/123 
f 123/131/123 119/127/119 32/34/32 
f 29/31/29 31/33/31 115/123/115 
f 112/120/112 29/31/29 115/123/115 
f 106/114/106 102/110/102 38/41/38 
f 38/41/38 37/40/37 106/114/106 
f 102/110/102 106/114/106 101/109/101 
f 101/109/101 100/108/100 99/107/99 
f 38/41/38 102/110/102 62/65/62 
f 62/65/62 39/42/39 38/41/38 
f 105/113/105 100/108/100 101/109/101 
f 101/109/101 41/44/41 105/113/105 
f 41/44/41 106/114/106 37/40/37 
f 99/107/99 128/136/128 58/61/58 
f 62/65/62 58/61/58 61/64/61 
# 236 faces

