# 3ds Max Wavefront OBJ Exporter v0.97b - (c)2007 guruware
# File Created: 24.01.2019 18:40:57

#
# object SM_Water_Pipes_02_05
#

v  -50.4058 2.5279 26.2208
v  -48.4233 2.6979 26.2742
v  -47.6182 17.9655 30.5061
v  -50.4058 18.2547 30.4166
v  -50.4058 -8.9041 14.7543
v  -47.0916 -9.7225 15.8343
v  -50.4058 -13.0753 -0.9098
v  -47.3904 -13.9266 -0.9200
v  -50.4058 2.5905 -28.0402
v  -48.4233 2.6979 -28.0362
v  -47.0916 -9.7225 -17.6488
v  -50.4058 -8.8768 -16.5729
v  -50.4058 18.2547 -32.2369
v  -47.6181 17.9655 -32.2340
v  -50.4058 33.9243 -28.0411
v  -46.9947 33.6875 -28.0363
v  -50.4058 45.3758 -16.5739
v  -46.6983 45.0653 -16.5739
v  -50.4058 49.5808 -0.9117
v  -46.6250 49.1201 -0.9190
v  -50.4058 33.9203 26.2169
v  -46.9947 33.6875 26.2917
v  -46.6983 45.0653 14.7543
v  -50.4058 45.3797 14.7524
v  -46.3364 1.7806 28.2043
v  -44.8335 17.7735 32.7622
v  -46.3364 1.7807 -29.8978
v  -44.8334 17.7735 -34.3836
v  -43.4330 34.4413 -29.8978
v  -42.5453 46.3676 -17.6488
v  -42.2546 50.5335 -0.9267
v  -43.4330 34.4412 28.2416
v  -42.5453 46.3676 15.8370
v  -17.6242 -4.7689 27.8736
v  14.2281 -3.9022 33.6778
v  -6.3008 7.1634 31.4659
v  -14.6429 -20.3403 15.8031
v  -1.2146 -13.4525 26.7749
v  -30.8505 -11.2667 15.8367
v  -19.4201 -22.8808 -0.8746
v  -33.1084 -14.5445 -0.9288
v  -1.2145 -13.4525 -29.8978
v  -14.6429 -20.3403 -17.6488
v  -30.8505 -11.2667 -17.6488
v  -17.6241 -4.7689 -26.8543
v  14.2281 -3.9022 -34.3836
v  -6.3008 7.1635 -31.3401
v  3.7936 20.1066 -33.4106
v  23.8598 5.1412 -29.8978
v  29.3214 10.8681 -17.6488
v  10.2443 28.6023 -17.6488
v  31.5025 12.7687 -0.7289
v  12.6854 31.7108 -0.7193
v  23.8771 5.1409 25.8010
v  29.3271 10.8678 15.7386
v  10.2443 28.6023 15.7463
v  3.5194 19.6634 26.6481
v  2.9092 -50.5335 26.2206
v  18.4302 -50.5335 30.4143
v  21.4771 -45.2035 31.9593
v  5.2078 -46.4774 27.7199
v  -8.3797 -50.5335 14.7543
v  -8.3231 -46.8626 15.8192
v  -12.6119 -50.5335 -0.9098
v  -13.3516 -47.0373 -0.8932
v  2.9092 -50.5335 -28.0363
v  -8.3798 -50.5335 -16.5739
v  -8.3224 -46.8613 -17.6488
v  4.6276 -49.0128 -28.0363
v  18.4303 -50.5335 -32.2340
v  21.4785 -45.1609 -34.3836
v  33.9514 -50.5335 -28.0363
v  34.2659 -47.9184 -28.0363
v  45.3136 -50.5335 -16.5739
v  44.8563 -47.6980 -16.5739
v  49.4725 -50.5335 -0.9097
v  50.4058 -42.6770 -0.9092
v  33.9514 -50.5335 26.2206
v  45.3136 -50.5335 14.7544
v  46.1854 -42.9338 15.8231
v  35.6836 -43.7811 27.7313
v  5.2249 -46.4395 -29.8978
v  35.6316 -43.7929 -29.8979
v  46.1835 -42.9346 -17.6488
v  25.8370 -22.4364 34.3836
v  8.9358 -28.3975 26.6312
v  -30.7186 0.1415 28.3361
v  -23.3225 13.5726 32.8278
v  -6.5154 -32.3158 15.7922
v  -12.1898 -33.7244 -0.8513
v  -6.5148 -32.3146 -17.6488
v  8.9472 -28.3722 -29.8978
v  -30.7186 0.1416 -29.8978
v  25.8104 -22.4210 -34.3836
v  -23.3224 13.5726 -34.3836
v  35.6115 -34.7642 -29.8979
v  35.5714 -16.8091 -29.8978
v  -15.2173 27.9802 -29.8978
v  41.9151 -31.6134 -17.0313
v  45.0387 -35.9447 -17.6488
v  41.3190 -13.2319 -17.6488
v  -32.1613 31.8602 -29.8978
v  -25.0380 41.3277 -17.6488
v  -9.1541 38.4510 -17.6488
v  48.3903 -33.4527 -0.8816
v  45.8149 -28.7752 -0.8670
v  45.9061 -12.0309 -0.8174
v  -25.9883 46.6664 -0.9167
v  -6.9724 42.1454 -0.9050
v  35.7237 -36.8560 27.3515
v  44.9721 -35.5011 15.8101
v  44.4155 -32.0914 15.8041
v  35.8398 -16.7939 26.2512
v  43.5329 -13.2310 15.7711
v  -15.2173 27.9802 28.1723
v  -9.1542 38.4510 15.8292
v  -39.4214 27.8163 -31.4446
v  -29.0624 41.9385 -17.1761
v  -32.4680 43.9784 -17.6488
# 119 vertices

vn 0.0181 -0.5159 0.8564
vn -0.3987 -0.4477 0.8004
vn -0.3702 0.0168 0.9288
vn -0.0302 0.0178 0.9994
vn -0.3373 -0.8172 0.4674
vn -0.2238 -0.8408 0.4929
vn -0.2745 -0.9616 -0.0046
vn -0.1647 -0.9863 0.0037
vn -0.0027 -0.4706 -0.8823
vn -0.3706 -0.4271 -0.8248
vn -0.2236 -0.8431 -0.4891
vn -0.3511 -0.8250 -0.4429
vn 0.0043 0.0147 -0.9999
vn -0.3364 0.0164 -0.9416
vn 0.0369 0.5077 -0.8607
vn -0.2415 0.4987 -0.8324
vn 0.0720 0.8676 -0.4921
vn -0.1565 0.8611 -0.4838
vn 0.1183 0.9930 0.0036
vn -0.1033 0.9947 -0.0014
vn 0.0182 0.5123 0.8586
vn -0.2682 0.4980 0.8246
vn -0.1649 0.8624 0.4787
vn 0.0762 0.8687 0.4894
vn -0.3943 -0.4548 0.7985
vn -0.3099 0.0249 0.9504
vn -0.3931 -0.4494 -0.8022
vn -0.3068 0.0294 -0.9513
vn -0.0827 0.5133 -0.8542
vn -0.0839 0.8721 -0.4821
vn -0.0373 0.9993 -0.0029
vn -0.1849 0.5179 0.8353
vn -0.0793 0.8750 0.4776
vn -0.1949 -0.4661 0.8630
vn 0.0848 0.1148 0.9898
vn 0.0108 0.0513 0.9986
vn -0.5358 -0.6179 0.5754
vn -0.3103 -0.3820 0.8705
vn -0.2605 -0.8309 0.4917
vn -0.6775 -0.7355 -0.0058
vn -0.2816 -0.9595 0.0026
vn -0.3295 -0.2458 -0.9116
vn -0.5552 -0.6168 -0.5580
vn -0.2361 -0.8259 -0.5120
vn -0.1793 -0.4230 -0.8882
vn 0.0359 0.0250 -0.9990
vn -0.0666 -0.1910 -0.9793
vn 0.2315 0.4375 -0.8689
vn 0.5350 0.3806 -0.7543
vn 0.7361 0.5710 -0.3635
vn 0.5120 0.7564 -0.4071
vn 0.7886 0.6149 -0.0042
vn 0.5891 0.8080 -0.0043
vn 0.5168 0.4305 0.7399
vn 0.7168 0.5679 0.4046
vn 0.4971 0.7249 0.4768
vn 0.2839 0.4647 0.8387
vn -0.5818 0.0363 0.8125
vn -0.0706 -0.2242 0.9720
vn 0.0674 -0.2128 0.9748
vn -0.4615 -0.0115 0.8870
vn -0.8698 -0.1032 0.4825
vn -0.8295 -0.0163 0.5583
vn -0.9802 -0.1978 0.0127
vn -0.9986 -0.0515 0.0107
vn -0.4498 0.4259 -0.7850
vn -0.8728 -0.1333 -0.4694
vn -0.8415 -0.0144 -0.5401
vn -0.4341 -0.0211 -0.9006
vn -0.1174 -0.2952 -0.9482
vn 0.0284 -0.1940 -0.9806
vn 0.5503 -0.1256 -0.8254
vn 0.5553 -0.2737 -0.7853
vn 0.8731 0.1299 -0.4700
vn 0.8761 -0.1083 -0.4698
vn 0.9945 -0.1030 -0.0212
vn 0.9995 0.0309 -0.0098
vn 0.4886 -0.2874 0.8238
vn 0.8644 -0.1615 0.4761
vn 0.8832 -0.0249 0.4684
vn 0.5373 -0.1376 0.8321
vn -0.4413 -0.2106 -0.8723
vn 0.5587 -0.2350 -0.7954
vn 0.8857 -0.0904 -0.4553
vn 0.1943 0.0292 0.9805
vn -0.4735 -0.0637 0.8785
vn -0.1078 -0.5072 0.8551
vn 0.0306 -0.0022 0.9995
vn -0.7445 -0.1823 0.6423
vn -0.9694 -0.2453 0.0055
vn -0.7722 -0.1742 -0.6111
vn -0.3868 -0.0721 -0.9193
vn -0.0396 -0.5240 -0.8508
vn 0.1337 0.0257 -0.9907
vn 0.0233 -0.0487 -0.9985
vn 0.6571 0.0343 -0.7530
vn 0.6752 0.1686 -0.7181
vn 0.1209 0.5482 -0.8276
vn 0.8772 0.3064 -0.3696
vn 0.8408 0.3412 -0.4203
vn 0.9010 0.2300 -0.3679
vn -0.0590 0.6100 -0.7902
vn 0.1351 0.8655 -0.4823
vn 0.2851 0.8329 -0.4742
vn 0.9353 0.3528 -0.0275
vn 0.9694 0.2356 -0.0693
vn 0.9669 0.2505 -0.0487
vn 0.2382 0.9711 -0.0173
vn 0.3483 0.9373 -0.0085
vn 0.6090 0.0006 0.7932
vn 0.8857 0.1497 0.4394
vn 0.9082 0.1100 0.4039
vn 0.6732 0.1987 0.7123
vn 0.8863 0.2578 0.3848
vn 0.1928 0.4861 0.8524
vn 0.3057 0.8222 0.4802
vn 0.0900 0.3579 -0.9294
vn 0.2625 0.8073 -0.5285
vn 0.3479 0.7748 -0.5279
# 119 vertex normals

vt 0.9180 0.4559 0.0000
vt 0.9150 0.4541 0.0000
vt 0.9321 0.4277 0.0000
vt 0.9367 0.4294 0.0000
vt 0.9009 0.4817 0.0000
vt 0.8952 0.4786 0.0000
vt 0.8893 0.5091 0.0000
vt 0.8837 0.5075 0.0000
vt 0.9202 0.2089 0.0000
vt 0.9171 0.2105 0.0000
vt 0.8982 0.1854 0.0000
vt 0.9040 0.1825 0.0000
vt 0.9382 0.2357 0.0000
vt 0.9335 0.2373 0.0000
vt 0.9541 0.2653 0.0000
vt 0.9486 0.2669 0.0000
vt 0.9653 0.2980 0.0000
vt 0.9593 0.2989 0.0000
vt 0.9693 0.3327 0.0000
vt 0.9630 0.3327 0.0000
vt 0.9533 0.4000 0.0000
vt 0.9478 0.3983 0.0000
vt 0.9589 0.3664 0.0000
vt 0.9649 0.3674 0.0000
vt 0.8876 0.1562 0.0000
vt 0.8932 0.1547 0.0000
vt 0.9099 0.4525 0.0000
vt 0.9261 0.4263 0.0000
vt 0.9120 0.2119 0.0000
vt 0.9275 0.2386 0.0000
vt 0.9424 0.2681 0.0000
vt 0.9529 0.2994 0.0000
vt 0.9566 0.3326 0.0000
vt 0.9415 0.3971 0.0000
vt 0.9525 0.3658 0.0000
vt 0.8562 0.4368 0.0000
vt 0.8143 0.3975 0.0000
vt 0.8557 0.4085 0.0000
vt 0.8279 0.4618 0.0000
vt 0.8205 0.4288 0.0000
vt 0.8651 0.4688 0.0000
vt 0.8299 0.4934 0.0000
vt 0.8588 0.4989 0.0000
vt 0.8224 0.2338 0.0000
vt 0.8303 0.1999 0.0000
vt 0.8678 0.1942 0.0000
vt 0.8579 0.2261 0.0000
vt 0.8158 0.2651 0.0000
vt 0.8568 0.2548 0.0000
vt 0.8579 0.2814 0.0000
vt 0.8158 0.2865 0.0000
vt 0.8162 0.3077 0.0000
vt 0.8589 0.3069 0.0000
vt 0.8154 0.3330 0.0000
vt 0.8590 0.3329 0.0000
vt 0.8145 0.3759 0.0000
vt 0.8155 0.3576 0.0000
vt 0.8585 0.3581 0.0000
vt 0.8572 0.3817 0.0000
vt 0.8328 0.1682 0.0000
vt 0.8623 0.1639 0.0000
vt 0.7515 0.4566 0.0000
vt 0.7332 0.4301 0.0000
vt 0.7396 0.4214 0.0000
vt 0.7558 0.4493 0.0000
vt 0.7681 0.4813 0.0000
vt 0.7733 0.4769 0.0000
vt 0.7802 0.5078 0.0000
vt 0.7861 0.5053 0.0000
vt 0.7535 0.2058 0.0000
vt 0.7698 0.1810 0.0000
vt 0.7751 0.1851 0.0000
vt 0.7547 0.2092 0.0000
vt 0.7351 0.2322 0.0000
vt 0.7419 0.2408 0.0000
vt 0.7201 0.2622 0.0000
vt 0.7238 0.2643 0.0000
vt 0.7081 0.2937 0.0000
vt 0.7128 0.2942 0.0000
vt 0.7019 0.3286 0.0000
vt 0.7151 0.3287 0.0000
vt 0.7170 0.3995 0.0000
vt 0.7055 0.3653 0.0000
vt 0.7185 0.3636 0.0000
vt 0.7278 0.3942 0.0000
vt 0.7817 0.1541 0.0000
vt 0.7877 0.1564 0.0000
vt 0.7586 0.2129 0.0000
vt 0.7305 0.2668 0.0000
vt 0.7204 0.2956 0.0000
vt 0.7742 0.3988 0.0000
vt 0.7845 0.4302 0.0000
vt 0.8827 0.4426 0.0000
vt 0.8881 0.4158 0.0000
vt 0.7980 0.4637 0.0000
vt 0.8071 0.4949 0.0000
vt 0.8003 0.1976 0.0000
vt 0.7866 0.2322 0.0000
vt 0.8845 0.2209 0.0000
vt 0.7763 0.2633 0.0000
vt 0.8892 0.2483 0.0000
vt 0.7451 0.2721 0.0000
vt 0.7740 0.2826 0.0000
vt 0.8925 0.2770 0.0000
vt 0.7402 0.2991 0.0000
vt 0.7324 0.2977 0.0000
vt 0.7713 0.3045 0.0000
vt 0.9224 0.2716 0.0000
vt 0.9223 0.3023 0.0000
vt 0.8941 0.3049 0.0000
vt 0.7314 0.3297 0.0000
vt 0.7400 0.3302 0.0000
vt 0.7693 0.3319 0.0000
vt 0.9280 0.3325 0.0000
vt 0.8945 0.3325 0.0000
vt 0.7391 0.3902 0.0000
vt 0.7314 0.3625 0.0000
vt 0.7374 0.3619 0.0000
vt 0.7719 0.3787 0.0000
vt 0.7703 0.3591 0.0000
vt 0.8918 0.3876 0.0000
vt 0.8938 0.3599 0.0000
vt 0.8094 0.1663 0.0000
vt 0.9294 0.2596 0.0000
vt 0.9292 0.3017 0.0000
vt 0.9352 0.3011 0.0000
# 126 texture coords

g SM_Water_Pipes_02_05
s 1
f 1/1/1 2/2/2 3/3/3 
f 3/3/3 4/4/4 1/1/1 
f 5/5/5 6/6/6 2/2/2 
f 2/2/2 1/1/1 5/5/5 
f 7/7/7 8/8/8 6/6/6 
f 6/6/6 5/5/5 7/7/7 
f 9/9/9 10/10/10 11/11/11 
f 11/11/11 12/12/12 9/9/9 
f 13/13/13 14/14/14 10/10/10 
f 10/10/10 9/9/9 13/13/13 
f 15/15/15 16/16/16 14/14/14 
f 14/14/14 13/13/13 15/15/15 
f 17/17/17 18/18/18 16/16/16 
f 16/16/16 15/15/15 17/17/17 
f 19/19/19 20/20/20 18/18/18 
f 18/18/18 17/17/17 19/19/19 
f 21/21/21 22/22/22 23/23/23 
f 23/23/23 24/24/24 21/21/21 
f 4/4/4 3/3/3 22/22/22 
f 22/22/22 21/21/21 4/4/4 
f 12/12/12 11/11/11 8/25/8 
f 8/25/8 7/26/7 12/12/12 
f 24/24/24 23/23/23 20/20/20 
f 20/20/20 19/19/19 24/24/24 
f 25/27/25 26/28/26 3/3/3 
f 3/3/3 2/2/2 25/27/25 
f 6/6/6 25/27/25 2/2/2 
f 10/10/10 27/29/27 11/11/11 
f 28/30/28 27/29/27 10/10/10 
f 10/10/10 14/14/14 28/30/28 
f 29/31/29 28/30/28 14/14/14 
f 14/14/14 16/16/16 29/31/29 
f 30/32/30 29/31/29 16/16/16 
f 16/16/16 18/18/18 30/32/30 
f 31/33/31 30/32/30 18/18/18 
f 18/18/18 20/20/20 31/33/31 
f 32/34/32 33/35/33 23/23/23 
f 23/23/23 22/22/22 32/34/32 
f 26/28/26 32/34/32 22/22/22 
f 22/22/22 3/3/3 26/28/26 
f 33/35/33 31/33/31 20/20/20 
f 20/20/20 23/23/23 33/35/33 
f 34/36/34 35/37/35 36/38/36 
f 37/39/37 38/40/38 34/36/34 
f 34/36/34 39/41/39 37/39/37 
f 40/42/40 37/39/37 39/41/39 
f 39/41/39 41/43/41 40/42/40 
f 42/44/42 43/45/43 44/46/44 
f 44/46/44 45/47/45 42/44/42 
f 46/48/46 42/44/42 45/47/45 
f 45/47/45 47/49/47 46/48/46 
f 48/50/48 49/51/49 46/48/46 
f 50/52/50 49/51/49 48/50/48 
f 48/50/48 51/53/51 50/52/50 
f 52/54/52 50/52/50 51/53/51 
f 51/53/51 53/55/53 52/54/52 
f 54/56/54 55/57/55 56/58/56 
f 56/58/56 57/59/57 54/56/54 
f 36/38/36 35/37/35 57/59/57 
f 43/45/43 40/60/40 41/61/41 
f 41/61/41 44/46/44 43/45/43 
f 55/57/55 52/54/52 53/55/53 
f 53/55/53 56/58/56 55/57/55 
f 58/62/58 59/63/59 60/64/60 
f 60/64/60 61/65/61 58/62/58 
f 62/66/62 58/62/58 61/65/61 
f 61/65/61 63/67/63 62/66/62 
f 64/68/64 62/66/62 63/67/63 
f 63/67/63 65/69/65 64/68/64 
f 66/70/66 67/71/67 68/72/68 
f 68/72/68 69/73/69 66/70/66 
f 70/74/70 66/70/66 69/73/69 
f 69/73/69 71/75/71 70/74/70 
f 72/76/72 70/74/70 71/75/71 
f 71/75/71 73/77/73 72/76/72 
f 74/78/74 72/76/72 73/77/73 
f 73/77/73 75/79/75 74/78/74 
f 76/80/76 74/78/74 75/79/75 
f 75/79/75 77/81/77 76/80/76 
f 78/82/78 79/83/79 80/84/80 
f 80/84/80 81/85/81 78/82/78 
f 59/63/59 78/82/78 81/85/81 
f 81/85/81 60/64/60 59/63/59 
f 67/71/67 64/86/64 65/87/65 
f 65/87/65 68/72/68 67/71/67 
f 79/83/79 76/80/76 77/81/77 
f 77/81/77 80/84/80 79/83/79 
f 82/88/82 69/73/69 68/72/68 
f 71/75/71 69/73/69 82/88/82 
f 83/89/83 73/77/73 71/75/71 
f 75/79/75 73/77/73 83/89/83 
f 83/89/83 84/90/84 75/79/75 
f 77/81/77 75/79/75 84/90/84 
f 61/65/61 60/64/60 85/91/85 
f 85/91/85 86/92/86 61/65/61 
f 38/40/38 85/91/85 35/37/35 
f 26/28/26 25/27/25 87/93/87 
f 87/93/87 88/94/88 26/28/26 
f 88/94/88 87/93/87 34/36/34 
f 34/36/34 36/38/36 88/94/88 
f 63/67/63 61/65/61 86/92/86 
f 86/92/86 89/95/89 63/67/63 
f 89/95/89 86/92/86 38/40/38 
f 38/40/38 37/39/37 89/95/89 
f 25/27/25 6/6/6 39/41/39 
f 39/41/39 87/93/87 25/27/25 
f 34/36/34 87/93/87 39/41/39 
f 65/69/65 63/67/63 89/95/89 
f 89/95/89 90/96/90 65/69/65 
f 90/96/90 89/95/89 37/39/37 
f 37/39/37 40/42/40 90/96/90 
f 6/6/6 8/8/8 41/43/41 
f 41/43/41 39/41/39 6/6/6 
f 82/88/82 68/72/68 91/97/91 
f 91/97/91 92/98/92 82/88/82 
f 92/98/92 91/97/91 43/45/43 
f 43/45/43 42/44/42 92/98/92 
f 11/11/11 27/29/27 93/99/93 
f 93/99/93 44/46/44 11/11/11 
f 44/46/44 93/99/93 45/47/45 
f 71/75/71 82/88/82 92/98/92 
f 92/98/92 94/100/94 71/75/71 
f 94/100/94 92/98/92 42/44/42 
f 42/44/42 46/48/46 94/100/94 
f 27/29/27 28/30/28 95/101/95 
f 95/101/95 93/99/93 27/29/27 
f 93/99/93 95/101/95 47/49/47 
f 47/49/47 45/47/45 93/99/93 
f 83/89/83 71/75/71 94/100/94 
f 96/102/96 83/89/83 94/100/94 
f 97/103/97 96/102/96 94/100/94 
f 97/103/97 94/100/94 46/48/46 
f 46/48/46 49/51/49 97/103/97 
f 95/101/95 98/104/98 48/50/48 
f 99/105/99 100/106/100 96/102/96 
f 101/107/101 97/103/97 49/51/49 
f 49/51/49 50/52/50 101/107/101 
f 98/104/98 102/108/102 103/109/103 
f 103/109/103 104/110/104 98/104/98 
f 98/104/98 104/110/104 51/53/51 
f 51/53/51 48/50/48 98/104/98 
f 105/111/105 100/106/100 99/105/99 
f 99/105/99 106/112/106 105/111/105 
f 107/113/107 101/107/101 50/52/50 
f 50/52/50 52/54/52 107/113/107 
f 103/109/103 108/114/108 109/115/109 
f 109/115/109 104/110/104 103/109/103 
f 104/110/104 109/115/109 53/55/53 
f 53/55/53 51/53/51 104/110/104 
f 110/116/110 111/117/111 112/118/112 
f 113/119/113 114/120/114 55/57/55 
f 55/57/55 54/56/54 113/119/113 
f 33/35/33 32/34/32 115/121/115 
f 115/121/115 116/122/116 33/35/33 
f 116/122/116 115/121/115 57/59/57 
f 57/59/57 56/58/56 116/122/116 
f 85/91/85 110/116/110 113/119/113 
f 85/91/85 113/119/113 54/56/54 
f 54/56/54 35/37/35 85/91/85 
f 32/34/32 26/28/26 88/94/88 
f 88/94/88 115/121/115 32/34/32 
f 115/121/115 88/94/88 36/38/36 
f 36/38/36 57/59/57 115/121/115 
f 68/72/68 65/87/65 90/123/90 
f 90/123/90 91/97/91 68/72/68 
f 91/97/91 90/123/90 40/60/40 
f 40/60/40 43/45/43 91/97/91 
f 8/25/8 11/11/11 44/46/44 
f 44/46/44 41/61/41 8/25/8 
f 112/118/112 111/117/111 105/111/105 
f 105/111/105 106/112/106 112/118/112 
f 114/120/114 107/113/107 52/54/52 
f 52/54/52 55/57/55 114/120/114 
f 109/115/109 108/114/108 116/122/116 
f 109/115/109 116/122/116 56/58/56 
f 56/58/56 53/55/53 109/115/109 
f 35/37/35 54/56/54 57/59/57 
f 34/36/34 38/40/38 35/37/35 
f 38/40/38 86/92/86 85/91/85 
f 102/108/102 98/104/98 117/124/117 
f 103/109/103 118/125/118 108/114/108 
f 29/31/29 30/32/30 119/126/119 
f 30/32/30 31/33/31 108/114/108 
f 108/114/108 119/126/119 30/32/30 
f 29/31/29 119/126/119 118/125/118 
f 118/125/118 117/124/117 29/31/29 
f 118/125/118 119/126/119 108/114/108 
f 118/125/118 103/109/103 102/108/102 
f 102/108/102 117/124/117 118/125/118 
f 95/101/95 28/30/28 117/124/117 
f 98/104/98 95/101/95 117/124/117 
f 28/30/28 29/31/29 117/124/117 
f 46/48/46 47/49/47 48/50/48 
f 48/50/48 47/49/47 95/101/95 
f 110/116/110 81/85/81 80/84/80 
f 80/84/80 111/117/111 110/116/110 
f 111/117/111 80/84/80 77/81/77 
f 77/81/77 105/111/105 111/117/111 
f 77/81/77 84/90/84 100/106/100 
f 100/106/100 105/111/105 77/81/77 
f 100/106/100 84/90/84 83/89/83 
f 83/89/83 96/102/96 100/106/100 
f 97/103/97 101/107/101 99/105/99 
f 99/105/99 96/102/96 97/103/97 
f 101/107/101 107/113/107 106/112/106 
f 106/112/106 99/105/99 101/107/101 
f 106/112/106 107/113/107 114/120/114 
f 114/120/114 112/118/112 106/112/106 
f 112/118/112 114/120/114 113/119/113 
f 113/119/113 110/116/110 112/118/112 
f 60/64/60 81/85/81 110/116/110 
f 85/91/85 60/64/60 110/116/110 
f 108/114/108 33/35/33 116/122/116 
f 108/114/108 31/33/31 33/35/33 
# 214 faces

