# 3ds Max Wavefront OBJ Exporter v0.97b - (c)2007 guruware
# File Created: 28.01.2019 21:50:29

#
# object SM_Decals_02_Leaks_02
#

v  149.9990 88.2229 -0.0000
v  -149.9990 88.2230 -0.0000
v  -149.9990 2.2421 -0.0000
v  -13.6474 -88.2230 0.0000
v  149.9990 -88.2230 0.0000
# 5 vertices

vn 0.0000 0.0000 1.0000
# 1 vertex normals

vt 0.4998 1.0000 0.0000
vt 0.0000 1.0000 0.0000
vt 0.0000 0.7091 0.0000
vt 0.2307 0.4030 0.0000
vt 0.4998 0.4030 0.0000
# 5 texture coords

g SM_Decals_02_Leaks_02
s 1
f 1/1/1 2/2/1 3/3/1 
f 3/3/1 4/4/1 1/1/1 
f 4/4/1 5/5/1 1/1/1 
# 3 faces

