# 3ds Max Wavefront OBJ Exporter v0.97b - (c)2007 guruware
# File Created: 25.01.2019 02:35:46

#
# object SM_Decals_02_Leaks_01
#

v  149.9990 92.2576 -0.0000
v  -149.9990 92.2576 -0.0000
v  -149.9990 -92.2576 -0.0000
v  149.9990 -92.2576 -0.0000
# 4 vertices

vn 0.0000 0.0000 1.0000
# 1 vertex normals

vt 1.0000 1.0000 0.0000
vt 0.5005 1.0000 0.0000
vt 0.5005 0.4043 0.0000
vt 1.0000 0.4043 0.0000
# 4 texture coords

g SM_Decals_02_Leaks_01
s 1
f 1/1/1 2/2/1 3/3/1 
f 3/3/1 4/4/1 1/1/1 
# 2 faces

