# 3ds Max Wavefront OBJ Exporter v0.97b - (c)2007 guruware
# File Created: 24.01.2019 01:17:05

#
# object SM_Door_Frame_01
#

v  -81.6991 -130.0001 -21.7816
v  -81.7022 130.0003 -21.7771
v  -73.4659 119.9996 -21.7771
v  -73.4648 -130.0000 -21.7816
v  -65.2305 130.0001 -21.7769
v  -73.4648 -130.0000 -12.3511
v  -73.4648 -130.0000 4.9440
v  -81.6992 -130.0001 14.3745
v  -81.7022 130.0002 14.3700
v  -65.2305 130.0000 14.3699
v  -73.4669 119.9998 -12.3466
v  -65.2315 119.9998 -12.3467
v  -65.2314 -130.0000 -12.3510
v  -65.2325 119.9995 -21.7771
v  -73.4648 -130.0000 14.3745
v  -73.4659 119.9995 14.3700
v  -65.2314 -130.0000 4.9438
v  -65.2315 119.9998 4.9396
v  -73.4669 119.9998 4.9395
v  -65.2325 119.9993 14.3700
v  65.2284 119.9998 4.9403
v  65.2274 109.9991 4.9403
v  65.2274 109.9991 -13.7369
v  65.2284 119.9998 -13.7369
v  65.2294 130.0001 -21.7795
v  65.2294 130.0001 14.3709
v  65.2274 119.9998 14.3709
v  65.2274 119.9998 -21.7795
v  -65.2276 109.9990 4.9403
v  -65.2276 109.9990 -13.7369
v  -65.2286 119.9997 4.9403
v  -65.2286 119.9997 -13.7369
v  -65.2296 130.0001 14.3709
v  -65.2277 119.9997 14.3709
v  -65.2296 130.0001 -21.7795
v  -65.2277 119.9997 -21.7795
v  81.6992 -130.0000 14.3754
v  81.7020 130.0004 14.3709
v  73.4657 119.9997 14.3709
v  73.4649 -130.0000 14.3754
v  65.2303 130.0001 14.3706
v  73.4649 -130.0000 4.9449
v  73.4649 -130.0000 -12.3502
v  81.6992 -130.0000 -21.7807
v  81.7020 130.0003 -21.7762
v  65.2303 130.0000 -21.7761
v  73.4667 119.9999 4.9403
v  65.2313 119.9999 4.9405
v  65.2315 -130.0000 4.9447
v  65.2323 119.9995 14.3709
v  73.4649 -130.0000 -21.7807
v  73.4657 119.9995 -21.7762
v  65.2315 -130.0000 -12.3501
v  65.2313 119.9999 -12.3458
v  73.4667 119.9999 -12.3457
v  65.2323 119.9994 -21.7762
v  -63.0830 -23.9169 3.4744
v  -63.0830 -23.9179 -2.3651
v  -63.0830 -0.3804 -2.3651
v  -63.0830 -0.3804 3.4745
v  -65.4563 0.3029 4.0000
v  -65.4563 -24.6012 4.0039
v  -65.4563 -24.6012 -2.8906
v  -65.4563 0.3029 -2.8906
v  67.8526 92.6969 6.5334
v  66.9551 92.6969 4.9805
v  66.6856 93.2962 5.4483
v  67.3116 93.2962 6.5334
v  66.9551 92.6969 8.0863
v  66.6856 93.2962 7.6183
v  65.1622 92.6969 8.0863
v  65.4327 93.2962 7.6183
v  64.2657 92.6969 6.5334
v  64.8067 93.2962 6.5334
v  65.1622 92.6969 4.9805
v  65.4327 93.2962 5.4483
v  66.0587 93.7103 6.5334
v  67.8526 71.2563 6.5334
v  66.9551 71.2563 4.9805
v  65.1622 71.2563 4.9805
v  67.3116 70.6570 6.5334
v  66.6856 70.6570 5.4483
v  66.9551 71.2563 8.0863
v  66.6856 70.6570 7.6183
v  65.1622 71.2563 8.0863
v  65.4327 70.6570 7.6183
v  64.2657 71.2563 6.5334
v  64.8067 70.6570 6.5334
v  65.4327 70.6570 5.4483
v  66.0587 70.2429 6.5334
v  67.8526 -79.2803 6.5333
v  66.9552 -79.2803 4.9805
v  66.6856 -78.6809 5.4482
v  67.3116 -78.6809 6.5333
v  66.9552 -79.2803 8.0863
v  66.6856 -78.6809 7.6183
v  65.1622 -79.2803 8.0863
v  65.4327 -78.6809 7.6183
v  64.2657 -79.2803 6.5333
v  64.8067 -78.6809 6.5333
v  65.1622 -79.2803 4.9805
v  65.4327 -78.6809 5.4482
v  66.0587 -78.2668 6.5333
v  67.8526 -100.7208 6.5333
v  66.9552 -100.7208 4.9805
v  65.1622 -100.7208 4.9805
v  67.3116 -101.3202 6.5333
v  66.6856 -101.3202 5.4482
v  66.9552 -100.7208 8.0863
v  66.6856 -101.3202 7.6183
v  65.1622 -100.7208 8.0863
v  65.4327 -101.3202 7.6183
v  64.2657 -100.7208 6.5333
v  64.8067 -101.3202 6.5333
v  65.4327 -101.3202 5.4482
v  66.0587 -101.7343 6.5333
# 116 vertices

vn 0.0000 -0.0000 -1.0000
vn 0.0000 -1.0000 0.0000
vn -0.0000 1.0000 -0.0000
vn -1.0000 -0.0000 0.0000
vn 1.0000 0.0000 0.0000
vn 1.0000 0.0000 0.0001
vn 1.0000 -0.0002 -0.0001
vn -0.0000 0.0000 1.0000
vn 1.0000 -0.0001 0.0000
vn 1.0000 0.0000 -0.0001
vn 0.0000 -1.0000 -0.0001
vn 1.0000 -0.0002 0.0001
vn 1.0000 -0.0001 -0.0001
vn -1.0000 -0.0001 0.0000
vn -1.0000 -0.0001 -0.0001
vn -1.0000 -0.0002 0.0001
vn -1.0000 -0.0002 -0.0001
vn -1.0000 -0.0000 -0.0001
vn -1.0000 -0.0000 0.0001
vn 0.0000 -1.0000 0.0001
vn 0.7044 -0.4890 0.5145
vn 0.7040 -0.4892 -0.5149
vn 0.7039 0.4892 -0.5150
vn 0.7039 0.4892 0.5150
vn 0.3395 0.6758 0.6542
vn 0.3406 -0.6753 0.6542
vn 0.3395 -0.6759 -0.6542
vn 0.3395 0.6759 -0.6542
vn 0.7427 0.6696 -0.0000
vn 0.3712 0.6695 -0.6434
vn 0.3002 0.7998 -0.5198
vn 0.6002 0.7999 -0.0000
vn 0.3712 0.6696 0.6433
vn 0.3002 0.7998 0.5197
vn -0.3713 0.6698 0.6430
vn -0.3000 0.7999 0.5197
vn -0.7425 0.6699 -0.0000
vn -0.6001 0.8000 -0.0000
vn -0.3714 0.6697 -0.6431
vn -0.3000 0.7999 -0.5198
vn -0.0001 1.0000 0.0000
vn 0.4998 0.0000 -0.8661
vn 1.0000 0.0000 -0.0000
vn -0.5000 -0.0000 -0.8660
vn 0.7427 -0.6696 -0.0000
vn 0.6002 -0.7999 -0.0000
vn 0.3002 -0.7998 -0.5198
vn 0.3712 -0.6695 -0.6434
vn 0.3712 -0.6696 0.6433
vn 0.3002 -0.7998 0.5197
vn -0.3713 -0.6698 0.6430
vn -0.3000 -0.7999 0.5197
vn -0.7425 -0.6699 -0.0000
vn -0.6001 -0.8000 -0.0000
vn -0.3714 -0.6697 -0.6431
vn -0.3000 -0.7999 -0.5198
vn -0.0001 -1.0000 0.0000
vn 0.4998 0.0000 0.8661
vn -0.5000 -0.0000 0.8660
vn -1.0000 -0.0000 -0.0000
# 60 vertex normals

vt 0.5882 0.9861 0.0000
vt 0.2238 0.9861 0.0000
vt 0.2378 0.9745 0.0000
vt 0.5882 0.9745 0.0000
vt 0.2238 0.9630 0.0000
vt 0.8492 0.8551 0.0000
vt 0.8492 0.8732 0.0000
vt 0.8406 0.8831 0.0000
vt 0.8406 0.8453 0.0000
vt 0.8057 0.9784 0.0000
vt 0.8057 0.9611 0.0000
vt 0.8435 0.9611 0.0000
vt 0.8435 0.9784 0.0000
vt 0.4958 0.6665 0.0000
vt 0.2238 0.6665 0.0000
vt 0.2238 0.6287 0.0000
vt 0.4958 0.6287 0.0000
vt 0.9159 0.0025 0.0000
vt 0.9291 0.0025 0.0000
vt 0.9291 0.3529 0.0000
vt 0.9159 0.3529 0.0000
vt 0.3529 0.5743 0.0000
vt 0.0025 0.5743 0.0000
vt 0.0025 0.5628 0.0000
vt 0.3529 0.5628 0.0000
vt 0.2378 0.9630 0.0000
vt 0.7994 0.7106 0.0000
vt 0.7895 0.7106 0.0000
vt 0.7895 0.7020 0.0000
vt 0.7994 0.7020 0.0000
vt 0.8273 0.6997 0.0000
vt 0.8175 0.6893 0.0000
vt 0.8273 0.6893 0.0000
vt 0.8492 0.8453 0.0000
vt 0.5882 0.7511 0.0000
vt 0.5882 0.7627 0.0000
vt 0.2378 0.7627 0.0000
vt 0.2238 0.7511 0.0000
vt 0.2238 0.7742 0.0000
vt 0.7994 0.4277 0.0000
vt 0.8175 0.4277 0.0000
vt 0.7994 0.6893 0.0000
vt 0.7895 0.6997 0.0000
vt 0.9479 0.0025 0.0000
vt 0.9480 0.3529 0.0000
vt 0.9347 0.3529 0.0000
vt 0.9347 0.0025 0.0000
vt 0.2238 0.7391 0.0000
vt 0.2238 0.7276 0.0000
vt 0.5742 0.7276 0.0000
vt 0.5742 0.7391 0.0000
vt 0.2378 0.7742 0.0000
vt 0.8017 0.7106 0.0000
vt 0.8017 0.7020 0.0000
vt 0.8115 0.7020 0.0000
vt 0.8115 0.7106 0.0000
vt 0.7895 0.6893 0.0000
vt 0.8492 0.8831 0.0000
vt 0.8578 0.8551 0.0000
vt 0.8578 0.8732 0.0000
vt 0.6056 0.7239 0.0000
vt 0.6056 0.7134 0.0000
vt 0.6251 0.7134 0.0000
vt 0.6251 0.7239 0.0000
vt 0.6336 0.7344 0.0000
vt 0.5957 0.7344 0.0000
vt 0.5957 0.7239 0.0000
vt 0.6336 0.7239 0.0000
vt 0.8076 0.3940 0.0000
vt 0.8076 0.3745 0.0000
vt 0.9441 0.3745 0.0000
vt 0.9441 0.3940 0.0000
vt 0.6237 0.5544 0.0000
vt 0.6042 0.5544 0.0000
vt 0.6042 0.5439 0.0000
vt 0.6237 0.5439 0.0000
vt 0.6324 0.2216 0.0000
vt 0.6184 0.2216 0.0000
vt 0.6184 0.0387 0.0000
vt 0.6324 0.0387 0.0000
vt 0.6336 0.5649 0.0000
vt 0.5957 0.5649 0.0000
vt 0.9536 0.5910 0.0000
vt 0.9914 0.5910 0.0000
vt 0.9914 0.7275 0.0000
vt 0.9536 0.7275 0.0000
vt 0.6487 0.0387 0.0000
vt 0.6487 0.2216 0.0000
vt 0.6347 0.2216 0.0000
vt 0.6347 0.0387 0.0000
vt 0.6336 0.5544 0.0000
vt 0.5957 0.5544 0.0000
vt 0.6431 0.2238 0.0000
vt 0.6431 0.3603 0.0000
vt 0.6347 0.3603 0.0000
vt 0.6347 0.2238 0.0000
vt 0.9858 0.7840 0.0000
vt 0.8029 0.7840 0.0000
vt 0.8029 0.7699 0.0000
vt 0.9858 0.7699 0.0000
vt 0.6184 0.3603 0.0000
vt 0.6184 0.2239 0.0000
vt 0.6283 0.2238 0.0000
vt 0.6283 0.3603 0.0000
vt 0.9858 0.7511 0.0000
vt 0.9858 0.7651 0.0000
vt 0.8029 0.7651 0.0000
vt 0.8029 0.7511 0.0000
vt 0.3695 0.5863 0.0000
vt 0.3695 0.5670 0.0000
vt 0.4470 0.5670 0.0000
vt 0.4470 0.5863 0.0000
vt 0.4492 0.5905 0.0000
vt 0.3673 0.5905 0.0000
vt 0.3650 0.5880 0.0000
vt 0.3650 0.5653 0.0000
vt 0.3673 0.5628 0.0000
vt 0.4492 0.5628 0.0000
vt 0.4515 0.5653 0.0000
vt 0.4515 0.5880 0.0000
vt 0.5308 0.6597 0.0000
vt 0.5297 0.6579 0.0000
vt 0.5306 0.6579 0.0000
vt 0.5312 0.6590 0.0000
vt 0.5330 0.6597 0.0000
vt 0.5326 0.6590 0.0000
vt 0.5341 0.6579 0.0000
vt 0.5333 0.6579 0.0000
vt 0.5330 0.6560 0.0000
vt 0.5326 0.6567 0.0000
vt 0.5308 0.6560 0.0000
vt 0.5312 0.6567 0.0000
vt 0.5319 0.6579 0.0000
vt 0.5992 0.5123 0.0000
vt 0.5973 0.5123 0.0000
vt 0.5973 0.4899 0.0000
vt 0.5992 0.4899 0.0000
vt 0.6010 0.5123 0.0000
vt 0.6010 0.4899 0.0000
vt 0.5242 0.6597 0.0000
vt 0.5246 0.6590 0.0000
vt 0.5259 0.6590 0.0000
vt 0.5264 0.6597 0.0000
vt 0.5231 0.6579 0.0000
vt 0.5239 0.6579 0.0000
vt 0.5242 0.6560 0.0000
vt 0.5246 0.6567 0.0000
vt 0.5264 0.6560 0.0000
vt 0.5259 0.6567 0.0000
vt 0.5275 0.6579 0.0000
vt 0.5266 0.6579 0.0000
vt 0.5253 0.6579 0.0000
vt 0.5954 0.5123 0.0000
vt 0.5954 0.4899 0.0000
vt 0.6067 0.4899 0.0000
vt 0.6067 0.5123 0.0000
vt 0.6048 0.5123 0.0000
vt 0.6048 0.4899 0.0000
vt 0.6029 0.5123 0.0000
vt 0.6029 0.4899 0.0000
# 160 texture coords

g SM_Door_Frame_01
s 4
f 1/1/1 2/2/1 3/3/1 
f 3/3/1 4/4/1 1/1/1 
f 5/5/1 3/3/1 2/2/1 
s 1
f 6/6/2 7/7/2 8/8/2 
f 8/8/2 1/9/2 6/6/2 
f 9/10/3 10/11/3 5/12/3 
f 5/12/3 2/13/3 9/10/3 
s 2
f 8/14/4 9/15/4 2/16/4 
f 2/16/4 1/17/4 8/14/4 
s off
f 6/18/5 4/19/5 3/20/5 
f 3/20/6 11/21/6 6/18/6 
f 12/22/1 13/23/1 6/24/1 
f 6/24/1 11/25/1 12/22/1 
f 3/3/1 5/5/1 14/26/1 
f 14/27/2 12/28/2 11/29/2 
f 11/29/2 3/30/2 14/27/2 
f 5/31/7 12/32/7 14/33/7 
s 1
f 6/6/2 1/9/2 4/34/2 
s 4
f 8/35/8 15/36/8 16/37/8 
f 16/37/8 9/38/8 8/35/8 
f 10/39/8 9/38/8 16/37/8 
s 2
f 17/40/5 13/41/5 12/32/9 
f 12/32/9 18/42/9 17/40/5 
f 10/43/9 18/42/9 12/32/9 
f 12/32/9 5/31/9 10/43/9 
s off
f 7/44/10 19/45/10 16/46/10 
f 16/46/5 15/47/5 7/44/5 
f 18/48/8 19/49/8 7/50/8 
f 7/50/8 17/51/8 18/48/8 
f 16/37/8 20/52/8 10/39/8 
f 20/53/2 16/54/2 19/55/2 
f 19/55/11 18/56/11 20/53/11 
f 10/43/12 20/57/12 18/42/12 
s 1
f 7/7/2 15/58/2 8/8/2 
f 6/6/2 13/59/2 17/60/2 
f 17/60/2 7/7/2 6/6/2 
s 4
f 21/61/9 22/62/9 23/63/9 
f 23/63/9 24/64/9 21/61/9 
f 21/61/9 24/64/9 25/65/13 
f 25/65/13 26/66/9 21/61/9 
f 26/66/9 27/67/12 21/61/9 
f 24/64/9 28/68/7 25/65/13 
s 1
f 29/69/2 30/70/2 23/71/2 
f 23/71/2 22/72/2 29/69/2 
s 4
f 31/73/14 32/74/14 30/75/14 
f 30/75/14 29/76/14 31/73/14 
s 2
f 27/77/8 26/78/8 33/79/8 
f 33/79/8 34/80/8 27/77/8 
s 4
f 31/73/14 33/81/14 35/82/15 
f 35/82/15 32/74/14 31/73/14 
s 1
f 26/83/3 25/84/3 35/85/3 
f 35/85/3 33/86/3 26/83/3 
s 2
f 28/87/1 36/88/1 35/89/1 
f 35/89/1 25/90/1 28/87/1 
s 4
f 33/81/14 31/73/14 34/91/16 
f 32/74/14 35/82/15 36/92/17 
s off
f 36/93/2 28/94/2 24/95/2 
f 24/95/2 32/96/2 36/93/2 
f 32/97/1 24/98/1 23/99/1 
f 23/99/1 30/100/1 32/97/1 
f 27/101/2 34/102/2 31/103/2 
f 31/103/2 21/104/2 27/101/2 
f 22/105/8 21/106/8 31/107/8 
f 31/107/8 29/108/8 22/105/8 
s 4
f 37/1/8 38/2/8 39/3/8 
f 39/3/8 40/4/8 37/1/8 
f 41/5/8 39/3/8 38/2/8 
s 1
f 42/6/2 43/7/2 44/8/2 
f 44/8/2 37/9/2 42/6/2 
f 45/10/3 46/11/3 41/12/3 
f 41/12/3 38/13/3 45/10/3 
s 2
f 44/14/5 45/15/5 38/16/5 
f 38/16/5 37/17/5 44/14/5 
s off
f 42/18/4 40/19/4 39/20/4 
f 39/20/18 47/21/18 42/18/18 
f 48/22/8 49/23/8 42/24/8 
f 42/24/8 47/25/8 48/22/8 
f 39/3/8 41/5/8 50/26/8 
f 50/27/2 48/28/2 47/29/2 
f 47/29/2 39/30/2 50/27/2 
f 41/31/16 48/32/16 50/33/16 
s 1
f 42/6/2 37/9/2 40/34/2 
s 4
f 44/35/1 51/36/1 52/37/1 
f 52/37/1 45/38/1 44/35/1 
f 46/39/1 45/38/1 52/37/1 
s 2
f 53/40/4 49/41/4 48/32/14 
f 48/32/14 54/42/14 53/40/4 
f 46/43/14 54/42/14 48/32/14 
f 48/32/14 41/31/14 46/43/14 
s off
f 43/44/19 55/45/19 52/46/19 
f 52/46/4 51/47/4 43/44/4 
f 54/48/1 55/49/1 43/50/1 
f 43/50/1 53/51/1 54/48/1 
f 52/37/1 56/52/1 46/39/1 
f 56/53/2 52/54/2 55/55/2 
f 55/55/20 54/56/20 56/53/20 
f 46/43/17 56/57/17 54/42/17 
s 1
f 43/7/2 51/58/2 44/8/2 
f 42/6/2 49/59/2 53/60/2 
f 53/60/2 43/7/2 42/6/2 
f 57/109/21 58/110/22 59/111/23 
f 59/111/23 60/112/24 57/109/21 
f 61/113/25 62/114/26 57/109/21 
f 57/109/21 60/112/24 61/113/25 
f 62/115/26 63/116/27 58/110/22 
f 58/110/22 57/109/21 62/115/26 
f 63/117/27 64/118/28 59/111/23 
f 59/111/23 58/110/22 63/117/27 
f 64/119/28 61/120/25 60/112/24 
f 60/112/24 59/111/23 64/119/28 
s 2
f 65/121/29 66/122/30 67/123/31 
f 67/123/31 68/124/32 65/121/29 
f 69/125/33 65/121/29 68/124/32 
f 68/124/32 70/126/34 69/125/33 
f 71/127/35 69/125/33 70/126/34 
f 70/126/34 72/128/36 71/127/35 
f 73/129/37 71/127/35 72/128/36 
f 72/128/36 74/130/38 73/129/37 
f 75/131/39 73/129/37 74/130/38 
f 74/130/38 76/132/40 75/131/39 
f 66/122/30 75/131/39 76/132/40 
f 76/132/40 67/123/31 66/122/30 
f 68/124/32 67/123/31 77/133/41 
f 70/126/34 68/124/32 77/133/41 
f 72/128/36 70/126/34 77/133/41 
f 74/130/38 72/128/36 77/133/41 
f 76/132/40 74/130/38 77/133/41 
f 67/123/31 76/132/40 77/133/41 
s 1
f 66/134/42 65/135/43 78/136/43 
f 78/136/43 79/137/42 66/134/42 
f 75/138/44 66/134/42 79/137/42 
f 79/137/42 80/139/44 75/138/44 
s 2
f 78/140/45 81/141/46 82/142/47 
f 82/142/47 79/143/48 78/140/45 
f 83/144/49 84/145/50 81/141/46 
f 81/141/46 78/140/45 83/144/49 
f 85/146/51 86/147/52 84/145/50 
f 84/145/50 83/144/49 85/146/51 
f 87/148/53 88/149/54 86/147/52 
f 86/147/52 85/146/51 87/148/53 
f 80/150/55 89/151/56 88/149/54 
f 88/149/54 87/148/53 80/150/55 
f 79/143/48 82/142/47 89/151/56 
f 89/151/56 80/150/55 79/143/48 
f 81/141/46 90/152/57 82/142/47 
f 84/145/50 90/152/57 81/141/46 
f 86/147/52 90/152/57 84/145/50 
f 88/149/54 90/152/57 86/147/52 
f 89/151/56 90/152/57 88/149/54 
f 82/142/47 90/152/57 89/151/56 
s 1
f 78/136/43 65/135/43 69/153/58 
f 69/153/58 83/154/58 78/136/43 
f 83/155/58 69/156/58 71/157/59 
f 71/157/59 85/158/59 83/155/58 
f 85/158/59 71/157/59 73/159/60 
f 73/159/60 87/160/60 85/158/59 
f 73/159/60 75/138/44 80/139/44 
f 80/139/44 87/160/60 73/159/60 
s 2
f 91/121/29 92/122/30 93/123/31 
f 93/123/31 94/124/32 91/121/29 
f 95/125/33 91/121/29 94/124/32 
f 94/124/32 96/126/34 95/125/33 
f 97/127/35 95/125/33 96/126/34 
f 96/126/34 98/128/36 97/127/35 
f 99/129/37 97/127/35 98/128/36 
f 98/128/36 100/130/38 99/129/37 
f 101/131/39 99/129/37 100/130/38 
f 100/130/38 102/132/40 101/131/39 
f 92/122/30 101/131/39 102/132/40 
f 102/132/40 93/123/31 92/122/30 
f 94/124/32 93/123/31 103/133/41 
f 96/126/34 94/124/32 103/133/41 
f 98/128/36 96/126/34 103/133/41 
f 100/130/38 98/128/36 103/133/41 
f 102/132/40 100/130/38 103/133/41 
f 93/123/31 102/132/40 103/133/41 
s 1
f 92/134/42 91/135/43 104/136/43 
f 104/136/43 105/137/42 92/134/42 
f 101/138/44 92/134/42 105/137/42 
f 105/137/42 106/139/44 101/138/44 
s 2
f 104/140/45 107/141/46 108/142/47 
f 108/142/47 105/143/48 104/140/45 
f 109/144/49 110/145/50 107/141/46 
f 107/141/46 104/140/45 109/144/49 
f 111/146/51 112/147/52 110/145/50 
f 110/145/50 109/144/49 111/146/51 
f 113/148/53 114/149/54 112/147/52 
f 112/147/52 111/146/51 113/148/53 
f 106/150/55 115/151/56 114/149/54 
f 114/149/54 113/148/53 106/150/55 
f 105/143/48 108/142/47 115/151/56 
f 115/151/56 106/150/55 105/143/48 
f 107/141/46 116/152/57 108/142/47 
f 110/145/50 116/152/57 107/141/46 
f 112/147/52 116/152/57 110/145/50 
f 114/149/54 116/152/57 112/147/52 
f 115/151/56 116/152/57 114/149/54 
f 108/142/47 116/152/57 115/151/56 
s 1
f 104/136/43 91/135/43 95/153/58 
f 95/153/58 109/154/58 104/136/43 
f 109/155/58 95/156/58 97/157/59 
f 97/157/59 111/158/59 109/155/58 
f 111/158/59 97/157/59 99/159/60 
f 99/159/60 113/160/60 111/158/59 
f 99/159/60 101/138/44 106/139/44 
f 106/139/44 113/160/60 99/159/60 
# 206 faces

