# 3ds Max Wavefront OBJ Exporter v0.97b - (c)2007 guruware
# File Created: 24.01.2019 01:33:39

#
# object SM_Door_Frame_02
#

v  65.2188 109.9986 18.0732
v  -65.2246 109.9987 18.0736
v  -65.2236 109.9987 -18.0773
v  65.2188 109.9986 -18.0771
v  -65.2217 129.9998 18.0728
v  65.2207 129.9997 18.0732
v  65.2217 129.9997 -18.0773
v  -65.2217 129.9998 -18.0781
v  -65.2207 130.0001 -18.0776
v  -65.2227 -130.0001 -18.0728
v  -81.6895 -130.0001 -18.0732
v  -81.6895 130.0002 -18.0775
v  -81.6914 130.0004 18.0734
v  -81.6914 -130.0001 18.0777
v  -65.2236 -130.0001 18.0779
v  -65.2217 130.0002 18.0732
v  65.2206 130.0001 18.0782
v  65.2226 -130.0001 18.0735
v  81.6894 -130.0001 18.0738
v  81.6894 130.0002 18.0780
v  81.6914 130.0004 -18.0728
v  81.6914 -130.0001 -18.0771
v  65.2236 -130.0001 -18.0773
v  65.2216 130.0002 -18.0727
v  65.2363 10.0676 4.5745
v  65.2363 10.0676 6.3990
v  65.2363 -29.3779 6.3988
v  65.2363 -29.3779 4.5744
v  63.6592 10.0676 3.6624
v  63.6592 -29.3779 3.6621
v  62.0811 10.0676 4.5745
v  62.0811 -29.3779 4.5744
v  62.0811 10.0676 6.3990
v  62.0811 -29.3779 6.3988
v  63.6592 10.0676 7.3112
v  63.6592 -29.3779 7.3107
v  64.8818 10.6319 4.7790
v  64.8818 10.6319 6.1930
v  63.6592 10.6319 4.0721
v  62.4385 10.6319 4.7790
v  62.4385 10.6319 6.1930
v  63.6592 10.6319 6.9001
v  63.6602 10.6319 5.4853
v  63.6602 -29.3781 5.4861
v  65.2363 98.9784 4.5745
v  65.2363 98.9784 6.3989
v  65.2363 59.5330 6.3988
v  65.2363 59.5330 4.5744
v  63.6592 98.9784 3.6624
v  63.6592 59.5330 3.6621
v  62.0811 98.9784 4.5745
v  62.0811 59.5330 4.5744
v  62.0811 98.9784 6.3989
v  62.0811 59.5330 6.3988
v  63.6592 98.9784 7.3112
v  63.6592 59.5330 7.3107
v  64.8818 99.5428 4.7789
v  64.8818 99.5428 6.1930
v  63.6592 99.5428 4.0720
v  62.4385 99.5428 4.7789
v  62.4385 99.5428 6.1930
v  63.6592 99.5428 6.9000
v  63.6602 99.5428 5.4852
v  63.6602 59.5328 5.4861
v  65.2363 -78.0107 4.5745
v  65.2363 -78.0107 6.3990
v  65.2363 -117.4561 6.3989
v  65.2363 -117.4561 4.5744
v  63.6592 -78.0107 3.6624
v  63.6592 -117.4561 3.6622
v  62.0811 -78.0107 4.5745
v  62.0811 -117.4561 4.5744
v  62.0811 -78.0107 6.3990
v  62.0811 -117.4561 6.3989
v  63.6592 -78.0107 7.3112
v  63.6592 -117.4561 7.3107
v  64.8818 -77.4464 4.7790
v  64.8818 -77.4464 6.1930
v  63.6592 -77.4464 4.0721
v  62.4385 -77.4464 4.7790
v  62.4385 -77.4464 6.1930
v  63.6592 -77.4464 6.9001
v  63.6602 -77.4464 5.4853
v  63.6602 -117.4564 5.4861
# 84 vertices

vn 0.0000 -1.0000 0.0000
vn 0.0000 1.0000 -0.0000
vn -1.0000 0.0001 -0.0000
vn 1.0000 -0.0001 0.0000
vn 0.0000 0.0000 1.0000
vn 0.0000 -0.0000 -1.0000
vn -1.0000 -0.0000 -0.0001
vn 1.0000 0.0000 0.0000
vn 1.0000 0.0000 0.0001
vn -1.0000 0.0000 0.0000
vn 0.8662 -0.0000 -0.4997
vn 0.8662 0.0000 0.4997
vn 0.0001 -0.0000 -1.0000
vn -0.8661 -0.0000 -0.4998
vn -0.8662 -0.0000 -0.4998
vn -0.8662 0.0000 0.4998
vn -0.8661 0.0000 0.4998
vn 0.0001 0.0000 1.0000
vn 0.7006 0.5877 0.4046
vn 0.7012 0.5871 -0.4045
vn 0.4828 0.8302 -0.2786
vn 0.4827 0.8305 0.2779
vn -0.0001 0.5877 -0.8091
vn -0.0002 0.8302 -0.5574
vn -0.6999 0.5894 -0.4034
vn -0.4814 0.8311 -0.2783
vn -0.6995 0.5899 0.4033
vn -0.4813 0.8315 0.2775
vn 0.0001 0.5888 0.8083
vn 0.0000 0.8308 0.5565
vn 0.0002 -1.0000 0.0000
vn 0.0001 -1.0000 -0.0001
vn -0.0001 -1.0000 -0.0001
vn -0.0002 -1.0000 0.0000
vn -0.0001 -1.0000 0.0001
vn 0.0001 -1.0000 0.0001
# 36 vertex normals

vt 0.6617 0.5721 0.0000
vt 0.6617 0.4357 0.0000
vt 0.6995 0.4357 0.0000
vt 0.6995 0.5721 0.0000
vt 0.7134 0.7134 0.0000
vt 0.7134 0.5769 0.0000
vt 0.7513 0.5769 0.0000
vt 0.7513 0.7134 0.0000
vt 0.5159 0.5957 0.0000
vt 0.5159 0.6167 0.0000
vt 0.4780 0.6167 0.0000
vt 0.4780 0.5957 0.0000
vt 0.5460 0.6100 0.0000
vt 0.5251 0.6100 0.0000
vt 0.5251 0.5722 0.0000
vt 0.5460 0.5722 0.0000
vt 0.9865 0.7888 0.0000
vt 0.9865 0.8097 0.0000
vt 0.8500 0.8097 0.0000
vt 0.8500 0.7888 0.0000
vt 0.9745 0.3509 0.0000
vt 0.9536 0.3509 0.0000
vt 0.9536 0.2144 0.0000
vt 0.9745 0.2144 0.0000
vt 0.4705 0.5294 0.0000
vt 0.1061 0.5294 0.0000
vt 0.1061 0.5063 0.0000
vt 0.4705 0.5063 0.0000
vt 0.5882 0.8684 0.0000
vt 0.2238 0.8684 0.0000
vt 0.2238 0.8453 0.0000
vt 0.5882 0.8453 0.0000
vt 0.5280 0.4627 0.0000
vt 0.5787 0.4627 0.0000
vt 0.5787 0.4858 0.0000
vt 0.5280 0.4858 0.0000
vt 0.8594 0.0025 0.0000
vt 0.9101 0.0025 0.0000
vt 0.9101 0.3669 0.0000
vt 0.8594 0.3669 0.0000
vt 0.5882 0.7841 0.0000
vt 0.5882 0.8347 0.0000
vt 0.2238 0.8347 0.0000
vt 0.2238 0.7841 0.0000
vt 0.7794 0.8311 0.0000
vt 0.8024 0.8311 0.0000
vt 0.8024 0.8818 0.0000
vt 0.7794 0.8818 0.0000
vt 0.2333 0.9525 0.0000
vt 0.2314 0.9525 0.0000
vt 0.2314 0.9112 0.0000
vt 0.2333 0.9112 0.0000
vt 0.2352 0.9525 0.0000
vt 0.2352 0.9112 0.0000
vt 0.2257 0.9525 0.0000
vt 0.2238 0.9525 0.0000
vt 0.2238 0.9112 0.0000
vt 0.2257 0.9112 0.0000
vt 0.2276 0.9525 0.0000
vt 0.2276 0.9112 0.0000
vt 0.2295 0.9525 0.0000
vt 0.2295 0.9112 0.0000
vt 0.5175 0.6560 0.0000
vt 0.5197 0.6560 0.0000
vt 0.5193 0.6566 0.0000
vt 0.5178 0.6566 0.0000
vt 0.5208 0.6579 0.0000
vt 0.5201 0.6579 0.0000
vt 0.5197 0.6598 0.0000
vt 0.5193 0.6592 0.0000
vt 0.5175 0.6598 0.0000
vt 0.5178 0.6592 0.0000
vt 0.5164 0.6579 0.0000
vt 0.5171 0.6579 0.0000
vt 0.5186 0.6579 0.0000
vt 0.6084 0.2865 0.0000
vt 0.6065 0.2865 0.0000
vt 0.6075 0.2848 0.0000
vt 0.6094 0.2848 0.0000
vt 0.6084 0.2832 0.0000
vt 0.6065 0.2832 0.0000
vt 0.6056 0.2848 0.0000
# 82 texture coords

g SM_Door_Frame_02
s 1
f 1/1/1 2/2/1 3/3/1 
f 3/3/1 4/4/1 1/1/1 
f 5/5/2 6/6/2 7/7/2 
f 7/7/2 8/8/2 5/5/2 
s 4
f 2/9/3 5/10/3 8/11/3 
f 8/11/3 3/12/3 2/9/3 
f 4/13/4 7/14/4 6/15/4 
f 6/15/4 1/16/4 4/13/4 
s 2
f 5/17/5 2/18/5 1/19/5 
f 1/19/5 6/20/5 5/17/5 
f 7/21/6 4/22/6 3/23/6 
f 3/23/6 8/24/6 7/21/6 
s 4
f 9/25/6 10/26/6 11/27/6 
f 11/27/6 12/28/6 9/25/6 
f 13/29/5 14/30/5 15/31/5 
f 15/31/5 16/32/5 13/29/5 
s 1
f 12/33/2 13/34/2 16/35/2 
f 16/35/2 9/36/2 12/33/2 
s 2
f 11/37/7 14/38/7 13/39/7 
f 13/39/7 12/40/7 11/37/7 
f 9/41/8 16/42/8 15/43/8 
f 15/43/8 10/44/8 9/41/8 
s 1
f 15/45/1 14/46/1 11/47/1 
f 11/47/1 10/48/1 15/45/1 
s 4
f 17/25/5 18/26/5 19/27/5 
f 19/27/5 20/28/5 17/25/5 
f 21/29/6 22/30/6 23/31/6 
f 23/31/6 24/32/6 21/29/6 
s 1
f 20/33/2 21/34/2 24/35/2 
f 24/35/2 17/36/2 20/33/2 
s 2
f 19/37/9 22/38/9 21/39/9 
f 21/39/9 20/40/9 19/37/9 
f 17/41/10 24/42/10 23/43/10 
f 23/43/10 18/44/10 17/41/10 
s 1
f 23/45/1 22/46/1 19/47/1 
f 19/47/1 18/48/1 23/45/1 
f 25/49/11 26/50/12 27/51/12 
f 27/51/12 28/52/11 25/49/11 
f 29/53/13 25/49/11 28/52/11 
f 28/52/11 30/54/13 29/53/13 
f 31/55/14 29/56/13 30/57/13 
f 30/57/13 32/58/15 31/55/14 
f 33/59/16 31/55/14 32/58/15 
f 32/58/15 34/60/17 33/59/16 
f 35/61/18 33/59/16 34/60/17 
f 34/60/17 36/62/18 35/61/18 
f 26/50/12 35/61/18 36/62/18 
f 36/62/18 27/51/12 26/50/12 
s 2
f 26/63/19 25/64/20 37/65/21 
f 37/65/21 38/66/22 26/63/19 
f 25/64/20 29/67/23 39/68/24 
f 39/68/24 37/65/21 25/64/20 
f 29/67/23 31/69/25 40/70/26 
f 40/70/26 39/68/24 29/67/23 
f 31/69/25 33/71/27 41/72/28 
f 41/72/28 40/70/26 31/69/25 
f 33/71/27 35/73/29 42/74/30 
f 42/74/30 41/72/28 33/71/27 
f 35/73/29 26/63/19 38/66/22 
f 38/66/22 42/74/30 35/73/29 
f 38/66/22 37/65/21 43/75/2 
f 37/65/21 39/68/24 43/75/2 
f 39/68/24 40/70/26 43/75/2 
f 40/70/26 41/72/28 43/75/2 
f 41/72/28 42/74/30 43/75/2 
f 42/74/30 38/66/22 43/75/2 
s off
f 28/76/31 27/77/31 44/78/31 
f 30/79/32 28/76/32 44/78/32 
f 32/80/33 30/79/33 44/78/33 
f 34/81/34 32/80/34 44/78/34 
f 36/82/35 34/81/35 44/78/35 
f 27/77/36 36/82/36 44/78/36 
s 1
f 45/49/11 46/50/12 47/51/12 
f 47/51/12 48/52/11 45/49/11 
f 49/53/13 45/49/11 48/52/11 
f 48/52/11 50/54/13 49/53/13 
f 51/55/14 49/56/13 50/57/13 
f 50/57/13 52/58/15 51/55/14 
f 53/59/16 51/55/14 52/58/15 
f 52/58/15 54/60/17 53/59/16 
f 55/61/18 53/59/16 54/60/17 
f 54/60/17 56/62/18 55/61/18 
f 46/50/12 55/61/18 56/62/18 
f 56/62/18 47/51/12 46/50/12 
s 2
f 46/63/19 45/64/20 57/65/21 
f 57/65/21 58/66/22 46/63/19 
f 45/64/20 49/67/23 59/68/24 
f 59/68/24 57/65/21 45/64/20 
f 49/67/23 51/69/25 60/70/26 
f 60/70/26 59/68/24 49/67/23 
f 51/69/25 53/71/27 61/72/28 
f 61/72/28 60/70/26 51/69/25 
f 53/71/27 55/73/29 62/74/30 
f 62/74/30 61/72/28 53/71/27 
f 55/73/29 46/63/19 58/66/22 
f 58/66/22 62/74/30 55/73/29 
f 58/66/22 57/65/21 63/75/2 
f 57/65/21 59/68/24 63/75/2 
f 59/68/24 60/70/26 63/75/2 
f 60/70/26 61/72/28 63/75/2 
f 61/72/28 62/74/30 63/75/2 
f 62/74/30 58/66/22 63/75/2 
s off
f 48/76/31 47/77/31 64/78/31 
f 50/79/32 48/76/32 64/78/32 
f 52/80/33 50/79/33 64/78/33 
f 54/81/34 52/80/34 64/78/34 
f 56/82/35 54/81/35 64/78/35 
f 47/77/36 56/82/36 64/78/36 
s 1
f 65/49/11 66/50/12 67/51/12 
f 67/51/12 68/52/11 65/49/11 
f 69/53/13 65/49/11 68/52/11 
f 68/52/11 70/54/13 69/53/13 
f 71/55/14 69/56/13 70/57/13 
f 70/57/13 72/58/15 71/55/14 
f 73/59/16 71/55/14 72/58/15 
f 72/58/15 74/60/17 73/59/16 
f 75/61/18 73/59/16 74/60/17 
f 74/60/17 76/62/18 75/61/18 
f 66/50/12 75/61/18 76/62/18 
f 76/62/18 67/51/12 66/50/12 
s 2
f 66/63/19 65/64/20 77/65/21 
f 77/65/21 78/66/22 66/63/19 
f 65/64/20 69/67/23 79/68/24 
f 79/68/24 77/65/21 65/64/20 
f 69/67/23 71/69/25 80/70/26 
f 80/70/26 79/68/24 69/67/23 
f 71/69/25 73/71/27 81/72/28 
f 81/72/28 80/70/26 71/69/25 
f 73/71/27 75/73/29 82/74/30 
f 82/74/30 81/72/28 73/71/27 
f 75/73/29 66/63/19 78/66/22 
f 78/66/22 82/74/30 75/73/29 
f 78/66/22 77/65/21 83/75/2 
f 77/65/21 79/68/24 83/75/2 
f 79/68/24 80/70/26 83/75/2 
f 80/70/26 81/72/28 83/75/2 
f 81/72/28 82/74/30 83/75/2 
f 82/74/30 78/66/22 83/75/2 
s off
f 68/76/31 67/77/31 84/78/31 
f 70/79/32 68/76/32 84/78/32 
f 72/80/33 70/79/33 84/78/33 
f 74/81/34 72/80/34 84/78/34 
f 76/82/35 74/81/35 84/78/35 
f 67/77/36 76/82/36 84/78/36 
# 144 faces

