# 3ds Max Wavefront OBJ Exporter v0.97b - (c)2007 guruware
# File Created: 24.01.2019 02:33:10

#
# object SM_Red_Brick_06
#

v  2.8594 0.8458 -8.5650
v  0.5527 -3.5599 -8.5650
v  0.8975 1.9321 -8.5655
v  -2.8594 3.5599 -8.5652
v  -2.8594 3.5597 8.5653
v  0.4277 3.5597 8.5653
v  0.7949 3.5599 -8.5652
v  1.8613 -1.4582 8.5654
v  2.1719 0.1990 8.5650
v  -2.8574 -1.3881 8.5655
v  -2.8584 -2.5660 -8.5650
# 11 vertices

vn 0.0002 -0.0001 -1.0000
vn 0.0000 -0.0001 -1.0000
vn 0.0000 -0.0000 -1.0000
vn 0.0000 1.0000 0.0000
vn 0.0001 0.0001 1.0000
vn 0.0000 0.0000 1.0000
vn -1.0000 -0.0003 0.0000
vn -1.0000 -0.0004 -0.0000
vn -1.0000 -0.0002 0.0001
vn 0.8985 0.4386 -0.0170
vn 0.8498 0.5258 0.0371
vn 0.9978 0.0628 0.0214
vn 0.9723 -0.2325 0.0254
vn 0.8859 -0.4638 -0.0108
vn 0.8944 -0.4471 -0.0080
vn 0.9824 -0.1841 0.0325
vn -0.0490 -0.9920 0.1160
vn -0.2362 -0.9688 0.0758
vn -0.0148 -0.9923 0.1229
vn 0.8653 0.5011 -0.0137
vn 0.4837 0.8737 0.0524
vn 0.0000 -0.0001 1.0000
vn -0.0001 0.0000 -1.0000
vn 0.0000 0.0001 -1.0000
vn -0.0000 -0.0001 -1.0000
vn -0.2791 -0.9580 0.0659
# 26 vertex normals

vt 0.5864 0.1535 0.0000
vt 0.5721 0.1460 0.0000
vt 0.5899 0.1471 0.0000
vt 0.4619 0.3123 0.0000
vt 0.4619 0.2567 0.0000
vt 0.4726 0.2567 0.0000
vt 0.4738 0.3123 0.0000
vt 0.0615 0.8210 0.0000
vt 0.0605 0.8156 0.0000
vt 0.0768 0.8047 0.0000
vt 0.0768 0.8207 0.0000
vt 0.4692 0.5443 0.0000
vt 0.4853 0.5442 0.0000
vt 0.4856 0.5998 0.0000
vt 0.4657 0.5999 0.0000
vt 0.4651 0.4043 0.0000
vt 0.4711 0.4599 0.0000
vt 0.4658 0.4599 0.0000
vt 0.4314 0.4651 0.0000
vt 0.4394 0.5210 0.0000
vt 0.4233 0.5210 0.0000
vt 0.4260 0.4651 0.0000
vt 0.6135 0.8277 0.0000
vt 0.6260 0.7719 0.0000
vt 0.6288 0.8280 0.0000
vt 0.4774 0.4042 0.0000
vt 0.4783 0.4599 0.0000
vt 0.0661 0.8047 0.0000
vt 0.5952 0.1349 0.0000
vt 0.5952 0.1468 0.0000
vt 0.5753 0.1349 0.0000
vt 0.6144 0.7720 0.0000
# 32 texture coords

g SM_Red_Brick_06
s 2
f 1/1/1 2/2/2 3/3/3 
s off
f 4/4/4 5/5/4 6/6/4 
f 6/6/4 7/7/4 4/4/4 
s 2
f 8/8/5 9/9/5 5/10/6 
f 5/10/6 10/11/6 8/8/5 
s 4
f 10/12/7 5/13/8 4/14/9 
f 4/14/9 11/15/9 10/12/7 
s 1
f 6/16/10 3/17/11 7/18/12 
s 4
f 8/19/13 2/20/14 1/21/15 
f 1/21/15 9/22/16 8/19/13 
s 1
f 10/23/17 2/24/18 8/25/19 
f 3/17/11 9/26/20 1/27/21 
s 2
f 9/9/5 6/28/22 5/10/6 
f 4/29/23 7/30/24 3/3/3 
f 3/3/3 11/31/25 4/29/23 
f 2/2/2 11/31/25 3/3/3 
s 1
f 6/16/10 9/26/20 3/17/11 
f 10/23/17 11/32/26 2/24/18 
# 18 faces

