# 3ds Max Wavefront OBJ Exporter v0.97b - (c)2007 guruware
# File Created: 24.01.2019 02:47:29

#
# object SM_Fittings_02
#

v  -9.5657 -3.0107 1.0268
v  -10.7507 -3.0107 1.0268
v  -11.4839 -12.9753 1.0268
v  -10.2989 -12.9753 1.0268
v  -9.5657 -3.0107 -1.0268
v  -8.9732 -3.0107 0.0000
v  -9.7064 -12.9753 0.0000
v  -10.2989 -12.9753 -1.0268
v  -11.3432 -3.0107 0.0000
v  -10.7507 -3.0107 -1.0268
v  -11.4839 -12.9753 -1.0268
v  -12.0764 -12.9753 0.0000
v  14.2123 -72.4710 1.0268
v  14.0103 -73.6387 1.0268
v  14.1113 -73.0548 -0.0001
v  14.2123 -72.4710 -1.0268
v  14.3132 -71.8872 0.0000
v  13.9093 -74.2225 0.0000
v  14.0103 -73.6387 -1.0268
v  1.2871 73.8036 1.0268
v  2.1250 72.9657 1.0268
v  1.7056 73.3851 0.0002
v  2.5440 72.5467 -0.0000
v  2.1250 72.9657 -1.0268
v  1.2871 73.8036 -1.0268
v  0.8681 74.2226 -0.0000
v  -2.2114 64.4503 1.0268
v  -1.1373 64.1761 1.0268
v  -5.0435 54.9307 1.0268
v  -3.8331 54.9921 1.0268
v  -6.5770 46.7268 1.0268
v  -5.3914 46.7282 1.0268
v  -6.6391 36.9726 1.0268
v  -5.4541 36.9726 1.0268
v  -7.0324 26.8831 1.0268
v  -5.8474 26.8831 1.0268
v  -8.5859 16.9185 1.0268
v  -7.4009 16.9185 1.0268
v  -9.7839 6.9539 1.0268
v  -8.5989 6.9539 1.0268
v  5.9852 -70.8342 1.0268
v  5.4398 -71.8723 1.0268
v  -1.7068 -67.1946 1.0268
v  -2.5336 -68.0559 1.0268
v  -8.0081 -61.6048 1.0268
v  -9.0063 -62.2484 1.0268
v  -11.2440 -52.8331 1.0268
v  -12.3759 -53.0577 1.0268
v  -12.5179 -42.9337 1.0268
v  -13.7148 -42.8912 1.0268
v  -12.3219 -32.9103 1.0268
v  -13.5080 -32.9065 1.0268
v  -11.3951 -22.9400 1.0268
v  -12.5801 -22.9400 1.0268
v  -0.6002 64.0387 -0.0000
v  -1.1373 64.1761 -1.0268
v  -3.2279 55.0228 -0.0000
v  -3.8331 54.9921 -1.0268
v  -4.7986 46.7289 -0.0000
v  -5.3914 46.7282 -1.0268
v  -4.8616 36.9727 -0.0000
v  -5.4541 36.9726 -1.0268
v  -5.2549 26.8831 0.0000
v  -5.8474 26.8831 -1.0268
v  -6.8084 16.9185 0.0000
v  -7.4009 16.9185 -1.0268
v  -8.0064 6.9539 0.0000
v  -8.5989 6.9539 -1.0268
v  5.9852 -70.8342 -1.0268
v  6.2579 -70.3152 0.0000
v  -1.7068 -67.1946 -1.0268
v  -1.2934 -66.7640 0.0000
v  -8.0081 -61.6048 -1.0268
v  -7.5090 -61.2831 0.0000
v  -11.2440 -52.8331 -1.0268
v  -10.6781 -52.7208 0.0000
v  -12.5179 -42.9337 -1.0268
v  -11.9195 -42.9549 0.0000
v  -12.3219 -32.9103 -1.0268
v  -11.7289 -32.9122 0.0000
v  -11.3951 -22.9400 -1.0268
v  -10.8026 -22.9400 0.0000
v  -2.2114 64.4503 -1.0268
v  -2.7485 64.5871 -0.0000
v  -5.0435 54.9307 -1.0268
v  -5.6487 54.9000 -0.0000
v  -6.5770 46.7268 -1.0268
v  -7.1697 46.7261 -0.0000
v  -6.6391 36.9726 -1.0268
v  -7.2316 36.9727 -0.0000
v  -7.0324 26.8831 -1.0268
v  -7.6249 26.8831 0.0000
v  -8.5859 16.9185 -1.0268
v  -9.1784 16.9185 0.0000
v  -9.7839 6.9539 -1.0268
v  -10.3764 6.9539 0.0000
v  5.1671 -72.3914 0.0000
v  5.4398 -71.8723 -1.0268
v  -2.9470 -68.4865 0.0000
v  -2.5336 -68.0559 -1.0268
v  -9.5054 -62.5701 0.0000
v  -9.0063 -62.2484 -1.0268
v  -12.9419 -53.1700 0.0000
v  -12.3759 -53.0577 -1.0268
v  -14.3133 -42.8700 0.0000
v  -13.7148 -42.8912 -1.0268
v  -14.1010 -32.9047 0.0000
v  -13.5080 -32.9065 -1.0268
v  -13.1726 -22.9400 0.0000
v  -12.5801 -22.9400 -1.0268
# 110 vertices

vn 0.4962 -0.0422 0.8672
vn -0.5017 0.0430 0.8640
vn -0.4945 0.0451 0.8680
vn 0.5030 -0.0464 0.8630
vn 0.4962 -0.0422 -0.8672
vn 0.9964 -0.0853 0.0000
vn 0.9959 -0.0909 0.0000
vn 0.5030 -0.0464 -0.8630
vn -0.9964 0.0847 0.0000
vn -0.5017 0.0430 -0.8640
vn -0.4945 0.0451 -0.8680
vn -0.9958 0.0919 0.0000
vn 0.9854 -0.1704 -0.0000
vn 0.9854 -0.1704 0.0000
vn 0.7071 0.7071 0.0000
vn 0.7071 0.7071 -0.0000
vn 0.3902 -0.1448 0.9093
vn -0.5843 0.2193 0.7814
vn -0.4936 0.1664 0.8537
vn 0.4789 -0.1582 0.8635
vn -0.5014 0.1235 0.8564
vn 0.4785 -0.1124 0.8708
vn -0.5191 0.0513 0.8532
vn 0.4766 -0.0450 0.8780
vn -0.4961 0.0112 0.8682
vn 0.5039 -0.0115 0.8637
vn -0.4847 0.0462 0.8735
vn 0.5121 -0.0507 0.8574
vn -0.5012 0.0696 0.8625
vn 0.4930 -0.0677 0.8674
vn -0.5010 0.0546 0.8637
vn 0.4955 -0.0536 0.8669
vn -0.1025 -0.4974 0.8614
vn 0.0950 0.4858 0.8689
vn 0.1510 0.4495 0.8804
vn -0.1674 -0.5051 0.8466
vn 0.2596 0.3877 0.8845
vn -0.2934 -0.4464 0.8454
vn 0.3610 0.2459 0.8996
vn -0.4578 -0.3106 0.8330
vn 0.4635 0.1127 0.8789
vn -0.5151 -0.1273 0.8476
vn 0.4802 0.0252 0.8768
vn -0.5159 -0.0300 0.8561
vn 0.4906 -0.0272 0.8710
vn -0.5078 0.0293 0.8610
vn 0.4965 -0.0502 0.8666
vn -0.5005 0.0510 0.8643
vn 0.3902 -0.1442 -0.9094
vn 0.9378 -0.3473 0.0005
vn 0.9491 -0.3149 0.0005
vn 0.4786 -0.1580 -0.8637
vn 0.9713 -0.2379 0.0003
vn 0.4783 -0.1130 -0.8709
vn 0.9950 -0.0994 -0.0001
vn 0.4767 -0.0448 -0.8779
vn 0.9997 -0.0226 -0.0000
vn 0.5039 -0.0115 -0.8637
vn 0.9955 -0.0949 0.0000
vn 0.5121 -0.0507 -0.8574
vn 0.9905 -0.1375 0.0000
vn 0.4930 -0.0677 -0.8674
vn 0.9941 -0.1084 0.0000
vn 0.4955 -0.0536 -0.8669
vn 0.1932 0.9812 0.0010
vn 0.0964 0.4847 -0.8694
vn 0.1506 0.4489 -0.8808
vn 0.3058 0.9521 0.0009
vn 0.2594 0.3870 -0.8849
vn 0.5426 0.8400 0.0008
vn 0.3604 0.2458 -0.8998
vn 0.8237 0.5670 0.0007
vn 0.4635 0.1133 -0.8788
vn 0.9708 0.2399 -0.0001
vn 0.4804 0.0248 -0.8767
vn 0.9984 0.0561 -0.0002
vn 0.4905 -0.0271 -0.8710
vn 0.9984 -0.0565 0.0001
vn 0.4965 -0.0502 -0.8666
vn 0.9949 -0.1012 0.0000
vn -0.9364 0.3509 -0.0003
vn -0.5849 0.2188 -0.7811
vn -0.4939 0.1664 -0.8534
vn -0.9481 0.3179 -0.0004
vn -0.5014 0.1242 -0.8563
vn -0.9731 0.2304 -0.0001
vn -0.5190 0.0511 -0.8532
vn -0.9957 0.0926 0.0001
vn -0.4961 0.0112 -0.8682
vn -0.9997 0.0228 0.0000
vn -0.4847 0.0462 -0.8735
vn -0.9951 0.0985 0.0000
vn -0.5012 0.0696 -0.8625
vn -0.9907 0.1360 0.0000
vn -0.5010 0.0546 -0.8637
vn -0.9942 0.1076 0.0000
vn -0.1041 -0.4979 -0.8610
vn -0.2036 -0.9791 -0.0009
vn -0.3259 -0.9454 -0.0007
vn -0.1673 -0.5058 -0.8463
vn -0.5627 -0.8267 -0.0006
vn -0.2937 -0.4468 -0.8451
vn -0.8293 -0.5588 -0.0005
vn -0.4578 -0.3112 -0.8328
vn -0.9714 -0.2375 0.0001
vn -0.5149 -0.1279 -0.8477
vn -0.9986 -0.0532 0.0001
vn -0.5158 -0.0295 -0.8562
vn -0.9984 0.0563 -0.0001
vn -0.5079 0.0292 -0.8609
vn -0.9949 0.1008 -0.0000
vn -0.5005 0.0510 -0.8643
# 112 vertex normals

vt 0.2958 0.0192 0.0000
vt 0.2958 0.0231 0.0000
vt 0.2634 0.0231 0.0000
vt 0.2634 0.0192 0.0000
vt 0.2958 0.0115 0.0000
vt 0.2958 0.0154 0.0000
vt 0.2634 0.0154 0.0000
vt 0.2634 0.0115 0.0000
vt 0.2958 0.0038 0.0000
vt 0.2958 0.0077 0.0000
vt 0.2634 0.0077 0.0000
vt 0.2634 0.0038 0.0000
vt 0.2634 0.0000 0.0000
vt 0.2958 0.0000 0.0000
vt 0.4311 0.2497 0.0000
vt 0.4311 0.2458 0.0000
vt 0.4345 0.2477 0.0000
vt 0.4378 0.2497 0.0000
vt 0.4345 0.2516 0.0000
vt 0.4345 0.2439 0.0000
vt 0.4378 0.2458 0.0000
vt 0.5152 0.5315 0.0000
vt 0.5152 0.5354 0.0000
vt 0.5119 0.5335 0.0000
vt 0.5119 0.5373 0.0000
vt 0.5085 0.5354 0.0000
vt 0.5085 0.5315 0.0000
vt 0.5119 0.5296 0.0000
vt 0.5545 0.0192 0.0000
vt 0.5545 0.0231 0.0000
vt 0.5222 0.0231 0.0000
vt 0.5222 0.0192 0.0000
vt 0.4898 0.0231 0.0000
vt 0.4898 0.0192 0.0000
vt 0.4575 0.0231 0.0000
vt 0.4575 0.0192 0.0000
vt 0.4251 0.0231 0.0000
vt 0.4251 0.0192 0.0000
vt 0.3928 0.0231 0.0000
vt 0.3928 0.0192 0.0000
vt 0.3604 0.0231 0.0000
vt 0.3604 0.0192 0.0000
vt 0.3281 0.0231 0.0000
vt 0.3281 0.0192 0.0000
vt 0.0047 0.0231 0.0000
vt 0.0047 0.0192 0.0000
vt 0.0370 0.0192 0.0000
vt 0.0370 0.0231 0.0000
vt 0.0693 0.0192 0.0000
vt 0.0693 0.0231 0.0000
vt 0.1017 0.0192 0.0000
vt 0.1017 0.0231 0.0000
vt 0.1340 0.0192 0.0000
vt 0.1340 0.0231 0.0000
vt 0.1664 0.0192 0.0000
vt 0.1664 0.0231 0.0000
vt 0.1987 0.0192 0.0000
vt 0.1987 0.0231 0.0000
vt 0.2311 0.0192 0.0000
vt 0.2311 0.0231 0.0000
vt 0.5545 0.0115 0.0000
vt 0.5545 0.0154 0.0000
vt 0.5222 0.0154 0.0000
vt 0.5222 0.0115 0.0000
vt 0.4898 0.0154 0.0000
vt 0.4898 0.0115 0.0000
vt 0.4575 0.0154 0.0000
vt 0.4575 0.0115 0.0000
vt 0.4251 0.0154 0.0000
vt 0.4251 0.0115 0.0000
vt 0.3928 0.0154 0.0000
vt 0.3928 0.0115 0.0000
vt 0.3604 0.0154 0.0000
vt 0.3604 0.0115 0.0000
vt 0.3281 0.0154 0.0000
vt 0.3281 0.0115 0.0000
vt 0.0047 0.0154 0.0000
vt 0.0047 0.0115 0.0000
vt 0.0370 0.0115 0.0000
vt 0.0370 0.0154 0.0000
vt 0.0693 0.0115 0.0000
vt 0.0693 0.0154 0.0000
vt 0.1017 0.0115 0.0000
vt 0.1017 0.0154 0.0000
vt 0.1340 0.0115 0.0000
vt 0.1340 0.0154 0.0000
vt 0.1664 0.0115 0.0000
vt 0.1664 0.0154 0.0000
vt 0.1987 0.0115 0.0000
vt 0.1987 0.0154 0.0000
vt 0.2311 0.0115 0.0000
vt 0.2311 0.0154 0.0000
vt 0.5545 0.0038 0.0000
vt 0.5545 0.0077 0.0000
vt 0.5222 0.0077 0.0000
vt 0.5222 0.0038 0.0000
vt 0.4898 0.0077 0.0000
vt 0.4898 0.0038 0.0000
vt 0.4575 0.0077 0.0000
vt 0.4575 0.0038 0.0000
vt 0.4251 0.0077 0.0000
vt 0.4251 0.0038 0.0000
vt 0.3928 0.0077 0.0000
vt 0.3928 0.0038 0.0000
vt 0.3604 0.0077 0.0000
vt 0.3604 0.0038 0.0000
vt 0.3281 0.0077 0.0000
vt 0.3281 0.0038 0.0000
vt 0.0047 0.0077 0.0000
vt 0.0047 0.0038 0.0000
vt 0.0370 0.0038 0.0000
vt 0.0370 0.0077 0.0000
vt 0.0693 0.0038 0.0000
vt 0.0693 0.0077 0.0000
vt 0.1017 0.0038 0.0000
vt 0.1017 0.0077 0.0000
vt 0.1340 0.0038 0.0000
vt 0.1340 0.0077 0.0000
vt 0.1664 0.0038 0.0000
vt 0.1664 0.0077 0.0000
vt 0.1987 0.0038 0.0000
vt 0.1987 0.0077 0.0000
vt 0.2311 0.0038 0.0000
vt 0.2311 0.0077 0.0000
vt 0.0047 0.0000 0.0000
vt 0.0370 0.0000 0.0000
vt 0.0693 0.0000 0.0000
vt 0.1017 0.0000 0.0000
vt 0.1340 0.0000 0.0000
vt 0.1664 0.0000 0.0000
vt 0.1987 0.0000 0.0000
vt 0.2311 0.0000 0.0000
vt 0.5545 0.0000 0.0000
vt 0.5222 0.0000 0.0000
vt 0.4898 0.0000 0.0000
vt 0.4575 0.0000 0.0000
vt 0.4251 0.0000 0.0000
vt 0.3928 0.0000 0.0000
vt 0.3604 0.0000 0.0000
vt 0.3281 0.0000 0.0000
# 140 texture coords

g SM_Fittings_02
s 8
f 1/1/1 2/2/2 3/3/3 
f 3/3/3 4/4/4 1/1/1 
f 5/5/5 6/6/6 7/7/7 
f 7/7/7 8/8/8 5/5/5 
f 9/9/9 10/10/10 11/11/11 
f 11/11/11 12/12/12 9/9/9 
f 12/12/12 3/13/3 2/14/2 
f 2/14/2 9/9/9 12/12/12 
f 4/4/4 7/7/7 6/6/6 
f 6/6/6 1/1/1 4/4/4 
f 8/8/8 11/11/11 10/10/10 
f 10/10/10 5/5/5 8/8/8 
s off
f 13/15/13 14/16/13 15/17/13 
f 16/18/14 17/19/14 15/17/14 
f 18/20/13 19/21/13 15/17/13 
f 14/16/14 18/20/14 15/17/14 
f 17/19/13 13/15/13 15/17/13 
f 19/21/14 16/18/14 15/17/14 
f 20/22/15 21/23/15 22/24/15 
f 23/25/16 24/26/16 22/24/16 
f 25/27/16 26/28/16 22/24/16 
f 26/28/15 20/22/15 22/24/15 
f 21/23/15 23/25/15 22/24/15 
f 24/26/16 25/27/16 22/24/16 
s 8
f 21/29/17 20/30/18 27/31/19 
f 27/31/19 28/32/20 21/29/17 
f 28/32/20 27/31/19 29/33/21 
f 29/33/21 30/34/22 28/32/20 
f 30/34/22 29/33/21 31/35/23 
f 31/35/23 32/36/24 30/34/22 
f 32/36/24 31/35/23 33/37/25 
f 33/37/25 34/38/26 32/36/24 
f 34/38/26 33/37/25 35/39/27 
f 35/39/27 36/40/28 34/38/26 
f 36/40/28 35/39/27 37/41/29 
f 37/41/29 38/42/30 36/40/28 
f 38/42/30 37/41/29 39/43/31 
f 39/43/31 40/44/32 38/42/30 
f 40/44/32 39/43/31 2/2/2 
f 2/2/2 1/1/1 40/44/32 
f 14/45/33 13/46/34 41/47/35 
f 41/47/35 42/48/36 14/45/33 
f 42/48/36 41/47/35 43/49/37 
f 43/49/37 44/50/38 42/48/36 
f 44/50/38 43/49/37 45/51/39 
f 45/51/39 46/52/40 44/50/38 
f 46/52/40 45/51/39 47/53/41 
f 47/53/41 48/54/42 46/52/40 
f 48/54/42 47/53/41 49/55/43 
f 49/55/43 50/56/44 48/54/42 
f 50/56/44 49/55/43 51/57/45 
f 51/57/45 52/58/46 50/56/44 
f 52/58/46 51/57/45 53/59/47 
f 53/59/47 54/60/48 52/58/46 
f 54/60/48 53/59/47 4/4/4 
f 4/4/4 3/3/3 54/60/48 
f 24/61/49 23/62/50 55/63/51 
f 55/63/51 56/64/52 24/61/49 
f 56/64/52 55/63/51 57/65/53 
f 57/65/53 58/66/54 56/64/52 
f 58/66/54 57/65/53 59/67/55 
f 59/67/55 60/68/56 58/66/54 
f 60/68/56 59/67/55 61/69/57 
f 61/69/57 62/70/58 60/68/56 
f 62/70/58 61/69/57 63/71/59 
f 63/71/59 64/72/60 62/70/58 
f 64/72/60 63/71/59 65/73/61 
f 65/73/61 66/74/62 64/72/60 
f 66/74/62 65/73/61 67/75/63 
f 67/75/63 68/76/64 66/74/62 
f 68/76/64 67/75/63 6/6/6 
f 6/6/6 5/5/5 68/76/64 
f 17/77/65 16/78/66 69/79/67 
f 69/79/67 70/80/68 17/77/65 
f 70/80/68 69/79/67 71/81/69 
f 71/81/69 72/82/70 70/80/68 
f 72/82/70 71/81/69 73/83/71 
f 73/83/71 74/84/72 72/82/70 
f 74/84/72 73/83/71 75/85/73 
f 75/85/73 76/86/74 74/84/72 
f 76/86/74 75/85/73 77/87/75 
f 77/87/75 78/88/76 76/86/74 
f 78/88/76 77/87/75 79/89/77 
f 79/89/77 80/90/78 78/88/76 
f 80/90/78 79/89/77 81/91/79 
f 81/91/79 82/92/80 80/90/78 
f 82/92/80 81/91/79 8/8/8 
f 8/8/8 7/7/7 82/92/80 
f 26/93/81 25/94/82 83/95/83 
f 83/95/83 84/96/84 26/93/81 
f 84/96/84 83/95/83 85/97/85 
f 85/97/85 86/98/86 84/96/84 
f 86/98/86 85/97/85 87/99/87 
f 87/99/87 88/100/88 86/98/86 
f 88/100/88 87/99/87 89/101/89 
f 89/101/89 90/102/90 88/100/88 
f 90/102/90 89/101/89 91/103/91 
f 91/103/91 92/104/92 90/102/90 
f 92/104/92 91/103/91 93/105/93 
f 93/105/93 94/106/94 92/104/92 
f 94/106/94 93/105/93 95/107/95 
f 95/107/95 96/108/96 94/106/94 
f 96/108/96 95/107/95 10/10/10 
f 10/10/10 9/9/9 96/108/96 
f 19/109/97 18/110/98 97/111/99 
f 97/111/99 98/112/100 19/109/97 
f 98/112/100 97/111/99 99/113/101 
f 99/113/101 100/114/102 98/112/100 
f 100/114/102 99/113/101 101/115/103 
f 101/115/103 102/116/104 100/114/102 
f 102/116/104 101/115/103 103/117/105 
f 103/117/105 104/118/106 102/116/104 
f 104/118/106 103/117/105 105/119/107 
f 105/119/107 106/120/108 104/118/106 
f 106/120/108 105/119/107 107/121/109 
f 107/121/109 108/122/110 106/120/108 
f 108/122/110 107/121/109 109/123/111 
f 109/123/111 110/124/112 108/122/110 
f 110/124/112 109/123/111 12/12/12 
f 12/12/12 11/11/11 110/124/112 
f 18/110/98 14/125/33 42/126/36 
f 42/126/36 97/111/99 18/110/98 
f 97/111/99 42/126/36 44/127/38 
f 44/127/38 99/113/101 97/111/99 
f 99/113/101 44/127/38 46/128/40 
f 46/128/40 101/115/103 99/113/101 
f 101/115/103 46/128/40 48/129/42 
f 48/129/42 103/117/105 101/115/103 
f 103/117/105 48/129/42 50/130/44 
f 50/130/44 105/119/107 103/117/105 
f 105/119/107 50/130/44 52/131/46 
f 52/131/46 107/121/109 105/119/107 
f 107/121/109 52/131/46 54/132/48 
f 54/132/48 109/123/111 107/121/109 
f 109/123/111 54/132/48 3/13/3 
f 3/13/3 12/12/12 109/123/111 
f 20/133/18 26/93/81 84/96/84 
f 84/96/84 27/134/19 20/133/18 
f 27/134/19 84/96/84 86/98/86 
f 86/98/86 29/135/21 27/134/19 
f 29/135/21 86/98/86 88/100/88 
f 88/100/88 31/136/23 29/135/21 
f 31/136/23 88/100/88 90/102/90 
f 90/102/90 33/137/25 31/136/23 
f 33/137/25 90/102/90 92/104/92 
f 92/104/92 35/138/27 33/137/25 
f 35/138/27 92/104/92 94/106/94 
f 94/106/94 37/139/29 35/138/27 
f 37/139/29 94/106/94 96/108/96 
f 96/108/96 39/140/31 37/139/29 
f 39/140/31 96/108/96 9/9/9 
f 9/9/9 2/14/2 39/140/31 
f 13/46/34 17/77/65 70/80/68 
f 70/80/68 41/47/35 13/46/34 
f 41/47/35 70/80/68 72/82/70 
f 72/82/70 43/49/37 41/47/35 
f 43/49/37 72/82/70 74/84/72 
f 74/84/72 45/51/39 43/49/37 
f 45/51/39 74/84/72 76/86/74 
f 76/86/74 47/53/41 45/51/39 
f 47/53/41 76/86/74 78/88/76 
f 78/88/76 49/55/43 47/53/41 
f 49/55/43 78/88/76 80/90/78 
f 80/90/78 51/57/45 49/55/43 
f 51/57/45 80/90/78 82/92/80 
f 82/92/80 53/59/47 51/57/45 
f 53/59/47 82/92/80 7/7/7 
f 7/7/7 4/4/4 53/59/47 
f 23/62/50 21/29/17 28/32/20 
f 28/32/20 55/63/51 23/62/50 
f 55/63/51 28/32/20 30/34/22 
f 30/34/22 57/65/53 55/63/51 
f 57/65/53 30/34/22 32/36/24 
f 32/36/24 59/67/55 57/65/53 
f 59/67/55 32/36/24 34/38/26 
f 34/38/26 61/69/57 59/67/55 
f 61/69/57 34/38/26 36/40/28 
f 36/40/28 63/71/59 61/69/57 
f 63/71/59 36/40/28 38/42/30 
f 38/42/30 65/73/61 63/71/59 
f 65/73/61 38/42/30 40/44/32 
f 40/44/32 67/75/63 65/73/61 
f 67/75/63 40/44/32 1/1/1 
f 1/1/1 6/6/6 67/75/63 
f 16/78/66 19/109/97 98/112/100 
f 98/112/100 69/79/67 16/78/66 
f 69/79/67 98/112/100 100/114/102 
f 100/114/102 71/81/69 69/79/67 
f 71/81/69 100/114/102 102/116/104 
f 102/116/104 73/83/71 71/81/69 
f 73/83/71 102/116/104 104/118/106 
f 104/118/106 75/85/73 73/83/71 
f 75/85/73 104/118/106 106/120/108 
f 106/120/108 77/87/75 75/85/73 
f 77/87/75 106/120/108 108/122/110 
f 108/122/110 79/89/77 77/87/75 
f 79/89/77 108/122/110 110/124/112 
f 110/124/112 81/91/79 79/89/77 
f 81/91/79 110/124/112 11/11/11 
f 11/11/11 8/8/8 81/91/79 
f 25/94/82 24/61/49 56/64/52 
f 56/64/52 83/95/83 25/94/82 
f 83/95/83 56/64/52 58/66/54 
f 58/66/54 85/97/85 83/95/83 
f 85/97/85 58/66/54 60/68/56 
f 60/68/56 87/99/87 85/97/85 
f 87/99/87 60/68/56 62/70/58 
f 62/70/58 89/101/89 87/99/87 
f 89/101/89 62/70/58 64/72/60 
f 64/72/60 91/103/91 89/101/89 
f 91/103/91 64/72/60 66/74/62 
f 66/74/62 93/105/93 91/103/91 
f 93/105/93 66/74/62 68/76/64 
f 68/76/64 95/107/95 93/105/93 
f 95/107/95 68/76/64 5/5/5 
f 5/5/5 10/10/10 95/107/95 
# 216 faces

