# 3ds Max Wavefront OBJ Exporter v0.97b - (c)2007 guruware
# File Created: 24.01.2019 02:29:25

#
# object SM_Hose_01
#

v  -65.2735 -0.0000 -4.3377
v  -65.2735 3.0672 -3.0672
v  65.2735 3.0672 -3.0672
v  65.2735 -0.0000 -4.3377
v  -65.2735 -3.0672 -3.0672
v  65.2735 -3.0672 -3.0672
v  -65.2735 -4.3377 -0.0000
v  65.2735 -4.3377 -0.0000
v  -65.2735 -3.0672 3.0672
v  65.2735 -3.0672 3.0672
v  -65.2735 -0.0000 4.3377
v  65.2735 -0.0000 4.3377
v  -65.2735 3.0672 3.0672
v  65.2735 3.0672 3.0672
v  -65.2735 4.3377 -0.0000
v  65.2735 4.3377 -0.0000
# 16 vertices

vn 0.0000 -0.0000 -1.0000
vn -0.0000 0.7071 -0.7071
vn 0.0000 0.7071 -0.7071
vn 0.0000 -0.7071 -0.7071
vn 0.0000 -1.0000 -0.0000
vn 0.0000 -0.7071 0.7071
vn -0.0000 -0.7071 0.7071
vn -0.0000 -0.0000 1.0000
vn -0.0000 0.7071 0.7071
vn -0.0000 1.0000 -0.0000
# 10 vertex normals

vt 0.0678 0.4563 0.0000
vt 0.0571 0.4563 0.0000
vt 0.0571 0.0326 0.0000
vt 0.0678 0.0326 0.0000
vt 0.0786 0.4563 0.0000
vt 0.0786 0.0326 0.0000
vt 0.0894 0.4563 0.0000
vt 0.0894 0.0326 0.0000
vt 0.1002 0.4563 0.0000
vt 0.1002 0.0326 0.0000
vt 0.0247 0.4563 0.0000
vt 0.0140 0.4563 0.0000
vt 0.0140 0.0326 0.0000
vt 0.0247 0.0326 0.0000
vt 0.0355 0.4563 0.0000
vt 0.0355 0.0326 0.0000
vt 0.0463 0.4563 0.0000
vt 0.0463 0.0326 0.0000
# 18 texture coords

g SM_Hose_01
s 1
f 1/1/1 2/2/2 3/3/3 
f 3/3/3 4/4/1 1/1/1 
f 5/5/4 1/1/1 4/4/1 
f 4/4/1 6/6/4 5/5/4 
f 7/7/5 5/5/4 6/6/4 
f 6/6/4 8/8/5 7/7/5 
f 9/9/6 7/7/5 8/8/5 
f 8/8/5 10/10/7 9/9/6 
f 11/11/8 9/12/6 10/13/7 
f 10/13/7 12/14/8 11/11/8 
f 13/15/9 11/11/8 12/14/8 
f 12/14/8 14/16/9 13/15/9 
f 15/17/10 13/15/9 14/16/9 
f 14/16/9 16/18/10 15/17/10 
f 2/2/2 15/17/10 16/18/10 
f 16/18/10 3/3/3 2/2/2 
# 16 faces

