# 3ds Max Wavefront OBJ Exporter v0.97b - (c)2007 guruware
# File Created: 24.01.2019 02:30:52

#
# object SM_Red_Brick_01
#

v  -24.7593 3.0221 -8.5650
v  24.7583 -9.8974 -8.5655
v  -24.7603 -9.8974 -8.5650
v  -24.7583 9.8974 8.5655
v  -24.7593 9.8976 -1.8875
v  -24.7593 -9.8976 8.5653
v  24.7593 -9.8976 8.5645
v  24.7593 7.0467 -8.5655
v  24.7593 7.4471 -6.5324
v  -17.0376 9.8976 -8.5650
v  19.7144 9.8976 -6.2770
v  16.9517 9.8976 -8.5655
v  19.8188 8.7138 -6.8976
v  16.9517 9.8974 -8.5655
v  24.7593 9.8976 -6.2640
v  19.9614 8.2118 -8.5655
v  -7.1626 -9.8976 2.8470
v  -6.5044 -9.8974 2.5197
v  24.7603 9.8974 8.5646
v  -1.2290 -4.5832 8.5649
v  -4.8442 -9.8974 6.1923
v  -1.7173 -9.8976 8.5649
v  -4.9995 -4.5821 6.0728
v  -4.0972 -4.1446 8.5650
v  -7.0288 -9.8976 8.5650
v  -6.4858 -7.4519 2.7098
# 26 vertices

vn -0.0000 0.0000 -1.0000
vn -0.0000 -0.0000 -1.0000
vn -1.0000 0.0000 0.0001
vn -1.0000 -0.0001 0.0001
vn -1.0000 0.0001 0.0000
vn 1.0000 -0.0001 -0.0001
vn 1.0000 -0.0000 -0.0000
vn -0.5272 0.5920 -0.6096
vn 0.0000 1.0000 -0.0000
vn 0.0000 1.0000 0.0000
vn 0.5309 0.1005 -0.8414
vn 0.3542 0.4049 -0.8430
vn 0.3900 0.7102 -0.5861
vn 0.5527 0.1981 -0.8095
vn 0.0026 0.1089 -0.9941
vn 0.1731 0.7122 -0.6803
vn 0.2318 0.9544 -0.1880
vn 0.3538 0.9061 -0.2320
vn 0.0000 -1.0000 -0.0001
vn 0.0000 -1.0000 -0.0000
vn 0.0000 -0.0000 1.0000
vn -0.1442 0.0061 0.9895
vn -0.7679 0.0067 0.6405
vn -0.3352 0.0308 0.9416
vn -0.7132 -0.0051 0.7009
vn 0.9137 -0.3727 -0.1622
vn 0.9099 -0.4059 -0.0852
vn 0.9373 -0.3383 -0.0836
vn 0.9405 -0.1109 -0.3211
vn 0.4440 -0.0728 0.8930
vn 0.9632 -0.2678 -0.0225
vn -0.9099 -0.0209 0.4143
vn -0.9109 -0.0251 0.4118
vn -0.0000 -1.0000 -0.0000
vn -0.1474 -0.9637 0.2225
vn 0.0000 -1.0000 0.0000
vn -1.0000 0.0001 0.0001
vn -0.0000 1.0000 0.0000
vn 1.0000 0.0000 -0.0001
vn 1.0000 -0.0000 -0.0001
vn -0.0000 -1.0000 -0.0001
# 41 vertex normals

vt 0.9980 0.3303 0.0000
vt 0.8372 0.2884 0.0000
vt 0.9980 0.2884 0.0000
vt 0.2512 0.6649 0.0000
vt 0.2512 0.6310 0.0000
vt 0.2735 0.6093 0.0000
vt 0.3154 0.6649 0.0000
vt 0.6279 0.5089 0.0000
vt 0.6835 0.5070 0.0000
vt 0.6853 0.5620 0.0000
vt 0.6788 0.5635 0.0000
vt 0.7876 0.6094 0.0000
vt 0.7904 0.6428 0.0000
vt 0.7619 0.6304 0.0000
vt 0.1719 0.5729 0.0000
vt 0.1502 0.5980 0.0000
vt 0.1645 0.4536 0.0000
vt 0.1719 0.4626 0.0000
vt 0.0533 0.6990 0.0000
vt 0.0446 0.7070 0.0000
vt 0.0428 0.7031 0.0000
vt 0.0533 0.6989 0.0000
vt 0.0287 0.7119 0.0000
vt 0.0262 0.7043 0.0000
vt 0.0259 0.6975 0.0000
vt 0.0421 0.6975 0.0000
vt 0.1019 0.9354 0.0000
vt 0.0651 0.9926 0.0000
vt 0.1008 0.9332 0.0000
vt 0.8372 0.4224 0.0000
vt 0.8372 0.3582 0.0000
vt 0.9216 0.4052 0.0000
vt 0.5068 0.5888 0.0000
vt 0.4941 0.5889 0.0000
vt 0.4927 0.5716 0.0000
vt 0.5074 0.5716 0.0000
vt 0.5582 0.0279 0.0000
vt 0.5792 0.0283 0.0000
vt 0.5709 0.0474 0.0000
vt 0.5606 0.0363 0.0000
vt 0.4328 0.3469 0.0000
vt 0.4328 0.3445 0.0000
vt 0.4407 0.3447 0.0000
vt 0.5792 0.0470 0.0000
vt 0.5193 0.5809 0.0000
vt 0.5199 0.5888 0.0000
vt 0.9980 0.3582 0.0000
vt 0.9309 0.4037 0.0000
vt 0.9232 0.4224 0.0000
vt 0.0645 0.8319 0.0000
vt 0.1201 0.8317 0.0000
vt 0.9980 0.4224 0.0000
vt 0.9404 0.4224 0.0000
vt 0.4253 0.2586 0.0000
vt 0.4254 0.2439 0.0000
vt 0.4307 0.2517 0.0000
vt 0.1205 0.9349 0.0000
vt 0.1207 0.9924 0.0000
vt 0.3154 0.6093 0.0000
vt 0.8528 0.3472 0.0000
vt 0.9729 0.3526 0.0000
vt 0.8626 0.3526 0.0000
vt 0.8372 0.3434 0.0000
vt 0.1163 0.5980 0.0000
vt 0.1163 0.4372 0.0000
vt 0.1644 0.4372 0.0000
vt 0.6782 0.5715 0.0000
vt 0.6301 0.5731 0.0000
vt 0.1204 0.9176 0.0000
vt 0.1127 0.9278 0.0000
# 70 texture coords

g SM_Red_Brick_01
s 1
f 1/1/1 2/2/2 3/3/2 
s 2
f 4/4/3 5/5/4 1/6/3 
f 1/6/3 6/7/5 4/4/3 
f 7/8/6 2/9/6 8/10/7 
f 8/10/7 9/11/7 7/8/6 
s 4
f 10/12/8 1/13/8 5/14/8 
s 8
f 10/15/9 5/16/10 11/17/10 
f 11/17/10 12/18/9 10/15/9 
s 4
f 12/19/11 11/20/12 13/21/13 
f 13/21/13 14/22/14 12/19/11 
f 11/20/12 15/23/15 9/24/16 
f 9/24/16 13/21/13 11/20/12 
f 9/24/16 8/25/17 16/26/18 
f 16/26/18 13/21/13 9/24/16 
f 13/21/13 16/26/18 14/22/14 
f 17/27/19 3/28/20 18/29/20 
s 1
f 7/30/21 19/31/21 20/32/22 
f 21/33/23 22/34/24 20/35/22 
f 20/35/22 23/36/25 21/33/23 
s 2
f 24/37/26 25/38/27 26/39/28 
f 26/39/28 23/40/29 24/37/26 
s 8
f 17/41/30 18/42/30 26/43/30 
s 2
f 25/38/27 17/44/31 26/39/28 
s 1
f 21/33/23 23/36/25 26/45/32 
f 26/45/32 18/46/33 21/33/23 
f 19/31/21 4/47/21 24/48/21 
f 24/48/21 20/32/22 19/31/21 
f 20/32/22 22/49/24 7/30/21 
s 4
f 3/28/20 2/50/34 18/29/20 
f 2/50/34 7/51/34 18/29/20 
s 1
f 6/52/21 25/53/21 24/48/21 
f 24/48/21 4/47/21 6/52/21 
s 4
f 23/54/35 20/55/35 24/56/35 
f 17/27/19 25/57/36 6/58/34 
f 6/58/34 3/28/20 17/27/19 
s 2
f 1/6/3 3/59/37 6/7/5 
s 1
f 1/1/1 16/60/2 2/2/2 
f 1/1/1 10/61/1 12/62/1 
f 1/1/1 12/62/1 14/62/2 
f 1/1/1 14/62/2 16/60/2 
f 16/60/2 8/63/2 2/2/2 
s 8
f 5/16/10 4/64/10 11/17/10 
f 4/64/10 19/65/38 11/17/10 
f 19/65/38 15/66/38 11/17/10 
s 2
f 9/11/7 15/67/39 19/68/40 
f 19/68/40 7/8/6 9/11/7 
s 4
f 7/51/34 22/69/41 21/70/34 
f 21/70/34 18/29/20 7/51/34 
# 48 faces

