# 3ds Max Wavefront OBJ Exporter v0.97b - (c)2007 guruware
# File Created: 24.01.2019 02:47:04

#
# object SM_Fittings_01
#

v  0.5925 84.6992 1.0268
v  -0.5925 84.6992 1.0268
v  -0.5925 -84.6992 1.0268
v  0.5925 -84.6992 1.0268
v  0.5925 84.6992 -1.0268
v  1.1850 84.6992 -0.0000
v  1.1850 -84.6992 0.0000
v  0.5925 -84.6992 -1.0268
v  -1.1850 84.6992 -0.0000
v  -0.5925 84.6992 -1.0268
v  -0.5925 -84.6992 -1.0268
v  -1.1850 -84.6992 0.0000
v  -0.0000 -84.6992 -0.0001
v  -0.0007 84.6992 0.0002
# 14 vertices

vn 0.5001 0.0000 0.8660
vn -0.5001 0.0000 0.8660
vn 0.5001 -0.0000 -0.8660
vn 1.0000 0.0000 0.0000
vn 1.0000 -0.0000 0.0000
vn -1.0000 -0.0000 0.0000
vn -0.5001 -0.0000 -0.8660
vn -1.0000 0.0000 0.0000
vn 0.0000 -1.0000 0.0000
vn 0.0000 1.0000 0.0000
vn 0.0000 1.0000 -0.0000
vn -0.0000 1.0000 -0.0000
vn -0.0000 1.0000 0.0000
# 13 vertex normals

vt 0.5545 0.0192 0.0000
vt 0.5545 0.0231 0.0000
vt 0.0047 0.0231 0.0000
vt 0.0047 0.0192 0.0000
vt 0.5545 0.0115 0.0000
vt 0.5545 0.0154 0.0000
vt 0.0047 0.0154 0.0000
vt 0.0047 0.0115 0.0000
vt 0.5545 0.0038 0.0000
vt 0.5545 0.0077 0.0000
vt 0.0047 0.0077 0.0000
vt 0.0047 0.0038 0.0000
vt 0.0047 0.0000 0.0000
vt 0.5545 0.0000 0.0000
vt 0.4311 0.2497 0.0000
vt 0.4311 0.2458 0.0000
vt 0.4345 0.2477 0.0000
vt 0.4378 0.2497 0.0000
vt 0.4345 0.2516 0.0000
vt 0.4345 0.2439 0.0000
vt 0.4378 0.2458 0.0000
vt 0.5152 0.5315 0.0000
vt 0.5152 0.5354 0.0000
vt 0.5119 0.5335 0.0000
vt 0.5119 0.5373 0.0000
vt 0.5085 0.5354 0.0000
vt 0.5085 0.5315 0.0000
vt 0.5119 0.5296 0.0000
# 28 texture coords

g SM_Fittings_01
s 8
f 1/1/1 2/2/2 3/3/2 
f 3/3/2 4/4/1 1/1/1 
f 5/5/3 6/6/4 7/7/5 
f 7/7/5 8/8/3 5/5/3 
f 9/9/6 10/10/7 11/11/7 
f 11/11/7 12/12/8 9/9/6 
f 9/9/6 12/12/8 3/13/2 
f 3/13/2 2/14/2 9/9/6 
f 1/1/1 4/4/1 7/7/5 
f 7/7/5 6/6/4 1/1/1 
f 5/5/3 8/8/3 11/11/7 
f 11/11/7 10/10/7 5/5/3 
s off
f 4/15/9 3/16/9 13/17/9 
f 8/18/9 7/19/9 13/17/9 
f 12/20/9 11/21/9 13/17/9 
f 3/16/9 12/20/9 13/17/9 
f 7/19/9 4/15/9 13/17/9 
f 11/21/9 8/18/9 13/17/9 
f 2/22/10 1/23/10 14/24/10 
f 6/25/11 5/26/11 14/24/11 
f 10/27/12 9/28/12 14/24/12 
f 9/28/13 2/22/13 14/24/13 
f 1/23/10 6/25/10 14/24/10 
f 5/26/11 10/27/11 14/24/11 
# 24 faces

