# 3ds Max Wavefront OBJ Exporter v0.97b - (c)2007 guruware
# File Created: 24.01.2019 02:31:50

#
# object SM_Red_Brick_04
#

v  -10.3628 9.8975 -8.5651
v  10.3638 -1.7823 -8.5653
v  -10.3638 -9.8975 -8.5652
v  -10.3618 9.8974 8.5654
v  -10.3628 -9.8976 8.5651
v  7.3735 9.8974 8.5651
v  9.5405 -9.8976 8.5647
v  8.8101 9.8975 -4.9768
v  6.7710 -9.8975 -3.9557
v  9.3228 -9.8975 0.7897
v  8.2798 -9.8975 -8.5654
v  9.6050 -1.7832 -3.9558
v  9.9390 -0.8388 0.7888
v  10.1265 9.8976 -2.6894
v  9.2319 9.8975 -8.5652
# 15 vertices

vn -0.0000 0.0000 -1.0000
vn -1.0000 0.0000 0.0001
vn 0.0000 -0.0000 1.0000
vn -0.0000 1.0000 0.0000
vn -0.0000 1.0000 -0.0000
vn 0.0000 -1.0000 -0.0000
vn 0.9488 -0.3000 -0.0991
vn 0.9233 -0.2371 0.3022
vn 0.9775 -0.1074 0.1814
vn 0.9934 -0.1146 -0.0068
vn 0.9708 -0.1512 -0.1863
vn 0.9984 0.0086 0.0567
vn 0.9877 0.0279 -0.1539
vn 0.9825 0.0593 -0.1763
vn 0.9886 0.0958 0.1162
vn 0.9740 0.0790 0.2122
vn 0.9978 0.0120 0.0651
vn 0.0000 1.0000 0.0000
vn 0.0000 1.0000 -0.0000
vn 0.0000 -1.0000 0.0000
vn -0.0000 -1.0000 -0.0000
# 21 vertex normals

vt 0.5737 0.4450 0.0000
vt 0.6099 0.3768 0.0000
vt 0.6380 0.4433 0.0000
vt 0.6791 0.6465 0.0000
vt 0.7348 0.6466 0.0000
vt 0.7347 0.7108 0.0000
vt 0.6791 0.7108 0.0000
vt 0.6071 0.5768 0.0000
vt 0.6646 0.5768 0.0000
vt 0.6646 0.6410 0.0000
vt 0.6000 0.6410 0.0000
vt 0.5597 0.4370 0.0000
vt 0.4973 0.3934 0.0000
vt 0.5594 0.3814 0.0000
vt 0.7152 0.6324 0.0000
vt 0.6998 0.6407 0.0000
vt 0.6744 0.5769 0.0000
vt 0.7301 0.5768 0.0000
vt 0.6758 0.4898 0.0000
vt 0.6741 0.5052 0.0000
vt 0.6472 0.5042 0.0000
vt 0.6478 0.4888 0.0000
vt 0.6743 0.4730 0.0000
vt 0.6448 0.4733 0.0000
vt 0.6096 0.4840 0.0000
vt 0.6095 0.4920 0.0000
vt 0.6093 0.5036 0.0000
vt 0.6098 0.4465 0.0000
vt 0.6745 0.4480 0.0000
vt 0.5022 0.4373 0.0000
vt 0.4930 0.4008 0.0000
vt 0.4958 0.3818 0.0000
vt 0.5721 0.3814 0.0000
vt 0.6364 0.3829 0.0000
vt 0.7302 0.6373 0.0000
vt 0.6746 0.6415 0.0000
# 36 texture coords

g SM_Red_Brick_04
s 1
f 1/1/1 2/2/1 3/3/1 
s 2
f 4/4/2 1/5/2 3/6/2 
f 3/6/2 5/7/2 4/4/2 
s 1
f 6/8/3 4/9/3 5/10/3 
f 5/10/3 7/11/3 6/8/3 
s 4
f 4/12/4 8/13/5 1/14/4 
f 9/15/6 10/16/6 5/17/6 
f 5/17/6 3/18/6 9/15/6 
s 2
f 9/19/7 11/20/8 2/21/9 
f 2/21/9 12/22/10 9/19/7 
f 10/23/11 9/19/7 12/22/10 
f 12/22/10 13/24/12 10/23/11 
f 14/25/13 13/24/12 12/22/10 
f 12/22/10 8/26/14 14/25/13 
f 2/21/9 15/27/15 8/26/14 
f 8/26/14 12/22/10 2/21/9 
f 6/28/16 7/29/17 13/24/12 
f 6/28/16 13/24/12 14/25/13 
s 4
f 4/12/4 6/30/18 14/31/5 
f 14/31/5 8/13/5 4/12/4 
f 8/13/5 15/32/19 1/14/4 
s 2
f 7/29/17 10/23/11 13/24/12 
s 1
f 1/1/1 15/33/1 2/2/1 
f 2/2/1 11/34/1 3/3/1 
s 4
f 3/18/6 11/35/20 9/15/6 
f 10/16/6 7/36/21 5/17/6 
# 26 faces

