# 3ds Max Wavefront OBJ Exporter v0.97b - (c)2007 guruware
# File Created: 24.01.2019 02:29:45

#
# object SM_C_Block_02
#

v  -24.7588 10.9686 -9.8975
v  -24.3486 4.4059 8.2413
v  -24.7598 10.9682 9.8974
v  24.7598 -10.9683 -9.8975
v  5.0977 -6.9033 -9.8975
v  20.4805 -6.9034 -9.8975
v  -24.7578 -3.0239 -9.8975
v  -20.4805 6.9029 -9.8975
v  -20.4805 -1.0278 -9.8975
v  -5.0977 6.9026 -9.8975
v  24.7588 -10.9686 9.8975
v  24.7588 10.9673 9.8974
v  20.4795 6.9020 9.8973
v  20.4795 -6.9036 9.8973
v  5.0957 6.9023 9.8973
v  -20.4824 4.2036 9.8973
v  -20.4824 6.9026 9.8973
v  -12.0410 -10.9681 -9.8975
v  -11.4844 -6.9031 -9.8975
v  -5.0977 -6.9031 -9.8975
v  5.0957 -6.9034 9.8973
v  -5.0996 6.9025 9.8973
v  5.0977 6.9024 -9.8975
v  -12.0430 -10.9682 9.8975
v  -5.0996 -6.9033 9.8973
v  15.4082 10.9678 -9.8975
v  -20.4814 0.7944 5.1973
v  -11.4863 -6.9031 9.8973
v  -24.7588 -0.3414 4.0627
v  14.4004 6.9024 -9.8975
v  21.3252 10.9675 -4.1626
v  24.7598 0.9724 -1.6701
v  24.7598 -2.5224 -9.8975
v  20.4805 -2.1069 -9.8975
v  20.4795 6.9022 -0.9821
v  20.4785 0.6796 -3.1780
v  15.4805 6.9023 -3.5101
v  23.9014 10.9671 -3.3068
# 38 vertices

vn -1.0000 -0.0032 0.0086
vn -0.9998 -0.0119 0.0183
vn -0.9980 -0.0625 -0.0001
vn 0.0000 -0.0000 -1.0000
vn -0.0000 -0.0000 -1.0000
vn -0.0000 0.0000 1.0000
vn -0.0000 -0.0000 1.0000
vn -0.2987 -0.1613 0.9406
vn -0.3937 0.0000 0.9192
vn -0.1564 -0.0727 0.9850
vn -0.1231 -0.1295 0.9839
vn 0.0000 0.0000 1.0000
vn -0.0000 -1.0000 -0.0000
vn -1.0000 -0.0000 -0.0001
vn 1.0000 0.0000 0.0001
vn 0.0000 1.0000 0.0000
vn 0.0000 1.0000 -0.0000
vn 0.1630 -0.9057 0.3913
vn 0.4166 -0.8927 0.1716
vn 0.3822 -0.9098 0.1619
vn 0.0192 -0.8696 0.4933
vn -0.1823 -0.7405 0.6469
vn -0.2819 -0.7767 0.5633
vn -0.9908 0.1357 -0.0001
vn 0.0001 1.0000 0.0000
vn 0.9997 0.0171 -0.0147
vn 0.9990 0.0341 -0.0294
vn 1.0000 -0.0000 0.0001
vn 1.0000 -0.0000 0.0000
vn 1.0000 0.0000 0.0000
vn -1.0000 0.0002 0.0000
vn -1.0000 0.0000 0.0001
vn 0.0000 -1.0000 -0.0000
vn -1.0000 -0.0000 -0.0003
vn -1.0000 -0.0002 -0.0000
vn 0.0843 0.9193 -0.3844
vn 0.0893 0.9200 -0.3815
vn 0.1863 0.7266 -0.6613
vn 0.0731 0.5644 -0.8222
vn 0.3424 -0.6692 -0.6595
vn 0.0337 -0.3470 -0.9373
vn 0.5807 -0.6337 -0.5111
vn 0.7837 -0.5200 -0.3398
vn 0.9578 -0.2374 -0.1620
vn -0.0214 -0.4827 -0.8755
vn 0.0002 1.0000 -0.0000
vn -1.0000 -0.0001 -0.0001
vn -0.9991 0.0327 0.0265
vn 1.0000 0.0001 0.0001
vn 1.0000 0.0000 0.0002
vn 0.9951 0.0749 -0.0646
# 51 vertex normals

vt 0.1674 0.6285 0.0000
vt 0.1895 0.6872 0.0000
vt 0.1682 0.6928 0.0000
vt 0.0048 0.8260 0.0000
vt 0.0179 0.7621 0.0000
vt 0.0180 0.8121 0.0000
vt 0.0304 0.6652 0.0000
vt 0.0758 0.6651 0.0000
vt 0.0626 0.6790 0.0000
vt 0.0369 0.6791 0.0000
vt 0.0627 0.7290 0.0000
vt 0.8373 0.5689 0.0000
vt 0.8372 0.4977 0.0000
vt 0.8511 0.5109 0.0000
vt 0.8511 0.5557 0.0000
vt 0.9010 0.5109 0.0000
vt 0.9979 0.5195 0.0000
vt 0.9844 0.5199 0.0000
vt 0.9842 0.5111 0.0000
vt 0.9978 0.4977 0.0000
vt 0.0047 0.7065 0.0000
vt 0.0178 0.7083 0.0000
vt 0.0179 0.7290 0.0000
vt 0.9010 0.5557 0.0000
vt 0.9341 0.5109 0.0000
vt 0.0627 0.7621 0.0000
vt 0.9786 0.9899 0.0000
vt 0.8592 0.9899 0.0000
vt 0.8592 0.9256 0.0000
vt 0.9787 0.9256 0.0000
vt 0.9341 0.5557 0.0000
vt 0.0760 0.7955 0.0000
vt 0.9566 0.5689 0.0000
vt 0.6605 0.7806 0.0000
vt 0.6605 0.7163 0.0000
vt 0.7104 0.7163 0.0000
vt 0.7104 0.7806 0.0000
vt 0.4355 0.6968 0.0000
vt 0.3907 0.6968 0.0000
vt 0.3907 0.6326 0.0000
vt 0.4355 0.6326 0.0000
vt 0.6177 0.5653 0.0000
vt 0.5693 0.5443 0.0000
vt 0.6184 0.5396 0.0000
vt 0.6000 0.6977 0.0000
vt 0.6500 0.6977 0.0000
vt 0.6500 0.7620 0.0000
vt 0.6000 0.7620 0.0000
vt 0.3768 0.4651 0.0000
vt 0.4216 0.4651 0.0000
vt 0.4216 0.5294 0.0000
vt 0.3768 0.5294 0.0000
vt 0.9548 0.5557 0.0000
vt 0.8533 0.9303 0.0000
vt 0.8533 0.9945 0.0000
vt 0.8326 0.9945 0.0000
vt 0.8326 0.9303 0.0000
vt 0.4460 0.6242 0.0000
vt 0.3996 0.6248 0.0000
vt 0.4006 0.6095 0.0000
vt 0.4502 0.6101 0.0000
vt 0.4664 0.6217 0.0000
vt 0.4690 0.6084 0.0000
vt 0.5093 0.9168 0.0000
vt 0.5735 0.9168 0.0000
vt 0.5735 0.9301 0.0000
vt 0.5093 0.9301 0.0000
vt 0.0628 0.7923 0.0000
vt 0.7955 0.4271 0.0000
vt 0.6651 0.3628 0.0000
vt 0.8147 0.4084 0.0000
vt 0.6052 0.3413 0.0000
vt 0.5675 0.3735 0.0000
vt 0.5678 0.3023 0.0000
vt 0.6321 0.3027 0.0000
vt 0.6319 0.3301 0.0000
vt 0.0322 0.8259 0.0000
vt 0.0336 0.8121 0.0000
vt 0.3710 0.5400 0.0000
vt 0.3707 0.5753 0.0000
vt 0.3504 0.5822 0.0000
vt 0.3262 0.5396 0.0000
vt 0.3645 0.6477 0.0000
vt 0.3209 0.6140 0.0000
vt 0.3852 0.6140 0.0000
vt 0.3852 0.6442 0.0000
vt 0.3412 0.6040 0.0000
vt 0.3256 0.6038 0.0000
vt 0.5959 0.9104 0.0000
vt 0.6077 0.9179 0.0000
vt 0.5959 0.9383 0.0000
vt 0.5813 0.9356 0.0000
vt 0.5791 0.9726 0.0000
vt 0.5885 0.9584 0.0000
vt 0.6023 0.9700 0.0000
vt 0.5956 0.9937 0.0000
vt 0.6087 0.9901 0.0000
vt 0.5719 0.9674 0.0000
vt 0.6651 0.4271 0.0000
vt 0.8259 0.3628 0.0000
vt 0.8231 0.4057 0.0000
vt 0.2129 0.6279 0.0000
vt 0.2048 0.6734 0.0000
vt 0.3563 0.6639 0.0000
vt 0.3209 0.6639 0.0000
vt 0.5535 0.5637 0.0000
vt 0.5537 0.5549 0.0000
vt 0.6104 0.3739 0.0000
# 108 texture coords

g SM_C_Block_02
s 4
f 1/1/1 2/2/2 3/3/3 
s 1
f 4/4/4 5/5/5 6/6/4 
f 7/7/4 1/8/4 8/9/4 
f 8/9/4 9/10/4 7/7/4 
f 1/8/4 10/11/4 8/9/4 
f 11/12/6 12/13/7 13/14/7 
f 13/14/7 14/15/6 11/12/6 
f 12/13/7 15/16/7 13/14/7 
f 2/17/8 16/18/9 17/19/10 
f 17/19/10 3/20/11 2/17/8 
f 18/21/5 19/22/4 20/23/5 
f 11/12/6 14/15/6 21/24/12 
f 3/20/11 17/19/10 22/25/7 
f 5/5/5 20/23/5 10/11/4 
f 10/11/4 23/26/4 5/5/5 
s 2
f 18/27/13 4/28/13 11/29/13 
f 11/29/13 24/30/13 18/27/13 
s 1
f 15/16/7 22/25/7 25/31/12 
f 25/31/12 21/24/12 15/16/7 
f 4/4/4 18/21/5 20/23/5 
f 20/23/5 5/5/5 4/4/4 
f 1/8/4 26/32/4 23/26/4 
f 23/26/4 10/11/4 1/8/4 
f 24/33/12 11/12/6 21/24/12 
f 21/24/12 25/31/12 24/33/12 
f 12/13/7 3/20/11 22/25/7 
f 22/25/7 15/16/7 12/13/7 
s off
f 10/34/13 22/35/13 17/36/13 
f 17/36/13 8/37/13 10/34/13 
f 25/38/14 22/39/14 10/40/14 
f 10/40/14 20/41/14 25/38/14 
f 8/42/15 27/43/15 9/44/15 
f 21/45/16 14/46/16 6/47/16 
f 6/47/16 5/48/16 21/45/16 
f 15/49/15 21/50/15 5/51/15 
f 5/51/15 23/52/15 15/49/15 
s 1
f 24/33/12 25/31/12 28/53/12 
s off
f 25/54/16 20/55/16 19/56/16 
f 19/56/17 28/57/17 25/54/17 
s 2
f 29/58/18 7/59/19 9/60/20 
f 9/60/20 27/61/21 29/58/18 
f 2/62/22 29/58/18 27/61/21 
f 27/61/21 16/63/23 2/62/22 
s off
f 28/64/24 19/65/24 18/66/24 
f 18/66/24 24/67/24 28/64/24 
s 1
f 30/68/4 23/26/4 26/32/4 
s 2
f 26/69/16 3/70/16 31/71/25 
s 4
f 32/72/26 12/73/27 11/74/28 
f 32/72/26 11/74/28 4/75/29 
f 32/72/26 4/75/29 33/76/30 
s 1
f 33/77/4 4/4/4 6/6/4 
f 6/6/4 34/78/4 33/77/4 
s off
f 13/79/31 35/80/31 36/81/31 
f 36/81/32 14/82/32 13/79/32 
f 37/83/13 15/84/13 23/85/13 
f 23/85/33 30/86/33 37/83/33 
f 36/81/34 34/87/34 6/88/34 
f 6/88/35 14/82/35 36/81/35 
s 8
f 33/89/36 34/90/37 36/91/38 
f 36/91/38 32/92/39 33/89/36 
f 31/93/40 35/94/41 37/95/42 
f 37/95/42 26/96/43 31/93/40 
f 26/96/43 37/95/42 30/97/44 
f 38/98/45 35/94/41 31/93/40 
f 32/92/39 36/91/38 35/94/41 
s 2
f 26/69/16 1/99/16 3/70/16 
f 12/100/16 38/101/46 31/71/25 
f 31/71/25 3/70/16 12/100/16 
s 4
f 1/1/1 7/102/47 29/103/48 
f 1/1/1 29/103/48 2/2/2 
s 8
f 38/98/45 32/92/39 35/94/41 
s off
f 35/104/13 13/105/13 15/84/13 
f 15/84/13 37/83/13 35/104/13 
f 8/42/49 17/106/49 27/43/49 
f 17/106/50 16/107/50 27/43/50 
s 4
f 32/72/26 38/108/51 12/73/27 
# 76 faces

