# 3ds Max Wavefront OBJ Exporter v0.97b - (c)2007 guruware
# File Created: 26.11.2018 17:13:06

mtllib SM_Props_Concrete_Block_002_UE.mtl

#
# object Object008
#

v  -57.5079 -56.4215 20.6595
v  -66.7197 67.7677 20.6595
v  -67.7402 -55.6484 20.6595
v  -83.7910 65.1628 3.4313
v  -83.7900 -60.1845 3.4305
v  -83.7891 -60.1843 13.4266
v  -83.7900 65.1630 13.4272
v  -60.3021 75.0001 13.4277
v  -53.7407 75.0000 3.4317
v  -73.9531 75.0000 3.4313
v  -73.9521 75.0001 13.4274
v  83.2711 -58.5949 3.4314
v  83.7939 65.1627 3.4320
v  83.7949 65.1627 13.4280
v  83.2721 -58.5948 13.4272
v  -70.5225 71.5693 0.0007
v  -58.5807 51.0319 0.0007
v  -80.3604 61.7322 0.0007
v  -76.5566 57.9305 19.0910
v  -76.5566 -57.1471 19.0904
v  66.7256 67.7676 20.6595
v  -51.0673 75.0000 13.4278
v  76.5635 57.9304 19.2561
v  76.5635 -57.1472 19.2552
v  -58.0376 -74.2169 13.4266
v  69.7210 -74.2169 13.4271
v  66.7256 -66.9844 20.6595
v  -58.4191 -66.9843 20.6595
v  -80.3594 -60.9492 0.0000
v  -52.0962 71.5693 0.0008
v  80.3633 61.7319 0.0016
v  80.3633 -60.9495 0.0009
v  70.5264 -70.7864 0.0007
v  69.7191 -74.2169 3.4313
v  57.1961 -74.2169 3.4312
v  56.1206 -70.7864 0.0006
v  73.9580 75.0000 13.4281
v  71.1896 75.0932 6.9709
v  -76.4847 -68.2740 11.4734
v  -80.6624 -65.4557 3.4305
v  -73.4240 -71.8991 9.3128
v  78.6151 -69.2984 13.4272
v  78.6136 -69.2984 3.4314
v  -56.9962 72.6223 13.4277
v  -49.8254 72.6991 3.4318
v  -44.5059 75.0000 4.5790
v  -31.3938 75.0000 3.4319
v  -26.8959 71.5692 0.0016
v  -37.9624 67.1601 2.2785
v  -37.8270 71.5137 2.3254
v  -46.9708 64.8826 2.6456
v  -42.5733 51.9374 1.7936
v  -37.5012 13.5810 0.0006
v  -33.3664 27.0071 -0.2551
v  -11.5569 19.9277 0.0008
v  11.9765 -74.2169 4.9337
v  4.1693 -74.2169 4.9336
v  11.5602 -69.6248 0.0004
v  -20.0471 -74.2169 3.4307
v  -73.8879 -71.7807 3.4305
v  -70.5215 -70.7863 0.0000
v  -20.0471 -70.7864 0.0002
v  -61.0082 -74.2169 9.6476
v  -72.7028 -60.6815 17.7424
v  -78.7178 -66.3562 13.4266
v  -7.2354 -74.2169 6.4077
v  -63.0807 -60.0365 14.4298
v  -70.5511 -62.1812 13.5305
v  -66.3753 -59.0368 14.4298
v  -62.8681 -66.9843 11.5255
v  74.5062 67.5893 3.2036
v  70.4138 56.1828 0.0015
v  -9.6986 -64.3585 0.0003
v  53.6430 71.5692 0.0016
v  60.2892 74.9999 3.4322
v  65.5927 63.9728 5.3934
v  59.0080 57.6578 0.0014
v  -10.9678 -68.6564 3.2818
v  4.1693 -68.4859 0.0003
v  0.8153 -69.5794 3.8016
v  -4.7805 -68.0647 3.9660
v  21.6385 -74.2169 9.1798
v  16.2271 -67.4161 0.0005
v  20.1118 -68.7545 4.1323
v  47.9630 -74.2169 8.7607
v  47.3118 -69.5727 4.5947
v  52.0234 -68.1305 0.0006
# 87 vertices

vn 0.0000 0.0000 1.0000
vn -0.1428 0.3753 0.9158
vn -0.0908 -0.0699 0.9934
vn -0.9239 0.3827 0.0001
vn -0.9644 -0.2646 0.0001
vn -0.9496 -0.3117 0.0320
vn 0.1964 0.9720 0.1289
vn 0.3446 0.9057 0.2469
vn -0.3827 0.9239 0.0000
vn -0.3826 0.9239 0.0000
vn 0.9786 -0.2058 -0.0001
vn 0.9270 0.3732 -0.0361
vn 0.9247 0.3807 -0.0001
vn -0.1132 0.3862 -0.9154
vn 0.0000 0.0000 -1.0000
vn -0.3862 0.1132 -0.9154
vn -0.4020 0.0935 0.9109
vn -0.4532 0.2226 0.8631
vn -0.4923 -0.2183 0.8426
vn -0.3617 -0.2680 0.8930
vn 0.1302 0.3704 0.9197
vn -0.0515 0.7597 0.6482
vn 0.5006 0.2227 0.8365
vn 0.4004 0.0777 0.9130
vn 0.4312 -0.1044 0.8962
vn 0.6334 -0.1335 0.7622
vn -0.0000 -0.7071 0.7071
vn 0.1795 -0.6574 0.7318
vn 0.1480 -0.3796 0.9132
vn -0.0000 -0.3889 0.9213
vn -0.4317 -0.1890 -0.8820
vn -0.7156 -0.1588 -0.6802
vn -0.5385 0.2623 -0.8008
vn -0.2622 0.5385 -0.8008
vn 0.0000 0.7071 -0.7071
vn 0.0000 0.3795 -0.9252
vn 0.5120 -0.0021 -0.8590
vn 0.7086 -0.0030 -0.7056
vn 0.7927 -0.1069 -0.6001
vn 0.5016 -0.1801 -0.8462
vn 0.1638 -0.4335 -0.8862
vn 0.1496 -0.7165 -0.6813
vn 0.0000 -0.7071 -0.7071
vn 0.0000 -0.2620 -0.9651
vn 0.3989 0.9118 -0.0973
vn 0.2210 0.9719 -0.0807
vn -0.6740 -0.7329 0.0933
vn -0.7665 -0.6399 0.0550
vn -0.4819 -0.8750 0.0460
vn 0.7398 -0.6728 -0.0001
vn 0.7398 -0.6729 -0.0001
vn -0.2687 0.5000 0.8233
vn 0.2622 0.5385 0.8008
vn 0.4570 -0.4026 0.7932
vn -0.5428 -0.4853 -0.6855
vn 0.4902 -0.4741 -0.7313
vn 0.2810 0.9420 0.1837
vn -0.0662 0.9967 -0.0480
vn -0.2529 0.9507 -0.1793
vn -0.1173 0.9893 -0.0870
vn 0.0000 1.0000 -0.0000
vn -0.2096 0.3623 -0.9082
vn -0.2520 0.1378 -0.9579
vn -0.0893 0.0524 -0.9946
vn 0.0040 0.1889 -0.9820
vn -0.0396 0.4878 -0.8721
vn 0.3852 0.4487 -0.8064
vn 0.1440 0.0458 -0.9885
vn 0.5687 0.3499 -0.7444
vn 0.4308 0.7330 -0.5265
vn 0.1494 0.0449 -0.9878
vn 0.0100 0.0643 -0.9979
vn -0.0096 0.0074 -0.9999
vn -0.0496 0.0289 -0.9983
vn -0.0085 0.0174 -0.9998
vn 0.0000 -0.9658 -0.2591
vn -0.0197 -0.9635 -0.2669
vn -0.0489 -0.6935 -0.7188
vn -0.0020 -0.7216 -0.6923
vn -0.3979 -0.6899 -0.6047
vn -0.1502 -0.5763 -0.8033
vn 0.0000 -0.2878 -0.9577
vn -0.4459 -0.8947 -0.0247
vn -0.0470 -0.9820 -0.1828
vn -0.2181 -0.4631 0.8591
vn -0.7062 -0.7041 0.0739
vn -0.0023 -0.9999 -0.0154
vn -0.0000 -1.0000 -0.0000
vn -0.0000 -1.0000 0.0000
vn -0.5352 -0.4290 0.7277
vn 0.1343 -0.8386 0.5279
vn -0.4248 -0.4857 0.7640
vn 0.4315 -0.7574 0.4901
vn 0.2333 -0.6004 0.7649
vn 0.0383 -0.6666 0.7444
vn 0.3056 -0.6159 0.7262
vn 0.1882 -0.4738 0.8603
vn -0.7798 -0.3927 0.4875
vn -0.8387 -0.1983 0.5073
vn -0.4569 -0.3781 0.8051
vn -0.4903 -0.3350 0.8046
vn 0.0252 -0.3757 0.9264
vn -0.3581 -0.2943 0.8861
vn 0.2499 -0.9683 -0.0000
vn -0.0978 0.4273 -0.8988
vn 0.0006 0.4802 -0.8772
vn -0.1460 0.4566 -0.8776
vn 0.0000 0.4313 -0.9022
vn 0.0000 0.4893 -0.8721
vn 0.0000 0.7071 -0.7072
vn -0.0017 1.0000 0.0024
vn 0.1691 0.5718 -0.8028
vn 0.0457 0.2140 -0.9758
vn 0.0897 0.3026 -0.9489
vn 0.3268 0.3930 -0.8595
vn 0.4673 0.1127 -0.8769
vn 0.3862 0.0217 -0.9222
vn 0.3354 -0.5678 -0.7518
vn 0.3889 -0.6462 -0.6566
vn 0.2529 -0.5361 -0.8054
vn -0.3977 -0.7247 -0.5628
vn -0.3160 -0.4344 -0.8435
vn -0.2869 -0.6065 -0.7415
vn 0.0619 -0.3677 -0.9279
vn -0.0910 -0.6297 -0.7715
vn 0.1368 -0.7140 -0.6867
vn 0.0000 -0.0000 -1.0000
vn -0.1000 -0.6491 -0.7541
vn 0.1213 -0.6541 -0.7466
vn 0.3588 -0.6348 -0.6843
vn 0.1371 -0.8081 -0.5728
vn -0.3948 -0.6876 -0.6094
vn -0.1901 -0.6702 -0.7174
vn -0.1551 -0.8054 -0.5721
vn -0.4069 -0.6907 -0.5978
vn -0.3203 -0.7599 -0.5657
vn 0.2527 -0.8254 -0.5049
vn 0.3717 -0.6868 -0.6246
vn -0.1647 0.9071 0.3874
vn 0.2225 0.5835 0.7810
# 140 vertex normals

vt 0.0922 0.5417 0.0000
vt 0.0683 0.9037 0.0000
vt 0.0623 0.5443 0.0000
vt 0.0100 0.9581 0.0000
vt 0.3735 0.9508 0.0000
vt 0.3741 0.9798 0.0000
vt 0.0106 0.9871 0.0000
vt 0.1650 0.0126 0.0000
vt 0.1845 0.0412 0.0000
vt 0.1259 0.0422 0.0000
vt 0.1254 0.0132 0.0000
vt 0.9529 0.0747 0.0000
vt 0.5953 0.0427 0.0000
vt 0.5979 0.0139 0.0000
vt 0.9555 0.0458 0.0000
vt 0.5322 0.0928 0.0000
vt 0.5694 0.1508 0.0000
vt 0.5054 0.1218 0.0000
vt 0.0396 0.8752 0.0000
vt 0.0137 0.8970 0.0000
vt 0.0100 0.5318 0.0000
vt 0.0363 0.5409 0.0000
vt 0.4565 0.8996 0.0000
vt 0.1148 0.9331 0.0000
vt 0.5104 0.8938 0.0000
vt 0.4845 0.8716 0.0000
vt 0.4819 0.5367 0.0000
vt 0.5070 0.5313 0.0000
vt 0.0913 0.4802 0.0000
vt 0.4646 0.4809 0.0000
vt 0.4534 0.5089 0.0000
vt 0.0898 0.5103 0.0000
vt 0.5125 0.4775 0.0000
vt 0.4986 0.4766 0.0000
vt 0.4920 0.1112 0.0000
vt 0.5205 0.0804 0.0000
vt 0.5796 0.0764 0.0000
vt 0.5854 0.0903 0.0000
vt 0.9757 0.1157 0.0000
vt 0.9900 0.1060 0.0000
vt 0.9892 0.4663 0.0000
vt 0.9759 0.4715 0.0000
vt 0.9482 0.5000 0.0000
vt 0.9478 0.5139 0.0000
vt 0.9108 0.5156 0.0000
vt 0.9068 0.5014 0.0000
vt 0.0856 0.0429 0.0000
vt 0.0851 0.0139 0.0000
vt 0.5579 0.0100 0.0000
vt 0.5499 0.0286 0.0000
vt 0.4057 0.9738 0.0000
vt 0.3912 0.9504 0.0000
vt 0.4194 0.9674 0.0000
vt 0.9892 0.0488 0.0000
vt 0.9866 0.0777 0.0000
vt 0.0406 0.9277 0.0000
vt 0.4806 0.9261 0.0000
vt 0.4925 0.4979 0.0000
vt 0.5082 0.4932 0.0000
vt 0.9740 0.4980 0.0000
vt 0.1767 0.0110 0.0000
vt 0.1976 0.0399 0.0000
vt 0.1952 0.0100 0.0000
vt 0.2142 0.0357 0.0000
vt 0.2523 0.0390 0.0000
vt 0.0117 0.1317 0.0000
vt 0.0232 0.1177 0.0000
vt 0.0355 0.1504 0.0000
vt 0.0228 0.1499 0.0000
vt 0.0112 0.1696 0.0000
vt 0.0190 0.1846 0.0000
vt 0.0420 0.1768 0.0000
vt 0.0236 0.1949 0.0000
vt 0.0100 0.1929 0.0000
vt 0.0831 0.2103 0.0000
vt 0.0798 0.1638 0.0000
vt 0.1913 0.1488 0.0000
vt 0.1523 0.1369 0.0000
vt 0.1727 0.0732 0.0000
vt 0.7783 0.5180 0.0000
vt 0.7557 0.5172 0.0000
vt 0.7778 0.4984 0.0000
vt 0.6869 0.5160 0.0000
vt 0.5295 0.5130 0.0000
vt 0.5409 0.5049 0.0000
vt 0.6868 0.5024 0.0000
vt 0.4182 0.9503 0.0000
vt 0.4559 0.9689 0.0000
vt 0.0452 0.5286 0.0000
vt 0.3972 0.9794 0.0000
vt 0.5746 0.9505 0.0000
vt 0.6118 0.9593 0.0000
vt 0.4645 0.9797 0.0000
vt 0.2038 0.2394 0.0000
vt 0.1729 0.2394 0.0000
vt 0.1883 0.2184 0.0000
vt 0.1585 0.2211 0.0000
vt 0.1678 0.2101 0.0000
vt 0.1791 0.2197 0.0000
vt 0.1443 0.1976 0.0000
vt 0.1517 0.1906 0.0000
vt 0.2120 0.1814 0.0000
vt 0.2175 0.2110 0.0000
vt 0.1913 0.1969 0.0000
vt 0.1990 0.1759 0.0000
vt 0.1618 0.1787 0.0000
vt 0.0230 0.5123 0.0000
vt 0.8351 0.9797 0.0000
vt 0.8351 0.9507 0.0000
vt 0.8645 0.9507 0.0000
vt 0.8645 0.9797 0.0000
vt 0.2630 0.0954 0.0000
vt 0.2830 0.1114 0.0000
vt 0.2562 0.1316 0.0000
vt 0.7161 0.4836 0.0000
vt 0.6327 0.2583 0.0000
vt 0.7084 0.2388 0.0000
vt 0.8968 0.0874 0.0000
vt 0.6629 0.0891 0.0000
vt 0.6498 0.0751 0.0000
vt 0.9160 0.0732 0.0000
vt 0.5182 0.0390 0.0000
vt 0.9463 0.1316 0.0000
vt 0.2906 0.0957 0.0000
vt 0.2482 0.0732 0.0000
vt 0.2378 0.1076 0.0000
vt 0.2216 0.1330 0.0000
vt 0.1957 0.0968 0.0000
vt 0.2147 0.0806 0.0000
vt 0.0100 0.2842 0.0000
vt 0.0153 0.2708 0.0000
vt 0.0411 0.2837 0.0000
vt 0.0847 0.2981 0.0000
vt 0.0739 0.3180 0.0000
vt 0.0701 0.3016 0.0000
vt 0.0422 0.3055 0.0000
vt 0.0571 0.2915 0.0000
vt 0.0515 0.2710 0.0000
vt 0.6449 0.9551 0.0000
vt 0.6676 0.9551 0.0000
vt 0.6956 0.9674 0.0000
vt 0.7912 0.4919 0.0000
vt 0.7563 0.4952 0.0000
vt 0.0408 0.2571 0.0000
vt 0.0109 0.2480 0.0000
vt 0.0365 0.2356 0.0000
vt 0.1466 0.2422 0.0000
vt 0.1180 0.2551 0.0000
vt 0.1153 0.2372 0.0000
vt 0.1428 0.2280 0.0000
vt 0.1292 0.2234 0.0000
vt 0.0247 0.2235 0.0000
vt 0.0100 0.2278 0.0000
vt 0.7719 0.9662 0.0000
vt 0.7987 0.9507 0.0000
vt 0.0407 0.3522 0.0000
vt 0.0306 0.3583 0.0000
vt 0.0100 0.3300 0.0000
vt 0.0793 0.9371 0.0000
vt 0.9127 0.1277 0.0000
vt 0.8947 0.4934 0.0000
vt 0.0592 0.3528 0.0000
# 162 texture coords

g Object008
usemtl LP
s 4
f 1/1/1 2/2/2 3/3/3 
s 1
f 4/4/4 5/5/5 6/6/6 
f 6/6/6 7/7/4 4/4/4 
f 8/8/7 9/9/8 10/10/9 
f 10/10/9 11/11/10 8/8/7 
f 12/12/11 13/13/12 14/14/13 
f 14/14/13 15/15/11 12/12/11 
s 4
f 16/16/14 17/17/15 18/18/16 
f 19/19/17 7/20/18 6/21/19 
f 6/21/19 20/22/20 19/19/17 
f 21/23/21 22/24/22 2/2/2 
f 14/25/23 23/26/24 24/27/25 
f 24/27/25 15/28/26 14/25/23 
f 25/29/27 26/30/28 27/31/29 
f 27/31/29 28/32/30 25/29/27 
f 29/33/31 5/34/32 4/35/33 
f 4/35/33 18/18/16 29/33/31 
f 16/16/14 10/36/34 9/37/35 
f 9/37/35 30/38/36 16/16/14 
f 31/39/37 13/40/38 12/41/39 
f 12/41/39 32/42/40 31/39/37 
f 33/43/41 34/44/42 35/45/43 
f 35/45/43 36/46/44 33/43/41 
s 1
f 10/10/9 4/47/4 7/48/4 
f 7/48/4 11/11/10 10/10/9 
f 37/49/45 14/14/13 13/13/12 
f 13/13/12 38/50/46 37/49/45 
f 39/51/47 40/52/48 41/53/49 
f 42/54/50 43/55/51 12/12/11 
f 12/12/11 15/15/11 42/54/50 
s 4
f 11/56/52 7/20/18 19/19/17 
f 19/19/17 2/2/2 11/56/52 
f 21/23/21 23/26/24 14/25/23 
f 14/25/23 37/57/53 21/23/21 
f 26/30/28 42/58/54 27/31/29 
f 4/35/33 10/36/34 16/16/14 
f 16/16/14 18/18/16 4/35/33 
f 29/33/31 40/59/55 5/34/32 
f 33/43/41 43/60/56 34/44/42 
f 21/23/21 27/31/29 24/27/25 
f 24/27/25 23/26/24 21/23/21 
s 1
f 44/61/57 45/62/58 9/9/8 
f 9/9/8 8/8/7 44/61/57 
f 22/63/59 46/64/60 45/62/58 
f 45/62/58 44/61/57 22/63/59 
f 47/65/61 46/64/60 22/63/59 
s 2
f 47/66/62 48/67/63 49/68/64 
f 49/68/64 50/69/65 47/66/62 
f 46/70/66 47/66/62 50/69/65 
f 50/69/65 45/71/67 46/70/66 
f 45/71/67 50/69/65 49/68/64 
f 49/68/64 51/72/68 45/71/67 
f 30/73/69 9/74/70 45/71/67 
f 45/71/67 51/72/68 30/73/69 
f 17/75/71 51/72/68 52/76/72 
f 53/77/73 17/75/71 52/76/72 
f 52/76/72 54/78/74 53/77/73 
f 52/76/72 51/72/68 49/68/64 
f 54/78/74 49/68/64 55/79/75 
f 54/78/74 55/79/75 53/77/73 
f 55/79/75 49/68/64 48/67/63 
f 17/75/71 30/73/69 51/72/68 
f 54/78/74 52/76/72 49/68/64 
s 1
f 56/80/76 57/81/77 58/82/78 
s 4
f 59/83/79 60/84/80 61/85/81 
f 61/85/81 62/86/82 59/83/79 
s 1
f 41/53/49 60/87/83 63/88/84 
s 4
f 3/3/3 20/22/20 64/89/85 
s 1
f 6/6/6 5/5/5 40/52/48 
f 40/52/48 65/90/86 6/6/6 
f 59/91/87 66/92/88 25/93/89 
f 25/93/89 63/88/84 59/91/87 
f 60/87/83 59/91/87 63/88/84 
s 4
f 29/33/31 61/85/81 60/84/80 
f 60/84/80 40/59/55 29/33/31 
f 3/3/3 19/19/17 20/22/20 
s 2
f 1/94/90 3/95/91 67/96/92 
f 3/95/91 64/97/93 68/98/94 
f 68/98/94 69/99/95 3/95/91 
f 68/98/94 64/97/93 65/100/96 
f 65/100/96 39/101/97 68/98/94 
f 25/102/98 28/103/99 70/104/100 
f 70/104/100 63/105/101 25/102/98 
f 1/94/90 67/96/92 28/103/99 
f 68/98/94 70/104/100 67/96/92 
f 67/96/92 69/99/95 68/98/94 
f 63/105/101 70/104/100 41/106/102 
s 1
f 40/52/48 60/87/83 41/53/49 
f 39/51/47 65/90/86 40/52/48 
s 2
f 70/104/100 68/98/94 41/106/102 
f 68/98/94 39/101/97 41/106/102 
f 3/95/91 69/99/95 67/96/92 
f 67/96/92 70/104/100 28/103/99 
s 4
f 6/21/19 65/107/103 64/89/85 
f 64/89/85 20/22/20 6/21/19 
s 1
f 26/108/104 34/109/104 43/110/51 
f 43/110/51 42/111/50 26/108/104 
s 4
f 42/58/54 15/28/26 24/27/25 
f 42/58/54 24/27/25 27/31/29 
f 33/43/41 32/42/40 43/60/56 
f 32/42/40 12/41/39 43/60/56 
s 2
f 71/112/105 31/113/106 72/114/107 
s 4
f 73/115/15 62/86/82 53/116/15 
f 53/116/15 55/117/15 73/115/15 
f 74/118/108 48/119/109 47/120/110 
f 47/120/110 75/121/35 74/118/108 
s 1
f 75/122/111 37/49/45 38/50/46 
s 4
f 32/42/40 33/43/41 72/123/15 
f 72/123/15 31/39/37 32/42/40 
s 2
f 13/124/112 31/113/106 71/112/105 
f 71/112/105 38/125/113 13/124/112 
f 71/112/105 72/114/107 76/126/114 
f 72/114/107 77/127/115 76/126/114 
f 77/127/115 74/128/116 76/126/114 
f 74/128/116 75/129/117 76/126/114 
f 75/129/117 38/125/113 76/126/114 
f 38/125/113 71/112/105 76/126/114 
s 1
f 75/122/111 47/65/61 22/63/59 
f 75/122/111 22/63/59 37/49/45 
s 2
f 59/130/118 62/131/119 78/132/120 
f 79/133/121 57/134/122 80/135/123 
f 57/134/122 66/136/124 80/135/123 
f 66/136/124 78/132/120 81/137/125 
f 79/133/121 81/137/125 73/138/126 
f 78/132/120 62/131/119 73/138/126 
f 81/137/125 78/132/120 73/138/126 
f 79/133/121 80/135/123 81/137/125 
f 66/136/124 81/137/125 80/135/123 
f 66/136/124 59/130/118 78/132/120 
s 1
f 66/92/88 57/139/77 56/140/76 
f 56/140/76 82/141/88 66/92/88 
s 4
f 83/142/15 58/82/127 79/143/15 
f 79/143/15 73/115/15 83/142/15 
s 1
f 57/81/77 79/143/128 58/82/78 
s 2
f 82/144/129 56/145/130 84/146/131 
f 35/147/132 85/148/133 86/149/134 
f 86/149/134 36/150/135 35/147/132 
f 87/151/136 86/149/134 84/146/131 
f 84/146/131 83/152/137 87/151/136 
f 86/149/134 85/148/133 82/144/129 
f 82/144/129 84/146/131 86/149/134 
f 56/145/130 58/153/138 84/146/131 
f 58/153/138 83/152/137 84/146/131 
f 86/149/134 87/151/136 36/150/135 
s 1
f 85/154/88 35/155/89 34/109/104 
f 34/109/104 26/108/104 85/154/88 
f 82/141/88 85/154/88 26/108/104 
f 26/108/104 25/93/89 82/141/88 
f 66/92/88 82/141/88 25/93/89 
s 4
f 1/1/1 28/32/30 27/31/29 
f 44/156/139 8/157/140 2/158/2 
f 8/159/140 11/56/52 2/2/2 
f 16/16/14 30/38/36 17/17/15 
f 17/17/15 53/116/15 61/85/81 
f 55/117/15 77/160/15 83/142/15 
f 83/142/15 73/115/15 55/117/15 
f 62/86/82 61/85/81 53/116/15 
f 55/117/15 48/119/109 77/160/15 
f 72/123/15 33/43/41 87/161/15 
f 87/161/15 77/160/15 72/123/15 
f 77/160/15 87/161/15 83/142/15 
f 33/43/41 36/46/44 87/161/15 
f 61/85/81 29/33/31 18/18/16 
f 18/18/16 17/17/15 61/85/81 
f 48/119/109 74/118/108 77/160/15 
f 21/23/21 37/57/53 22/24/22 
f 22/162/22 44/156/139 2/158/2 
f 27/31/29 21/23/21 2/2/2 
f 1/1/1 27/31/29 2/2/2 
f 3/3/3 2/2/2 19/19/17 
# 170 faces

