# 3ds Max Wavefront OBJ Exporter v0.97b - (c)2007 guruware
# File Created: 24.01.2019 02:32:22

#
# object SM_Red_Brick_05
#

v  15.2905 -5.9474 0.8317
v  11.7847 -5.9474 4.2221
v  12.6450 -5.9475 -4.0648
v  13.7925 0.0516 -4.0648
v  8.7192 5.9475 -4.2220
v  -8.4458 -5.9471 0.4209
v  11.7817 0.2072 2.0461
v  -8.4497 0.2075 -1.7552
v  15.2876 0.2072 -0.0919
v  -12.0835 0.6520 -4.2221
v  -15.2905 -5.6843 -4.2221
# 11 vertices

vn 0.0000 -1.0000 0.0000
vn -0.0000 -1.0000 0.0000
vn -0.0010 -1.0000 -0.0045
vn 0.0253 -0.0048 -0.9997
vn -0.3398 0.3099 0.8880
vn 0.2212 0.2828 0.9333
vn 0.1842 0.3277 0.9266
vn -0.3679 0.3098 0.8768
vn 0.6911 0.1076 0.7147
vn 0.5838 0.2163 0.7826
vn 0.5325 0.8323 0.1540
vn 0.4696 0.8729 0.1323
vn -0.0194 0.9993 -0.0318
vn -0.1402 0.7141 0.6859
vn -0.2044 0.8326 0.5147
vn -0.1322 0.6980 0.7038
vn -0.5253 0.2766 0.8047
vn -0.5334 0.2700 0.8016
vn 0.8776 -0.0707 -0.4742
vn 0.8986 -0.1120 -0.4243
vn 0.9055 -0.1276 -0.4047
vn 0.9235 -0.1766 -0.3406
vn 0.0056 -0.0028 -1.0000
vn 0.0031 -0.0122 -0.9999
vn -0.2173 0.8534 0.4738
vn -0.0078 -0.9993 -0.0368
vn -0.0092 -0.9990 -0.0430
vn 0.7355 0.6389 0.2257
# 28 vertex normals

vt 0.4159 0.1926 0.0000
vt 0.4047 0.1814 0.0000
vt 0.4316 0.1837 0.0000
vt 0.2372 0.7215 0.0000
vt 0.2424 0.7024 0.0000
vt 0.2522 0.7418 0.0000
vt 0.3814 0.1796 0.0000
vt 0.3818 0.1128 0.0000
vt 0.4030 0.1142 0.0000
vt 0.4026 0.1811 0.0000
vt 0.3864 0.0977 0.0000
vt 0.4063 0.1014 0.0000
vt 0.9811 0.5563 0.0000
vt 0.9687 0.5396 0.0000
vt 0.9816 0.5426 0.0000
vt 0.4587 0.1485 0.0000
vt 0.4326 0.2017 0.0000
vt 0.4327 0.1349 0.0000
vt 0.4057 0.1951 0.0000
vt 0.3854 0.2062 0.0000
vt 0.6000 0.1814 0.0000
vt 0.6181 0.1818 0.0000
vt 0.6022 0.2015 0.0000
vt 0.6160 0.2015 0.0000
vt 0.3328 0.7101 0.0000
vt 0.3208 0.7298 0.0000
vt 0.4380 0.2150 0.0000
vt 0.4160 0.1155 0.0000
vt 0.4307 0.0930 0.0000
vt 0.9582 0.5669 0.0000
# 30 texture coords

g SM_Red_Brick_05
s 1
f 1/1/1 2/2/2 3/3/3 
s off
f 4/4/4 3/5/4 5/6/4 
s 4
f 6/7/5 2/8/6 7/9/7 
f 7/9/7 8/10/8 6/7/5 
f 2/8/6 1/11/9 9/12/10 
f 9/12/10 7/9/7 2/8/6 
s 1
f 4/13/11 7/14/12 9/15/13 
s 2
f 5/16/14 8/17/15 7/18/16 
s 4
f 10/19/17 11/20/18 6/7/5 
f 6/7/5 8/10/8 10/19/17 
s 2
f 1/21/19 3/22/20 9/23/21 
f 3/22/20 4/24/22 9/23/21 
s off
f 3/5/23 11/25/23 10/26/23 
f 10/26/24 5/6/24 3/5/24 
s 2
f 5/16/14 10/27/25 8/17/15 
s 1
f 6/28/26 11/29/27 3/3/3 
f 3/3/3 2/2/2 6/28/26 
f 4/13/11 5/30/28 7/14/12 
# 18 faces

