# 3ds Max Wavefront OBJ Exporter v0.97b - (c)2007 guruware
# File Created: 24.01.2019 02:30:32

#
# object SM_Red_Brick_02
#

v  24.7593 9.8975 -8.5654
v  24.7583 -9.8974 -8.5656
v  -24.7603 -9.8974 -8.5651
v  -24.7593 9.8975 -8.5650
v  -24.7583 9.8974 8.5655
v  -24.7593 -9.8975 8.5652
v  24.7593 -9.8975 8.5644
v  24.7603 9.8974 8.5647
# 8 vertices

vn -0.0000 0.0000 -1.0000
vn -1.0000 0.0000 0.0001
vn 0.0000 -0.0000 1.0000
vn 1.0000 -0.0000 -0.0001
vn 0.0000 1.0000 0.0000
vn -0.0000 -1.0000 -0.0000
# 6 vertex normals

vt 0.7933 0.2233 0.0000
vt 0.7933 0.2875 0.0000
vt 0.6326 0.2875 0.0000
vt 0.6326 0.2233 0.0000
vt 0.4603 0.7713 0.0000
vt 0.4047 0.7713 0.0000
vt 0.4047 0.7070 0.0000
vt 0.4603 0.7070 0.0000
vt 0.9980 0.4279 0.0000
vt 0.9980 0.4922 0.0000
vt 0.8372 0.4922 0.0000
vt 0.8372 0.4279 0.0000
vt 0.4651 0.7489 0.0000
vt 0.5207 0.7489 0.0000
vt 0.5207 0.8131 0.0000
vt 0.4651 0.8131 0.0000
vt 0.1114 0.6305 0.0000
vt 0.0558 0.6305 0.0000
vt 0.0558 0.4698 0.0000
vt 0.1114 0.4698 0.0000
vt 0.0041 0.8321 0.0000
vt 0.0597 0.8317 0.0000
vt 0.0608 0.9924 0.0000
vt 0.0052 0.9928 0.0000
# 24 texture coords

g SM_Red_Brick_02
s 2
f 1/1/1 2/2/1 3/3/1 
f 3/3/1 4/4/1 1/1/1 
s 4
f 5/5/2 4/6/2 3/7/2 
f 3/7/2 6/8/2 5/5/2 
s 2
f 5/9/3 6/10/3 7/11/3 
f 7/11/3 8/12/3 5/9/3 
s 4
f 1/13/4 8/14/4 7/15/4 
f 7/15/4 2/16/4 1/13/4 
s off
f 8/17/5 1/18/5 4/19/5 
f 4/19/5 5/20/5 8/17/5 
f 2/21/6 7/22/6 6/23/6 
f 6/23/6 3/24/6 2/21/6 
# 12 faces

