# 3ds Max Wavefront OBJ Exporter v0.97b - (c)2007 guruware
# File Created: 24.01.2019 02:08:05

#
# object SM_Window_Lock
#

v  0.7647 -1.9646 0.5793
v  1.8924 -1.0929 0.5793
v  0.0437 -0.0003 0.5792
v  0.7647 1.9640 0.5793
v  -0.7647 1.9640 0.5793
v  -1.8924 1.0923 0.5793
v  -1.8924 -1.0929 0.5793
v  -0.7647 -1.9646 0.5793
v  -0.7647 -1.9646 -0.5791
v  -0.4201 -0.9553 -0.5791
v  0.4201 -0.9553 -0.5791
v  0.7647 -1.9646 -0.5791
v  -1.8924 -1.0929 -0.5791
v  -0.8831 -0.5974 -0.5791
v  -1.8924 1.0923 -0.5791
v  -0.8831 0.5968 -0.5791
v  -0.7647 1.9640 -0.5791
v  -0.4201 0.9547 -0.5791
v  0.7647 1.9640 -0.5791
v  0.4201 0.9547 -0.5791
v  1.8924 1.0923 -0.5791
v  0.8831 0.5968 -0.5791
v  6.3260 1.0923 0.5793
v  6.3260 -1.0927 0.5793
v  6.3260 -1.0927 -0.5796
v  6.3260 1.0923 -0.5796
v  1.8924 1.0923 0.5793
v  1.8924 -1.0929 -0.5791
v  0.8831 -0.5974 -0.5791
v  0.4201 -0.9553 -2.1408
v  0.8831 -0.5974 -2.1408
v  -0.4201 -0.9553 -2.1408
v  -0.8831 -0.5974 -2.1408
v  -0.8831 0.5968 -2.1408
v  -0.4201 0.9547 -2.1408
v  0.4201 0.9547 -2.1408
v  0.8831 0.5968 -2.1408
# 37 vertices

vn -0.0000 0.0000 1.0000
vn -0.0000 -0.0000 1.0000
vn 0.0000 -0.0000 1.0000
vn 0.0000 0.0000 1.0000
vn 0.0000 -0.0000 -1.0000
vn 1.0000 0.0000 0.0000
vn 0.3231 -0.9464 0.0000
vn 0.6116 -0.7912 0.0000
vn -0.3231 -0.9464 0.0000
vn -0.6116 -0.7912 0.0000
vn -1.0000 0.0000 0.0000
vn -0.3231 0.9464 -0.0000
vn -0.6116 0.7912 -0.0000
vn 0.3231 0.9464 -0.0000
vn 0.6116 0.7912 -0.0000
vn -0.0001 -0.0000 -1.0000
vn -0.0000 1.0000 -0.0000
vn 0.0000 -1.0000 0.0000
vn 0.3231 -0.9463 0.0000
# 19 vertex normals

vt 0.7555 0.7174 0.0000
vt 0.7674 0.7266 0.0000
vt 0.7479 0.7381 0.0000
vt 0.7555 0.7587 0.0000
vt 0.7394 0.7587 0.0000
vt 0.7276 0.7495 0.0000
vt 0.7276 0.7266 0.0000
vt 0.7394 0.7174 0.0000
vt 0.8820 0.5959 0.0000
vt 0.8856 0.5853 0.0000
vt 0.8944 0.5852 0.0000
vt 0.8981 0.5958 0.0000
vt 0.8702 0.5867 0.0000
vt 0.8807 0.5815 0.0000
vt 0.8701 0.5638 0.0000
vt 0.8807 0.5690 0.0000
vt 0.8819 0.5546 0.0000
vt 0.8856 0.5652 0.0000
vt 0.8980 0.5546 0.0000
vt 0.8944 0.5652 0.0000
vt 0.9099 0.5637 0.0000
vt 0.8993 0.5689 0.0000
vt 0.9719 0.5389 0.0000
vt 0.9719 0.5291 0.0000
vt 0.9770 0.5291 0.0000
vt 0.9770 0.5389 0.0000
vt 0.7674 0.7495 0.0000
vt 0.9099 0.5866 0.0000
vt 0.8993 0.5815 0.0000
vt 0.9782 0.4222 0.0000
vt 0.9808 0.4222 0.0000
vt 0.9808 0.4292 0.0000
vt 0.9782 0.4292 0.0000
vt 0.9745 0.4222 0.0000
vt 0.9745 0.4292 0.0000
vt 0.9719 0.4222 0.0000
vt 0.9719 0.4292 0.0000
vt 0.9788 0.4477 0.0000
vt 0.9788 0.4530 0.0000
vt 0.9719 0.4530 0.0000
vt 0.9719 0.4477 0.0000
vt 0.9745 0.4038 0.0000
vt 0.9719 0.4038 0.0000
vt 0.9719 0.3968 0.0000
vt 0.9745 0.3968 0.0000
vt 0.9782 0.4038 0.0000
vt 0.9782 0.3968 0.0000
vt 0.9808 0.4038 0.0000
vt 0.9808 0.3968 0.0000
vt 0.9788 0.4731 0.0000
vt 0.9788 0.4785 0.0000
vt 0.9719 0.4785 0.0000
vt 0.9719 0.4731 0.0000
vt 0.8139 0.7495 0.0000
vt 0.8139 0.7266 0.0000
vt 0.9564 0.5636 0.0000
vt 0.9565 0.5865 0.0000
vt 0.1934 0.9891 0.0000
vt 0.1934 0.9770 0.0000
vt 0.2400 0.9770 0.0000
vt 0.2400 0.9891 0.0000
vt 0.8456 0.6156 0.0000
vt 0.8456 0.6278 0.0000
vt 0.7991 0.6278 0.0000
vt 0.7991 0.6156 0.0000
vt 0.7841 0.6156 0.0000
vt 0.7841 0.6278 0.0000
vt 0.7680 0.6156 0.0000
vt 0.7680 0.6278 0.0000
vt 0.7530 0.6156 0.0000
vt 0.7530 0.6278 0.0000
vt 0.9719 0.6284 0.0000
vt 0.9719 0.6054 0.0000
vt 0.9840 0.6054 0.0000
vt 0.9840 0.6284 0.0000
vt 0.1624 0.9891 0.0000
vt 0.1474 0.9891 0.0000
vt 0.1474 0.9770 0.0000
vt 0.1624 0.9770 0.0000
vt 0.1785 0.9891 0.0000
vt 0.1785 0.9770 0.0000
# 81 texture coords

g SM_Window_Lock
s 4
f 1/1/1 2/2/1 3/3/1 
f 4/4/2 5/5/3 3/3/1 
f 5/5/3 6/6/3 3/3/1 
f 6/6/3 7/7/4 3/3/1 
f 7/7/4 8/8/4 3/3/1 
f 8/8/4 1/1/1 3/3/1 
f 9/9/5 10/10/5 11/11/5 
f 11/11/5 12/12/5 9/9/5 
f 9/9/5 13/13/5 14/14/5 
f 14/14/5 10/10/5 9/9/5 
f 15/15/5 16/16/5 14/14/5 
f 14/14/5 13/13/5 15/15/5 
f 17/17/5 18/18/5 16/16/5 
f 16/16/5 15/15/5 17/17/5 
f 19/19/5 20/20/5 18/18/5 
f 18/18/5 17/17/5 19/19/5 
f 21/21/5 22/22/5 20/20/5 
f 20/20/5 19/19/5 21/21/5 
s 1
f 23/23/6 24/24/6 25/25/6 
f 25/25/6 26/26/6 23/23/6 
s 4
f 2/2/1 27/27/2 3/3/1 
f 28/28/5 29/29/5 22/22/5 
f 22/22/5 21/21/5 28/28/5 
f 27/27/2 4/4/2 3/3/1 
f 28/28/5 12/12/5 11/11/5 
f 11/11/5 29/29/5 28/28/5 
s 1
f 30/30/7 31/31/8 29/32/8 
f 29/32/8 11/33/7 30/30/7 
f 32/34/9 30/30/7 11/33/7 
f 11/33/7 10/35/9 32/34/9 
f 33/36/10 32/34/9 10/35/9 
f 10/35/9 14/37/10 33/36/10 
s 8
f 34/38/11 33/39/11 14/40/11 
f 14/40/11 16/41/11 34/38/11 
s 1
f 35/42/12 34/43/13 16/44/13 
f 16/44/13 18/45/12 35/42/12 
f 36/46/14 35/42/12 18/45/12 
f 18/45/12 20/47/14 36/46/14 
f 37/48/15 36/46/14 20/47/14 
f 20/47/14 22/49/15 37/48/15 
s 2
f 31/50/6 37/51/6 22/52/6 
f 22/52/6 29/53/6 31/50/6 
s off
f 23/54/4 27/27/4 2/2/4 
f 2/2/4 24/55/4 23/54/4 
f 21/21/16 26/56/16 25/57/16 
f 25/57/16 28/28/16 21/21/16 
s 2
f 21/58/14 27/59/14 23/60/17 
f 23/60/17 26/61/17 21/58/14 
f 25/62/18 24/63/18 2/64/19 
f 2/64/19 28/65/7 25/62/18 
f 12/66/7 28/65/7 2/64/19 
f 2/64/19 1/67/7 12/66/7 
f 9/68/9 12/66/7 1/67/7 
f 1/67/7 8/69/9 9/68/9 
f 13/70/10 9/68/9 8/69/9 
f 8/69/9 7/71/10 13/70/10 
s off
f 15/72/11 13/73/11 7/74/11 
f 7/74/11 6/75/11 15/72/11 
s 2
f 17/76/12 15/77/13 6/78/13 
f 6/78/13 5/79/12 17/76/12 
f 19/80/14 17/76/12 5/79/12 
f 5/79/12 4/81/14 19/80/14 
f 21/58/14 19/80/14 4/81/14 
f 4/81/14 27/59/14 21/58/14 
# 64 faces

