# 3ds Max Wavefront OBJ Exporter v0.97b - (c)2007 guruware
# File Created: 06.02.2019 14:31:11

#
# object Object2257
#

v  -87.8246 -47.8564 43.3382
v  -87.8227 45.2499 43.3367
v  -87.8229 45.2499 31.4928
v  -87.8246 -47.8565 31.4928
v  -73.6822 -47.8565 31.4915
v  -73.6805 45.2499 31.4914
v  -73.6804 45.2499 43.3360
v  -73.6822 -47.8565 43.3375
v  87.3823 -47.8564 31.4914
v  87.3803 45.2499 31.4928
v  87.3805 45.2499 43.3367
v  87.3822 -47.8565 43.3367
v  73.2398 -47.8565 43.3381
v  73.2381 45.2499 43.3382
v  73.2380 45.2499 31.4936
v  73.2398 -47.8565 31.4921
v  79.3892 5.7688 32.8610
v  -79.3286 5.7669 32.8620
v  -79.3286 5.7671 41.4077
v  79.3892 5.7688 41.4078
v  79.3893 -8.3736 41.4088
v  -79.3286 -8.3754 41.4088
v  -79.3286 -8.3754 32.8625
v  79.3892 -8.3736 32.8615
v  -73.6804 -47.8564 -43.0472
v  -73.6823 45.2499 -43.0457
v  -73.6821 45.2499 -31.2018
v  -73.6804 -47.8565 -31.2018
v  -87.8228 -47.8565 -31.2005
v  -87.8246 45.2499 -31.2004
v  -87.8246 45.2499 -43.0450
v  -87.8228 -47.8565 -43.0465
v  79.3891 -8.3754 -32.2623
v  -79.3287 -8.3735 -32.2633
v  -79.3287 -8.3737 -40.8091
v  79.3892 -8.3754 -40.8091
v  79.3893 5.7670 -40.8101
v  -79.3286 5.7687 -40.8101
v  -79.3286 5.7688 -32.2639
v  79.3892 5.7670 -32.2628
v  -85.2092 -25.2520 39.7485
v  -85.2079 -25.2535 -41.6712
v  -85.2080 -37.0974 -41.6712
v  -85.2091 -37.0974 39.7485
v  -76.2970 -37.0987 39.7486
v  -76.2959 -37.0988 -41.6712
v  -76.2958 -25.2542 -41.6712
v  -76.2970 -25.2527 39.7485
v  104.1546 47.7970 22.8236
v  -102.7983 47.7967 22.8263
v  -102.7983 47.7967 45.3761
v  104.1547 47.7970 45.3761
v  104.1548 45.2502 45.3787
v  -102.7982 45.2499 45.3788
v  -102.7982 45.2499 22.8277
v  104.1547 45.2503 22.8250
v  104.7165 45.2479 0.0575
v  -102.2364 45.2511 0.0603
v  -102.2364 47.7955 0.0600
v  104.7166 47.7954 0.0575
v  104.7166 47.7985 22.6111
v  -102.2363 47.7987 22.6136
v  -102.2363 45.2527 22.6137
v  104.7166 45.2494 22.6111
v  -102.7980 47.7991 -22.8237
v  104.1548 47.7959 -22.8208
v  104.1548 45.2515 -22.8211
v  -102.7981 45.2515 -22.8236
v  -102.7982 45.2485 -0.2700
v  104.1547 45.2483 -0.2675
v  104.1547 47.7943 -0.2674
v  -102.7981 47.7975 -0.2701
v  -104.7165 45.2499 -45.3790
v  102.2364 45.2503 -45.3762
v  102.2364 45.2503 -22.8264
v  -104.7166 45.2499 -22.8265
v  -104.7166 47.7967 -22.8239
v  102.2363 47.7970 -22.8237
v  102.2363 47.7971 -45.3749
v  -104.7166 47.7967 -45.3776
v  57.0480 47.7984 -28.3392
v  55.5197 47.7984 -33.1895
v  54.8937 47.7984 -30.4409
v  54.9794 47.7984 -29.6889
v  53.9388 47.7984 -30.9177
v  60.3752 47.7984 -32.2640
v  58.1127 47.7984 -34.7040
v  55.6541 47.7984 -34.1035
v  59.9389 47.7984 -30.6356
v  61.5216 47.7984 -9.5148
v  56.6713 47.7984 -7.9865
v  59.4199 47.7984 -7.3604
v  60.1719 47.7984 -7.4462
v  58.9431 47.7985 -6.4056
v  57.5968 47.7984 -12.8420
v  55.1568 47.7984 -10.5795
v  55.7574 47.7984 -8.1209
v  59.2252 47.7984 -12.4057
v  65.3115 42.7032 -43.6504
v  65.3094 42.7035 44.3051
v  48.5095 42.7035 44.3051
v  48.5096 42.7032 -43.6505
v  48.5076 45.2500 -43.6505
v  48.5075 45.2503 44.3050
v  65.3084 45.2503 44.3050
v  65.3104 45.2499 -43.6505
v  54.7867 47.7984 12.7641
v  56.5161 47.7984 8.5910
v  54.5208 47.7984 10.1039
v  54.1497 47.7984 10.6646
v  54.1433 47.7984 9.2343
v  59.2917 47.7984 11.9932
v  59.1453 47.7984 9.0410
v  57.1295 47.7984 8.0459
v  58.0650 47.7984 12.8521
v  75.6386 22.2598 -41.6711
v  75.6398 22.2613 39.7486
v  75.6397 34.1052 39.7486
v  75.6387 34.1052 -41.6711
v  84.5508 34.1065 -41.6712
v  84.5519 34.1066 39.7486
v  84.5519 22.2620 39.7486
v  84.5508 22.2605 -41.6711
v  73.2380 -47.8564 -31.2004
v  73.2399 45.2499 -31.2018
v  73.2397 45.2499 -43.0457
v  73.2380 -47.8565 -43.0457
v  87.3804 -47.8565 -43.0471
v  87.3822 45.2499 -43.0472
v  87.3823 45.2499 -31.2025
v  87.3804 -47.8565 -31.2011
v  75.6386 -25.2520 39.7485
v  75.6398 -25.2535 -41.6712
v  75.6397 -37.0974 -41.6712
v  75.6386 -37.0974 39.7485
v  84.5508 -37.0987 39.7486
v  84.5519 -37.0988 -41.6712
v  84.5519 -25.2542 -41.6712
v  84.5508 -25.2527 39.7485
v  -85.2092 22.2598 -41.6711
v  -85.2080 22.2613 39.7486
v  -85.2081 34.1052 39.7486
v  -85.2091 34.1052 -41.6711
v  -76.2970 34.1065 -41.6712
v  -76.2959 34.1066 39.7486
v  -76.2959 22.2620 39.7486
v  -76.2970 22.2605 -41.6711
v  -47.9860 42.7032 -43.6504
v  -47.9881 42.7035 44.3051
v  -64.7879 42.7035 44.3051
v  -64.7879 42.7032 -43.6505
v  -64.7899 45.2500 -43.6505
v  -64.7900 45.2503 44.3050
v  -47.9891 45.2503 44.3050
v  -47.9870 45.2499 -43.6505
v  -55.7007 47.7984 29.9830
v  -54.1724 47.7984 34.8333
v  -53.5463 47.7984 32.0847
v  -53.6320 47.7984 31.3327
v  -52.5915 47.7985 32.5615
v  -59.0279 47.7984 33.9078
v  -56.7654 47.7984 36.3478
v  -54.3068 47.7984 35.7473
v  -58.5916 47.7984 32.2794
v  -60.1742 47.7984 11.1586
v  -55.3240 47.7984 9.6303
v  -58.0726 47.7984 9.0043
v  -58.8246 47.7984 9.0900
v  -57.5958 47.7985 8.0495
v  -56.2495 47.7984 14.4858
v  -53.8095 47.7984 12.2233
v  -54.4100 47.7984 9.7648
v  -57.8779 47.7984 14.0495
v  -53.4394 47.8565 -11.1205
v  -55.1688 47.8565 -6.9475
v  -53.1734 47.8565 -8.4604
v  -52.8024 47.8565 -9.0210
v  -52.7960 47.8565 -7.5908
v  -57.9444 47.8565 -10.3497
v  -57.7980 47.8565 -7.3975
v  -55.7822 47.8565 -6.4024
v  -56.7177 47.8565 -11.2086
v  -52.9475 47.7984 -32.9105
v  -57.2370 47.7984 -30.1790
v  -54.4200 47.7984 -30.2857
v  -53.7158 47.7984 -30.5631
v  -54.6334 47.7984 -29.2400
v  -57.5997 47.7984 -35.1086
v  -59.3710 47.7984 -32.2917
v  -58.1546 47.7984 -30.0723
v  -55.9138 47.7984 -35.1086
v  -0.3316 47.8318 30.5432
v  -6.8792 47.8317 30.9089
v  -0.4178 47.8319 32.1026
v  22.0329 47.8323 35.5556
v  36.9500 47.8324 35.0959
v  34.1463 47.8324 33.6663
v  24.1356 47.8322 33.2518
v  91.6083 47.8318 -35.2182
v  98.1558 47.8317 -35.5839
v  91.6945 47.8318 -36.7776
v  69.2438 47.8323 -40.2306
v  54.3267 47.8324 -39.7709
v  57.1304 47.8324 -38.3412
v  67.1411 47.8322 -37.9268
v  54.2949 47.7984 34.5541
v  58.5843 47.7984 31.8225
v  55.7673 47.7984 31.9292
v  55.0631 47.7984 32.2066
v  55.9807 47.7985 30.8835
v  58.9470 47.7984 36.7521
v  60.7183 47.7984 33.9352
v  59.5019 47.7984 31.7158
v  57.2612 47.7984 36.7521
# 214 vertices

vn -1.0000 0.0000 -0.0000
vn -1.0000 0.0000 0.0000
vn 1.0000 -0.0000 0.0000
vn 1.0000 -0.0000 -0.0000
vn -0.0000 -1.0000 0.0000
vn -0.0001 -0.0000 -1.0000
vn 0.0001 0.0000 1.0000
vn 0.0000 1.0000 -0.0000
vn 1.0000 0.0000 0.0000
vn 1.0000 0.0000 -0.0000
vn -1.0000 -0.0000 -0.0000
vn -1.0000 -0.0000 0.0000
vn 0.0000 -1.0000 -0.0000
vn 0.0001 -0.0000 1.0000
vn -0.0001 0.0000 -1.0000
vn -0.0000 1.0000 -0.0000
vn -0.0000 1.0000 0.0000
vn 0.0000 -1.0000 0.0000
vn 0.0000 0.0001 1.0000
vn -0.0000 0.0001 1.0000
vn -0.0000 -0.0000 -1.0000
vn -0.0000 -1.0000 -0.0000
vn 0.0000 1.0000 0.0000
vn 0.0000 -0.0001 -1.0000
vn -0.0000 -0.0001 -1.0000
vn -0.0000 0.0000 1.0000
vn -0.0002 -1.0000 0.0000
vn 0.0001 1.0000 -0.0000
vn 0.0000 -0.0000 -1.0000
vn 0.0000 0.0011 1.0000
vn -0.0000 0.0010 1.0000
vn -0.0000 -0.0005 -1.0000
vn -0.0000 0.0000 -1.0000
vn 0.0000 -0.0000 1.0000
vn 0.0000 0.0000 1.0000
vn 0.0000 1.0000 -0.0001
vn -0.0000 -1.0000 0.0001
vn 0.0000 0.0001 -1.0000
vn -0.0000 -0.0000 1.0000
vn -0.0000 -1.0000 -0.0001
vn 0.0000 -1.0000 -0.0001
vn 0.0000 1.0000 0.0001
vn -0.0000 -0.0011 1.0000
vn -0.0000 -0.0010 1.0000
vn 0.0000 0.0005 -1.0000
vn -1.0000 -0.0008 -0.0000
vn 1.0000 0.0004 0.0000
vn -0.0002 1.0000 -0.0000
vn 0.0001 -1.0000 0.0000
vn -1.0000 -0.0008 0.0000
vn -0.0000 1.0000 -0.0001
vn -0.0000 1.0000 0.0001
# 52 vertex normals

vt 0.5882 0.9013 0.0000
vt 0.2238 0.9013 0.0000
vt 0.2238 0.8782 0.0000
vt 0.5882 0.8782 0.0000
vt 0.4705 0.5576 0.0000
vt 0.1061 0.5576 0.0000
vt 0.1061 0.5345 0.0000
vt 0.4705 0.5345 0.0000
vt 0.4639 0.5675 0.0000
vt 0.5146 0.5675 0.0000
vt 0.5146 0.5906 0.0000
vt 0.4639 0.5906 0.0000
vt 0.8029 0.0025 0.0000
vt 0.8536 0.0025 0.0000
vt 0.8536 0.3669 0.0000
vt 0.8029 0.3669 0.0000
vt 0.6071 0.9112 0.0000
vt 0.6071 0.9619 0.0000
vt 0.2426 0.9619 0.0000
vt 0.2426 0.9112 0.0000
vt 0.7699 0.7511 0.0000
vt 0.7930 0.7511 0.0000
vt 0.7930 0.8018 0.0000
vt 0.7699 0.8018 0.0000
vt 0.8419 0.8644 0.0000
vt 0.8503 0.8697 0.0000
vt 0.8448 0.8695 0.0000
vt 0.8434 0.8689 0.0000
vt 0.8452 0.8715 0.0000
vt 0.8510 0.8600 0.0000
vt 0.8545 0.8655 0.0000
vt 0.8521 0.8699 0.0000
vt 0.8477 0.8600 0.0000
vt 0.4587 0.9469 0.0000
vt 0.4472 0.9461 0.0000
vt 0.4586 0.9434 0.0000
vt 0.4981 0.9356 0.0000
vt 0.5244 0.9367 0.0000
vt 0.5194 0.9399 0.0000
vt 0.5018 0.9408 0.0000
# 40 texture coords

g Object2257
s 1
f 1/1/1 2/2/2 3/3/2 
f 3/3/2 4/4/1 1/1/1 
f 5/5/3 6/6/4 7/7/4 
f 7/7/4 8/8/3 5/5/3 
s 2
f 4/9/5 5/10/5 8/11/5 
f 8/11/5 1/12/5 4/9/5 
s 4
f 3/13/6 6/14/6 5/15/6 
f 5/15/6 4/16/6 3/13/6 
f 1/17/7 8/18/7 7/19/7 
f 7/19/7 2/20/7 1/17/7 
s 2
f 7/21/8 6/22/8 3/23/8 
f 3/23/8 2/24/8 7/21/8 
s 1
f 9/1/9 10/2/10 11/3/10 
f 11/3/10 12/4/9 9/1/9 
f 13/5/11 14/6/12 15/7/12 
f 15/7/12 16/8/11 13/5/11 
s 2
f 12/9/13 13/10/13 16/11/13 
f 16/11/13 9/12/13 12/9/13 
s 4
f 11/13/14 14/14/14 13/15/14 
f 13/15/14 12/16/7 11/13/14 
f 9/17/15 16/18/15 15/19/15 
f 15/19/15 10/20/15 9/17/15 
s 2
f 15/21/16 14/22/16 11/23/16 
f 11/23/16 10/24/16 15/21/16 
s 1
f 17/1/17 18/2/16 19/3/16 
f 19/3/16 20/4/17 17/1/17 
f 21/5/13 22/6/18 23/7/18 
f 23/7/18 24/8/13 21/5/13 
s 2
f 20/9/10 21/10/10 24/11/10 
f 24/11/10 17/12/10 20/9/10 
s 4
f 19/13/19 22/14/19 21/15/20 
f 21/15/20 20/16/20 19/13/19 
f 17/17/21 24/18/21 23/19/21 
f 23/19/21 18/20/21 17/17/21 
s 2
f 23/21/12 22/22/12 19/23/12 
f 19/23/12 18/24/12 23/21/12 
s 1
f 25/1/9 26/2/10 27/3/10 
f 27/3/10 28/4/9 25/1/9 
f 29/5/11 30/6/12 31/7/12 
f 31/7/12 32/8/11 29/5/11 
s 2
f 28/9/13 29/10/13 32/11/13 
f 32/11/13 25/12/13 28/9/13 
s 4
f 27/13/14 30/14/14 29/15/14 
f 29/15/14 28/16/7 27/13/14 
f 25/17/15 32/18/15 31/19/15 
f 31/19/15 26/20/15 25/17/15 
s 2
f 31/21/16 30/22/16 27/23/16 
f 27/23/16 26/24/16 31/21/16 
s 1
f 33/1/22 34/2/5 35/3/5 
f 35/3/5 36/4/22 33/1/22 
f 37/5/23 38/6/8 39/7/8 
f 39/7/8 40/8/23 37/5/23 
s 2
f 36/9/3 37/10/3 40/11/3 
f 40/11/3 33/12/3 36/9/3 
s 4
f 35/13/24 38/14/24 37/15/25 
f 37/15/25 36/16/25 35/13/24 
f 33/17/26 40/18/26 39/19/26 
f 39/19/26 34/20/26 33/17/26 
s 2
f 39/21/1 38/22/1 35/23/1 
f 35/23/1 34/24/1 39/21/1 
s 1
f 41/1/11 42/2/1 43/3/1 
f 43/3/1 44/4/11 41/1/11 
f 45/5/9 46/6/3 47/7/3 
f 47/7/3 48/8/9 45/5/9 
s 2
f 44/9/26 45/10/26 48/11/26 
f 48/11/26 41/12/26 44/9/26 
s 4
f 43/13/27 46/14/27 45/15/27 
f 45/15/27 44/16/27 43/13/27 
f 41/17/28 48/18/28 47/19/28 
f 47/19/28 42/20/28 41/17/28 
s 2
f 47/21/29 46/22/29 43/23/29 
f 43/23/29 42/24/29 47/21/29 
s 1
f 49/1/16 50/2/16 51/3/16 
f 51/3/16 52/4/16 49/1/16 
f 53/5/13 54/6/18 55/7/18 
f 55/7/18 56/8/13 53/5/13 
s 2
f 52/9/10 53/10/10 56/11/10 
f 56/11/10 49/12/10 52/9/10 
s 4
f 51/13/30 54/14/30 53/15/31 
f 53/15/31 52/16/31 51/13/30 
f 49/17/32 56/18/32 55/19/32 
f 55/19/32 50/20/32 49/17/32 
s 2
f 55/21/12 54/22/12 51/23/12 
f 51/23/12 50/24/12 55/21/12 
s 1
f 57/1/33 58/2/25 59/3/25 
f 59/3/25 60/4/33 57/1/33 
f 61/5/34 62/6/35 63/7/35 
f 63/7/35 64/8/34 61/5/34 
s 2
f 60/9/4 61/10/4 64/11/4 
f 64/11/4 57/12/4 60/9/4 
s 4
f 59/13/36 62/14/36 61/15/36 
f 61/15/36 60/16/36 59/13/36 
f 57/17/37 64/18/37 63/19/37 
f 63/19/37 58/20/37 57/17/37 
s 2
f 63/21/2 62/22/2 59/23/2 
f 59/23/2 58/24/2 63/21/2 
s 1
f 65/1/29 66/2/38 67/3/38 
f 67/3/38 68/4/29 65/1/29 
f 69/5/26 70/6/39 71/7/39 
f 71/7/39 72/8/26 69/5/26 
s 2
f 68/9/1 69/10/1 72/11/1 
f 72/11/1 65/12/1 68/9/1 
s 4
f 67/13/40 70/14/40 69/15/40 
f 69/15/40 68/16/41 67/13/40 
f 65/17/42 72/18/42 71/19/42 
f 71/19/42 66/20/42 65/17/42 
s 2
f 71/21/3 70/22/3 67/23/3 
f 67/23/3 66/24/3 71/21/3 
s 1
f 73/1/18 74/2/13 75/3/13 
f 75/3/13 76/4/18 73/1/18 
f 77/5/17 78/6/17 79/7/17 
f 79/7/17 80/8/16 77/5/17 
s 2
f 76/9/11 77/10/11 80/11/11 
f 80/11/11 73/12/11 76/9/11 
s 4
f 75/13/43 78/14/43 77/15/44 
f 77/15/44 76/16/44 75/13/43 
f 73/17/45 80/18/45 79/19/45 
f 79/19/45 74/20/45 73/17/45 
s 2
f 79/21/9 78/22/9 75/23/9 
f 75/23/9 74/24/9 79/21/9 
s 1
f 81/25/8 82/26/8 83/27/8 
f 83/27/8 84/28/8 81/25/8 
f 82/26/8 85/29/8 83/27/8 
f 86/30/8 87/31/8 88/32/8 
f 88/32/8 89/33/8 86/30/8 
f 89/33/8 88/32/8 82/26/8 
f 82/26/8 81/25/8 89/33/8 
f 90/25/16 91/26/16 92/27/16 
f 92/27/16 93/28/16 90/25/16 
f 91/26/16 94/29/16 92/27/16 
f 95/30/16 96/31/16 97/32/16 
f 97/32/16 98/33/16 95/30/16 
f 98/33/16 97/32/16 91/26/16 
f 91/26/16 90/25/16 98/33/16 
f 99/1/18 100/2/18 101/3/18 
f 101/3/18 102/4/5 99/1/18 
f 103/5/8 104/6/16 105/7/16 
f 105/7/16 106/8/8 103/5/8 
s 2
f 102/9/29 103/10/29 106/11/29 
f 106/11/29 99/12/29 102/9/29 
s 4
f 101/13/46 104/14/46 103/15/46 
f 103/15/46 102/16/46 101/13/46 
f 99/17/47 106/18/47 105/19/47 
f 105/19/47 100/20/47 99/17/47 
s 2
f 105/21/26 104/22/26 101/23/26 
f 101/23/26 100/24/26 105/21/26 
s 1
f 107/25/23 108/26/8 109/27/23 
f 109/27/23 110/28/23 107/25/23 
f 108/26/8 111/29/23 109/27/23 
f 112/30/8 113/31/8 114/32/8 
f 114/32/8 115/33/8 112/30/8 
f 115/33/8 114/32/8 108/26/8 
f 108/26/8 107/25/23 115/33/8 
f 116/1/2 117/2/12 118/3/12 
f 118/3/12 119/4/2 116/1/2 
f 120/5/10 121/6/10 122/7/10 
f 122/7/10 123/8/4 120/5/10 
s 2
f 119/9/21 120/10/21 123/11/21 
f 123/11/21 116/12/21 119/9/21 
s 4
f 118/13/48 121/14/48 120/15/48 
f 120/15/48 119/16/48 118/13/48 
f 116/17/49 123/18/49 122/19/49 
f 122/19/49 117/20/49 116/17/49 
s 2
f 122/21/35 121/22/35 118/23/35 
f 118/23/35 117/24/35 122/21/35 
s 1
f 124/1/1 125/2/2 126/3/2 
f 126/3/2 127/4/1 124/1/1 
f 128/5/3 129/6/4 130/7/4 
f 130/7/4 131/8/3 128/5/3 
s 2
f 127/9/5 128/10/5 131/11/5 
f 131/11/5 124/12/5 127/9/5 
s 4
f 126/13/6 129/14/6 128/15/6 
f 128/15/6 127/16/6 126/13/6 
f 124/17/7 131/18/7 130/19/7 
f 130/19/7 125/20/7 124/17/7 
s 2
f 130/21/8 129/22/8 126/23/8 
f 126/23/8 125/24/8 130/21/8 
s 1
f 132/1/1 133/2/1 134/3/1 
f 134/3/1 135/4/11 132/1/1 
f 136/5/3 137/6/3 138/7/3 
f 138/7/3 139/8/9 136/5/3 
s 2
f 135/9/26 136/10/26 139/11/26 
f 139/11/26 132/12/26 135/9/26 
s 4
f 134/13/27 137/14/27 136/15/27 
f 136/15/27 135/16/27 134/13/27 
f 132/17/28 139/18/28 138/19/28 
f 138/19/28 133/20/28 132/17/28 
s 2
f 138/21/29 137/22/29 134/23/29 
f 134/23/29 133/24/29 138/21/29 
s 1
f 140/1/2 141/2/12 142/3/12 
f 142/3/12 143/4/2 140/1/2 
f 144/5/4 145/6/10 146/7/10 
f 146/7/10 147/8/4 144/5/4 
s 2
f 143/9/21 144/10/21 147/11/21 
f 147/11/21 140/12/21 143/9/21 
s 4
f 142/13/48 145/14/48 144/15/48 
f 144/15/48 143/16/48 142/13/48 
f 140/17/49 147/18/49 146/19/49 
f 146/19/49 141/20/49 140/17/49 
s 2
f 146/21/35 145/22/35 142/23/35 
f 142/23/35 141/24/35 146/21/35 
s 1
f 148/1/18 149/2/18 150/3/18 
f 150/3/18 151/4/5 148/1/18 
f 152/5/8 153/6/16 154/7/16 
f 154/7/16 155/8/8 152/5/8 
s 2
f 151/9/29 152/10/29 155/11/29 
f 155/11/29 148/12/29 151/9/29 
s 4
f 150/13/46 153/14/46 152/15/46 
f 152/15/46 151/16/50 150/13/46 
f 148/17/47 155/18/47 154/19/47 
f 154/19/47 149/20/47 148/17/47 
s 2
f 154/21/26 153/22/26 150/23/26 
f 150/23/26 149/24/26 154/21/26 
s 1
f 156/25/17 157/26/17 158/27/17 
f 158/27/17 159/28/17 156/25/17 
f 157/26/17 160/29/17 158/27/17 
f 161/30/17 162/31/17 163/32/17 
f 163/32/17 164/33/17 161/30/17 
f 164/33/17 163/32/17 157/26/17 
f 157/26/17 156/25/17 164/33/17 
f 165/25/23 166/26/23 167/27/23 
f 167/27/23 168/28/23 165/25/23 
f 166/26/23 169/29/23 167/27/23 
f 170/30/23 171/31/23 172/32/23 
f 172/32/23 173/33/23 170/30/23 
f 173/33/23 172/32/23 166/26/23 
f 166/26/23 165/25/23 173/33/23 
f 174/25/16 175/26/17 176/27/16 
f 176/27/16 177/28/8 174/25/16 
f 175/26/17 178/29/16 176/27/16 
f 179/30/16 180/31/17 181/32/17 
f 181/32/17 182/33/16 179/30/16 
f 182/33/16 181/32/17 175/26/17 
f 175/26/17 174/25/16 182/33/16 
f 183/25/16 184/26/16 185/27/16 
f 185/27/16 186/28/16 183/25/16 
f 184/26/16 187/29/16 185/27/16 
f 188/30/16 189/31/16 190/32/16 
f 190/32/16 191/33/16 188/30/16 
f 191/33/16 190/32/16 184/26/16 
f 184/26/16 183/25/16 191/33/16 
f 192/34/16 193/35/16 194/36/51 
f 194/36/51 195/37/51 196/38/17 
f 192/34/16 194/36/51 196/38/17 
f 196/38/17 197/39/52 198/40/16 
f 192/34/16 196/38/17 198/40/16 
f 199/34/23 200/35/23 201/36/42 
f 201/36/42 202/37/42 203/38/8 
f 199/34/23 201/36/42 203/38/8 
f 203/38/8 204/39/36 205/40/23 
f 199/34/23 203/38/8 205/40/23 
f 206/25/23 207/26/23 208/27/23 
f 208/27/23 209/28/23 206/25/23 
f 207/26/23 210/29/23 208/27/23 
f 211/30/23 212/31/23 213/32/23 
f 213/32/23 214/33/23 211/30/23 
f 214/33/23 213/32/23 207/26/23 
f 207/26/23 206/25/23 214/33/23 
# 258 faces

