# 3ds Max Wavefront OBJ Exporter v0.97b - (c)2007 guruware
# File Created: 28.12.2018 03:25:05

mtllib SM_Ceiling_01_02.mtl

#
# object SM_Ceiling_01_02
#

v  149.9976 2.9677 -150.4788
v  -150.0015 2.9669 -150.4788
v  -40.9616 2.9659 -18.7045
v  52.6830 2.9654 132.6617
v  116.8847 2.9654 131.4836
v  -12.1013 2.9659 -3.3908
v  -81.0098 2.9656 67.2852
v  -63.3436 2.9658 7.8000
v  -150.0012 2.9656 86.1335
v  67.4045 2.9653 144.4423
v  149.9995 2.9653 149.5210
v  149.9983 -2.0325 -150.4789
v  -40.9609 -2.0342 -18.7046
v  -150.0007 -2.0335 -150.4789
v  52.6836 -2.0348 132.6616
v  -12.1007 -2.0342 -3.3908
v  116.8852 -2.0348 131.4836
v  -81.0090 -2.0345 67.2852
v  -150.0012 -2.0348 86.1335
v  -63.3429 -2.0343 7.8000
v  67.4051 -2.0348 144.4422
v  150.0000 -2.0348 149.5210
v  -149.9987 -2.0343 86.6930
v  -150.0002 2.9656 86.6932
# 24 vertices

vn -0.0000 1.0000 0.0000
vn 0.0000 1.0000 0.0000
vn 0.0000 -1.0000 -0.0000
vn -0.0000 -1.0000 -0.0000
vn 0.9586 0.0001 0.2847
vn -1.0000 -0.0003 0.0000
vn -1.0000 -0.0001 0.0000
vn -0.0000 0.0000 -1.0000
vn 1.0000 0.0001 -0.0000
vn 0.2708 0.0000 0.9626
vn 0.2708 0.0001 0.9626
vn -0.6248 -0.0001 0.7808
vn -0.4687 -0.0001 0.8833
vn 0.2534 0.0000 0.9674
vn -0.4783 -0.0001 0.8782
vn -0.9029 -0.0001 0.4299
vn 0.7640 0.0001 0.6452
# 17 vertex normals

vt 0.9390 0.9389 -0.8445
vt 0.0070 0.9389 0.8445
vt 0.3458 0.5295 -0.5113
vt 0.6367 0.0593 0.2755
vt 0.8361 0.0629 0.5816
vt 0.4354 0.4820 -0.7600
vt 0.2213 0.2624 -0.5593
vt 0.2762 0.4472 -0.5345
vt 0.0070 0.2038 -0.4876
vt 0.6824 0.0227 0.3731
vt 0.9390 0.0069 0.8445
vt 0.9732 0.9862 -0.0000
vt 0.9731 0.8114 -0.0000
vt 0.9893 0.8114 -0.0000
vt 0.9894 0.9862 -0.0000
vt 0.9887 0.0166 0.0000
vt 0.9887 0.7831 -0.0000
vt 0.9726 0.7831 0.0000
vt 0.9726 0.0166 -0.0000
vt 0.9726 0.9862 0.5000
vt 0.9726 0.0166 -0.5000
vt 0.9887 0.0166 0.5000
vt 0.9887 0.9862 -0.5000
vt 0.9726 0.9862 -0.5000
vt 0.9726 0.0166 0.5000
vt 0.9887 0.0166 -0.5000
vt 0.9887 0.9862 0.5000
vt 0.9888 0.9862 -0.0000
vt 0.9726 0.9862 0.0000
vt 0.9728 0.3338 0.0000
vt 0.9890 0.3338 -0.0000
vt 0.9890 0.3809 -0.0000
vt 0.9728 0.3809 0.0000
vt 0.9730 0.6495 -0.0000
vt 0.9892 0.6495 -0.0000
vt 0.9892 0.7019 -0.0000
vt 0.9730 0.7019 -0.0000
vt 0.9727 0.1557 0.0000
vt 0.9888 0.1556 -0.0000
vt 0.9726 0.0166 0.0000
vt 0.9887 0.0166 -0.0000
# 41 texture coords

g SM_Ceiling_01_02
usemtl _BFR_ST_01default
s 1
f 1/1/1 2/2/1 3/3/1 
f 4/4/1 5/5/1 6/6/1 
f 7/7/2 8/8/2 9/9/2 
f 8/8/2 2/2/1 9/9/2 
f 5/5/1 1/1/1 6/6/1 
f 3/3/1 6/6/1 1/1/1 
f 8/8/2 3/3/1 2/2/1 
f 4/4/1 10/10/1 5/5/1 
f 5/5/1 11/11/1 1/1/1 
f 12/1/3 13/3/3 14/2/3 
f 15/4/3 16/6/3 17/5/3 
f 18/7/3 19/9/3 20/8/4 
f 20/8/4 19/9/3 14/2/3 
f 17/5/3 16/6/3 12/1/3 
f 13/3/3 12/1/3 16/6/3 
f 20/8/4 14/2/3 13/3/3 
f 15/4/3 17/5/3 21/10/3 
f 17/5/3 12/1/3 22/11/3 
s off
f 18/12/5 20/13/5 8/14/5 
f 8/14/5 7/15/5 18/12/5 
f 14/16/6 23/17/6 24/18/6 
f 24/18/7 2/19/7 14/16/7 
f 12/20/8 14/21/8 2/22/8 
f 2/22/8 1/23/8 12/20/8 
f 22/24/9 12/25/9 1/26/9 
f 1/26/9 11/27/9 22/24/9 
f 18/28/10 7/29/10 24/18/10 
f 24/18/11 23/17/11 18/28/11 
f 21/30/12 10/31/12 4/32/12 
f 4/32/12 15/33/12 21/30/12 
f 16/34/13 6/35/13 3/36/13 
f 3/36/13 13/37/13 16/34/13 
f 17/38/14 5/39/14 10/31/14 
f 10/31/14 21/30/14 17/38/14 
f 22/40/15 11/41/15 5/39/15 
f 5/39/15 17/38/15 22/40/15 
f 15/33/16 4/32/16 6/35/16 
f 6/35/16 16/34/16 15/33/16 
f 13/37/17 3/36/17 8/14/17 
f 8/14/17 20/13/17 13/37/17 
# 40 faces

